<svg version="1.1" xmlns="http://www.w3.org/2000/svg" xmlns:xlink="http://www.w3.org/1999/xlink" width="2003" height="2331"><defs/><g><g/><g/><g/><g/><g/><g/><g/><g/><g/><g/><g/><g/><g/><g/><g/><g/><g/><g/><g/><g/><g/><g/><g/><g/><g/><g/><g/><g/><g/><g/><g/><g/><g/><g/><g/><g/><g/><g><rect fill="white" stroke="none" x="0" y="0" width="2003" height="2331"/></g><g><text fill="black" stroke="none" font-family="sans-serif" font-size="16.5pt" font-style="normal" font-weight="normal" text-decoration="normal" x="958.114388498502" y="26.3876361" text-anchor="start" dominant-baseline="alphabetic" xml:space="preserve">Booking</text></g><g/><g><path fill="none" stroke="black" paint-order="fill stroke markers" d=" M 31.97770243046875 139.67855375599999 L 31.97770243046875 2331.2596906479985" stroke-miterlimit="10" stroke-width="1.4659797833333332" stroke-dasharray="13.532121076923076,5.863919133333333"/><path fill="none" stroke="black" paint-order="fill stroke markers" d=" M 121.92790420921224 1107.928881052 L 121.92790420921224 2331.2596906479985" stroke-miterlimit="10" stroke-width="1.4659797833333332" stroke-dasharray="13.532121076923076,5.863919133333333"/><path fill="none" stroke="black" paint-order="fill stroke markers" d=" M 346.32203658137894 139.67855375599999 L 346.32203658137894 2331.2596906479985" stroke-miterlimit="10" stroke-width="1.4659797833333332" stroke-dasharray="13.532121076923076,5.863919133333333"/><path fill="none" stroke="black" paint-order="fill stroke markers" d=" M 576.4141470859363 139.67855375599999 L 576.4141470859363 2331.2596906479985" stroke-miterlimit="10" stroke-width="1.4659797833333332" stroke-dasharray="13.532121076923076,5.863919133333333"/><path fill="none" stroke="black" paint-order="fill stroke markers" d=" M 1020.5578017799467 139.67855375599999 L 1020.5578017799467 2331.2596906479985" stroke-miterlimit="10" stroke-width="1.4659797833333332" stroke-dasharray="13.532121076923076,5.863919133333333"/><path fill="none" stroke="black" paint-order="fill stroke markers" d=" M 1279.277129287629 139.67855375599999 L 1279.277129287629 2331.2596906479985" stroke-miterlimit="10" stroke-width="1.4659797833333332" stroke-dasharray="13.532121076923076,5.863919133333333"/><path fill="none" stroke="black" paint-order="fill stroke markers" d=" M 1474.6624385871733 139.67855375599999 L 1474.6624385871733 2331.2596906479985" stroke-miterlimit="10" stroke-width="1.4659797833333332" stroke-dasharray="13.532121076923076,5.863919133333333"/><path fill="none" stroke="black" paint-order="fill stroke markers" d=" M 1657.2172949276192 139.67855375599999 L 1657.2172949276192 2331.2596906479985" stroke-miterlimit="10" stroke-width="1.4659797833333332" stroke-dasharray="13.532121076923076,5.863919133333333"/><path fill="none" stroke="black" paint-order="fill stroke markers" d=" M 1771.0630929209135 139.67855375599999 L 1771.0630929209135 2331.2596906479985" stroke-miterlimit="10" stroke-width="1.4659797833333332" stroke-dasharray="13.532121076923076,5.863919133333333"/><path fill="none" stroke="black" paint-order="fill stroke markers" d=" M 1953.6179492613594 1557.2223650479993 L 1953.6179492613594 2331.2596906479985" stroke-miterlimit="10" stroke-width="1.4659797833333332" stroke-dasharray="13.532121076923076,5.863919133333333"/></g><g><g><path fill="white" stroke="black" paint-order="fill stroke markers" d=" M 42.00500414846875 65.265419954 A 10.027301717999999 10.027301717999999 0 1 1 42.004999134818306 65.25539265395321 M 31.97770243046875 75.29272167199998 L 31.97770243046875 96.75466569999998 M 19.31163710246875 83.033094928 L 44.64376775846875 83.033094928 M 31.97770243046875 96.75466569999998 L 19.31163710246875 116.80926913599998 M 31.97770243046875 96.75466569999998 L 44.64376775846875 116.80926913599998" stroke-miterlimit="10" stroke-width="2.990598758" stroke-dasharray=""/></g><g><g/><text fill="black" stroke="none" font-family="sans-serif" font-size="11pt" font-style="normal" font-weight="normal" text-decoration="normal" x="8.7958787" y="134.401026536" text-anchor="start" dominant-baseline="alphabetic" xml:space="preserve">Admin</text></g><g><path fill="white" stroke="black" paint-order="fill stroke markers" d=" M 381.2416750203789 89.19021001799997 A 26.123759739 26.123759739 0 1 1 381.2416619585002 89.16408626261492 M 312.897697521379 61.57115089999997 L 312.897697521379 116.80926913599997 M 311.40239814237896 89.19021001799997 L 328.99415554237896 89.19021001799997" stroke-miterlimit="10" stroke-width="2.990598758" stroke-dasharray=""/></g><g><g/><text fill="black" stroke="none" font-family="sans-serif" font-size="11pt" font-style="normal" font-weight="normal" text-decoration="normal" x="309.6291120818672" y="134.401026536" text-anchor="start" dominant-baseline="alphabetic" xml:space="preserve">BookingUI</text></g><g><path fill="white" stroke="black" paint-order="fill stroke markers" d=" M 602.5379068249363 89.19021001799997 A 26.123759739 26.123759739 0 1 1 602.5378937630575 89.16408626261492 M 572.8957956059363 63.06645027899997 L 583.4508500459364 54.27057157899998 M 572.8957956059363 63.06645027899997 L 583.4508500459364 71.86232897899997" stroke-miterlimit="10" stroke-width="2.990598758" stroke-dasharray=""/></g><g><g/><text fill="black" stroke="none" font-family="sans-serif" font-size="11pt" font-style="normal" font-weight="normal" text-decoration="normal" x="522.0870062778308" y="134.401026536" text-anchor="start" dominant-baseline="alphabetic" xml:space="preserve">BookingSystem</text></g><path fill="none" stroke="none"/><g><path fill="white" stroke="black" paint-order="fill stroke markers" d=" M 959.4127616025091 92.18080877599999 L 1081.7028419573842 92.18080877599999 L 1081.7028419573842 139.67855375599999 L 959.4127616025091 139.67855375599999 L 959.4127616025091 92.18080877599999 Z" stroke-miterlimit="10" stroke-width="2.814681184" stroke-dasharray=""/></g><g><g/><text fill="black" stroke="none" font-family="sans-serif" font-size="11pt" font-style="normal" font-weight="normal" text-decoration="normal" x="978.4998183815092" y="122.08679635600001" text-anchor="start" dominant-baseline="alphabetic" xml:space="preserve">ClassRooms</text></g><path fill="none" stroke="none"/><g><path fill="white" stroke="black" paint-order="fill stroke markers" d=" M 1211.682549925621 92.18080877599999 L 1346.8717086496367 92.18080877599999 L 1346.8717086496367 139.67855375599999 L 1211.682549925621 139.67855375599999 L 1211.682549925621 92.18080877599999 Z" stroke-miterlimit="10" stroke-width="2.814681184" stroke-dasharray=""/></g><g><g/><text fill="black" stroke="none" font-family="sans-serif" font-size="11pt" font-style="normal" font-weight="normal" text-decoration="normal" x="1230.769606704621" y="122.08679635600001" text-anchor="start" dominant-baseline="alphabetic" xml:space="preserve">RoomMapper</text></g><path fill="none" stroke="none"/><g><path fill="white" stroke="black" paint-order="fill stroke markers" d=" M 1398.9755206631537 92.18080877599999 L 1550.3493565111928 92.18080877599999 L 1550.3493565111928 139.67855375599999 L 1398.9755206631537 139.67855375599999 L 1398.9755206631537 92.18080877599999 Z" stroke-miterlimit="10" stroke-width="2.814681184" stroke-dasharray=""/></g><g><g/><text fill="black" stroke="none" font-family="sans-serif" font-size="11pt" font-style="normal" font-weight="normal" text-decoration="normal" x="1418.0625774421537" y="122.08679635600001" text-anchor="start" dominant-baseline="alphabetic" xml:space="preserve">BookingMapper</text></g><g><path fill="white" stroke="black" paint-order="fill stroke markers" d=" M 1683.3410546666191 86.79773101159998 A 26.123759739 26.123759739 0 1 1 1683.3410416047404 86.77160725621492 M 1629.5982358096192 115.31396975699997 L 1684.8363540456191 115.31396975699997" stroke-miterlimit="10" stroke-width="2.990598758" stroke-dasharray=""/></g><g><g/><text fill="black" stroke="none" font-family="sans-serif" font-size="11pt" font-style="normal" font-weight="normal" text-decoration="normal" x="1636.2437689266426" y="134.401026536" text-anchor="start" dominant-baseline="alphabetic" xml:space="preserve">Room</text></g><g><path fill="white" stroke="black" paint-order="fill stroke markers" d=" M 1745.3791271169134 105.19870925199999 L 1745.3791271169134 68.25601871199999 L 1796.7470587249136 68.25601871199999 L 1796.7470587249136 105.19870925199999" stroke-miterlimit="10" stroke-width="2.990598758" stroke-dasharray=""/><path fill="white" stroke="black" paint-order="fill stroke markers" d=" M 1796.7470587249136 66.97182042179999 L 1796.745774537325 67.08792408555635 L 1796.7419221029768 67.20401613904309 L 1796.7355018071096 67.3200849731516 L 1796.7265142917472 67.43611898109519 L 1796.714960455634 67.55210655956978 L 1796.7008414541435 67.66803610991414 L 1796.6841586991648 67.78389603926989 L 1796.664913858959 67.8996747617406 L 1796.6431088579939 68.01536069955054 L 1796.618745876752 68.1309422842023 L 1796.5918273515106 68.24640795763378 L 1796.5623559741 68.3617461733738 L 1796.5303346916337 68.47694539769695 L 1796.4957667062126 68.59199411077678 L 1796.458655474607 68.70688080783783 L 1796.419004707909 68.82159400030618 L 1796.376818371162 68.93612221695814 L 1796.3321006829647 69.0504540050675 L 1796.2848561150486 69.16457793155072 L 1796.2350893918313 69.27848258411025 L 1796.1828054899433 69.39215657237577 L 1796.1280096377316 69.50558852904317 L 1796.0707073147355 69.61876711101131 L 1796.0109042511397 69.73168100051632 L 1795.9486064272005 69.84431890626333 L 1795.8838200726486 69.95666956455563 L 1795.8165516660654 70.06872174042103 L 1795.7468079342357 70.18046422873529 L 1795.6745958514741 70.29188585534273 L 1795.599922638929 70.40297547817353 L 1795.5227957638594 70.51372198835797 L 1795.4432229388885 70.62411431133734 L 1795.3612121212327 70.73414140797132 L 1795.276771511905 70.84379227564195 L 1795.1899095548963 70.95305594935381 L 1795.1006349363297 71.06192150283061 L 1795.0089565835929 71.1703780496077 L 1794.9148836644447 71.27841474412082 L 1794.8184255860986 71.38602078279051 L 1794.719591994282 71.4931854051026 L 1794.6183927722716 71.59989789468413 L 1794.5148380399055 71.7061475803751 L 1794.4089381525705 71.81192383729548 L 1794.300703700167 71.9172160879077 L 1794.1901455060506 72.02201380307447 L 1794.077274625948 72.12630650311159 L 1793.962102346853 72.23008375883597 L 1793.8446401858982 72.33333519260853 L 1793.7248998892014 72.43605047937191 L 1793.6028934306926 72.53821934768304 L 1793.4786330109157 72.63983158074024 L 1793.3521310558097 72.74087701740487 L 1793.223400215464 72.84134555321748 L 1793.0924533628558 72.94122714140819 L 1792.9593035925614 73.04051179390143 L 1792.8239642194462 73.13918958231469 L 1792.6864487773355 73.23725063895135 L 1792.5467710176583 73.33468515778748 L 1792.4049449080746 73.43148339545236 L 1792.260984631077 73.52763567220293 L 1792.1149045825732 73.6231323728916 L 1791.9667193704463 73.71796394792793 L 1791.816443813094 73.8121209142334 L 1791.664092937947 73.90559385618985 L 1791.5096819799658 73.998373426581 L 1791.3532263801176 74.09045034752711 L 1791.1947417838314 74.18181541141281 L 1791.0342440394356 74.27245948180787 L 1790.8717491965704 74.36237349438078 L 1790.707273504585 74.45154845780519 L 1790.540833410911 74.53997545465909 L 1790.3724455594195 74.62764564231648 L 1790.2021267887553 74.71455025383165 L 1790.0298941306535 74.80068059881587 L 1789.8557648082362 74.88602806430642 L 1789.6797562342906 74.97058411562787 L 1789.5018860095277 75.05434029724555 L 1789.3221719208216 75.13728823361109 L 1789.1406319394312 75.21941962999999 L 1788.9572842192035 75.30072627334106 L 1788.7721470947577 75.38120003303769 L 1788.5852390796522 75.46083286178099 L 1788.3965788645323 75.53961679635444 L 1788.206185315263 75.61754395843025 L 1788.0140774710396 75.69460655535714 L 1787.8202745424874 75.77079688093964 L 1787.624795909737 75.84610731620869 L 1787.4276611204893 75.9205303301835 L 1787.2288898880586 75.99405848062472 L 1787.0285020894028 76.06668441477855 L 1786.8265177631345 76.13840087011211 L 1786.622957107518 76.20920067503964 L 1786.4178404784495 76.27907674963963 L 1786.2111883874209 76.34802210636286 L 1786.003021499469 76.4160298507311 L 1785.793360631109 76.48309318202661 L 1785.5822267482533 76.54920539397213 L 1785.369640964114 76.61435987540155 L 1785.1556245370925 76.67855011092104 L 1784.9401988686532 76.74176968156053 L 1784.7233855011832 76.80401226541565 L 1784.5052061158387 76.86527163827986 L 1784.2856825303766 76.92554167426694 L 1784.0648366969722 76.98481634642351 L 1783.842690700025 77.04308972733178 L 1783.6192667539497 77.10035598970217 L 1783.3945872009542 77.15660940695618 L 1783.168674508807 77.21184435379898 L 1782.9415512685891 77.26605530678191 L 1782.713240192435 77.31923684485484 L 1782.4837641112622 77.37138364990828 L 1782.2531459724876 77.42249050730518 L 1782.021408837733 77.4725523064024 L 1781.7885758805182 77.52156404106174 L 1781.5546703839457 77.56952081015058 L 1781.3197157383697 77.61641781803196 L 1781.0837354390592 77.6622503750442 L 1780.8467530838473 77.70701389796976 L 1780.608792370772 77.75070391049368 L 1780.3698770957067 77.7933160436511 L 1780.1300311499792 77.83484603626422 L 1779.8892785179848 77.87528973536838 L 1779.6476432747859 77.91464309662739 L 1779.4051495837052 77.9529021847379 L 1779.16182169391 77.99006317382297 L 1778.9176839379866 78.02612234781469 L 1778.6727607295065 78.0610761008257 L 1778.4270765605872 78.09492093750981 L 1778.1806559994407 78.12765347341158 L 1777.9335236879174 78.15927043530469 L 1777.6857043390428 78.18976866151928 L 1777.4372227345452 78.21914510225817 L 1777.1881037223782 78.24739681990175 L 1776.938372214235 78.27452098930179 L 1776.6880531830584 78.30051489806398 L 1776.4371716605433 78.32537594681908 L 1776.1857527346324 78.34910164948295 L 1775.9338215470093 78.37168963350508 L 1775.6814032905822 78.39313764010592 L 1775.428523206967 78.41344352450264 L 1775.1752065839607 78.43260525612375 L 1774.921478753015 78.45062091881205 L 1774.6673650867015 78.46748871101629 L 1774.4128909961748 78.48320694597129 L 1774.1580819286323 78.49777405186667 L 1773.9029633647679 78.51118857200397 L 1773.647560816226 78.52344916494236 L 1773.3918998230479 78.53455460463276 L 1773.1360059511205 78.54450378054045 L 1772.8799047896175 78.55329569775614 L 1772.6236219484415 78.56092947709544 L 1772.3671830556632 78.56740435518677 L 1772.1106137549582 78.57271968454769 L 1771.853939703043 78.57687493364975 L 1771.597186567108 78.57986968697145 L 1771.340380022254 78.58170364504 L 1771.0835457489209 78.58237662446106 L 1770.8267094303217 78.58188855793732 L 1770.569896749875 78.58023949427498 L 1770.313133388634 78.57742959837903 L 1770.0564450227214 78.57345915123673 L 1769.7998573207599 78.56832854988951 L 1769.5433959413056 78.56203830739318 L 1769.287086530283 78.5545890527668 L 1769.0309547184193 78.54598153092958 L 1768.7750261186825 78.53621660262655 L 1768.519326323719 78.5252952443424 L 1768.2638809032956 78.51321854820387 L 1768.0087154017413 78.4999877218705 L 1767.7538553353936 78.48560408841388 L 1767.4993261900468 78.4700690861854 L 1767.245153418403 78.45338426867232 L 1766.991362437528 78.4355513043425 L 1766.7379786263084 78.41657197647748 L 1766.485027322914 78.39644818299428 L 1766.2325338222643 78.37518193625543 L 1765.980523373499 78.35277536286792 L 1765.729021177453 78.32923070347039 L 1765.4780523841364 78.30455031250918 L 1765.227642090219 78.2787366580028 L 1764.977815336522 78.2517923212952 L 1764.7285971055123 78.2237199967976 L 1764.4800123188056 78.19452249171906 L 1764.2320858346732 78.16420272578573 L 1763.9848424455568 78.13276373094897 L 1763.7383068755894 78.10020865108203 L 1763.4925037781227 78.0665407416658 L 1763.2474577332614 78.03176336946316 L 1763.0031932454058 77.99588001218234 L 1762.7597347408014 77.95889425812916 L 1762.5171065650952 77.92080980584822 L 1762.2753329809032 77.881630463753 L 1762.0344381653822 77.84136014974506 L 1761.7944462078126 77.80000289082224 L 1761.5553811071907 77.75756282267598 L 1761.317266769827 77.71404418927773 L 1761.080127006957 77.66945134245454 L 1760.8439855323593 77.62378874145395 L 1760.6088659599845 77.57706095249802 L 1760.3747918015938 77.52927264832667 L 1760.1417864644084 77.48042860773052 L 1759.9098732487676 77.43053371507293 L 1759.6790753457994 77.37959295980157 L 1759.4494158351024 77.32761143594954 L 1759.2209176824358 77.27459434162587 L 1758.9936037374246 77.22054697849586 L 1758.767496731274 77.16547475125074 L 1758.5426192744958 77.10938316706736 L 1758.3189938546486 77.0522778350574 L 1758.0966428340882 76.99416446570646 L 1757.875588447731 76.93504887030305 L 1757.6558528008316 76.87493696035746 L 1757.4374578667714 76.81383474701059 L 1757.2204254848623 76.75174834043284 L 1757.004777358161 76.68868394921314 L 1756.7905350513008 76.62464787973806 L 1756.577719988334 76.5596465355612 L 1756.366353450589 76.49368641676277 L 1756.156456574544 76.42677411929971 L 1755.9480503497114 76.358916334346 L 1755.7411556165403 76.2901198476236 L 1755.535793064331 76.22039153872383 L 1755.3319832291684 76.14973838041949 L 1755.1297464918657 76.07816743796754 L 1754.929103075928 76.00568586840255 L 1754.73007304553 75.9323009198211 L 1754.5326763035084 75.8580199306569 L 1754.3369325893736 75.78285032894695 L 1754.1428614773333 75.70679963158878 L 1753.9504823743375 75.62987544358876 L 1753.7598145181357 75.55208545730159 L 1753.5708769753548 75.47343745166106 L 1753.3836886395918 75.3939392914022 L 1753.198268229524 75.31359892627479 L 1753.014634287038 75.2324243902484 L 1752.8328051753751 75.15042380070896 L 1752.652799077295 75.06760535764712 L 1752.4746339932574 74.98397734283817 L 1752.2983277396222 74.89954811901389 L 1752.1238979468678 74.8143261290263 L 1751.9513620578282 74.72831989500338 L 1751.7807373259486 74.64153801749687 L 1751.6120408135598 74.5539891746222 L 1751.4452893901728 74.46568212119071 L 1751.2804997307906 74.37662568783415 L 1751.117688314242 74.28682878012162 L 1750.956871421533 74.19630037766909 L 1750.7980651342186 74.10504953324134 L 1750.6412853327956 74.0130853718468 L 1750.4865476951134 73.92041708982494 L 1750.3338676948065 73.82705395392676 L 1750.1832605997479 73.73300530038806 L 1750.0347414705218 73.63828053399578 L 1749.888325158917 73.54288912714766 L 1749.744026306443 73.44684061890487 L 1749.6018593428644 73.3501446140382 L 1749.4618384847595 73.25281078206757 L 1749.323977734097 73.15484885629505 L 1749.1882908768375 73.05626863283157 L 1749.0547914815534 72.95707996961737 L 1748.9234928980732 72.85729278543607 L 1748.7944082561455 72.75691705892295 L 1748.667550464127 72.65596282756702 L 1748.5429322076916 72.5544401867073 L 1748.4205659485606 72.45235928852324 L 1748.3004639232581 72.34973034101961 L 1748.1826381418866 72.24656360700563 L 1748.067100386926 72.14286940306874 L 1747.9538622120556 72.03865809854291 L 1747.8429349409985 71.93394011447177 L 1747.7343296663892 71.82872592256643 L 1747.6280572486648 71.72302604415843 L 1747.5241283149785 71.61685104914753 L 1747.4225532581372 71.51021155494473 L 1747.3233422355615 71.4031182254106 L 1747.2265051682716 71.29558176978884 L 1747.132051739893 71.1876129416354 L 1747.03999139569 71.07922253774314 L 1746.9503333416205 70.9704213970621 L 1746.863086543415 70.86122039961568 L 1746.7782597256805 70.75163046541265 L 1746.6958613710285 70.64166255335508 L 1746.6158997192254 70.53132766014255 L 1746.5383827663698 70.42063681917243 L 1746.4633182640923 70.30960109943658 L 1746.3907137187812 70.19823160441445 L 1746.3205763908297 70.0865394709627 L 1746.2529132939126 69.97453586820164 L 1746.187731194283 69.86223199639821 L 1746.125036610097 69.74963908584596 L 1746.06483581076 69.63676839574217 L 1746.0071348163026 69.52363121306175 L 1745.9519393967757 69.41023885142872 L 1745.8992550716753 69.29660264998472 L 1745.8490871093898 69.18273397225522 L 1745.801440526674 69.0686442050131 L 1745.7563200881464 68.95434475714 L 1745.713730305813 68.83984705848547 L 1745.6736754386168 68.72516255872397 L 1745.636159492011 68.61030272620987 L 1745.6011862175592 68.49527904683073 L 1745.5687591125595 68.38010302285863 L 1745.5388814196954 68.2647861718 L 1745.5115561267114 68.14934002524383 L 1745.4867859661138 68.03377612770858 L 1745.4645734148983 67.9181060354877 L 1745.4449206943011 67.80234131549402 L 1745.4278297695785 67.68649354410306 L 1745.4133023498082 67.57057430599544 L 1745.4013398877203 67.45459519299835 L 1745.3919435795508 67.33856780292646 L 1745.385114364923 67.22250373842208 L 1745.3808529267528 67.10641460579494 L 1745.3791596911801 66.99031201386155 L 1745.380034827527 66.87420757278437 L 1745.3834782482809 66.75811289291076 L 1745.3894896091024 66.64203958361193 L 1745.3980683088605 66.52599925212212 L 1745.4092134896923 66.41000350237775 L 1745.4229240370892 66.29406393385715 L 1745.4391985800075 66.17819214042055 L 1745.458035491007 66.06239970915072 L 1745.479432886412 65.94669821919432 L 1745.5033886265007 65.8310992406039 L 1745.529900315719 65.71561433318102 L 1745.5589653029206 65.60025504532017 L 1745.5905806816304 65.48503291285398 L 1745.624743290337 65.36995945789971 L 1745.6614497128082 65.25504618770695 L 1745.7006962784324 65.14030459350695 L 1745.7424790625853 65.02574614936354 L 1745.7867938870238 64.91138231102563 L 1745.8336363203023 64.79722451478179 L 1745.883001678216 64.68328417631649 L 1745.934885024271 64.56957268956862 L 1745.9892811701752 64.45610142559212 L 1746.04618467636 64.3428817314188 L 1746.105589852522 64.22992492892377 L 1746.1674907581926 64.1172423136931 L 1746.2318812033334 64.00484515389444 L 1746.2987547489533 63.89274468915009 L 1746.3681047077537 63.78095212941312 L 1746.4399241447961 63.66947865384635 L 1746.5142058781971 63.558335409704426 L 1746.590942479845 63.447533511219156 L 1746.6701262761433 63.337084038488044 L 1746.751749348779 63.226998036366325 L 1746.8358035355122 63.11728651336247 L 1746.922280430995 63.00796044053737 L 1747.0111713876092 62.899030750407185 L 1747.1024675163337 62.790508335850156 L 1747.1961596876315 62.682404049017315 L 1747.2922385323636 62.57472870024724 L 1747.3906944427256 62.4674930569851 L 1747.4915175732085 62.36070784270584 L 1747.5946978415832 62.25438373584191 L 1747.700224929909 62.148531368715396 L 1747.8080882855647 62.04316132647479 L 1747.918277122305 61.938284146036516 L 1748.0307804213378 61.83391031503122 L 1748.145586932427 61.73005027075502 L 1748.2626851750172 61.6267143991258 L 1748.3820634393817 61.52391303364461 L 1748.5037097877937 61.42165645436233 L 1748.6276120557195 61.31995488685167 L 1748.7537578530355 61.21881850118463 L 1748.8821345652675 61.1182574109155 L 1749.0127293548508 61.018281672069506 L 1749.1455291624156 60.91890128213721 L 1749.2805207080917 60.82012617907481 L 1749.4176904928368 60.72196624031029 L 1749.557024799787 60.62443128175571 L 1749.6985096956278 60.52753105682567 L 1749.8421310319873 60.431275255461905 L 1749.9878744468515 60.33567350316434 L 1750.1357253660005 60.24073536002853 L 1750.2856690044657 60.14647031978968 L 1750.437690368008 60.05288780887326 L 1750.5917742546178 59.959997185452366 L 1750.747905256035 59.86780773851195 L 1750.9060677592893 59.77632868691987 L 1751.0662459482623 59.68556917850505 L 1751.2284238052684 59.59553828914271 L 1751.3925851126576 59.50624502184675 L 1751.5587134544353 59.41769830586949 L 1751.7267922179062 59.32990699580875 L 1751.8968045953338 59.24287987072236 L 1752.068733585622 59.15662563325033 L 1752.2425619960154 59.0711529087445 L 1752.4182724438174 58.986470244406114 L 1752.59584735813 58.90258610843103 L 1752.7752689816093 58.81950888916295 L 1752.9565193722428 58.737246894254554 L 1753.1395804051426 58.65580834983679 L 1753.3244337743577 58.57520139969624 L 1753.511060994705 58.49543410446074 L 1753.6994434036185 58.41651444079334 L 1753.889562163014 58.33845030059465 L 1754.0813982611742 58.26124949021362 L 1754.274932514649 58.18491972966697 L 1754.4701455701743 58.10946865186714 L 1754.667017906607 58.03490380185903 L 1754.865529836878 57.96123263606552 L 1755.0656615099597 57.88846252154177 L 1755.2673929128512 57.816600735238616 L 1755.4707038725803 57.74565446327479 L 1755.6755740582207 57.67563080021837 L 1755.8819829829245 57.60653674837731 L 1756.0899100059712 57.53837921709922 L 1756.2993343348319 57.47116502208042 L 1756.510235027248 57.40490088468441 L 1756.722590993326 57.3395934312697 L 1756.9363809976467 57.27524919252721 L 1757.1515836613871 57.21187460282721 L 1757.3681774644608 57.14947599957584 L 1757.5861407476677 57.088059622581426 L 1757.8054517148614 57.02763161343051 L 1758.0260884351276 56.96819801487362 L 1758.248028844978 56.9097647702211 L 1758.471250750557 56.85233772274873 L 1758.6957318298598 56.79592261511338 L 1758.9214496349657 56.74052508877882 L 1759.1483815942822 56.6861506834515 L 1759.3765050148024 56.63280483652666 L 1759.6057970843744 56.58049288254453 L 1759.8362348739824 56.52922005265691 L 1760.0677953400393 56.47899147410408 L 1760.3004553266917 56.42981216970201 L 1760.5341915681347 56.38168705734017 L 1760.7689806909389 56.334620949489704 L 1761.0047992163875 56.28861855272216 L 1761.241623562825 56.24368446723889 L 1761.4794300480135 56.199823186410995 L 1761.7181948915031 56.157039096329996 L 1761.957894217008 56.11533647536926 L 1762.1985040547959 56.07471949375613 L 1762.4400003440833 56.035192213154914 L 1762.6823589354424 55.99675858626073 L 1762.9255555932161 55.959422456404255 L 1763.1695659979414 55.923187557167346 L 1763.414365748781 55.88805751200974 L 1763.6599303659639 55.85403583390668 L 1763.906235293233 55.82112592499761 L 1764.153255900301 55.78933107624601 L 1764.4009674853128 55.758654467110254 L 1764.6493452773163 55.72909916522569 L 1764.8983644387395 55.70066812609789 L 1765.1480000678737 55.67336419280706 L 1765.3982272013639 55.64719009572377 L 1765.6490208167052 55.62214845223594 L 1765.9003558347454 55.598241766487035 L 1766.1522071221918 55.57547242912571 L 1766.4045494941258 55.55384271706673 L 1766.6573577165204 55.533354793263264 L 1766.910606508764 55.51401070649064 L 1767.1642705461884 55.4958123911414 L 1767.4183244626013 55.47876166703191 L 1767.6727428528227 55.46286023922039 L 1767.9275002752256 55.44810969783636 L 1768.18257125428 55.434511517921656 L 1768.4379302831007 55.42206705928295 L 1768.6935518259977 55.41077756635575 L 1768.9494103210293 55.40064416807991 L 1769.2054801825598 55.39166787778682 L 1769.4617358038158 55.38384959309805 L 1769.7181515594493 55.37719009583553 L 1769.9747018080982 55.37169005194345 L 1770.2313608949512 55.36735001142162 L 1770.4881031543139 55.36417040827046 L 1770.744902912174 55.36215156044765 L 1771.0017344887697 55.36129366983628 L 1771.2585722011577 55.3615968222247 L 1771.5153903657804 55.363060987297914 L 1771.7721633010356 55.36568601864066 L 1772.0288653298437 55.369471653751965 L 1772.2854707822155 55.37441751407148 L 1772.54195399782 55.3805231050173 L 1772.7982893285493 55.38778781603543 L 1773.0544511410837 55.39621092066079 L 1773.3104138194556 55.40579157658996 L 1773.5661517676103 55.41652882576533 L 1773.8216394119663 55.428421594470926 L 1774.076851203972 55.44146869343979 L 1774.3317616226607 55.45566881797289 L 1774.5863451772032 55.47102054806961 L 1774.8405764094562 55.48752234856974 L 1775.094429896508 55.50517256930697 L 1775.3478802532218 55.52396944527395 L 1775.6009021347732 55.54391109679874 L 1775.8534702391844 55.56499552973279 L 1776.1055593098558 55.587220635650404 L 1776.3571441380905 55.61058419205949 L 1776.6081995656152 55.63508386262389 L 1776.8587004870963 55.660717197396956 L 1777.1086218526502 55.687481633066575 L 1777.357938670349 55.715374493211485 L 1777.6066260087186 55.744392988568904 L 1777.8546589992325 55.7745342173135 L 1778.102012838798 55.8057951653475 L 1778.3486627922373 55.83817270660215 L 1778.594584194761 55.871663603350314 L 1778.8397524544334 55.90626450653023 L 1779.0841430546332 55.941971956080394 L 1779.3277315565035 55.97878238128563 L 1779.5704936013976 56.01669210113408 L 1779.812404913313 56.055697324685354 L 1780.0534413013204 56.095794151449596 L 1780.2935786619817 56.136978571777554 L 1780.5327929817608 56.17924646726151 L 1780.7710603394253 56.22259361114713 L 1781.008356908438 56.267015668756166 L 1781.2446589593394 56.31250819791986 L 1781.4799428621216 56.35906664942321 L 1781.7141850885905 56.40668636745987 L 1781.9473622147184 56.455362590097714 L 1782.1794509229871 56.505090449755045 L 1782.4104280047193 56.55586497368733 L 1782.6402703623992 56.60768108448449 L 1782.8689550119825 56.66053360057863 L 1783.0964590851947 56.71441723676219 L 1783.3227598318185 56.76932660471643 L 1783.5478346219675 56.82525621355034 L 1783.7716609483502 56.88220047034963 L 1783.9942164285208 56.940153680736074 L 1784.2154788071164 56.999110049436936 L 1784.4354259580837 57.05906368086447 L 1784.654035886891 57.120008579705484 L 1784.8712867327272 57.1819386515209 L 1785.0871567706893 57.244847703355134 L 1785.3016244139528 57.308729444355436 L 1785.5146682159325 57.373577486400926 L 1785.7262668724256 57.439385344741446 L 1785.936399223743 57.506146438646006 L 1786.1450442568243 57.57385409206084 L 1786.3521811073404 57.642501534277045 L 1786.5577890617787 57.712081900607586 L 1786.761847559515 57.78258823307383 L 1786.9643361948697 57.854013481101276 L 1787.1652347191482 57.92635050222464 L 1787.364523042665 57.99959206280211 L 1787.5621812367544 58.07373083873863 L 1787.7581895357612 58.14875941621842 L 1787.9525283390192 58.224670292446234 L 1788.1451782128097 58.30145587639771 L 1788.3361198923062 58.379108489578456 L 1788.5253342834997 58.45762036679186 L 1788.7128024651086 58.53698365691561 L 1788.8985056904712 58.61719042368684 L 1789.0824253894195 58.698232646495725 L 1789.2645431701374 58.7801022211875 L 1789.4448408209978 58.86279096087293 L 1789.6233003123864 58.94629059674695 L 1789.7999037985028 59.03059277891555 L 1789.9746336191452 59.115689077230776 L 1790.1474723014774 59.2015709821337 L 1790.3184025617752 59.2882299055054 L 1790.4874073071549 59.375657181525774 L 1790.6544696372828 59.46384406754005 L 1790.8195728460653 59.55278174493313 L 1790.9827004233189 59.642461320011385 L 1791.1438360564216 59.73287382489204 L 1791.302963631945 59.82401021839995 L 1791.4600672372637 59.91586138697171 L 1791.6151311621481 60.008418145567006 L 1791.7681399003352 60.10167123858711 L 1791.9190781510783 60.195611340800426 L 1792.0679308206784 60.29022905827503 L 1792.2146830239926 60.385514929318006 L 1792.3593200859227 60.48145942542166 L 1792.501827542883 60.57805295221634 L 1792.6421911442467 60.67528585042985 L 1792.7803968537705 60.77314839685341 L 1792.916430850999 60.87163080531391 L 1793.0502795326454 60.97072322765259 L 1793.181929513953 61.07041575470979 L 1793.3113676300338 61.170698417315876 L 1793.4385809371838 61.271561187288164 L 1793.5635567141785 61.3729939784337 L 1793.686282463544 61.47498664755789 L 1793.806745912808 61.577528995478836 L 1793.9249350157256 61.68061076804718 L 1794.0408379534854 61.78422165717158 L 1794.15444313589 61.88835130184945 L 1794.2657392025155 61.99298928920311 L 1794.3747150238487 62.09812515552101 L 1794.4813597023976 62.203748387304145 L 1794.5856625737838 62.30984842231735 L 1794.6876132078066 62.416414650645535 L 1794.7872014094878 62.52343641575468 L 1794.8844172200902 62.63090301555746 L 1794.9792509181136 62.73880370348344 L 1795.0716930202675 62.847127689553744 L 1795.1617342824184 62.95586414146005 L 1795.2493657005152 63.065002185647764 L 1795.3345785114896 63.174530908403426 L 1795.4173641941309 63.28443935694603 L 1795.4977144699399 63.39471654052231 L 1795.5756213039563 63.50535143150581 L 1795.6510769055612 63.61633296649962 L 1795.7240737292577 63.72765004744274 L 1795.7946044754242 63.83929154271982 L 1795.8626620910447 63.951246288274376 L 1795.9282397704144 64.06350308872516 L 1795.99133095582 64.17605071848564 L 1796.0519293381958 64.28887792288667 L 1796.1100288577536 64.40197341930181 L 1796.1656237045902 64.51532589827566 L 1796.218708319267 64.6289240246548 L 1796.269277393367 64.74275643872124 L 1796.317325870025 64.85681175732844 L 1796.362848944433 64.97107857503958 L 1796.4058420643219 65.08554546526814 L 1796.446300930415 65.20020098142045 L 1796.48422149686 65.31503365804045 L 1796.5195999716316 65.43003201195617 L 1796.5524328169117 65.54518454342806 L 1796.5827167494435 65.66047973729893 L 1796.6104487408586 65.77590606414547 L 1796.635626017981 65.89145198143119 L 1796.6582460631041 66.00710593466063 L 1796.6783066142423 66.12285635853486 L 1796.695805665357 66.23869167810795 L 1796.7107414665577 66.35460030994449 L 1796.723112524277 66.47057066327784 L 1796.732917601419 66.58659114116935 L 1796.7401557174846 66.70265014166789 L 1796.7448261486682 66.81873605897015 L 1796.74692842793 66.9348372845811 M 1796.7470587249136 103.91451096179999 L 1796.745774537325 104.03061462555635 L 1796.7419221029768 104.14670667904309 L 1796.7355018071096 104.2627755131516 L 1796.7265142917472 104.37880952109519 L 1796.714960455634 104.49479709956978 L 1796.7008414541435 104.61072664991414 L 1796.6841586991648 104.72658657926989 L 1796.664913858959 104.8423653017406 L 1796.6431088579939 104.95805123955054 L 1796.618745876752 105.0736328242023 L 1796.5918273515106 105.18909849763378 L 1796.5623559741 105.3044367133738 L 1796.5303346916337 105.41963593769695 L 1796.4957667062126 105.53468465077678 L 1796.458655474607 105.64957134783783 L 1796.419004707909 105.76428454030618 L 1796.376818371162 105.87881275695814 L 1796.3321006829647 105.9931445450675 L 1796.2848561150486 106.10726847155073 L 1796.2350893918313 106.22117312411025 L 1796.1828054899433 106.33484711237577 L 1796.1280096377316 106.44827906904317 L 1796.0707073147355 106.56145765101131 L 1796.0109042511397 106.67437154051632 L 1795.9486064272005 106.78700944626333 L 1795.8838200726486 106.89936010455563 L 1795.8165516660654 107.01141228042103 L 1795.7468079342357 107.12315476873529 L 1795.6745958514741 107.23457639534273 L 1795.599922638929 107.34566601817353 L 1795.5227957638594 107.45641252835797 L 1795.4432229388885 107.56680485133734 L 1795.3612121212327 107.67683194797132 L 1795.276771511905 107.78648281564195 L 1795.1899095548963 107.89574648935381 L 1795.1006349363297 108.00461204283062 L 1795.0089565835929 108.1130685896077 L 1794.9148836644447 108.22110528412082 L 1794.8184255860986 108.32871132279051 L 1794.719591994282 108.4358759451026 L 1794.6183927722716 108.54258843468413 L 1794.5148380399055 108.6488381203751 L 1794.4089381525705 108.75461437729548 L 1794.300703700167 108.8599066279077 L 1794.1901455060506 108.96470434307447 L 1794.077274625948 109.0689970431116 L 1793.962102346853 109.17277429883598 L 1793.8446401858982 109.27602573260853 L 1793.7248998892014 109.37874101937192 L 1793.6028934306926 109.48090988768304 L 1793.4786330109157 109.58252212074024 L 1793.3521310558097 109.68356755740487 L 1793.223400215464 109.78403609321748 L 1793.0924533628558 109.88391768140819 L 1792.9593035925614 109.98320233390143 L 1792.8239642194462 110.08188012231469 L 1792.6864487773355 110.17994117895135 L 1792.5467710176583 110.27737569778748 L 1792.4049449080746 110.37417393545236 L 1792.260984631077 110.47032621220293 L 1792.1149045825732 110.5658229128916 L 1791.9667193704463 110.66065448792793 L 1791.816443813094 110.7548114542334 L 1791.664092937947 110.84828439618985 L 1791.5096819799658 110.941063966581 L 1791.3532263801176 111.03314088752711 L 1791.1947417838314 111.12450595141281 L 1791.0342440394356 111.21515002180787 L 1790.8717491965704 111.30506403438078 L 1790.707273504585 111.39423899780519 L 1790.540833410911 111.48266599465909 L 1790.3724455594195 111.57033618231648 L 1790.2021267887553 111.65724079383165 L 1790.0298941306535 111.74337113881587 L 1789.8557648082362 111.82871860430642 L 1789.6797562342906 111.91327465562787 L 1789.5018860095277 111.99703083724555 L 1789.3221719208216 112.07997877361109 L 1789.1406319394312 112.16211016999999 L 1788.9572842192035 112.24341681334106 L 1788.7721470947577 112.32389057303769 L 1788.5852390796522 112.40352340178099 L 1788.3965788645323 112.48230733635444 L 1788.206185315263 112.56023449843025 L 1788.0140774710396 112.63729709535714 L 1787.8202745424874 112.71348742093964 L 1787.624795909737 112.78879785620869 L 1787.4276611204893 112.8632208701835 L 1787.2288898880586 112.93674902062472 L 1787.0285020894028 113.00937495477855 L 1786.8265177631345 113.08109141011211 L 1786.622957107518 113.15189121503964 L 1786.4178404784495 113.22176728963963 L 1786.2111883874209 113.29071264636286 L 1786.003021499469 113.35872039073111 L 1785.793360631109 113.42578372202661 L 1785.5822267482533 113.49189593397213 L 1785.369640964114 113.55705041540155 L 1785.1556245370925 113.62124065092104 L 1784.9401988686532 113.68446022156053 L 1784.7233855011832 113.74670280541565 L 1784.5052061158387 113.80796217827987 L 1784.2856825303766 113.86823221426694 L 1784.0648366969722 113.92750688642352 L 1783.842690700025 113.98578026733178 L 1783.6192667539497 114.04304652970217 L 1783.3945872009542 114.09929994695618 L 1783.168674508807 114.15453489379898 L 1782.9415512685891 114.20874584678191 L 1782.713240192435 114.26192738485484 L 1782.4837641112622 114.31407418990828 L 1782.2531459724876 114.36518104730519 L 1782.021408837733 114.4152428464024 L 1781.7885758805182 114.46425458106174 L 1781.5546703839457 114.51221135015058 L 1781.3197157383697 114.55910835803196 L 1781.0837354390592 114.6049409150442 L 1780.8467530838473 114.64970443796976 L 1780.608792370772 114.69339445049368 L 1780.3698770957067 114.7360065836511 L 1780.1300311499792 114.77753657626423 L 1779.8892785179848 114.81798027536838 L 1779.6476432747859 114.85733363662739 L 1779.4051495837052 114.8955927247379 L 1779.16182169391 114.93275371382298 L 1778.9176839379866 114.96881288781469 L 1778.6727607295065 115.0037666408257 L 1778.4270765605872 115.03761147750981 L 1778.1806559994407 115.07034401341159 L 1777.9335236879174 115.10196097530469 L 1777.6857043390428 115.13245920151928 L 1777.4372227345452 115.16183564225817 L 1777.1881037223782 115.19008735990175 L 1776.938372214235 115.21721152930179 L 1776.6880531830584 115.24320543806398 L 1776.4371716605433 115.26806648681908 L 1776.1857527346324 115.29179218948295 L 1775.9338215470093 115.31438017350509 L 1775.6814032905822 115.33582818010592 L 1775.428523206967 115.35613406450264 L 1775.1752065839607 115.37529579612375 L 1774.921478753015 115.39331145881205 L 1774.6673650867015 115.41017925101629 L 1774.4128909961748 115.42589748597129 L 1774.1580819286323 115.44046459186667 L 1773.9029633647679 115.45387911200397 L 1773.647560816226 115.46613970494236 L 1773.3918998230479 115.47724514463276 L 1773.1360059511205 115.48719432054045 L 1772.8799047896175 115.49598623775614 L 1772.6236219484415 115.50362001709544 L 1772.3671830556632 115.51009489518677 L 1772.1106137549582 115.5154102245477 L 1771.853939703043 115.51956547364975 L 1771.597186567108 115.52256022697145 L 1771.340380022254 115.52439418504 L 1771.0835457489209 115.52506716446106 L 1770.8267094303217 115.52457909793732 L 1770.569896749875 115.52293003427498 L 1770.313133388634 115.52012013837903 L 1770.0564450227214 115.51614969123673 L 1769.7998573207599 115.51101908988952 L 1769.5433959413056 115.50472884739318 L 1769.287086530283 115.4972795927668 L 1769.0309547184193 115.48867207092958 L 1768.7750261186825 115.47890714262655 L 1768.519326323719 115.4679857843424 L 1768.2638809032956 115.45590908820387 L 1768.0087154017413 115.4426782618705 L 1767.7538553353936 115.42829462841388 L 1767.4993261900468 115.4127596261854 L 1767.245153418403 115.39607480867232 L 1766.991362437528 115.3782418443425 L 1766.7379786263084 115.35926251647749 L 1766.485027322914 115.33913872299428 L 1766.2325338222643 115.31787247625543 L 1765.980523373499 115.29546590286792 L 1765.729021177453 115.27192124347039 L 1765.4780523841364 115.24724085250918 L 1765.227642090219 115.2214271980028 L 1764.977815336522 115.1944828612952 L 1764.7285971055123 115.1664105367976 L 1764.4800123188056 115.13721303171906 L 1764.2320858346732 115.10689326578573 L 1763.9848424455568 115.07545427094897 L 1763.7383068755894 115.04289919108203 L 1763.4925037781227 115.0092312816658 L 1763.2474577332614 114.97445390946316 L 1763.0031932454058 114.93857055218234 L 1762.7597347408014 114.90158479812916 L 1762.5171065650952 114.86350034584822 L 1762.2753329809032 114.824321003753 L 1762.0344381653822 114.78405068974506 L 1761.7944462078126 114.74269343082224 L 1761.5553811071907 114.70025336267598 L 1761.317266769827 114.65673472927773 L 1761.080127006957 114.61214188245454 L 1760.8439855323593 114.56647928145395 L 1760.6088659599845 114.51975149249802 L 1760.3747918015938 114.47196318832667 L 1760.1417864644084 114.42311914773052 L 1759.9098732487676 114.37322425507293 L 1759.6790753457994 114.32228349980157 L 1759.4494158351024 114.27030197594954 L 1759.2209176824358 114.21728488162587 L 1758.9936037374246 114.16323751849586 L 1758.767496731274 114.10816529125074 L 1758.5426192744958 114.05207370706736 L 1758.3189938546486 113.9949683750574 L 1758.0966428340882 113.93685500570646 L 1757.875588447731 113.87773941030305 L 1757.6558528008316 113.81762750035746 L 1757.4374578667714 113.75652528701059 L 1757.2204254848623 113.69443888043284 L 1757.004777358161 113.63137448921314 L 1756.7905350513008 113.56733841973806 L 1756.577719988334 113.5023370755612 L 1756.366353450589 113.43637695676277 L 1756.156456574544 113.36946465929971 L 1755.9480503497114 113.301606874346 L 1755.7411556165403 113.2328103876236 L 1755.535793064331 113.16308207872383 L 1755.3319832291684 113.0924289204195 L 1755.1297464918657 113.02085797796754 L 1754.929103075928 112.94837640840255 L 1754.73007304553 112.8749914598211 L 1754.5326763035084 112.8007104706569 L 1754.3369325893736 112.72554086894695 L 1754.1428614773333 112.64949017158878 L 1753.9504823743375 112.57256598358876 L 1753.7598145181357 112.49477599730159 L 1753.5708769753548 112.41612799166106 L 1753.3836886395918 112.3366298314022 L 1753.198268229524 112.2562894662748 L 1753.014634287038 112.1751149302484 L 1752.8328051753751 112.09311434070896 L 1752.652799077295 112.01029589764713 L 1752.4746339932574 111.92666788283817 L 1752.2983277396222 111.84223865901389 L 1752.1238979468678 111.7570166690263 L 1751.9513620578282 111.67101043500338 L 1751.7807373259486 111.58422855749687 L 1751.6120408135598 111.4966797146222 L 1751.4452893901728 111.40837266119071 L 1751.2804997307906 111.31931622783415 L 1751.117688314242 111.22951932012163 L 1750.956871421533 111.13899091766909 L 1750.7980651342186 111.04774007324134 L 1750.6412853327956 110.9557759118468 L 1750.4865476951134 110.86310762982494 L 1750.3338676948065 110.76974449392677 L 1750.1832605997479 110.67569584038806 L 1750.0347414705218 110.58097107399578 L 1749.888325158917 110.48557966714766 L 1749.744026306443 110.38953115890487 L 1749.6018593428644 110.2928351540382 L 1749.4618384847595 110.19550132206757 L 1749.323977734097 110.09753939629505 L 1749.1882908768375 109.99895917283158 L 1749.0547914815534 109.89977050961737 L 1748.9234928980732 109.79998332543607 L 1748.7944082561455 109.69960759892295 L 1748.667550464127 109.59865336756702 L 1748.5429322076916 109.4971307267073 L 1748.4205659485606 109.39504982852324 L 1748.3004639232581 109.29242088101961 L 1748.1826381418866 109.18925414700563 L 1748.067100386926 109.08555994306874 L 1747.9538622120556 108.98134863854291 L 1747.8429349409985 108.87663065447177 L 1747.7343296663892 108.77141646256644 L 1747.6280572486648 108.66571658415843 L 1747.5241283149785 108.55954158914753 L 1747.4225532581372 108.45290209494473 L 1747.3233422355615 108.3458087654106 L 1747.2265051682716 108.23827230978884 L 1747.132051739893 108.1303034816354 L 1747.03999139569 108.02191307774314 L 1746.9503333416205 107.9131119370621 L 1746.863086543415 107.80391093961568 L 1746.7782597256805 107.69432100541265 L 1746.6958613710285 107.58435309335508 L 1746.6158997192254 107.47401820014255 L 1746.5383827663698 107.36332735917243 L 1746.4633182640923 107.25229163943658 L 1746.3907137187812 107.14092214441445 L 1746.3205763908297 107.0292300109627 L 1746.2529132939126 106.91722640820164 L 1746.187731194283 106.80492253639821 L 1746.125036610097 106.69232962584596 L 1746.06483581076 106.57945893574217 L 1746.0071348163026 106.46632175306175 L 1745.9519393967757 106.35292939142872 L 1745.8992550716753 106.23929318998472 L 1745.8490871093898 106.12542451225522 L 1745.801440526674 106.0113347450131 L 1745.7563200881464 105.89703529714001 L 1745.713730305813 105.78253759848548 L 1745.6736754386168 105.66785309872397 L 1745.636159492011 105.55299326620987 L 1745.6011862175592 105.43796958683073 L 1745.5687591125595 105.32279356285864 L 1745.5388814196954 105.2074767118 L 1745.5115561267114 105.09203056524383 L 1745.4867859661138 104.97646666770858 L 1745.4645734148983 104.8607965754877 L 1745.4449206943011 104.74503185549402 L 1745.4278297695785 104.62918408410306 L 1745.4133023498082 104.51326484599544 L 1745.4013398877203 104.39728573299836 L 1745.3919435795508 104.28125834292646 L 1745.385114364923 104.16519427842208 L 1745.3808529267528 104.04910514579494 L 1745.3791596911801 103.93300255386156" stroke-miterlimit="10" stroke-width="2.990598758" stroke-dasharray=""/></g><g><g/><text fill="black" stroke="none" font-family="sans-serif" font-size="11pt" font-style="normal" font-weight="normal" text-decoration="normal" x="1760.8805520273588" y="134.401026536" text-anchor="start" dominant-baseline="alphabetic" xml:space="preserve">DB</text></g></g><g><path fill="white" stroke="black" paint-order="fill stroke markers" d=" M 337.52615788137894 197.73135317599997 L 355.11791528137894 197.73135317599997 L 355.11791528137894 954.1769213759999 L 337.52615788137894 954.1769213759999 L 337.52615788137894 197.73135317599997" stroke-miterlimit="10" stroke-width="1.4659797833333332" stroke-dasharray=""/><path fill="white" stroke="black" paint-order="fill stroke markers" d=" M 567.6182683859363 246.98827389599995 L 585.2100257859363 246.98827389599995 L 585.2100257859363 904.9200006559998 L 567.6182683859363 904.9200006559998 L 567.6182683859363 246.98827389599995" stroke-miterlimit="10" stroke-width="1.4659797833333332" stroke-dasharray=""/><path fill="white" stroke="black" paint-order="fill stroke markers" d=" M 1011.7619230799467 296.24519461599994 L 1029.3536804799467 296.24519461599994 L 1029.3536804799467 855.6630799359998 L 1011.7619230799467 855.6630799359998 L 1011.7619230799467 296.24519461599994" stroke-miterlimit="10" stroke-width="1.4659797833333332" stroke-dasharray=""/><path fill="white" stroke="black" paint-order="fill stroke markers" d=" M 1465.8665598871733 345.5021153359999 L 1483.4583172871733 345.5021153359999 L 1483.4583172871733 444.0159567759999 L 1465.8665598871733 444.0159567759999 L 1465.8665598871733 345.5021153359999" stroke-miterlimit="10" stroke-width="1.4659797833333332" stroke-dasharray=""/><path fill="white" stroke="black" paint-order="fill stroke markers" d=" M 337.52615788137894 1003.4338420959999 L 355.11791528137894 1003.4338420959999 L 355.11791528137894 2269.6885397479987 L 337.52615788137894 2269.6885397479987 L 337.52615788137894 1003.4338420959999" stroke-miterlimit="10" stroke-width="1.4659797833333332" stroke-dasharray=""/><path fill="white" stroke="black" paint-order="fill stroke markers" d=" M 113.13202550921224 1107.928881052 L 130.72378290921225 1107.928881052 L 130.72378290921225 1157.1858017719999 L 113.13202550921224 1157.1858017719999 L 113.13202550921224 1107.928881052" stroke-miterlimit="10" stroke-width="1.4659797833333332" stroke-dasharray=""/><path fill="white" stroke="black" paint-order="fill stroke markers" d=" M 567.6182683859363 1206.4427224919998 L 585.2100257859363 1206.4427224919998 L 585.2100257859363 2220.4316190279987 L 567.6182683859363 2220.4316190279987 L 567.6182683859363 1206.4427224919998" stroke-miterlimit="10" stroke-width="1.4659797833333332" stroke-dasharray=""/><path fill="white" stroke="black" paint-order="fill stroke markers" d=" M 1011.7619230799467 1255.6996432119997 L 1029.3536804799467 1255.6996432119997 L 1029.3536804799467 1704.9931272079991 L 1011.7619230799467 1704.9931272079991 L 1011.7619230799467 1255.6996432119997" stroke-miterlimit="10" stroke-width="1.4659797833333332" stroke-dasharray=""/><path fill="white" stroke="black" paint-order="fill stroke markers" d=" M 1270.481250587629 1304.9565639319997 L 1288.073007987629 1304.9565639319997 L 1288.073007987629 1354.2134846519996 L 1270.481250587629 1354.2134846519996 L 1270.481250587629 1304.9565639319997" stroke-miterlimit="10" stroke-width="1.4659797833333332" stroke-dasharray=""/><path fill="white" stroke="black" paint-order="fill stroke markers" d=" M 1465.8665598871733 1403.4704053719995 L 1483.4583172871733 1403.4704053719995 L 1483.4583172871733 1655.7362064879992 L 1465.8665598871733 1655.7362064879992 L 1465.8665598871733 1403.4704053719995" stroke-miterlimit="10" stroke-width="1.4659797833333332" stroke-dasharray=""/><path fill="white" stroke="black" paint-order="fill stroke markers" d=" M 1944.8220705613594 1557.2223650479993 L 1962.4138279613594 1557.2223650479993 L 1962.4138279613594 1606.4792857679993 L 1944.8220705613594 1606.4792857679993 L 1944.8220705613594 1557.2223650479993" stroke-miterlimit="10" stroke-width="1.4659797833333332" stroke-dasharray=""/><path fill="white" stroke="black" paint-order="fill stroke markers" d=" M 576.4141470859363 1777.1193325479992 L 594.0059044859363 1777.1193325479992 L 594.0059044859363 2171.174698307999 L 576.4141470859363 2171.174698307999 L 576.4141470859363 1777.1193325479992" stroke-miterlimit="10" stroke-width="1.4659797833333332" stroke-dasharray=""/><path fill="white" stroke="black" paint-order="fill stroke markers" d=" M 346.32203658137894 1826.3762532679991 L 363.91379398137894 1826.3762532679991 L 363.91379398137894 2171.174698307999 L 346.32203658137894 2171.174698307999 L 346.32203658137894 1826.3762532679991" stroke-miterlimit="10" stroke-width="1.4659797833333332" stroke-dasharray=""/><g><g><rect fill="white" stroke="none" x="124.41452000051369" y="174.86206855599997" width="120.67482031082031" height="22.86928462"/></g><text fill="black" stroke="none" font-family="sans-serif" font-size="11pt" font-style="normal" font-weight="normal" text-decoration="normal" x="127.05328361051369" y="190.69465021599999" text-anchor="start" dominant-baseline="alphabetic" xml:space="preserve">mouseClick(pos)</text></g><g><path fill="none" stroke="black" paint-order="fill stroke markers" d=" M 31.97770243046875 197.73135317599997 L 323.0422776220456 197.73135317599997" stroke-miterlimit="10" stroke-width="1.4659797833333332" stroke-dasharray=""/><g transform="translate(337.52615788137894,197.73135317599997) translate(-337.52615788137894,-197.73135317599997)"><path fill="black" stroke="none" paint-order="stroke fill markers" d=" M 322.8663600480456 190.4014542593333 L 337.52615788137894 197.73135317599997 L 322.8663600480456 205.06125209266665 Z"/></g></g><g><g><rect fill="white" stroke="none" x="404.39144522805213" y="224.11898927599995" width="113.95329321121093" height="22.86928462"/></g><text fill="black" stroke="none" font-family="sans-serif" font-size="11pt" font-style="normal" font-weight="normal" text-decoration="normal" x="407.03020883805215" y="239.95157093599997" text-anchor="start" dominant-baseline="alphabetic" xml:space="preserve">getWeek(week)</text></g><g><path fill="none" stroke="black" paint-order="fill stroke markers" d=" M 355.11791528137894 246.98827389599995 L 553.134388126603 246.98827389599995" stroke-miterlimit="10" stroke-width="1.4659797833333332" stroke-dasharray=""/><g transform="translate(567.6182683859363,246.98827389599995) translate(-567.6182683859363,-246.98827389599995)"><path fill="black" stroke="none" paint-order="stroke fill markers" d=" M 552.958470552603 239.65837497933327 L 567.6182683859363 246.98827389599995 L 552.958470552603 254.31817281266663 Z"/></g></g><g><g><rect fill="white" stroke="none" x="746.9137696608321" y="273.37590999599996" width="103.14440954421875" height="22.86928462"/></g><text fill="black" stroke="none" font-family="sans-serif" font-size="11pt" font-style="normal" font-weight="normal" text-decoration="normal" x="749.5525332708321" y="289.208491656" text-anchor="start" dominant-baseline="alphabetic" xml:space="preserve">getBookings()</text></g><g><path fill="none" stroke="black" paint-order="fill stroke markers" d=" M 585.2100257859363 296.24519461599994 L 997.2780428206133 296.24519461599994" stroke-miterlimit="10" stroke-width="1.4659797833333332" stroke-dasharray=""/><g transform="translate(1011.7619230799467,296.24519461599994) translate(-1011.7619230799467,-296.24519461599994)"><path fill="black" stroke="none" paint-order="stroke fill markers" d=" M 997.1021252466134 288.9152956993333 L 1011.7619230799467 296.24519461599994 L 997.1021252466134 303.5750935326666 Z"/></g></g><g><g><rect fill="white" stroke="none" x="1159.7386981873294" y="322.63283071599994" width="175.74284399246093" height="22.86928462"/></g><text fill="black" stroke="none" font-family="sans-serif" font-size="11pt" font-style="normal" font-weight="normal" text-decoration="normal" x="1162.3774617973295" y="338.46541237599996" text-anchor="start" dominant-baseline="alphabetic" xml:space="preserve">queryBooking(int:week)</text></g><g><path fill="none" stroke="black" paint-order="fill stroke markers" d=" M 1029.3536804799467 345.5021153359999 L 1451.38267962784 345.5021153359999" stroke-miterlimit="10" stroke-width="1.4659797833333332" stroke-dasharray=""/><g transform="translate(1465.8665598871733,345.5021153359999) translate(-1465.8665598871733,-345.5021153359999)"><path fill="black" stroke="none" paint-order="stroke fill markers" d=" M 1451.2067620538398 338.17221641933327 L 1465.8665598871733 345.5021153359999 L 1451.2067620538398 352.83201425266657 Z"/></g></g><g><g><rect fill="white" stroke="none" x="1534.2318200340824" y="371.8897514359999" width="186.05777013992187" height="22.86928462"/></g><text fill="black" stroke="none" font-family="sans-serif" font-size="11pt" font-style="normal" font-weight="normal" text-decoration="normal" x="1536.8705836440824" y="387.72233309599994" text-anchor="start" dominant-baseline="alphabetic" xml:space="preserve">executeQuery(sql:String)</text></g><g><path fill="none" stroke="black" paint-order="fill stroke markers" d=" M 1483.4583172871733 394.7590360559999 L 1756.5792126615802 394.7590360559999" stroke-miterlimit="10" stroke-width="1.4659797833333332" stroke-dasharray=""/><g transform="translate(1771.0630929209135,394.7590360559999) translate(-1771.0630929209135,-394.7590360559999)"><path fill="black" stroke="none" paint-order="stroke fill markers" d=" M 1756.40329508758 387.42913713933325 L 1771.0630929209135 394.7590360559999 L 1756.40329508758 402.08893497266655 Z"/></g></g><g><g><rect fill="white" stroke="none" x="1244.97135657356" y="421.1466721559999" width="5.27752722" height="22.86928462"/></g><text fill="black" stroke="none" font-family="sans-serif" font-size="11pt" font-style="normal" font-weight="normal" text-decoration="normal" x="1247.61012018356" y="436.9792538159999" text-anchor="start" dominant-baseline="alphabetic" xml:space="preserve"></text></g><g><path fill="none" stroke="black" paint-order="fill stroke markers" d=" M 1465.8665598871733 444.0159567759999 L 1043.83756073928 444.0159567759999" stroke-miterlimit="10" stroke-width="1.4659797833333332" stroke-dasharray="7.0367029599999995"/><g transform="translate(1029.3536804799467,444.0159567759999) translate(-1029.3536804799467,-444.0159567759999)"><path fill="black" stroke="none" paint-order="stroke fill markers" d=" M 1044.01347831328 436.68605785933323 L 1029.3536804799467 444.0159567759999 L 1044.01347831328 451.34585569266653 Z"/></g></g><g><g><rect fill="white" stroke="none" x="1050.17059340328" y="517.9013378559999" width="72.58605993484375" height="22.86928462"/></g><text fill="black" stroke="none" font-family="sans-serif" font-size="11pt" font-style="normal" font-weight="normal" text-decoration="normal" x="1052.80935701328" y="533.7339195159999" text-anchor="start" dominant-baseline="alphabetic" xml:space="preserve">getTime()</text></g><g><path fill="none" stroke="black" paint-order="fill stroke markers" d=" M 1029.3536804799467 540.7706224759999 L 1099.7207100799467 540.7706224759999 L 1099.7207100799467 563.6399070959999 L 1043.83756073928 563.6399070959999" stroke-miterlimit="10" stroke-width="1.4659797833333332" stroke-dasharray=""/><g transform="translate(1029.3536804799467,563.6399070959999) translate(-1029.3536804799467,-563.6399070959999)"><path fill="black" stroke="none" paint-order="stroke fill markers" d=" M 1044.01347831328 556.3100081793332 L 1029.3536804799467 563.6399070959999 L 1044.01347831328 570.9698060126666 Z"/></g></g><g><g><rect fill="white" stroke="none" x="1050.17059340328" y="590.0275431959999" width="84.07493627761718" height="22.86928462"/></g><text fill="black" stroke="none" font-family="sans-serif" font-size="11pt" font-style="normal" font-weight="normal" text-decoration="normal" x="1052.80935701328" y="605.8601248559999" text-anchor="start" dominant-baseline="alphabetic" xml:space="preserve">returntime</text></g><g><path fill="none" stroke="black" paint-order="fill stroke markers" d=" M 1029.3536804799467 612.8968278159998 L 1099.7207100799467 612.8968278159998 L 1099.7207100799467 635.7661124359998 L 1043.83756073928 635.7661124359998" stroke-miterlimit="10" stroke-width="1.4659797833333332" stroke-dasharray="7.0367029599999995"/><g transform="translate(1029.3536804799467,635.7661124359998) translate(-1029.3536804799467,-635.7661124359998)"><path fill="black" stroke="none" paint-order="stroke fill markers" d=" M 1044.01347831328 628.4362135193331 L 1029.3536804799467 635.7661124359998 L 1044.01347831328 643.0960113526666 Z"/></g></g><g><g><rect fill="white" stroke="none" x="1050.17059340328" y="662.1537485359999" width="80.173767454375" height="22.86928462"/></g><text fill="black" stroke="none" font-family="sans-serif" font-size="11pt" font-style="normal" font-weight="normal" text-decoration="normal" x="1052.80935701328" y="677.9863301959998" text-anchor="start" dominant-baseline="alphabetic" xml:space="preserve">getRoom()</text></g><g><path fill="none" stroke="black" paint-order="fill stroke markers" d=" M 1029.3536804799467 685.0230331559998 L 1099.7207100799467 685.0230331559998 L 1099.7207100799467 707.8923177759998 L 1043.83756073928 707.8923177759998" stroke-miterlimit="10" stroke-width="1.4659797833333332" stroke-dasharray=""/><g transform="translate(1029.3536804799467,707.8923177759998) translate(-1029.3536804799467,-707.8923177759998)"><path fill="black" stroke="none" paint-order="stroke fill markers" d=" M 1044.01347831328 700.5624188593331 L 1029.3536804799467 707.8923177759998 L 1044.01347831328 715.2222166926665 Z"/></g></g><g><g><rect fill="white" stroke="none" x="1050.17059340328" y="734.2799538759998" width="94.60466039871093" height="22.86928462"/></g><text fill="black" stroke="none" font-family="sans-serif" font-size="11pt" font-style="normal" font-weight="normal" text-decoration="normal" x="1052.80935701328" y="750.1125355359998" text-anchor="start" dominant-baseline="alphabetic" xml:space="preserve">returnRoom</text></g><g><path fill="none" stroke="black" paint-order="fill stroke markers" d=" M 1029.3536804799467 757.1492384959997 L 1099.7207100799467 757.1492384959997 L 1099.7207100799467 780.0185231159998 L 1043.83756073928 780.0185231159998" stroke-miterlimit="10" stroke-width="1.4659797833333332" stroke-dasharray="7.0367029599999995"/><g transform="translate(1029.3536804799467,780.0185231159998) translate(-1029.3536804799467,-780.0185231159998)"><path fill="black" stroke="none" paint-order="stroke fill markers" d=" M 1044.01347831328 772.688624199333 L 1029.3536804799467 780.0185231159998 L 1044.01347831328 787.3484220326665 Z"/></g></g><g><g><rect fill="white" stroke="none" x="739.6983231886642" y="832.7937953159998" width="117.57530248855468" height="22.86928462"/></g><text fill="black" stroke="none" font-family="sans-serif" font-size="11pt" font-style="normal" font-weight="normal" text-decoration="normal" x="742.3370867986641" y="848.6263769759997" text-anchor="start" dominant-baseline="alphabetic" xml:space="preserve">returnBookings</text></g><g><path fill="none" stroke="black" paint-order="fill stroke markers" d=" M 1011.7619230799467 855.6630799359998 L 599.6939060452696 855.6630799359998" stroke-miterlimit="10" stroke-width="1.4659797833333332" stroke-dasharray="7.0367029599999995"/><g transform="translate(585.2100257859363,855.6630799359998) translate(-585.2100257859363,-855.6630799359998)"><path fill="black" stroke="none" paint-order="stroke fill markers" d=" M 599.8698236192696 848.3331810193331 L 585.2100257859363 855.6630799359998 L 599.8698236192696 862.9929788526665 Z"/></g></g><g><g><rect fill="white" stroke="none" x="429.0049172129154" y="882.0507160359998" width="64.72634924148437" height="22.86928462"/></g><text fill="black" stroke="none" font-family="sans-serif" font-size="11pt" font-style="normal" font-weight="normal" text-decoration="normal" x="431.6436808229154" y="897.8832976959998" text-anchor="start" dominant-baseline="alphabetic" xml:space="preserve">update()</text></g><g><path fill="none" stroke="black" paint-order="fill stroke markers" d=" M 567.6182683859363 904.9200006559998 L 369.60179554071226 904.9200006559998" stroke-miterlimit="10" stroke-width="1.4659797833333332" stroke-dasharray=""/><g transform="translate(355.11791528137894,904.9200006559998) translate(-355.11791528137894,-904.9200006559998)"><path fill="black" stroke="none" paint-order="stroke fill markers" d=" M 369.7777131147123 897.5901017393331 L 355.11791528137894 904.9200006559998 L 369.7777131147123 912.2498995726665 Z"/></g></g><g><g><rect fill="white" stroke="none" x="182.11316654592383" y="931.3076367559999" width="5.27752722" height="22.86928462"/></g><text fill="black" stroke="none" font-family="sans-serif" font-size="11pt" font-style="normal" font-weight="normal" text-decoration="normal" x="184.75193015592384" y="947.1402184159998" text-anchor="start" dominant-baseline="alphabetic" xml:space="preserve"></text></g><g><path fill="none" stroke="black" paint-order="fill stroke markers" d=" M 337.52615788137894 954.1769213759999 L 46.461582689802086 954.1769213759999" stroke-miterlimit="10" stroke-width="1.4659797833333332" stroke-dasharray="7.0367029599999995"/><g transform="translate(31.97770243046875,954.1769213759999) translate(-31.97770243046875,-954.1769213759999)"><path fill="black" stroke="none" paint-order="stroke fill markers" d=" M 46.63750026380208 946.8470224593332 L 31.97770243046875 954.1769213759999 L 46.63750026380208 961.5068202926666 Z"/></g></g><g><g><rect fill="white" stroke="none" x="137.1489484062754" y="980.5645574759999" width="95.20596349929687" height="22.86928462"/></g><text fill="black" stroke="none" font-family="sans-serif" font-size="11pt" font-style="normal" font-weight="normal" text-decoration="normal" x="139.7877120162754" y="996.3971391359999" text-anchor="start" dominant-baseline="alphabetic" xml:space="preserve">mouseClick()</text></g><g><path fill="none" stroke="black" paint-order="fill stroke markers" d=" M 31.97770243046875 1003.4338420959999 L 323.0422776220456 1003.4338420959999" stroke-miterlimit="10" stroke-width="1.4659797833333332" stroke-dasharray=""/><g transform="translate(337.52615788137894,1003.4338420959999) translate(-337.52615788137894,-1003.4338420959999)"><path fill="black" stroke="none" paint-order="stroke fill markers" d=" M 322.8663600480456 996.1039431793332 L 337.52615788137894 1003.4338420959999 L 322.8663600480456 1010.7637410126666 Z"/></g></g><g><path fill="white" stroke="black" paint-order="fill stroke markers" d=" M 156.84754264821225 1055.9452379349998 A 26.123759739 26.123759739 0 1 1 156.84752958633345 1055.9191141796148 M 88.50356514921224 1028.3261788169998 L 88.50356514921224 1083.5642970529998 M 87.00826577021223 1055.9452379349998 L 104.60002317021224 1055.9452379349998" stroke-miterlimit="10" stroke-width="2.990598758" stroke-dasharray=""/></g><g><g/><text fill="black" stroke="none" font-family="sans-serif" font-size="11pt" font-style="normal" font-weight="normal" text-decoration="normal" x="99.04314621360678" y="1101.1560544529998" text-anchor="start" dominant-baseline="alphabetic" xml:space="preserve">Dialog</text></g><g><g><rect fill="white" stroke="none" x="179.15975495054556" y="1046.005895004" width="133.1515506575" height="22.86928462"/></g><text fill="black" stroke="none" font-family="sans-serif" font-size="11pt" font-style="normal" font-weight="normal" text-decoration="normal" x="181.79851856054557" y="1061.838476664" text-anchor="start" dominant-baseline="alphabetic" xml:space="preserve">ReservationDialog</text></g><g><path fill="none" stroke="black" paint-order="fill stroke markers" d=" M 337.52615788137894 1068.8751796239999 L 168.4287829365456 1068.8751796239999" stroke-miterlimit="10" stroke-width="1.4659797833333332" stroke-dasharray=""/><g transform="translate(153.94490267721224,1068.8751796239999) translate(-153.94490267721224,-1068.8751796239999)"><path fill="black" stroke="none" paint-order="stroke fill markers" d=" M 168.60470051054557 1061.5452807073332 L 153.94490267721224 1068.8751796239999 L 168.60470051054557 1076.2050785406666 Z"/></g></g><g><g><rect fill="white" stroke="none" x="182.97869946107681" y="1134.316517152" width="102.2925418684375" height="22.86928462"/></g><text fill="black" stroke="none" font-family="sans-serif" font-size="11pt" font-style="normal" font-weight="normal" text-decoration="normal" x="185.61746307107683" y="1150.149098812" text-anchor="start" dominant-baseline="alphabetic" xml:space="preserve">returnactivity</text></g><g><path fill="none" stroke="black" paint-order="fill stroke markers" d=" M 130.72378290921225 1157.1858017719999 L 323.0422776220456 1157.1858017719999" stroke-miterlimit="10" stroke-width="1.4659797833333332" stroke-dasharray="7.0367029599999995"/><g transform="translate(337.52615788137894,1157.1858017719999) translate(-337.52615788137894,-1157.1858017719999)"><path fill="black" stroke="none" paint-order="stroke fill markers" d=" M 322.8663600480456 1149.8559028553332 L 337.52615788137894 1157.1858017719999 L 322.8663600480456 1164.5157006886666 Z"/></g></g><g><g><rect fill="white" stroke="none" x="380.3327675547123" y="1183.5734378719999" width="162.07064855789062" height="22.86928462"/></g><text fill="black" stroke="none" font-family="sans-serif" font-size="11pt" font-style="normal" font-weight="normal" text-decoration="normal" x="382.9715311647123" y="1199.4060195319998" text-anchor="start" dominant-baseline="alphabetic" xml:space="preserve">transmit(time,activity)</text></g><g><path fill="none" stroke="black" paint-order="fill stroke markers" d=" M 355.11791528137894 1206.4427224919998 L 553.134388126603 1206.4427224919998" stroke-miterlimit="10" stroke-width="1.4659797833333332" stroke-dasharray=""/><g transform="translate(567.6182683859363,1206.4427224919998) translate(-567.6182683859363,-1206.4427224919998)"><path fill="black" stroke="none" paint-order="stroke fill markers" d=" M 552.958470552603 1199.112823575333 L 567.6182683859363 1206.4427224919998 L 552.958470552603 1213.7726214086665 Z"/></g></g><g><g><rect fill="white" stroke="none" x="610.4248780592696" y="1232.8303585919998" width="376.1221927473438" height="22.86928462"/></g><text fill="black" stroke="none" font-family="sans-serif" font-size="11pt" font-style="normal" font-weight="normal" text-decoration="normal" x="613.0636416692696" y="1248.6629402519998" text-anchor="start" dominant-baseline="alphabetic" xml:space="preserve">addBooking(DateTime:time,String:activity,String:id)</text></g><g><path fill="none" stroke="black" paint-order="fill stroke markers" d=" M 585.2100257859363 1255.6996432119997 L 997.2780428206133 1255.6996432119997" stroke-miterlimit="10" stroke-width="1.4659797833333332" stroke-dasharray=""/><g transform="translate(1011.7619230799467,1255.6996432119997) translate(-1011.7619230799467,-1255.6996432119997)"><path fill="black" stroke="none" paint-order="stroke fill markers" d=" M 997.1021252466134 1248.369744295333 L 1011.7619230799467 1255.6996432119997 L 997.1021252466134 1263.0295421286664 Z"/></g></g><g><g><rect fill="white" stroke="none" x="1050.17059340328" y="1282.0872793119997" width="199.49374426101562" height="22.86928462"/></g><text fill="black" stroke="none" font-family="sans-serif" font-size="11pt" font-style="normal" font-weight="normal" text-decoration="normal" x="1052.80935701328" y="1297.9198609719997" text-anchor="start" dominant-baseline="alphabetic" xml:space="preserve">getRoom(int:roomnumber)</text></g><g><path fill="none" stroke="black" paint-order="fill stroke markers" d=" M 1029.3536804799467 1304.9565639319997 L 1255.9973703282956 1304.9565639319997" stroke-miterlimit="10" stroke-width="1.4659797833333332" stroke-dasharray=""/><g transform="translate(1270.481250587629,1304.9565639319997) translate(-1270.481250587629,-1304.9565639319997)"><path fill="black" stroke="none" paint-order="stroke fill markers" d=" M 1255.8214527542955 1297.626665015333 L 1270.481250587629 1304.9565639319997 L 1255.8214527542955 1312.2864628486664 Z"/></g></g><g><g><rect fill="white" stroke="none" x="1080.188514851034" y="1331.3442000319997" width="139.4579013655078" height="22.86928462"/></g><text fill="black" stroke="none" font-family="sans-serif" font-size="11pt" font-style="normal" font-weight="normal" text-decoration="normal" x="1082.827278461034" y="1347.1767816919996" text-anchor="start" dominant-baseline="alphabetic" xml:space="preserve">return(int:number)</text></g><g><path fill="none" stroke="black" paint-order="fill stroke markers" d=" M 1270.481250587629 1354.2134846519996 L 1043.83756073928 1354.2134846519996" stroke-miterlimit="10" stroke-width="1.4659797833333332" stroke-dasharray=""/><g transform="translate(1029.3536804799467,1354.2134846519996) translate(-1029.3536804799467,-1354.2134846519996)"><path fill="black" stroke="none" paint-order="stroke fill markers" d=" M 1044.01347831328 1346.8835857353329 L 1029.3536804799467 1354.2134846519996 L 1044.01347831328 1361.5433835686663 Z"/></g></g><g><g><rect fill="white" stroke="none" x="1090.633481207349" y="1380.6011207519996" width="313.9532779524219" height="22.86928462"/></g><text fill="black" stroke="none" font-family="sans-serif" font-size="11pt" font-style="normal" font-weight="normal" text-decoration="normal" x="1093.272244817349" y="1396.4337024119995" text-anchor="start" dominant-baseline="alphabetic" xml:space="preserve">addBooking(DateTime:time,String:activity)</text></g><g><path fill="none" stroke="black" paint-order="fill stroke markers" d=" M 1029.3536804799467 1403.4704053719995 L 1451.38267962784 1403.4704053719995" stroke-miterlimit="10" stroke-width="1.4659797833333332" stroke-dasharray=""/><g transform="translate(1465.8665598871733,1403.4704053719995) translate(-1465.8665598871733,-1403.4704053719995)"><path fill="black" stroke="none" paint-order="stroke fill markers" d=" M 1451.2067620538398 1396.1405064553328 L 1465.8665598871733 1403.4704053719995 L 1451.2067620538398 1410.8003042886662 Z"/></g></g><g><g><rect fill="white" stroke="none" x="1534.2318200340824" y="1429.8580414719995" width="186.05777013992187" height="22.86928462"/></g><text fill="black" stroke="none" font-family="sans-serif" font-size="11pt" font-style="normal" font-weight="normal" text-decoration="normal" x="1536.8705836440824" y="1445.6906231319995" text-anchor="start" dominant-baseline="alphabetic" xml:space="preserve">executeQuery(sql:String)</text></g><g><path fill="none" stroke="black" paint-order="fill stroke markers" d=" M 1483.4583172871733 1452.7273260919994 L 1756.5792126615802 1452.7273260919994" stroke-miterlimit="10" stroke-width="1.4659797833333332" stroke-dasharray=""/><g transform="translate(1771.0630929209135,1452.7273260919994) translate(-1771.0630929209135,-1452.7273260919994)"><path fill="black" stroke="none" paint-order="stroke fill markers" d=" M 1756.40329508758 1445.3974271753327 L 1771.0630929209135 1452.7273260919994 L 1756.40329508758 1460.0572250086661 Z"/></g></g><g><path fill="white" stroke="black" paint-order="fill stroke markers" d=" M 1988.5375877003594 1505.2387219309994 A 26.123759739 26.123759739 0 1 1 1988.5375746384807 1505.2125981756144 M 1920.1936102013594 1477.6196628129994 L 1920.1936102013594 1532.8577810489994 M 1918.6983108223594 1505.2387219309994 L 1936.2900682223594 1505.2387219309994" stroke-miterlimit="10" stroke-width="2.990598758" stroke-dasharray=""/></g><g><g/><text fill="black" stroke="none" font-family="sans-serif" font-size="11pt" font-style="normal" font-weight="normal" text-decoration="normal" x="1912.5656955382149" y="1550.4495384489994" text-anchor="start" dominant-baseline="alphabetic" xml:space="preserve">Reservation</text></g><g><g><rect fill="white" stroke="none" x="1508.6731695605065" y="1495.2993789999994" width="378.677673704375" height="22.86928462"/></g><text fill="black" stroke="none" font-family="sans-serif" font-size="11pt" font-style="normal" font-weight="normal" text-decoration="normal" x="1511.3119331705066" y="1511.1319606599993" text-anchor="start" dominant-baseline="alphabetic" xml:space="preserve">addBooking(DateTime:time,String:activity.Stringis)</text></g><g><path fill="none" stroke="black" paint-order="fill stroke markers" d=" M 1483.4583172871733 1518.1686636199993 L 1898.0818152788815 1518.1686636199993" stroke-miterlimit="10" stroke-width="1.4659797833333332" stroke-dasharray=""/><g transform="translate(1912.5656955382149,1518.1686636199993) translate(-1912.5656955382149,-1518.1686636199993)"><path fill="black" stroke="none" paint-order="stroke fill markers" d=" M 1897.9058977048815 1510.8387647033326 L 1912.5656955382149 1518.1686636199993 L 1897.9058977048815 1525.498562536666 Z"/></g></g><g><g><rect fill="white" stroke="none" x="1711.5014303142664" y="1583.6100011479994" width="5.27752722" height="22.86928462"/></g><text fill="black" stroke="none" font-family="sans-serif" font-size="11pt" font-style="normal" font-weight="normal" text-decoration="normal" x="1714.1401939242664" y="1599.4425828079993" text-anchor="start" dominant-baseline="alphabetic" xml:space="preserve"></text></g><g><path fill="none" stroke="black" paint-order="fill stroke markers" d=" M 1944.8220705613594 1606.4792857679993 L 1497.9421975465066 1606.4792857679993" stroke-miterlimit="10" stroke-width="1.4659797833333332" stroke-dasharray="7.0367029599999995"/><g transform="translate(1483.4583172871733,1606.4792857679993) translate(-1483.4583172871733,-1606.4792857679993)"><path fill="black" stroke="none" paint-order="stroke fill markers" d=" M 1498.1181151205067 1599.1493868513326 L 1483.4583172871733 1606.4792857679993 L 1498.1181151205067 1613.809184684666 Z"/></g></g><g><g><rect fill="white" stroke="none" x="1244.97135657356" y="1632.8669218679993" width="5.27752722" height="22.86928462"/></g><text fill="black" stroke="none" font-family="sans-serif" font-size="11pt" font-style="normal" font-weight="normal" text-decoration="normal" x="1247.61012018356" y="1648.6995035279992" text-anchor="start" dominant-baseline="alphabetic" xml:space="preserve"></text></g><g><path fill="none" stroke="black" paint-order="fill stroke markers" d=" M 1465.8665598871733 1655.7362064879992 L 1043.83756073928 1655.7362064879992" stroke-miterlimit="10" stroke-width="1.4659797833333332" stroke-dasharray="7.0367029599999995"/><g transform="translate(1029.3536804799467,1655.7362064879992) translate(-1029.3536804799467,-1655.7362064879992)"><path fill="black" stroke="none" paint-order="stroke fill markers" d=" M 1044.01347831328 1648.4063075713325 L 1029.3536804799467 1655.7362064879992 L 1044.01347831328 1663.066105404666 Z"/></g></g><g><g><rect fill="white" stroke="none" x="795.8472108229415" y="1682.1238425879992" width="5.27752722" height="22.86928462"/></g><text fill="black" stroke="none" font-family="sans-serif" font-size="11pt" font-style="normal" font-weight="normal" text-decoration="normal" x="798.4859744329415" y="1697.9564242479992" text-anchor="start" dominant-baseline="alphabetic" xml:space="preserve"></text></g><g><path fill="none" stroke="black" paint-order="fill stroke markers" d=" M 1011.7619230799467 1704.9931272079991 L 599.6939060452696 1704.9931272079991" stroke-miterlimit="10" stroke-width="1.4659797833333332" stroke-dasharray="7.0367029599999995"/><g transform="translate(585.2100257859363,1704.9931272079991) translate(-585.2100257859363,-1704.9931272079991)"><path fill="black" stroke="none" paint-order="stroke fill markers" d=" M 599.8698236192696 1697.6632282913324 L 585.2100257859363 1704.9931272079991 L 599.8698236192696 1712.3230261246658 Z"/></g></g><g><g><rect fill="white" stroke="none" x="614.8228174092696" y="1731.3807633079991" width="126.03630102371093" height="22.86928462"/></g><text fill="black" stroke="none" font-family="sans-serif" font-size="11pt" font-style="normal" font-weight="normal" text-decoration="normal" x="617.4615810192696" y="1747.213344967999" text-anchor="start" dominant-baseline="alphabetic" xml:space="preserve">notifyObservers()</text></g><g><path fill="none" stroke="black" paint-order="fill stroke markers" d=" M 585.2100257859363 1754.2500479279993 L 664.3729340859363 1754.2500479279993 L 664.3729340859363 1777.1193325479992 L 608.4897847452696 1777.1193325479992" stroke-miterlimit="10" stroke-width="1.4659797833333332" stroke-dasharray=""/><g transform="translate(594.0059044859363,1777.1193325479992) translate(-594.0059044859363,-1777.1193325479992)"><path fill="black" stroke="none" paint-order="stroke fill markers" d=" M 608.6657023192696 1769.7894336313325 L 594.0059044859363 1777.1193325479992 L 608.6657023192696 1784.449231464666 Z"/></g></g><g><g><rect fill="white" stroke="none" x="442.6970056297123" y="1803.5069686479992" width="54.93392980789062" height="22.86928462"/></g><text fill="black" stroke="none" font-family="sans-serif" font-size="11pt" font-style="normal" font-weight="normal" text-decoration="normal" x="445.3357692397123" y="1819.3395503079992" text-anchor="start" dominant-baseline="alphabetic" xml:space="preserve">update</text></g><g><path fill="none" stroke="black" paint-order="fill stroke markers" d=" M 576.4141470859363 1826.3762532679991 L 378.39767424071226 1826.3762532679991" stroke-miterlimit="10" stroke-width="1.4659797833333332" stroke-dasharray=""/><g transform="translate(363.91379398137894,1826.3762532679991) translate(-363.91379398137894,-1826.3762532679991)"><path fill="black" stroke="none" paint-order="stroke fill markers" d=" M 378.5735918147123 1819.0463543513324 L 363.91379398137894 1826.3762532679991 L 378.5735918147123 1833.7061521846658 Z"/></g></g><g><g><rect fill="white" stroke="none" x="424.9554055930912" y="1852.7638893679991" width="90.41712988113281" height="22.86928462"/></g><text fill="black" stroke="none" font-family="sans-serif" font-size="11pt" font-style="normal" font-weight="normal" text-decoration="normal" x="427.5941692030912" y="1868.596471027999" text-anchor="start" dominant-baseline="alphabetic" xml:space="preserve">getAvtivity()</text></g><g><path fill="none" stroke="black" paint-order="fill stroke markers" d=" M 363.91379398137894 1875.633173987999 L 561.930266826603 1875.633173987999" stroke-miterlimit="10" stroke-width="1.4659797833333332" stroke-dasharray=""/><g transform="translate(576.4141470859363,1875.633173987999) translate(-576.4141470859363,-1875.633173987999)"><path fill="black" stroke="none" paint-order="stroke fill markers" d=" M 561.754349252603 1868.3032750713323 L 576.4141470859363 1875.633173987999 L 561.754349252603 1882.9630729046658 Z"/></g></g><g><g><rect fill="white" stroke="none" x="419.01769959943886" y="1902.020810087999" width="102.2925418684375" height="22.86928462"/></g><text fill="black" stroke="none" font-family="sans-serif" font-size="11pt" font-style="normal" font-weight="normal" text-decoration="normal" x="421.65646320943887" y="1917.853391747999" text-anchor="start" dominant-baseline="alphabetic" xml:space="preserve">returnactivity</text></g><g><path fill="none" stroke="black" paint-order="fill stroke markers" d=" M 576.4141470859363 1924.890094707999 L 378.39767424071226 1924.890094707999" stroke-miterlimit="10" stroke-width="1.4659797833333332" stroke-dasharray="7.0367029599999995"/><g transform="translate(363.91379398137894,1924.890094707999) translate(-363.91379398137894,-1924.890094707999)"><path fill="black" stroke="none" paint-order="stroke fill markers" d=" M 378.5735918147123 1917.5601957913323 L 363.91379398137894 1924.890094707999 L 378.5735918147123 1932.2199936246657 Z"/></g></g><g><g><rect fill="white" stroke="none" x="430.0770868064701" y="1951.277730807999" width="80.173767454375" height="22.86928462"/></g><text fill="black" stroke="none" font-family="sans-serif" font-size="11pt" font-style="normal" font-weight="normal" text-decoration="normal" x="432.7158504164701" y="1967.110312467999" text-anchor="start" dominant-baseline="alphabetic" xml:space="preserve">getRoom()</text></g><g><path fill="none" stroke="black" paint-order="fill stroke markers" d=" M 363.91379398137894 1974.147015427999 L 561.930266826603 1974.147015427999" stroke-miterlimit="10" stroke-width="1.4659797833333332" stroke-dasharray=""/><g transform="translate(576.4141470859363,1974.147015427999) translate(-576.4141470859363,-1974.147015427999)"><path fill="black" stroke="none" paint-order="stroke fill markers" d=" M 561.754349252603 1966.8171165113322 L 576.4141470859363 1974.147015427999 L 561.754349252603 1981.4769143446656 Z"/></g></g><g><g><rect fill="white" stroke="none" x="427.1995157005131" y="2000.534651527999" width="85.92890966628906" height="22.86928462"/></g><text fill="black" stroke="none" font-family="sans-serif" font-size="11pt" font-style="normal" font-weight="normal" text-decoration="normal" x="429.8382793105131" y="2016.3672331879989" text-anchor="start" dominant-baseline="alphabetic" xml:space="preserve">returnroon</text></g><g><path fill="none" stroke="black" paint-order="fill stroke markers" d=" M 576.4141470859363 2023.4039361479988 L 378.39767424071226 2023.4039361479988" stroke-miterlimit="10" stroke-width="1.4659797833333332" stroke-dasharray="7.0367029599999995"/><g transform="translate(363.91379398137894,2023.4039361479988) translate(-363.91379398137894,-2023.4039361479988)"><path fill="black" stroke="none" paint-order="stroke fill markers" d=" M 378.5735918147123 2016.074037231332 L 363.91379398137894 2023.4039361479988 L 378.5735918147123 2030.7338350646655 Z"/></g></g><g><g><rect fill="white" stroke="none" x="434.525916457349" y="2049.791572247999" width="71.27610815261718" height="22.86928462"/></g><text fill="black" stroke="none" font-family="sans-serif" font-size="11pt" font-style="normal" font-weight="normal" text-decoration="normal" x="437.164680067349" y="2065.624153907999" text-anchor="start" dominant-baseline="alphabetic" xml:space="preserve">getDate()</text></g><g><path fill="none" stroke="black" paint-order="fill stroke markers" d=" M 363.91379398137894 2072.660856867999 L 561.930266826603 2072.660856867999" stroke-miterlimit="10" stroke-width="1.4659797833333332" stroke-dasharray=""/><g transform="translate(576.4141470859363,2072.660856867999) translate(-576.4141470859363,-2072.660856867999)"><path fill="black" stroke="none" paint-order="stroke fill markers" d=" M 561.754349252603 2065.3309579513325 L 576.4141470859363 2072.660856867999 L 561.754349252603 2079.9907557846655 Z"/></g></g><g><g><rect fill="white" stroke="none" x="428.20524537580604" y="2099.0484929679988" width="83.91745031570312" height="22.86928462"/></g><text fill="black" stroke="none" font-family="sans-serif" font-size="11pt" font-style="normal" font-weight="normal" text-decoration="normal" x="430.84400898580606" y="2114.8810746279987" text-anchor="start" dominant-baseline="alphabetic" xml:space="preserve">returndate</text></g><g><path fill="none" stroke="black" paint-order="fill stroke markers" d=" M 576.4141470859363 2121.917777587999 L 378.39767424071226 2121.917777587999" stroke-miterlimit="10" stroke-width="1.4659797833333332" stroke-dasharray=""/><g transform="translate(363.91379398137894,2121.917777587999) translate(-363.91379398137894,-2121.917777587999)"><path fill="black" stroke="none" paint-order="stroke fill markers" d=" M 378.5735918147123 2114.5878786713324 L 363.91379398137894 2121.917777587999 L 378.5735918147123 2129.2476765046654 Z"/></g></g><g><g><rect fill="white" stroke="none" x="467.5252069236576" y="2148.3054136879987" width="5.27752722" height="22.86928462"/></g><text fill="black" stroke="none" font-family="sans-serif" font-size="11pt" font-style="normal" font-weight="normal" text-decoration="normal" x="470.1639705336576" y="2164.1379953479986" text-anchor="start" dominant-baseline="alphabetic" xml:space="preserve"></text></g><g><path fill="none" stroke="black" paint-order="fill stroke markers" d=" M 363.91379398137894 2171.174698307999 L 561.930266826603 2171.174698307999" stroke-miterlimit="10" stroke-width="1.4659797833333332" stroke-dasharray="7.0367029599999995"/><g transform="translate(576.4141470859363,2171.174698307999) translate(-576.4141470859363,-2171.174698307999)"><path fill="black" stroke="none" paint-order="stroke fill markers" d=" M 561.754349252603 2163.8447993913323 L 576.4141470859363 2171.174698307999 L 561.754349252603 2178.5045972246653 Z"/></g></g><g><g><rect fill="white" stroke="none" x="458.7293282236576" y="2197.5623344079986" width="5.27752722" height="22.86928462"/></g><text fill="black" stroke="none" font-family="sans-serif" font-size="11pt" font-style="normal" font-weight="normal" text-decoration="normal" x="461.3680918336576" y="2213.3949160679986" text-anchor="start" dominant-baseline="alphabetic" xml:space="preserve"></text></g><g><path fill="none" stroke="black" paint-order="fill stroke markers" d=" M 567.6182683859363 2220.4316190279987 L 369.60179554071226 2220.4316190279987" stroke-miterlimit="10" stroke-width="1.4659797833333332" stroke-dasharray="7.0367029599999995"/><g transform="translate(355.11791528137894,2220.4316190279987) translate(-355.11791528137894,-2220.4316190279987)"><path fill="black" stroke="none" paint-order="stroke fill markers" d=" M 369.7777131147123 2213.1017201113323 L 355.11791528137894 2220.4316190279987 L 369.7777131147123 2227.7615179446652 Z"/></g></g><g><g><rect fill="white" stroke="none" x="182.11316654592383" y="2246.8192551279985" width="5.27752722" height="22.86928462"/></g><text fill="black" stroke="none" font-family="sans-serif" font-size="11pt" font-style="normal" font-weight="normal" text-decoration="normal" x="184.75193015592384" y="2262.6518367879985" text-anchor="start" dominant-baseline="alphabetic" xml:space="preserve"></text></g><g><path fill="none" stroke="black" paint-order="fill stroke markers" d=" M 337.52615788137894 2269.6885397479987 L 46.461582689802086 2269.6885397479987" stroke-miterlimit="10" stroke-width="1.4659797833333332" stroke-dasharray="7.0367029599999995"/><g transform="translate(31.97770243046875,2269.6885397479987) translate(-31.97770243046875,-2269.6885397479987)"><path fill="black" stroke="none" paint-order="stroke fill markers" d=" M 46.63750026380208 2262.358640831332 L 31.97770243046875 2269.6885397479987 L 46.63750026380208 2277.018438664665 Z"/></g></g><g><g/><path fill="none" stroke="black" paint-order="fill stroke markers" d=" M 958.9866508799466 470.4035928759999 L 1150.932368891991 470.4035928759999 L 1150.932368891991 806.4061592159998 L 958.9866508799466 806.4061592159998 L 958.9866508799466 470.4035928759999 Z" stroke-miterlimit="10" stroke-width="2.5131082" stroke-dasharray=""/><path fill="white" stroke="black" paint-order="fill stroke markers" d=" M 958.9866508799466 470.4035928759999 L 958.9866508799466 491.5137017559999 L 1020.8719326477201 491.5137017559999 L 1031.4269870877201 480.9586473159999 L 1031.4269870877201 470.4035928759999 L 958.9866508799466 470.4035928759999" stroke-miterlimit="10" stroke-width="2.5131082" stroke-dasharray=""/><text fill="black" stroke="none" font-family="sans-serif" font-size="8.8pt" font-style="normal" font-weight="bold" text-decoration="normal" x="976.5784082799466" y="484.47699879599986" text-anchor="start" dominant-baseline="alphabetic" xml:space="preserve">loop</text></g></g><g/><g/><g/><g/><g/><g/><g/><g/></g></svg>