<svg version="1.1" xmlns="http://www.w3.org/2000/svg" xmlns:xlink="http://www.w3.org/1999/xlink" width="2101" height="2331"><defs/><g><g/><g/><g/><g/><g/><g/><g/><g/><g/><g/><g/><g/><g/><g/><g/><g/><g/><g/><g/><g/><g/><g/><g/><g/><g/><g/><g/><g/><g/><g/><g/><g/><g/><g/><g/><g/><g/><g><rect fill="white" stroke="none" x="0" y="0" width="2101" height="2331"/></g><g><text fill="black" stroke="none" font-family="sans-serif" font-size="16.5pt" font-style="normal" font-weight="normal" text-decoration="normal" x="1006.8931818395172" y="26.3876361" text-anchor="start" dominant-baseline="alphabetic" xml:space="preserve">Booking</text></g><g/><g><path fill="none" stroke="black" paint-order="fill stroke markers" d=" M 71.2117722546875 139.67855375599999 L 71.2117722546875 2331.2596906479985" stroke-miterlimit="10" stroke-width="1.4659797833333332" stroke-dasharray="13.532121076923076,5.863919133333333"/><path fill="none" stroke="black" paint-order="fill stroke markers" d=" M 183.236421677375 1107.928881052 L 183.236421677375 2331.2596906479985" stroke-miterlimit="10" stroke-width="1.4659797833333332" stroke-dasharray="13.532121076923076,5.863919133333333"/><path fill="none" stroke="black" paint-order="fill stroke markers" d=" M 407.6305540495417 139.67855375599999 L 407.6305540495417 2331.2596906479985" stroke-miterlimit="10" stroke-width="1.4659797833333332" stroke-dasharray="13.532121076923076,5.863919133333333"/><path fill="none" stroke="black" paint-order="fill stroke markers" d=" M 637.722664554099 139.67855375599999 L 637.722664554099 2331.2596906479985" stroke-miterlimit="10" stroke-width="1.4659797833333332" stroke-dasharray="13.532121076923076,5.863919133333333"/><path fill="none" stroke="black" paint-order="fill stroke markers" d=" M 1081.8663192481094 139.67855375599999 L 1081.8663192481094 2331.2596906479985" stroke-miterlimit="10" stroke-width="1.4659797833333332" stroke-dasharray="13.532121076923076,5.863919133333333"/><path fill="none" stroke="black" paint-order="fill stroke markers" d=" M 1340.5856467557917 139.67855375599999 L 1340.5856467557917 2331.2596906479985" stroke-miterlimit="10" stroke-width="1.4659797833333332" stroke-dasharray="13.532121076923076,5.863919133333333"/><path fill="none" stroke="black" paint-order="fill stroke markers" d=" M 1569.6287777106095 139.67855375599999 L 1569.6287777106095 2331.2596906479985" stroke-miterlimit="10" stroke-width="1.4659797833333332" stroke-dasharray="13.532121076923076,5.863919133333333"/><path fill="none" stroke="black" paint-order="fill stroke markers" d=" M 1753.4792578303523 139.67855375599999 L 1753.4792578303523 2331.2596906479985" stroke-miterlimit="10" stroke-width="1.4659797833333332" stroke-dasharray="13.532121076923076,5.863919133333333"/><path fill="none" stroke="black" paint-order="fill stroke markers" d=" M 1867.3250558236466 139.67855375599999 L 1867.3250558236466 2331.2596906479985" stroke-miterlimit="10" stroke-width="1.4659797833333332" stroke-dasharray="13.532121076923076,5.863919133333333"/><path fill="none" stroke="black" paint-order="fill stroke markers" d=" M 2051.1755359433896 1557.2223650479993 L 2051.1755359433896 2331.2596906479985" stroke-miterlimit="10" stroke-width="1.4659797833333332" stroke-dasharray="13.532121076923076,5.863919133333333"/></g><g><g><path fill="white" stroke="black" paint-order="fill stroke markers" d=" M 81.2390739726875 65.265419954 A 10.027301717999999 10.027301717999999 0 1 1 81.23906895903706 65.25539265395321 M 71.2117722546875 75.29272167199998 L 71.2117722546875 96.75466569999998 M 58.5457069266875 83.033094928 L 83.8778375826875 83.033094928 M 71.2117722546875 96.75466569999998 L 58.5457069266875 116.80926913599998 M 71.2117722546875 96.75466569999998 L 83.8778375826875 116.80926913599998" stroke-miterlimit="10" stroke-width="2.990598758" stroke-dasharray=""/></g><g><g/><text fill="black" stroke="none" font-family="sans-serif" font-size="11pt" font-style="normal" font-weight="normal" text-decoration="normal" x="8.795878700000003" y="134.401026536" text-anchor="start" dominant-baseline="alphabetic" xml:space="preserve">Teacher&amp;Monitor</text></g><g><path fill="white" stroke="black" paint-order="fill stroke markers" d=" M 442.55019248854165 89.19021001799997 A 26.123759739 26.123759739 0 1 1 442.5501794266629 89.16408626261492 M 374.2062149895417 61.57115089999997 L 374.2062149895417 116.80926913599997 M 372.7109156105417 89.19021001799997 L 390.3026730105417 89.19021001799997" stroke-miterlimit="10" stroke-width="2.990598758" stroke-dasharray=""/></g><g><g/><text fill="black" stroke="none" font-family="sans-serif" font-size="11pt" font-style="normal" font-weight="normal" text-decoration="normal" x="370.93762955002995" y="134.401026536" text-anchor="start" dominant-baseline="alphabetic" xml:space="preserve">BookingUI</text></g><g><path fill="white" stroke="black" paint-order="fill stroke markers" d=" M 663.846424293099 89.19021001799997 A 26.123759739 26.123759739 0 1 1 663.8464112312201 89.16408626261492 M 634.204313074099 63.06645027899997 L 644.759367514099 54.27057157899998 M 634.204313074099 63.06645027899997 L 644.759367514099 71.86232897899997" stroke-miterlimit="10" stroke-width="2.990598758" stroke-dasharray=""/></g><g><g/><text fill="black" stroke="none" font-family="sans-serif" font-size="11pt" font-style="normal" font-weight="normal" text-decoration="normal" x="583.3955237459935" y="134.401026536" text-anchor="start" dominant-baseline="alphabetic" xml:space="preserve">BookingSystem</text></g><path fill="none" stroke="none"/><g><path fill="white" stroke="black" paint-order="fill stroke markers" d=" M 1020.7212790706719 92.18080877599999 L 1143.011359425547 92.18080877599999 L 1143.011359425547 139.67855375599999 L 1020.7212790706719 139.67855375599999 L 1020.7212790706719 92.18080877599999 Z" stroke-miterlimit="10" stroke-width="2.814681184" stroke-dasharray=""/></g><g><g/><text fill="black" stroke="none" font-family="sans-serif" font-size="11pt" font-style="normal" font-weight="normal" text-decoration="normal" x="1039.808335849672" y="122.08679635600001" text-anchor="start" dominant-baseline="alphabetic" xml:space="preserve">ClassRooms</text></g><path fill="none" stroke="none"/><g><path fill="white" stroke="black" paint-order="fill stroke markers" d=" M 1272.9910673937839 92.18080877599999 L 1408.1802261177995 92.18080877599999 L 1408.1802261177995 139.67855375599999 L 1272.9910673937839 139.67855375599999 L 1272.9910673937839 92.18080877599999 Z" stroke-miterlimit="10" stroke-width="2.814681184" stroke-dasharray=""/></g><g><g/><text fill="black" stroke="none" font-family="sans-serif" font-size="11pt" font-style="normal" font-weight="normal" text-decoration="normal" x="1292.0781241727839" y="122.08679635600001" text-anchor="start" dominant-baseline="alphabetic" xml:space="preserve">RoomMapper</text></g><path fill="none" stroke="none"/><g><path fill="white" stroke="black" paint-order="fill stroke markers" d=" M 1493.94185978659 92.18080877599999 L 1645.315695634629 92.18080877599999 L 1645.315695634629 139.67855375599999 L 1493.94185978659 139.67855375599999 L 1493.94185978659 92.18080877599999 Z" stroke-miterlimit="10" stroke-width="2.814681184" stroke-dasharray=""/></g><g><g/><text fill="black" stroke="none" font-family="sans-serif" font-size="11pt" font-style="normal" font-weight="normal" text-decoration="normal" x="1513.02891656559" y="122.08679635600001" text-anchor="start" dominant-baseline="alphabetic" xml:space="preserve">BookingMapper</text></g><g><path fill="white" stroke="black" paint-order="fill stroke markers" d=" M 1779.6030175693522 86.79773101159998 A 26.123759739 26.123759739 0 1 1 1779.6030045074735 86.77160725621492 M 1725.8601987123523 115.31396975699997 L 1781.0983169483522 115.31396975699997" stroke-miterlimit="10" stroke-width="2.990598758" stroke-dasharray=""/></g><g><g/><text fill="black" stroke="none" font-family="sans-serif" font-size="11pt" font-style="normal" font-weight="normal" text-decoration="normal" x="1732.5057318293757" y="134.401026536" text-anchor="start" dominant-baseline="alphabetic" xml:space="preserve">Room</text></g><g><path fill="white" stroke="black" paint-order="fill stroke markers" d=" M 1841.6410900196465 105.19870925199999 L 1841.6410900196465 68.25601871199999 L 1893.0090216276467 68.25601871199999 L 1893.0090216276467 105.19870925199999" stroke-miterlimit="10" stroke-width="2.990598758" stroke-dasharray=""/><path fill="white" stroke="black" paint-order="fill stroke markers" d=" M 1893.0090216276467 66.97182042179999 L 1893.007737440058 67.08792408555635 L 1893.00388500571 67.20401613904309 L 1892.9974647098427 67.3200849731516 L 1892.9884771944803 67.43611898109519 L 1892.976923358367 67.55210655956978 L 1892.9628043568766 67.66803610991414 L 1892.9461216018979 67.78389603926989 L 1892.926876761692 67.8996747617406 L 1892.905071760727 68.01536069955054 L 1892.880708779485 68.1309422842023 L 1892.8537902542437 68.24640795763378 L 1892.824318876833 68.3617461733738 L 1892.7922975943668 68.47694539769695 L 1892.7577296089457 68.59199411077678 L 1892.72061837734 68.70688080783783 L 1892.680967610642 68.82159400030618 L 1892.6387812738951 68.93612221695814 L 1892.5940635856978 69.0504540050675 L 1892.5468190177817 69.16457793155072 L 1892.4970522945644 69.27848258411025 L 1892.4447683926765 69.39215657237577 L 1892.3899725404647 69.50558852904317 L 1892.3326702174686 69.61876711101131 L 1892.2728671538728 69.73168100051632 L 1892.2105693299336 69.84431890626333 L 1892.1457829753817 69.95666956455563 L 1892.0785145687985 70.06872174042103 L 1892.0087708369688 70.18046422873529 L 1891.9365587542072 70.29188585534273 L 1891.861885541662 70.40297547817353 L 1891.7847586665926 70.51372198835797 L 1891.7051858416216 70.62411431133734 L 1891.6231750239658 70.73414140797132 L 1891.5387344146382 70.84379227564195 L 1891.4518724576294 70.95305594935381 L 1891.3625978390628 71.06192150283061 L 1891.270919486326 71.1703780496077 L 1891.1768465671778 71.27841474412082 L 1891.0803884888317 71.38602078279051 L 1890.981554897015 71.4931854051026 L 1890.8803556750047 71.59989789468413 L 1890.7768009426386 71.7061475803751 L 1890.6709010553036 71.81192383729548 L 1890.5626666029002 71.9172160879077 L 1890.4521084087837 72.02201380307447 L 1890.339237528681 72.12630650311159 L 1890.2240652495861 72.23008375883597 L 1890.1066030886313 72.33333519260853 L 1889.9868627919345 72.43605047937191 L 1889.8648563334257 72.53821934768304 L 1889.7405959136488 72.63983158074024 L 1889.6140939585428 72.74087701740487 L 1889.485363118197 72.84134555321748 L 1889.354416265589 72.94122714140819 L 1889.2212664952945 73.04051179390143 L 1889.0859271221793 73.13918958231469 L 1888.9484116800686 73.23725063895135 L 1888.8087339203914 73.33468515778748 L 1888.6669078108077 73.43148339545236 L 1888.52294753381 73.52763567220293 L 1888.3768674853063 73.6231323728916 L 1888.2286822731794 73.71796394792793 L 1888.0784067158272 73.8121209142334 L 1887.9260558406802 73.90559385618985 L 1887.7716448826989 73.998373426581 L 1887.6151892828507 74.09045034752711 L 1887.4567046865645 74.18181541141281 L 1887.2962069421687 74.27245948180787 L 1887.1337120993035 74.36237349438078 L 1886.969236407318 74.45154845780519 L 1886.8027963136442 74.53997545465909 L 1886.6344084621526 74.62764564231648 L 1886.4640896914884 74.71455025383165 L 1886.2918570333866 74.80068059881587 L 1886.1177277109693 74.88602806430642 L 1885.9417191370237 74.97058411562787 L 1885.7638489122608 75.05434029724555 L 1885.5841348235547 75.13728823361109 L 1885.4025948421643 75.21941962999999 L 1885.2192471219366 75.30072627334106 L 1885.0341099974908 75.38120003303769 L 1884.8472019823853 75.46083286178099 L 1884.6585417672654 75.53961679635444 L 1884.468148217996 75.61754395843025 L 1884.2760403737727 75.69460655535714 L 1884.0822374452205 75.77079688093964 L 1883.8867588124701 75.84610731620869 L 1883.6896240232224 75.9205303301835 L 1883.4908527907917 75.99405848062472 L 1883.2904649921359 76.06668441477855 L 1883.0884806658676 76.13840087011211 L 1882.884920010251 76.20920067503964 L 1882.6798033811826 76.27907674963963 L 1882.473151290154 76.34802210636286 L 1882.2649844022021 76.4160298507311 L 1882.055323533842 76.48309318202661 L 1881.8441896509864 76.54920539397213 L 1881.6316038668472 76.61435987540155 L 1881.4175874398256 76.67855011092104 L 1881.2021617713863 76.74176968156053 L 1880.9853484039163 76.80401226541565 L 1880.7671690185718 76.86527163827986 L 1880.5476454331097 76.92554167426694 L 1880.3267995997053 76.98481634642351 L 1880.1046536027582 77.04308972733178 L 1879.8812296566828 77.10035598970217 L 1879.6565501036873 77.15660940695618 L 1879.4306374115401 77.21184435379898 L 1879.2035141713222 77.26605530678191 L 1878.9752030951681 77.31923684485484 L 1878.7457270139953 77.37138364990828 L 1878.5151088752207 77.42249050730518 L 1878.283371740466 77.4725523064024 L 1878.0505387832513 77.52156404106174 L 1877.8166332866788 77.56952081015058 L 1877.5816786411028 77.61641781803196 L 1877.3456983417923 77.6622503750442 L 1877.1087159865804 77.70701389796976 L 1876.8707552735052 77.75070391049368 L 1876.6318399984398 77.7933160436511 L 1876.3919940527123 77.83484603626422 L 1876.151241420718 77.87528973536838 L 1875.909606177519 77.91464309662739 L 1875.6671124864383 77.9529021847379 L 1875.4237845966431 77.99006317382297 L 1875.1796468407197 78.02612234781469 L 1874.9347236322396 78.0610761008257 L 1874.6890394633203 78.09492093750981 L 1874.4426189021738 78.12765347341158 L 1874.1954865906505 78.15927043530469 L 1873.947667241776 78.18976866151928 L 1873.6991856372783 78.21914510225817 L 1873.4500666251113 78.24739681990175 L 1873.200335116968 78.27452098930179 L 1872.9500160857915 78.30051489806398 L 1872.6991345632764 78.32537594681908 L 1872.4477156373655 78.34910164948295 L 1872.1957844497424 78.37168963350508 L 1871.9433661933153 78.39313764010592 L 1871.6904861097 78.41344352450264 L 1871.4371694866938 78.43260525612375 L 1871.183441655748 78.45062091881205 L 1870.9293279894346 78.46748871101629 L 1870.674853898908 78.48320694597129 L 1870.4200448313654 78.49777405186667 L 1870.164926267501 78.51118857200397 L 1869.909523718959 78.52344916494236 L 1869.653862725781 78.53455460463276 L 1869.3979688538536 78.54450378054045 L 1869.1418676923506 78.55329569775614 L 1868.8855848511746 78.56092947709544 L 1868.6291459583963 78.56740435518677 L 1868.3725766576913 78.57271968454769 L 1868.115902605776 78.57687493364975 L 1867.8591494698412 78.57986968697145 L 1867.6023429249872 78.58170364504 L 1867.345508651654 78.58237662446106 L 1867.0886723330548 78.58188855793732 L 1866.831859652608 78.58023949427498 L 1866.5750962913671 78.57742959837903 L 1866.3184079254545 78.57345915123673 L 1866.061820223493 78.56832854988951 L 1865.8053588440387 78.56203830739318 L 1865.549049433016 78.5545890527668 L 1865.2929176211524 78.54598153092958 L 1865.0369890214156 78.53621660262655 L 1864.7812892264521 78.5252952443424 L 1864.5258438060287 78.51321854820387 L 1864.2706783044744 78.4999877218705 L 1864.0158182381267 78.48560408841388 L 1863.7612890927799 78.4700690861854 L 1863.5071163211362 78.45338426867232 L 1863.2533253402612 78.4355513043425 L 1862.9999415290415 78.41657197647748 L 1862.746990225647 78.39644818299428 L 1862.4944967249974 78.37518193625543 L 1862.242486276232 78.35277536286792 L 1861.990984080186 78.32923070347039 L 1861.7400152868695 78.30455031250918 L 1861.489604992952 78.2787366580028 L 1861.2397782392552 78.2517923212952 L 1860.9905600082454 78.2237199967976 L 1860.7419752215387 78.19452249171906 L 1860.4940487374063 78.16420272578573 L 1860.2468053482899 78.13276373094897 L 1860.0002697783225 78.10020865108203 L 1859.7544666808558 78.0665407416658 L 1859.5094206359945 78.03176336946316 L 1859.2651561481389 77.99588001218234 L 1859.0216976435345 77.95889425812916 L 1858.7790694678283 77.92080980584822 L 1858.5372958836363 77.881630463753 L 1858.2964010681153 77.84136014974506 L 1858.0564091105457 77.80000289082224 L 1857.8173440099238 77.75756282267598 L 1857.5792296725601 77.71404418927773 L 1857.34208990969 77.66945134245454 L 1857.1059484350924 77.62378874145395 L 1856.8708288627176 77.57706095249802 L 1856.636754704327 77.52927264832667 L 1856.4037493671415 77.48042860773052 L 1856.1718361515007 77.43053371507293 L 1855.9410382485325 77.37959295980157 L 1855.7113787378355 77.32761143594954 L 1855.482880585169 77.27459434162587 L 1855.2555666401577 77.22054697849586 L 1855.029459634007 77.16547475125074 L 1854.804582177229 77.10938316706736 L 1854.5809567573817 77.0522778350574 L 1854.3586057368213 76.99416446570646 L 1854.137551350464 76.93504887030305 L 1853.9178157035647 76.87493696035746 L 1853.6994207695045 76.81383474701059 L 1853.4823883875954 76.75174834043284 L 1853.266740260894 76.68868394921314 L 1853.052497954034 76.62464787973806 L 1852.839682891067 76.5596465355612 L 1852.6283163533221 76.49368641676277 L 1852.4184194772772 76.42677411929971 L 1852.2100132524445 76.358916334346 L 1852.0031185192734 76.2901198476236 L 1851.7977559670642 76.22039153872383 L 1851.5939461319015 76.14973838041949 L 1851.3917093945988 76.07816743796754 L 1851.191065978661 76.00568586840255 L 1850.992035948263 75.9323009198211 L 1850.7946392062415 75.8580199306569 L 1850.5988954921067 75.78285032894695 L 1850.4048243800664 75.70679963158878 L 1850.2124452770706 75.62987544358876 L 1850.0217774208688 75.55208545730159 L 1849.832839878088 75.47343745166106 L 1849.645651542325 75.3939392914022 L 1849.4602311322571 75.31359892627479 L 1849.276597189771 75.2324243902484 L 1849.0947680781082 75.15042380070896 L 1848.914761980028 75.06760535764712 L 1848.7365968959905 74.98397734283817 L 1848.5602906423553 74.89954811901389 L 1848.385860849601 74.8143261290263 L 1848.2133249605613 74.72831989500338 L 1848.0427002286817 74.64153801749687 L 1847.874003716293 74.5539891746222 L 1847.7072522929059 74.46568212119071 L 1847.5424626335237 74.37662568783415 L 1847.3796512169752 74.28682878012162 L 1847.218834324266 74.19630037766909 L 1847.0600280369517 74.10504953324134 L 1846.9032482355287 74.0130853718468 L 1846.7485105978465 73.92041708982494 L 1846.5958305975396 73.82705395392676 L 1846.445223502481 73.73300530038806 L 1846.296704373255 73.63828053399578 L 1846.1502880616501 73.54288912714766 L 1846.005989209176 73.44684061890487 L 1845.8638222455975 73.3501446140382 L 1845.7238013874926 73.25281078206757 L 1845.5859406368302 73.15484885629505 L 1845.4502537795706 73.05626863283157 L 1845.3167543842865 72.95707996961737 L 1845.1854558008063 72.85729278543607 L 1845.0563711588786 72.75691705892295 L 1844.9295133668602 72.65596282756702 L 1844.8048951104247 72.5544401867073 L 1844.6825288512937 72.45235928852324 L 1844.5624268259912 72.34973034101961 L 1844.4446010446197 72.24656360700563 L 1844.3290632896592 72.14286940306874 L 1844.2158251147887 72.03865809854291 L 1844.1048978437316 71.93394011447177 L 1843.9962925691223 71.82872592256643 L 1843.890020151398 71.72302604415843 L 1843.7860912177116 71.61685104914753 L 1843.6845161608703 71.51021155494473 L 1843.5853051382946 71.4031182254106 L 1843.4884680710047 71.29558176978884 L 1843.3940146426262 71.1876129416354 L 1843.3019542984232 71.07922253774314 L 1843.2122962443536 70.9704213970621 L 1843.125049446148 70.86122039961568 L 1843.0402226284136 70.75163046541265 L 1842.9578242737616 70.64166255335508 L 1842.8778626219585 70.53132766014255 L 1842.8003456691029 70.42063681917243 L 1842.7252811668254 70.30960109943658 L 1842.6526766215143 70.19823160441445 L 1842.5825392935628 70.0865394709627 L 1842.5148761966457 69.97453586820164 L 1842.4496940970162 69.86223199639821 L 1842.38699951283 69.74963908584596 L 1842.3267987134932 69.63676839574217 L 1842.2690977190357 69.52363121306175 L 1842.2139022995088 69.41023885142872 L 1842.1612179744084 69.29660264998472 L 1842.1110500121229 69.18273397225522 L 1842.0634034294071 69.0686442050131 L 1842.0182829908795 68.95434475714 L 1841.975693208546 68.83984705848547 L 1841.9356383413499 68.72516255872397 L 1841.8981223947442 68.61030272620987 L 1841.8631491202923 68.49527904683073 L 1841.8307220152926 68.38010302285863 L 1841.8008443224285 68.2647861718 L 1841.7735190294445 68.14934002524383 L 1841.7487488688469 68.03377612770858 L 1841.7265363176314 67.9181060354877 L 1841.7068835970342 67.80234131549402 L 1841.6897926723116 67.68649354410306 L 1841.6752652525413 67.57057430599544 L 1841.6633027904534 67.45459519299835 L 1841.653906482284 67.33856780292646 L 1841.6470772676562 67.22250373842208 L 1841.642815829486 67.10641460579494 L 1841.6411225939132 66.99031201386155 L 1841.64199773026 66.87420757278437 L 1841.645441151014 66.75811289291076 L 1841.6514525118355 66.64203958361193 L 1841.6600312115936 66.52599925212212 L 1841.6711763924254 66.41000350237775 L 1841.6848869398223 66.29406393385715 L 1841.7011614827406 66.17819214042055 L 1841.71999839374 66.06239970915072 L 1841.7413957891451 65.94669821919432 L 1841.7653515292338 65.8310992406039 L 1841.7918632184521 65.71561433318102 L 1841.8209282056537 65.60025504532017 L 1841.8525435843635 65.48503291285398 L 1841.88670619307 65.36995945789971 L 1841.9234126155413 65.25504618770695 L 1841.9626591811655 65.14030459350695 L 1842.0044419653184 65.02574614936354 L 1842.048756789757 64.91138231102563 L 1842.0955992230354 64.79722451478179 L 1842.1449645809491 64.68328417631649 L 1842.196847927004 64.56957268956862 L 1842.2512440729083 64.45610142559212 L 1842.3081475790932 64.3428817314188 L 1842.367552755255 64.22992492892377 L 1842.4294536609257 64.1172423136931 L 1842.4938441060665 64.00484515389444 L 1842.5607176516864 63.89274468915009 L 1842.6300676104868 63.78095212941312 L 1842.7018870475292 63.66947865384635 L 1842.7761687809302 63.558335409704426 L 1842.852905382578 63.447533511219156 L 1842.9320891788764 63.337084038488044 L 1843.013712251512 63.226998036366325 L 1843.0977664382453 63.11728651336247 L 1843.184243333728 63.00796044053737 L 1843.2731342903423 62.899030750407185 L 1843.3644304190668 62.790508335850156 L 1843.4581225903646 62.682404049017315 L 1843.5542014350967 62.57472870024724 L 1843.6526573454587 62.4674930569851 L 1843.7534804759416 62.36070784270584 L 1843.8566607443163 62.25438373584191 L 1843.962187832642 62.148531368715396 L 1844.0700511882978 62.04316132647479 L 1844.180240025038 61.938284146036516 L 1844.292743324071 61.83391031503122 L 1844.4075498351601 61.73005027075502 L 1844.5246480777503 61.6267143991258 L 1844.6440263421148 61.52391303364461 L 1844.7656726905268 61.42165645436233 L 1844.8895749584526 61.31995488685167 L 1845.0157207557686 61.21881850118463 L 1845.1440974680006 61.1182574109155 L 1845.2746922575839 61.018281672069506 L 1845.4074920651487 60.91890128213721 L 1845.5424836108248 60.82012617907481 L 1845.6796533955699 60.72196624031029 L 1845.8189877025202 60.62443128175571 L 1845.9604725983609 60.52753105682567 L 1846.1040939347204 60.431275255461905 L 1846.2498373495846 60.33567350316434 L 1846.3976882687336 60.24073536002853 L 1846.5476319071988 60.14647031978968 L 1846.699653270741 60.05288780887326 L 1846.853737157351 59.959997185452366 L 1847.009868158768 59.86780773851195 L 1847.1680306620224 59.77632868691987 L 1847.3282088509955 59.68556917850505 L 1847.4903867080016 59.59553828914271 L 1847.6545480153907 59.50624502184675 L 1847.8206763571684 59.41769830586949 L 1847.9887551206393 59.32990699580875 L 1848.158767498067 59.24287987072236 L 1848.3306964883552 59.15662563325033 L 1848.5045248987485 59.0711529087445 L 1848.6802353465505 58.986470244406114 L 1848.857810260863 58.90258610843103 L 1849.0372318843424 58.81950888916295 L 1849.218482274976 58.737246894254554 L 1849.4015433078757 58.65580834983679 L 1849.5863966770908 58.57520139969624 L 1849.7730238974382 58.49543410446074 L 1849.9614063063516 58.41651444079334 L 1850.1515250657471 58.33845030059465 L 1850.3433611639073 58.26124949021362 L 1850.536895417382 58.18491972966697 L 1850.7321084729074 58.10946865186714 L 1850.9289808093401 58.03490380185903 L 1851.1274927396112 57.96123263606552 L 1851.3276244126928 57.88846252154177 L 1851.5293558155843 57.816600735238616 L 1851.7326667753134 57.74565446327479 L 1851.9375369609538 57.67563080021837 L 1852.1439458856576 57.60653674837731 L 1852.3518729087043 57.53837921709922 L 1852.561297237565 57.47116502208042 L 1852.772197929981 57.40490088468441 L 1852.9845538960592 57.3395934312697 L 1853.1983439003798 57.27524919252721 L 1853.4135465641202 57.21187460282721 L 1853.630140367194 57.14947599957584 L 1853.8481036504008 57.088059622581426 L 1854.0674146175945 57.02763161343051 L 1854.2880513378607 56.96819801487362 L 1854.5099917477112 56.9097647702211 L 1854.73321365329 56.85233772274873 L 1854.957694732593 56.79592261511338 L 1855.1834125376988 56.74052508877882 L 1855.4103444970153 56.6861506834515 L 1855.6384679175355 56.63280483652666 L 1855.8677599871075 56.58049288254453 L 1856.0981977767156 56.52922005265691 L 1856.3297582427724 56.47899147410408 L 1856.5624182294248 56.42981216970201 L 1856.7961544708678 56.38168705734017 L 1857.030943593672 56.334620949489704 L 1857.2667621191206 56.28861855272216 L 1857.503586465558 56.24368446723889 L 1857.7413929507466 56.199823186410995 L 1857.9801577942362 56.157039096329996 L 1858.2198571197412 56.11533647536926 L 1858.460466957529 56.07471949375613 L 1858.7019632468164 56.035192213154914 L 1858.9443218381755 55.99675858626073 L 1859.1875184959492 55.959422456404255 L 1859.4315289006745 55.923187557167346 L 1859.676328651514 55.88805751200974 L 1859.921893268697 55.85403583390668 L 1860.1681981959662 55.82112592499761 L 1860.4152188030341 55.78933107624601 L 1860.6629303880459 55.758654467110254 L 1860.9113081800494 55.72909916522569 L 1861.1603273414726 55.70066812609789 L 1861.4099629706068 55.67336419280706 L 1861.660190104097 55.64719009572377 L 1861.9109837194383 55.62214845223594 L 1862.1623187374785 55.598241766487035 L 1862.414170024925 55.57547242912571 L 1862.666512396859 55.55384271706673 L 1862.9193206192535 55.533354793263264 L 1863.172569411497 55.51401070649064 L 1863.4262334489215 55.4958123911414 L 1863.6802873653344 55.47876166703191 L 1863.9347057555558 55.46286023922039 L 1864.1894631779587 55.44810969783636 L 1864.444534157013 55.434511517921656 L 1864.6998931858338 55.42206705928295 L 1864.9555147287308 55.41077756635575 L 1865.2113732237624 55.40064416807991 L 1865.4674430852929 55.39166787778682 L 1865.723698706549 55.38384959309805 L 1865.9801144621824 55.37719009583553 L 1866.2366647108313 55.37169005194345 L 1866.4933237976843 55.36735001142162 L 1866.750066057047 55.36417040827046 L 1867.006865814907 55.36215156044765 L 1867.2636973915028 55.36129366983628 L 1867.5205351038908 55.3615968222247 L 1867.7773532685135 55.363060987297914 L 1868.0341262037687 55.36568601864066 L 1868.2908282325768 55.369471653751965 L 1868.5474336849486 55.37441751407148 L 1868.803916900553 55.3805231050173 L 1869.0602522312824 55.38778781603543 L 1869.3164140438168 55.39621092066079 L 1869.5723767221887 55.40579157658996 L 1869.8281146703434 55.41652882576533 L 1870.0836023146994 55.428421594470926 L 1870.338814106705 55.44146869343979 L 1870.5937245253938 55.45566881797289 L 1870.8483080799363 55.47102054806961 L 1871.1025393121893 55.48752234856974 L 1871.3563927992411 55.50517256930697 L 1871.6098431559549 55.52396944527395 L 1871.8628650375063 55.54391109679874 L 1872.1154331419175 55.56499552973279 L 1872.367522212589 55.587220635650404 L 1872.6191070408236 55.61058419205949 L 1872.8701624683483 55.63508386262389 L 1873.1206633898294 55.660717197396956 L 1873.3705847553833 55.687481633066575 L 1873.6199015730822 55.715374493211485 L 1873.8685889114518 55.744392988568904 L 1874.1166219019656 55.7745342173135 L 1874.363975741531 55.8057951653475 L 1874.6106256949704 55.83817270660215 L 1874.856547097494 55.871663603350314 L 1875.1017153571665 55.90626450653023 L 1875.3461059573663 55.941971956080394 L 1875.5896944592366 55.97878238128563 L 1875.8324565041307 56.01669210113408 L 1876.074367816046 56.055697324685354 L 1876.3154042040535 56.095794151449596 L 1876.5555415647148 56.136978571777554 L 1876.794755884494 56.17924646726151 L 1877.0330232421584 56.22259361114713 L 1877.270319811171 56.267015668756166 L 1877.5066218620725 56.31250819791986 L 1877.7419057648547 56.35906664942321 L 1877.9761479913236 56.40668636745987 L 1878.2093251174515 56.455362590097714 L 1878.4414138257202 56.505090449755045 L 1878.6723909074524 56.55586497368733 L 1878.9022332651323 56.60768108448449 L 1879.1309179147156 56.66053360057863 L 1879.3584219879278 56.71441723676219 L 1879.5847227345516 56.76932660471643 L 1879.8097975247006 56.82525621355034 L 1880.0336238510833 56.88220047034963 L 1880.2561793312539 56.940153680736074 L 1880.4774417098495 56.999110049436936 L 1880.6973888608168 57.05906368086447 L 1880.9159987896242 57.120008579705484 L 1881.1332496354603 57.1819386515209 L 1881.3491196734224 57.244847703355134 L 1881.563587316686 57.308729444355436 L 1881.7766311186656 57.373577486400926 L 1881.9882297751587 57.439385344741446 L 1882.198362126476 57.506146438646006 L 1882.4070071595575 57.57385409206084 L 1882.6141440100735 57.642501534277045 L 1882.8197519645119 57.712081900607586 L 1883.023810462248 57.78258823307383 L 1883.2262990976028 57.854013481101276 L 1883.4271976218813 57.92635050222464 L 1883.6264859453981 57.99959206280211 L 1883.8241441394875 58.07373083873863 L 1884.0201524384943 58.14875941621842 L 1884.2144912417523 58.224670292446234 L 1884.4071411155428 58.30145587639771 L 1884.5980827950393 58.379108489578456 L 1884.7872971862328 58.45762036679186 L 1884.9747653678417 58.53698365691561 L 1885.1604685932043 58.61719042368684 L 1885.3443882921526 58.698232646495725 L 1885.5265060728705 58.7801022211875 L 1885.706803723731 58.86279096087293 L 1885.8852632151195 58.94629059674695 L 1886.0618667012359 59.03059277891555 L 1886.2365965218783 59.115689077230776 L 1886.4094352042105 59.2015709821337 L 1886.5803654645083 59.2882299055054 L 1886.749370209888 59.375657181525774 L 1886.9164325400159 59.46384406754005 L 1887.0815357487984 59.55278174493313 L 1887.244663326052 59.642461320011385 L 1887.4057989591547 59.73287382489204 L 1887.564926534678 59.82401021839995 L 1887.7220301399968 59.91586138697171 L 1887.8770940648812 60.008418145567006 L 1888.0301028030683 60.10167123858711 L 1888.1810410538114 60.195611340800426 L 1888.3298937234115 60.29022905827503 L 1888.4766459267257 60.385514929318006 L 1888.6212829886558 60.48145942542166 L 1888.763790445616 60.57805295221634 L 1888.9041540469798 60.67528585042985 L 1889.0423597565036 60.77314839685341 L 1889.178393753732 60.87163080531391 L 1889.3122424353785 60.97072322765259 L 1889.4438924166861 61.07041575470979 L 1889.573330532767 61.170698417315876 L 1889.700543839917 61.271561187288164 L 1889.8255196169116 61.3729939784337 L 1889.9482453662772 61.47498664755789 L 1890.0687088155412 61.577528995478836 L 1890.1868979184587 61.68061076804718 L 1890.3028008562185 61.78422165717158 L 1890.416406038623 61.88835130184945 L 1890.5277021052486 61.99298928920311 L 1890.6366779265818 62.09812515552101 L 1890.7433226051307 62.203748387304145 L 1890.847625476517 62.30984842231735 L 1890.9495761105397 62.416414650645535 L 1891.049164312221 62.52343641575468 L 1891.1463801228233 62.63090301555746 L 1891.2412138208467 62.73880370348344 L 1891.3336559230006 62.847127689553744 L 1891.4236971851515 62.95586414146005 L 1891.5113286032483 63.065002185647764 L 1891.5965414142227 63.174530908403426 L 1891.679327096864 63.28443935694603 L 1891.759677372673 63.39471654052231 L 1891.8375842066894 63.50535143150581 L 1891.9130398082943 63.61633296649962 L 1891.9860366319908 63.72765004744274 L 1892.0565673781573 63.83929154271982 L 1892.1246249937778 63.951246288274376 L 1892.1902026731475 64.06350308872516 L 1892.2532938585532 64.17605071848564 L 1892.313892240929 64.28887792288667 L 1892.3719917604867 64.40197341930181 L 1892.4275866073233 64.51532589827566 L 1892.4806712220002 64.6289240246548 L 1892.5312402961001 64.74275643872124 L 1892.579288772758 64.85681175732844 L 1892.624811847166 64.97107857503958 L 1892.667804967055 65.08554546526814 L 1892.708263833148 65.20020098142045 L 1892.7461843995932 65.31503365804045 L 1892.7815628743647 65.43003201195617 L 1892.8143957196448 65.54518454342806 L 1892.8446796521766 65.66047973729893 L 1892.8724116435917 65.77590606414547 L 1892.897588920714 65.89145198143119 L 1892.9202089658372 66.00710593466063 L 1892.9402695169754 66.12285635853486 L 1892.9577685680902 66.23869167810795 L 1892.9727043692908 66.35460030994449 L 1892.98507542701 66.47057066327784 L 1892.9948805041522 66.58659114116935 L 1893.0021186202177 66.70265014166789 L 1893.0067890514013 66.81873605897015 L 1893.0088913306631 66.9348372845811 M 1893.0090216276467 103.91451096179999 L 1893.007737440058 104.03061462555635 L 1893.00388500571 104.14670667904309 L 1892.9974647098427 104.2627755131516 L 1892.9884771944803 104.37880952109519 L 1892.976923358367 104.49479709956978 L 1892.9628043568766 104.61072664991414 L 1892.9461216018979 104.72658657926989 L 1892.926876761692 104.8423653017406 L 1892.905071760727 104.95805123955054 L 1892.880708779485 105.0736328242023 L 1892.8537902542437 105.18909849763378 L 1892.824318876833 105.3044367133738 L 1892.7922975943668 105.41963593769695 L 1892.7577296089457 105.53468465077678 L 1892.72061837734 105.64957134783783 L 1892.680967610642 105.76428454030618 L 1892.6387812738951 105.87881275695814 L 1892.5940635856978 105.9931445450675 L 1892.5468190177817 106.10726847155073 L 1892.4970522945644 106.22117312411025 L 1892.4447683926765 106.33484711237577 L 1892.3899725404647 106.44827906904317 L 1892.3326702174686 106.56145765101131 L 1892.2728671538728 106.67437154051632 L 1892.2105693299336 106.78700944626333 L 1892.1457829753817 106.89936010455563 L 1892.0785145687985 107.01141228042103 L 1892.0087708369688 107.12315476873529 L 1891.9365587542072 107.23457639534273 L 1891.861885541662 107.34566601817353 L 1891.7847586665926 107.45641252835797 L 1891.7051858416216 107.56680485133734 L 1891.6231750239658 107.67683194797132 L 1891.5387344146382 107.78648281564195 L 1891.4518724576294 107.89574648935381 L 1891.3625978390628 108.00461204283062 L 1891.270919486326 108.1130685896077 L 1891.1768465671778 108.22110528412082 L 1891.0803884888317 108.32871132279051 L 1890.981554897015 108.4358759451026 L 1890.8803556750047 108.54258843468413 L 1890.7768009426386 108.6488381203751 L 1890.6709010553036 108.75461437729548 L 1890.5626666029002 108.8599066279077 L 1890.4521084087837 108.96470434307447 L 1890.339237528681 109.0689970431116 L 1890.2240652495861 109.17277429883598 L 1890.1066030886313 109.27602573260853 L 1889.9868627919345 109.37874101937192 L 1889.8648563334257 109.48090988768304 L 1889.7405959136488 109.58252212074024 L 1889.6140939585428 109.68356755740487 L 1889.485363118197 109.78403609321748 L 1889.354416265589 109.88391768140819 L 1889.2212664952945 109.98320233390143 L 1889.0859271221793 110.08188012231469 L 1888.9484116800686 110.17994117895135 L 1888.8087339203914 110.27737569778748 L 1888.6669078108077 110.37417393545236 L 1888.52294753381 110.47032621220293 L 1888.3768674853063 110.5658229128916 L 1888.2286822731794 110.66065448792793 L 1888.0784067158272 110.7548114542334 L 1887.9260558406802 110.84828439618985 L 1887.7716448826989 110.941063966581 L 1887.6151892828507 111.03314088752711 L 1887.4567046865645 111.12450595141281 L 1887.2962069421687 111.21515002180787 L 1887.1337120993035 111.30506403438078 L 1886.969236407318 111.39423899780519 L 1886.8027963136442 111.48266599465909 L 1886.6344084621526 111.57033618231648 L 1886.4640896914884 111.65724079383165 L 1886.2918570333866 111.74337113881587 L 1886.1177277109693 111.82871860430642 L 1885.9417191370237 111.91327465562787 L 1885.7638489122608 111.99703083724555 L 1885.5841348235547 112.07997877361109 L 1885.4025948421643 112.16211016999999 L 1885.2192471219366 112.24341681334106 L 1885.0341099974908 112.32389057303769 L 1884.8472019823853 112.40352340178099 L 1884.6585417672654 112.48230733635444 L 1884.468148217996 112.56023449843025 L 1884.2760403737727 112.63729709535714 L 1884.0822374452205 112.71348742093964 L 1883.8867588124701 112.78879785620869 L 1883.6896240232224 112.8632208701835 L 1883.4908527907917 112.93674902062472 L 1883.2904649921359 113.00937495477855 L 1883.0884806658676 113.08109141011211 L 1882.884920010251 113.15189121503964 L 1882.6798033811826 113.22176728963963 L 1882.473151290154 113.29071264636286 L 1882.2649844022021 113.35872039073111 L 1882.055323533842 113.42578372202661 L 1881.8441896509864 113.49189593397213 L 1881.6316038668472 113.55705041540155 L 1881.4175874398256 113.62124065092104 L 1881.2021617713863 113.68446022156053 L 1880.9853484039163 113.74670280541565 L 1880.7671690185718 113.80796217827987 L 1880.5476454331097 113.86823221426694 L 1880.3267995997053 113.92750688642352 L 1880.1046536027582 113.98578026733178 L 1879.8812296566828 114.04304652970217 L 1879.6565501036873 114.09929994695618 L 1879.4306374115401 114.15453489379898 L 1879.2035141713222 114.20874584678191 L 1878.9752030951681 114.26192738485484 L 1878.7457270139953 114.31407418990828 L 1878.5151088752207 114.36518104730519 L 1878.283371740466 114.4152428464024 L 1878.0505387832513 114.46425458106174 L 1877.8166332866788 114.51221135015058 L 1877.5816786411028 114.55910835803196 L 1877.3456983417923 114.6049409150442 L 1877.1087159865804 114.64970443796976 L 1876.8707552735052 114.69339445049368 L 1876.6318399984398 114.7360065836511 L 1876.3919940527123 114.77753657626423 L 1876.151241420718 114.81798027536838 L 1875.909606177519 114.85733363662739 L 1875.6671124864383 114.8955927247379 L 1875.4237845966431 114.93275371382298 L 1875.1796468407197 114.96881288781469 L 1874.9347236322396 115.0037666408257 L 1874.6890394633203 115.03761147750981 L 1874.4426189021738 115.07034401341159 L 1874.1954865906505 115.10196097530469 L 1873.947667241776 115.13245920151928 L 1873.6991856372783 115.16183564225817 L 1873.4500666251113 115.19008735990175 L 1873.200335116968 115.21721152930179 L 1872.9500160857915 115.24320543806398 L 1872.6991345632764 115.26806648681908 L 1872.4477156373655 115.29179218948295 L 1872.1957844497424 115.31438017350509 L 1871.9433661933153 115.33582818010592 L 1871.6904861097 115.35613406450264 L 1871.4371694866938 115.37529579612375 L 1871.183441655748 115.39331145881205 L 1870.9293279894346 115.41017925101629 L 1870.674853898908 115.42589748597129 L 1870.4200448313654 115.44046459186667 L 1870.164926267501 115.45387911200397 L 1869.909523718959 115.46613970494236 L 1869.653862725781 115.47724514463276 L 1869.3979688538536 115.48719432054045 L 1869.1418676923506 115.49598623775614 L 1868.8855848511746 115.50362001709544 L 1868.6291459583963 115.51009489518677 L 1868.3725766576913 115.5154102245477 L 1868.115902605776 115.51956547364975 L 1867.8591494698412 115.52256022697145 L 1867.6023429249872 115.52439418504 L 1867.345508651654 115.52506716446106 L 1867.0886723330548 115.52457909793732 L 1866.831859652608 115.52293003427498 L 1866.5750962913671 115.52012013837903 L 1866.3184079254545 115.51614969123673 L 1866.061820223493 115.51101908988952 L 1865.8053588440387 115.50472884739318 L 1865.549049433016 115.4972795927668 L 1865.2929176211524 115.48867207092958 L 1865.0369890214156 115.47890714262655 L 1864.7812892264521 115.4679857843424 L 1864.5258438060287 115.45590908820387 L 1864.2706783044744 115.4426782618705 L 1864.0158182381267 115.42829462841388 L 1863.7612890927799 115.4127596261854 L 1863.5071163211362 115.39607480867232 L 1863.2533253402612 115.3782418443425 L 1862.9999415290415 115.35926251647749 L 1862.746990225647 115.33913872299428 L 1862.4944967249974 115.31787247625543 L 1862.242486276232 115.29546590286792 L 1861.990984080186 115.27192124347039 L 1861.7400152868695 115.24724085250918 L 1861.489604992952 115.2214271980028 L 1861.2397782392552 115.1944828612952 L 1860.9905600082454 115.1664105367976 L 1860.7419752215387 115.13721303171906 L 1860.4940487374063 115.10689326578573 L 1860.2468053482899 115.07545427094897 L 1860.0002697783225 115.04289919108203 L 1859.7544666808558 115.0092312816658 L 1859.5094206359945 114.97445390946316 L 1859.2651561481389 114.93857055218234 L 1859.0216976435345 114.90158479812916 L 1858.7790694678283 114.86350034584822 L 1858.5372958836363 114.824321003753 L 1858.2964010681153 114.78405068974506 L 1858.0564091105457 114.74269343082224 L 1857.8173440099238 114.70025336267598 L 1857.5792296725601 114.65673472927773 L 1857.34208990969 114.61214188245454 L 1857.1059484350924 114.56647928145395 L 1856.8708288627176 114.51975149249802 L 1856.636754704327 114.47196318832667 L 1856.4037493671415 114.42311914773052 L 1856.1718361515007 114.37322425507293 L 1855.9410382485325 114.32228349980157 L 1855.7113787378355 114.27030197594954 L 1855.482880585169 114.21728488162587 L 1855.2555666401577 114.16323751849586 L 1855.029459634007 114.10816529125074 L 1854.804582177229 114.05207370706736 L 1854.5809567573817 113.9949683750574 L 1854.3586057368213 113.93685500570646 L 1854.137551350464 113.87773941030305 L 1853.9178157035647 113.81762750035746 L 1853.6994207695045 113.75652528701059 L 1853.4823883875954 113.69443888043284 L 1853.266740260894 113.63137448921314 L 1853.052497954034 113.56733841973806 L 1852.839682891067 113.5023370755612 L 1852.6283163533221 113.43637695676277 L 1852.4184194772772 113.36946465929971 L 1852.2100132524445 113.301606874346 L 1852.0031185192734 113.2328103876236 L 1851.7977559670642 113.16308207872383 L 1851.5939461319015 113.0924289204195 L 1851.3917093945988 113.02085797796754 L 1851.191065978661 112.94837640840255 L 1850.992035948263 112.8749914598211 L 1850.7946392062415 112.8007104706569 L 1850.5988954921067 112.72554086894695 L 1850.4048243800664 112.64949017158878 L 1850.2124452770706 112.57256598358876 L 1850.0217774208688 112.49477599730159 L 1849.832839878088 112.41612799166106 L 1849.645651542325 112.3366298314022 L 1849.4602311322571 112.2562894662748 L 1849.276597189771 112.1751149302484 L 1849.0947680781082 112.09311434070896 L 1848.914761980028 112.01029589764713 L 1848.7365968959905 111.92666788283817 L 1848.5602906423553 111.84223865901389 L 1848.385860849601 111.7570166690263 L 1848.2133249605613 111.67101043500338 L 1848.0427002286817 111.58422855749687 L 1847.874003716293 111.4966797146222 L 1847.7072522929059 111.40837266119071 L 1847.5424626335237 111.31931622783415 L 1847.3796512169752 111.22951932012163 L 1847.218834324266 111.13899091766909 L 1847.0600280369517 111.04774007324134 L 1846.9032482355287 110.9557759118468 L 1846.7485105978465 110.86310762982494 L 1846.5958305975396 110.76974449392677 L 1846.445223502481 110.67569584038806 L 1846.296704373255 110.58097107399578 L 1846.1502880616501 110.48557966714766 L 1846.005989209176 110.38953115890487 L 1845.8638222455975 110.2928351540382 L 1845.7238013874926 110.19550132206757 L 1845.5859406368302 110.09753939629505 L 1845.4502537795706 109.99895917283158 L 1845.3167543842865 109.89977050961737 L 1845.1854558008063 109.79998332543607 L 1845.0563711588786 109.69960759892295 L 1844.9295133668602 109.59865336756702 L 1844.8048951104247 109.4971307267073 L 1844.6825288512937 109.39504982852324 L 1844.5624268259912 109.29242088101961 L 1844.4446010446197 109.18925414700563 L 1844.3290632896592 109.08555994306874 L 1844.2158251147887 108.98134863854291 L 1844.1048978437316 108.87663065447177 L 1843.9962925691223 108.77141646256644 L 1843.890020151398 108.66571658415843 L 1843.7860912177116 108.55954158914753 L 1843.6845161608703 108.45290209494473 L 1843.5853051382946 108.3458087654106 L 1843.4884680710047 108.23827230978884 L 1843.3940146426262 108.1303034816354 L 1843.3019542984232 108.02191307774314 L 1843.2122962443536 107.9131119370621 L 1843.125049446148 107.80391093961568 L 1843.0402226284136 107.69432100541265 L 1842.9578242737616 107.58435309335508 L 1842.8778626219585 107.47401820014255 L 1842.8003456691029 107.36332735917243 L 1842.7252811668254 107.25229163943658 L 1842.6526766215143 107.14092214441445 L 1842.5825392935628 107.0292300109627 L 1842.5148761966457 106.91722640820164 L 1842.4496940970162 106.80492253639821 L 1842.38699951283 106.69232962584596 L 1842.3267987134932 106.57945893574217 L 1842.2690977190357 106.46632175306175 L 1842.2139022995088 106.35292939142872 L 1842.1612179744084 106.23929318998472 L 1842.1110500121229 106.12542451225522 L 1842.0634034294071 106.0113347450131 L 1842.0182829908795 105.89703529714001 L 1841.975693208546 105.78253759848548 L 1841.9356383413499 105.66785309872397 L 1841.8981223947442 105.55299326620987 L 1841.8631491202923 105.43796958683073 L 1841.8307220152926 105.32279356285864 L 1841.8008443224285 105.2074767118 L 1841.7735190294445 105.09203056524383 L 1841.7487488688469 104.97646666770858 L 1841.7265363176314 104.8607965754877 L 1841.7068835970342 104.74503185549402 L 1841.6897926723116 104.62918408410306 L 1841.6752652525413 104.51326484599544 L 1841.6633027904534 104.39728573299836 L 1841.653906482284 104.28125834292646 L 1841.6470772676562 104.16519427842208 L 1841.642815829486 104.04910514579494 L 1841.6411225939132 103.93300255386156" stroke-miterlimit="10" stroke-width="2.990598758" stroke-dasharray=""/></g><g><g/><text fill="black" stroke="none" font-family="sans-serif" font-size="11pt" font-style="normal" font-weight="normal" text-decoration="normal" x="1857.142514930092" y="134.401026536" text-anchor="start" dominant-baseline="alphabetic" xml:space="preserve">DB</text></g></g><g><path fill="white" stroke="black" paint-order="fill stroke markers" d=" M 398.83467534954167 197.73135317599997 L 416.4264327495417 197.73135317599997 L 416.4264327495417 954.1769213759999 L 398.83467534954167 954.1769213759999 L 398.83467534954167 197.73135317599997" stroke-miterlimit="10" stroke-width="1.4659797833333332" stroke-dasharray=""/><path fill="white" stroke="black" paint-order="fill stroke markers" d=" M 628.926785854099 246.98827389599995 L 646.518543254099 246.98827389599995 L 646.518543254099 904.9200006559998 L 628.926785854099 904.9200006559998 L 628.926785854099 246.98827389599995" stroke-miterlimit="10" stroke-width="1.4659797833333332" stroke-dasharray=""/><path fill="white" stroke="black" paint-order="fill stroke markers" d=" M 1073.0704405481094 296.24519461599994 L 1090.6621979481095 296.24519461599994 L 1090.6621979481095 855.6630799359998 L 1073.0704405481094 855.6630799359998 L 1073.0704405481094 296.24519461599994" stroke-miterlimit="10" stroke-width="1.4659797833333332" stroke-dasharray=""/><path fill="white" stroke="black" paint-order="fill stroke markers" d=" M 1560.8328990106095 345.5021153359999 L 1578.4246564106095 345.5021153359999 L 1578.4246564106095 444.0159567759999 L 1560.8328990106095 444.0159567759999 L 1560.8328990106095 345.5021153359999" stroke-miterlimit="10" stroke-width="1.4659797833333332" stroke-dasharray=""/><path fill="white" stroke="black" paint-order="fill stroke markers" d=" M 398.83467534954167 1003.4338420959999 L 416.4264327495417 1003.4338420959999 L 416.4264327495417 2269.6885397479987 L 398.83467534954167 2269.6885397479987 L 398.83467534954167 1003.4338420959999" stroke-miterlimit="10" stroke-width="1.4659797833333332" stroke-dasharray=""/><path fill="white" stroke="black" paint-order="fill stroke markers" d=" M 174.440542977375 1107.928881052 L 192.032300377375 1107.928881052 L 192.032300377375 1157.1858017719999 L 174.440542977375 1157.1858017719999 L 174.440542977375 1107.928881052" stroke-miterlimit="10" stroke-width="1.4659797833333332" stroke-dasharray=""/><path fill="white" stroke="black" paint-order="fill stroke markers" d=" M 628.926785854099 1206.4427224919998 L 646.518543254099 1206.4427224919998 L 646.518543254099 2220.4316190279987 L 628.926785854099 2220.4316190279987 L 628.926785854099 1206.4427224919998" stroke-miterlimit="10" stroke-width="1.4659797833333332" stroke-dasharray=""/><path fill="white" stroke="black" paint-order="fill stroke markers" d=" M 1073.0704405481094 1255.6996432119997 L 1090.6621979481095 1255.6996432119997 L 1090.6621979481095 1704.9931272079991 L 1073.0704405481094 1704.9931272079991 L 1073.0704405481094 1255.6996432119997" stroke-miterlimit="10" stroke-width="1.4659797833333332" stroke-dasharray=""/><path fill="white" stroke="black" paint-order="fill stroke markers" d=" M 1331.7897680557917 1304.9565639319997 L 1349.3815254557917 1304.9565639319997 L 1349.3815254557917 1354.2134846519996 L 1331.7897680557917 1354.2134846519996 L 1331.7897680557917 1304.9565639319997" stroke-miterlimit="10" stroke-width="1.4659797833333332" stroke-dasharray=""/><path fill="white" stroke="black" paint-order="fill stroke markers" d=" M 1560.8328990106095 1403.4704053719995 L 1578.4246564106095 1403.4704053719995 L 1578.4246564106095 1655.7362064879992 L 1560.8328990106095 1655.7362064879992 L 1560.8328990106095 1403.4704053719995" stroke-miterlimit="10" stroke-width="1.4659797833333332" stroke-dasharray=""/><path fill="white" stroke="black" paint-order="fill stroke markers" d=" M 2042.3796572433896 1557.2223650479993 L 2059.9714146433894 1557.2223650479993 L 2059.9714146433894 1606.4792857679993 L 2042.3796572433896 1606.4792857679993 L 2042.3796572433896 1557.2223650479993" stroke-miterlimit="10" stroke-width="1.4659797833333332" stroke-dasharray=""/><path fill="white" stroke="black" paint-order="fill stroke markers" d=" M 637.722664554099 1777.1193325479992 L 655.314421954099 1777.1193325479992 L 655.314421954099 2171.174698307999 L 637.722664554099 2171.174698307999 L 637.722664554099 1777.1193325479992" stroke-miterlimit="10" stroke-width="1.4659797833333332" stroke-dasharray=""/><path fill="white" stroke="black" paint-order="fill stroke markers" d=" M 407.6305540495417 1826.3762532679991 L 425.2223114495417 1826.3762532679991 L 425.2223114495417 2171.174698307999 L 407.6305540495417 2171.174698307999 L 407.6305540495417 1826.3762532679991" stroke-miterlimit="10" stroke-width="1.4659797833333332" stroke-dasharray=""/><g><g><rect fill="white" stroke="none" x="174.68581364670442" y="174.86206855599997" width="120.67482031082031" height="22.86928462"/></g><text fill="black" stroke="none" font-family="sans-serif" font-size="11pt" font-style="normal" font-weight="normal" text-decoration="normal" x="177.32457725670443" y="190.69465021599999" text-anchor="start" dominant-baseline="alphabetic" xml:space="preserve">mouseClick(pos)</text></g><g><path fill="none" stroke="black" paint-order="fill stroke markers" d=" M 71.2117722546875 197.73135317599997 L 384.35079509020835 197.73135317599997" stroke-miterlimit="10" stroke-width="1.4659797833333332" stroke-dasharray=""/><g transform="translate(398.83467534954167,197.73135317599997) translate(-398.83467534954167,-197.73135317599997)"><path fill="black" stroke="none" paint-order="stroke fill markers" d=" M 384.1748775162083 190.4014542593333 L 398.83467534954167 197.73135317599997 L 384.1748775162083 205.06125209266665 Z"/></g></g><g><g><rect fill="white" stroke="none" x="465.69996269621487" y="224.11898927599995" width="113.95329321121093" height="22.86928462"/></g><text fill="black" stroke="none" font-family="sans-serif" font-size="11pt" font-style="normal" font-weight="normal" text-decoration="normal" x="468.3387263062149" y="239.95157093599997" text-anchor="start" dominant-baseline="alphabetic" xml:space="preserve">getWeek(week)</text></g><g><path fill="none" stroke="black" paint-order="fill stroke markers" d=" M 416.4264327495417 246.98827389599995 L 614.4429055947656 246.98827389599995" stroke-miterlimit="10" stroke-width="1.4659797833333332" stroke-dasharray=""/><g transform="translate(628.926785854099,246.98827389599995) translate(-628.926785854099,-246.98827389599995)"><path fill="black" stroke="none" paint-order="stroke fill markers" d=" M 614.2669880207657 239.65837497933327 L 628.926785854099 246.98827389599995 L 614.2669880207657 254.31817281266663 Z"/></g></g><g><g><rect fill="white" stroke="none" x="808.2222871289949" y="273.37590999599996" width="103.14440954421875" height="22.86928462"/></g><text fill="black" stroke="none" font-family="sans-serif" font-size="11pt" font-style="normal" font-weight="normal" text-decoration="normal" x="810.8610507389949" y="289.208491656" text-anchor="start" dominant-baseline="alphabetic" xml:space="preserve">getBookings()</text></g><g><path fill="none" stroke="black" paint-order="fill stroke markers" d=" M 646.518543254099 296.24519461599994 L 1058.5865602887761 296.24519461599994" stroke-miterlimit="10" stroke-width="1.4659797833333332" stroke-dasharray=""/><g transform="translate(1073.0704405481094,296.24519461599994) translate(-1073.0704405481094,-296.24519461599994)"><path fill="black" stroke="none" paint-order="stroke fill markers" d=" M 1058.410642714776 288.9152956993333 L 1073.0704405481094 296.24519461599994 L 1058.410642714776 303.5750935326666 Z"/></g></g><g><g><rect fill="white" stroke="none" x="1237.876126483129" y="322.63283071599994" width="175.74284399246093" height="22.86928462"/></g><text fill="black" stroke="none" font-family="sans-serif" font-size="11pt" font-style="normal" font-weight="normal" text-decoration="normal" x="1240.514890093129" y="338.46541237599996" text-anchor="start" dominant-baseline="alphabetic" xml:space="preserve">queryBooking(int:week)</text></g><g><path fill="none" stroke="black" paint-order="fill stroke markers" d=" M 1090.6621979481095 345.5021153359999 L 1546.3490187512762 345.5021153359999" stroke-miterlimit="10" stroke-width="1.4659797833333332" stroke-dasharray=""/><g transform="translate(1560.8328990106095,345.5021153359999) translate(-1560.8328990106095,-345.5021153359999)"><path fill="black" stroke="none" paint-order="stroke fill markers" d=" M 1546.173101177276 338.17221641933327 L 1560.8328990106095 345.5021153359999 L 1546.173101177276 352.83201425266657 Z"/></g></g><g><g><rect fill="white" stroke="none" x="1629.845971047167" y="371.8897514359999" width="186.05777013992187" height="22.86928462"/></g><text fill="black" stroke="none" font-family="sans-serif" font-size="11pt" font-style="normal" font-weight="normal" text-decoration="normal" x="1632.484734657167" y="387.72233309599994" text-anchor="start" dominant-baseline="alphabetic" xml:space="preserve">executeQuery(sql:String)</text></g><g><path fill="none" stroke="black" paint-order="fill stroke markers" d=" M 1578.4246564106095 394.7590360559999 L 1852.8411755643133 394.7590360559999" stroke-miterlimit="10" stroke-width="1.4659797833333332" stroke-dasharray=""/><g transform="translate(1867.3250558236466,394.7590360559999) translate(-1867.3250558236466,-394.7590360559999)"><path fill="black" stroke="none" paint-order="stroke fill markers" d=" M 1852.6652579903132 387.42913713933325 L 1867.3250558236466 394.7590360559999 L 1852.6652579903132 402.08893497266655 Z"/></g></g><g><g><rect fill="white" stroke="none" x="1323.1087848693594" y="421.1466721559999" width="5.27752722" height="22.86928462"/></g><text fill="black" stroke="none" font-family="sans-serif" font-size="11pt" font-style="normal" font-weight="normal" text-decoration="normal" x="1325.7475484793595" y="436.9792538159999" text-anchor="start" dominant-baseline="alphabetic" xml:space="preserve"></text></g><g><path fill="none" stroke="black" paint-order="fill stroke markers" d=" M 1560.8328990106095 444.0159567759999 L 1105.1460782074428 444.0159567759999" stroke-miterlimit="10" stroke-width="1.4659797833333332" stroke-dasharray="7.0367029599999995"/><g transform="translate(1090.6621979481095,444.0159567759999) translate(-1090.6621979481095,-444.0159567759999)"><path fill="black" stroke="none" paint-order="stroke fill markers" d=" M 1105.3219957814429 436.68605785933323 L 1090.6621979481095 444.0159567759999 L 1105.3219957814429 451.34585569266653 Z"/></g></g><g><g><rect fill="white" stroke="none" x="1111.4791108714428" y="517.9013378559999" width="72.58605993484375" height="22.86928462"/></g><text fill="black" stroke="none" font-family="sans-serif" font-size="11pt" font-style="normal" font-weight="normal" text-decoration="normal" x="1114.1178744814429" y="533.7339195159999" text-anchor="start" dominant-baseline="alphabetic" xml:space="preserve">getTime()</text></g><g><path fill="none" stroke="black" paint-order="fill stroke markers" d=" M 1090.6621979481095 540.7706224759999 L 1161.0292275481095 540.7706224759999 L 1161.0292275481095 563.6399070959999 L 1105.1460782074428 563.6399070959999" stroke-miterlimit="10" stroke-width="1.4659797833333332" stroke-dasharray=""/><g transform="translate(1090.6621979481095,563.6399070959999) translate(-1090.6621979481095,-563.6399070959999)"><path fill="black" stroke="none" paint-order="stroke fill markers" d=" M 1105.3219957814429 556.3100081793332 L 1090.6621979481095 563.6399070959999 L 1105.3219957814429 570.9698060126666 Z"/></g></g><g><g><rect fill="white" stroke="none" x="1111.4791108714428" y="590.0275431959999" width="84.07493627761718" height="22.86928462"/></g><text fill="black" stroke="none" font-family="sans-serif" font-size="11pt" font-style="normal" font-weight="normal" text-decoration="normal" x="1114.1178744814429" y="605.8601248559999" text-anchor="start" dominant-baseline="alphabetic" xml:space="preserve">returntime</text></g><g><path fill="none" stroke="black" paint-order="fill stroke markers" d=" M 1090.6621979481095 612.8968278159998 L 1161.0292275481095 612.8968278159998 L 1161.0292275481095 635.7661124359998 L 1105.1460782074428 635.7661124359998" stroke-miterlimit="10" stroke-width="1.4659797833333332" stroke-dasharray="7.0367029599999995"/><g transform="translate(1090.6621979481095,635.7661124359998) translate(-1090.6621979481095,-635.7661124359998)"><path fill="black" stroke="none" paint-order="stroke fill markers" d=" M 1105.3219957814429 628.4362135193331 L 1090.6621979481095 635.7661124359998 L 1105.3219957814429 643.0960113526666 Z"/></g></g><g><g><rect fill="white" stroke="none" x="1111.4791108714428" y="662.1537485359999" width="80.173767454375" height="22.86928462"/></g><text fill="black" stroke="none" font-family="sans-serif" font-size="11pt" font-style="normal" font-weight="normal" text-decoration="normal" x="1114.1178744814429" y="677.9863301959998" text-anchor="start" dominant-baseline="alphabetic" xml:space="preserve">getRoom()</text></g><g><path fill="none" stroke="black" paint-order="fill stroke markers" d=" M 1090.6621979481095 685.0230331559998 L 1161.0292275481095 685.0230331559998 L 1161.0292275481095 707.8923177759998 L 1105.1460782074428 707.8923177759998" stroke-miterlimit="10" stroke-width="1.4659797833333332" stroke-dasharray=""/><g transform="translate(1090.6621979481095,707.8923177759998) translate(-1090.6621979481095,-707.8923177759998)"><path fill="black" stroke="none" paint-order="stroke fill markers" d=" M 1105.3219957814429 700.5624188593331 L 1090.6621979481095 707.8923177759998 L 1105.3219957814429 715.2222166926665 Z"/></g></g><g><g><rect fill="white" stroke="none" x="1111.4791108714428" y="734.2799538759998" width="94.60466039871093" height="22.86928462"/></g><text fill="black" stroke="none" font-family="sans-serif" font-size="11pt" font-style="normal" font-weight="normal" text-decoration="normal" x="1114.1178744814429" y="750.1125355359998" text-anchor="start" dominant-baseline="alphabetic" xml:space="preserve">returnRoom</text></g><g><path fill="none" stroke="black" paint-order="fill stroke markers" d=" M 1090.6621979481095 757.1492384959997 L 1161.0292275481095 757.1492384959997 L 1161.0292275481095 780.0185231159998 L 1105.1460782074428 780.0185231159998" stroke-miterlimit="10" stroke-width="1.4659797833333332" stroke-dasharray="7.0367029599999995"/><g transform="translate(1090.6621979481095,780.0185231159998) translate(-1090.6621979481095,-780.0185231159998)"><path fill="black" stroke="none" paint-order="stroke fill markers" d=" M 1105.3219957814429 772.688624199333 L 1090.6621979481095 780.0185231159998 L 1105.3219957814429 787.3484220326665 Z"/></g></g><g><g><rect fill="white" stroke="none" x="801.006840656827" y="832.7937953159998" width="117.57530248855468" height="22.86928462"/></g><text fill="black" stroke="none" font-family="sans-serif" font-size="11pt" font-style="normal" font-weight="normal" text-decoration="normal" x="803.6456042668269" y="848.6263769759997" text-anchor="start" dominant-baseline="alphabetic" xml:space="preserve">returnBookings</text></g><g><path fill="none" stroke="black" paint-order="fill stroke markers" d=" M 1073.0704405481094 855.6630799359998 L 661.0024235134323 855.6630799359998" stroke-miterlimit="10" stroke-width="1.4659797833333332" stroke-dasharray="7.0367029599999995"/><g transform="translate(646.518543254099,855.6630799359998) translate(-646.518543254099,-855.6630799359998)"><path fill="black" stroke="none" paint-order="stroke fill markers" d=" M 661.1783410874323 848.3331810193331 L 646.518543254099 855.6630799359998 L 661.1783410874323 862.9929788526665 Z"/></g></g><g><g><rect fill="white" stroke="none" x="490.31343468107815" y="882.0507160359998" width="64.72634924148437" height="22.86928462"/></g><text fill="black" stroke="none" font-family="sans-serif" font-size="11pt" font-style="normal" font-weight="normal" text-decoration="normal" x="492.95219829107816" y="897.8832976959998" text-anchor="start" dominant-baseline="alphabetic" xml:space="preserve">update()</text></g><g><path fill="none" stroke="black" paint-order="fill stroke markers" d=" M 628.926785854099 904.9200006559998 L 430.910313008875 904.9200006559998" stroke-miterlimit="10" stroke-width="1.4659797833333332" stroke-dasharray=""/><g transform="translate(416.4264327495417,904.9200006559998) translate(-416.4264327495417,-904.9200006559998)"><path fill="black" stroke="none" paint-order="stroke fill markers" d=" M 431.08623058287503 897.5901017393331 L 416.4264327495417 904.9200006559998 L 431.08623058287503 912.2498995726665 Z"/></g></g><g><g><rect fill="white" stroke="none" x="232.38446019211457" y="931.3076367559999" width="5.27752722" height="22.86928462"/></g><text fill="black" stroke="none" font-family="sans-serif" font-size="11pt" font-style="normal" font-weight="normal" text-decoration="normal" x="235.0232238021146" y="947.1402184159998" text-anchor="start" dominant-baseline="alphabetic" xml:space="preserve"></text></g><g><path fill="none" stroke="black" paint-order="fill stroke markers" d=" M 398.83467534954167 954.1769213759999 L 85.69565251402084 954.1769213759999" stroke-miterlimit="10" stroke-width="1.4659797833333332" stroke-dasharray="7.0367029599999995"/><g transform="translate(71.2117722546875,954.1769213759999) translate(-71.2117722546875,-954.1769213759999)"><path fill="black" stroke="none" paint-order="stroke fill markers" d=" M 85.87157008802083 946.8470224593332 L 71.2117722546875 954.1769213759999 L 85.87157008802083 961.5068202926666 Z"/></g></g><g><g><rect fill="white" stroke="none" x="187.42024205246614" y="980.5645574759999" width="95.20596349929687" height="22.86928462"/></g><text fill="black" stroke="none" font-family="sans-serif" font-size="11pt" font-style="normal" font-weight="normal" text-decoration="normal" x="190.05900566246615" y="996.3971391359999" text-anchor="start" dominant-baseline="alphabetic" xml:space="preserve">mouseClick()</text></g><g><path fill="none" stroke="black" paint-order="fill stroke markers" d=" M 71.2117722546875 1003.4338420959999 L 384.35079509020835 1003.4338420959999" stroke-miterlimit="10" stroke-width="1.4659797833333332" stroke-dasharray=""/><g transform="translate(398.83467534954167,1003.4338420959999) translate(-398.83467534954167,-1003.4338420959999)"><path fill="black" stroke="none" paint-order="stroke fill markers" d=" M 384.1748775162083 996.1039431793332 L 398.83467534954167 1003.4338420959999 L 384.1748775162083 1010.7637410126666 Z"/></g></g><g><path fill="white" stroke="black" paint-order="fill stroke markers" d=" M 218.15606011637502 1055.9452379349998 A 26.123759739 26.123759739 0 1 1 218.15604705449624 1055.9191141796148 M 149.81208261737498 1028.3261788169998 L 149.81208261737498 1083.5642970529998 M 148.316783238375 1055.9452379349998 L 165.908540638375 1055.9452379349998" stroke-miterlimit="10" stroke-width="2.990598758" stroke-dasharray=""/></g><g><g/><text fill="black" stroke="none" font-family="sans-serif" font-size="11pt" font-style="normal" font-weight="normal" text-decoration="normal" x="160.35166368176954" y="1101.1560544529998" text-anchor="start" dominant-baseline="alphabetic" xml:space="preserve">Dialog</text></g><g><g><rect fill="white" stroke="none" x="240.4682724187083" y="1046.005895004" width="133.1515506575" height="22.86928462"/></g><text fill="black" stroke="none" font-family="sans-serif" font-size="11pt" font-style="normal" font-weight="normal" text-decoration="normal" x="243.1070360287083" y="1061.838476664" text-anchor="start" dominant-baseline="alphabetic" xml:space="preserve">ReservationDialog</text></g><g><path fill="none" stroke="black" paint-order="fill stroke markers" d=" M 398.83467534954167 1068.8751796239999 L 229.73730040470832 1068.8751796239999" stroke-miterlimit="10" stroke-width="1.4659797833333332" stroke-dasharray=""/><g transform="translate(215.253420145375,1068.8751796239999) translate(-215.253420145375,-1068.8751796239999)"><path fill="black" stroke="none" paint-order="stroke fill markers" d=" M 229.91321797870833 1061.5452807073332 L 215.253420145375 1068.8751796239999 L 229.91321797870833 1076.2050785406666 Z"/></g></g><g><g><rect fill="white" stroke="none" x="244.2872169292396" y="1134.316517152" width="102.2925418684375" height="22.86928462"/></g><text fill="black" stroke="none" font-family="sans-serif" font-size="11pt" font-style="normal" font-weight="normal" text-decoration="normal" x="246.92598053923962" y="1150.149098812" text-anchor="start" dominant-baseline="alphabetic" xml:space="preserve">returnactivity</text></g><g><path fill="none" stroke="black" paint-order="fill stroke markers" d=" M 192.032300377375 1157.1858017719999 L 384.35079509020835 1157.1858017719999" stroke-miterlimit="10" stroke-width="1.4659797833333332" stroke-dasharray="7.0367029599999995"/><g transform="translate(398.83467534954167,1157.1858017719999) translate(-398.83467534954167,-1157.1858017719999)"><path fill="black" stroke="none" paint-order="stroke fill markers" d=" M 384.1748775162083 1149.8559028553332 L 398.83467534954167 1157.1858017719999 L 384.1748775162083 1164.5157006886666 Z"/></g></g><g><g><rect fill="white" stroke="none" x="441.641285022875" y="1183.5734378719999" width="162.07064855789062" height="22.86928462"/></g><text fill="black" stroke="none" font-family="sans-serif" font-size="11pt" font-style="normal" font-weight="normal" text-decoration="normal" x="444.28004863287504" y="1199.4060195319998" text-anchor="start" dominant-baseline="alphabetic" xml:space="preserve">transmit(time,activity)</text></g><g><path fill="none" stroke="black" paint-order="fill stroke markers" d=" M 416.4264327495417 1206.4427224919998 L 614.4429055947656 1206.4427224919998" stroke-miterlimit="10" stroke-width="1.4659797833333332" stroke-dasharray=""/><g transform="translate(628.926785854099,1206.4427224919998) translate(-628.926785854099,-1206.4427224919998)"><path fill="black" stroke="none" paint-order="stroke fill markers" d=" M 614.2669880207657 1199.112823575333 L 628.926785854099 1206.4427224919998 L 614.2669880207657 1213.7726214086665 Z"/></g></g><g><g><rect fill="white" stroke="none" x="671.7333955274324" y="1232.8303585919998" width="376.1221927473438" height="22.86928462"/></g><text fill="black" stroke="none" font-family="sans-serif" font-size="11pt" font-style="normal" font-weight="normal" text-decoration="normal" x="674.3721591374324" y="1248.6629402519998" text-anchor="start" dominant-baseline="alphabetic" xml:space="preserve">addBooking(DateTime:time,String:activity,String:id)</text></g><g><path fill="none" stroke="black" paint-order="fill stroke markers" d=" M 646.518543254099 1255.6996432119997 L 1058.5865602887761 1255.6996432119997" stroke-miterlimit="10" stroke-width="1.4659797833333332" stroke-dasharray=""/><g transform="translate(1073.0704405481094,1255.6996432119997) translate(-1073.0704405481094,-1255.6996432119997)"><path fill="black" stroke="none" paint-order="stroke fill markers" d=" M 1058.410642714776 1248.369744295333 L 1073.0704405481094 1255.6996432119997 L 1058.410642714776 1263.0295421286664 Z"/></g></g><g><g><rect fill="white" stroke="none" x="1111.4791108714428" y="1282.0872793119997" width="199.49374426101562" height="22.86928462"/></g><text fill="black" stroke="none" font-family="sans-serif" font-size="11pt" font-style="normal" font-weight="normal" text-decoration="normal" x="1114.1178744814429" y="1297.9198609719997" text-anchor="start" dominant-baseline="alphabetic" xml:space="preserve">getRoom(int:roomnumber)</text></g><g><path fill="none" stroke="black" paint-order="fill stroke markers" d=" M 1090.6621979481095 1304.9565639319997 L 1317.3058877964584 1304.9565639319997" stroke-miterlimit="10" stroke-width="1.4659797833333332" stroke-dasharray=""/><g transform="translate(1331.7897680557917,1304.9565639319997) translate(-1331.7897680557917,-1304.9565639319997)"><path fill="black" stroke="none" paint-order="stroke fill markers" d=" M 1317.1299702224583 1297.626665015333 L 1331.7897680557917 1304.9565639319997 L 1317.1299702224583 1312.2864628486664 Z"/></g></g><g><g><rect fill="white" stroke="none" x="1141.4970323191967" y="1331.3442000319997" width="139.4579013655078" height="22.86928462"/></g><text fill="black" stroke="none" font-family="sans-serif" font-size="11pt" font-style="normal" font-weight="normal" text-decoration="normal" x="1144.1357959291968" y="1347.1767816919996" text-anchor="start" dominant-baseline="alphabetic" xml:space="preserve">return(int:number)</text></g><g><path fill="none" stroke="black" paint-order="fill stroke markers" d=" M 1331.7897680557917 1354.2134846519996 L 1105.1460782074428 1354.2134846519996" stroke-miterlimit="10" stroke-width="1.4659797833333332" stroke-dasharray=""/><g transform="translate(1090.6621979481095,1354.2134846519996) translate(-1090.6621979481095,-1354.2134846519996)"><path fill="black" stroke="none" paint-order="stroke fill markers" d=" M 1105.3219957814429 1346.8835857353329 L 1090.6621979481095 1354.2134846519996 L 1105.3219957814429 1361.5433835686663 Z"/></g></g><g><g><rect fill="white" stroke="none" x="1135.113087847875" y="1380.6011207519996" width="381.2689212629688" height="22.86928462"/></g><text fill="black" stroke="none" font-family="sans-serif" font-size="11pt" font-style="normal" font-weight="normal" text-decoration="normal" x="1137.751851457875" y="1396.4337024119995" text-anchor="start" dominant-baseline="alphabetic" xml:space="preserve">addBooking(DateTime:time,String:activity.Stringid)</text></g><g><path fill="none" stroke="black" paint-order="fill stroke markers" d=" M 1090.6621979481095 1403.4704053719995 L 1546.3490187512762 1403.4704053719995" stroke-miterlimit="10" stroke-width="1.4659797833333332" stroke-dasharray=""/><g transform="translate(1560.8328990106095,1403.4704053719995) translate(-1560.8328990106095,-1403.4704053719995)"><path fill="black" stroke="none" paint-order="stroke fill markers" d=" M 1546.173101177276 1396.1405064553328 L 1560.8328990106095 1403.4704053719995 L 1546.173101177276 1410.8003042886662 Z"/></g></g><g><g><rect fill="white" stroke="none" x="1629.845971047167" y="1429.8580414719995" width="186.05777013992187" height="22.86928462"/></g><text fill="black" stroke="none" font-family="sans-serif" font-size="11pt" font-style="normal" font-weight="normal" text-decoration="normal" x="1632.484734657167" y="1445.6906231319995" text-anchor="start" dominant-baseline="alphabetic" xml:space="preserve">executeQuery(sql:String)</text></g><g><path fill="none" stroke="black" paint-order="fill stroke markers" d=" M 1578.4246564106095 1452.7273260919994 L 1852.8411755643133 1452.7273260919994" stroke-miterlimit="10" stroke-width="1.4659797833333332" stroke-dasharray=""/><g transform="translate(1867.3250558236466,1452.7273260919994) translate(-1867.3250558236466,-1452.7273260919994)"><path fill="black" stroke="none" paint-order="stroke fill markers" d=" M 1852.6652579903132 1445.3974271753327 L 1867.3250558236466 1452.7273260919994 L 1852.6652579903132 1460.0572250086661 Z"/></g></g><g><path fill="white" stroke="black" paint-order="fill stroke markers" d=" M 2086.0951743823894 1505.2387219309994 A 26.123759739 26.123759739 0 1 1 2086.0951613205107 1505.2125981756144 M 2017.7511968833896 1477.6196628129994 L 2017.7511968833896 1532.8577810489994 M 2016.2558975043896 1505.2387219309994 L 2033.8476549043896 1505.2387219309994" stroke-miterlimit="10" stroke-width="2.990598758" stroke-dasharray=""/></g><g><g/><text fill="black" stroke="none" font-family="sans-serif" font-size="11pt" font-style="normal" font-weight="normal" text-decoration="normal" x="2010.123282220245" y="1550.4495384489994" text-anchor="start" dominant-baseline="alphabetic" xml:space="preserve">Reservation</text></g><g><g><rect fill="white" stroke="none" x="1603.6395086839427" y="1495.2993789999994" width="381.2689212629688" height="22.86928462"/></g><text fill="black" stroke="none" font-family="sans-serif" font-size="11pt" font-style="normal" font-weight="normal" text-decoration="normal" x="1606.2782722939428" y="1511.1319606599993" text-anchor="start" dominant-baseline="alphabetic" xml:space="preserve">addBooking(DateTime:time,String:activity.Stringid)</text></g><g><path fill="none" stroke="black" paint-order="fill stroke markers" d=" M 1578.4246564106095 1518.1686636199993 L 1995.6394019609118 1518.1686636199993" stroke-miterlimit="10" stroke-width="1.4659797833333332" stroke-dasharray=""/><g transform="translate(2010.123282220245,1518.1686636199993) translate(-2010.123282220245,-1518.1686636199993)"><path fill="black" stroke="none" paint-order="stroke fill markers" d=" M 1995.4634843869117 1510.8387647033326 L 2010.123282220245 1518.1686636199993 L 1995.4634843869117 1525.498562536666 Z"/></g></g><g><g><rect fill="white" stroke="none" x="1807.7633932169995" y="1583.6100011479994" width="5.27752722" height="22.86928462"/></g><text fill="black" stroke="none" font-family="sans-serif" font-size="11pt" font-style="normal" font-weight="normal" text-decoration="normal" x="1810.4021568269995" y="1599.4425828079993" text-anchor="start" dominant-baseline="alphabetic" xml:space="preserve"></text></g><g><path fill="none" stroke="black" paint-order="fill stroke markers" d=" M 2042.3796572433896 1606.4792857679993 L 1592.9085366699428 1606.4792857679993" stroke-miterlimit="10" stroke-width="1.4659797833333332" stroke-dasharray="7.0367029599999995"/><g transform="translate(1578.4246564106095,1606.4792857679993) translate(-1578.4246564106095,-1606.4792857679993)"><path fill="black" stroke="none" paint-order="stroke fill markers" d=" M 1593.084454243943 1599.1493868513326 L 1578.4246564106095 1606.4792857679993 L 1593.084454243943 1613.809184684666 Z"/></g></g><g><g><rect fill="white" stroke="none" x="1323.1087848693594" y="1632.8669218679993" width="5.27752722" height="22.86928462"/></g><text fill="black" stroke="none" font-family="sans-serif" font-size="11pt" font-style="normal" font-weight="normal" text-decoration="normal" x="1325.7475484793595" y="1648.6995035279992" text-anchor="start" dominant-baseline="alphabetic" xml:space="preserve"></text></g><g><path fill="none" stroke="black" paint-order="fill stroke markers" d=" M 1560.8328990106095 1655.7362064879992 L 1105.1460782074428 1655.7362064879992" stroke-miterlimit="10" stroke-width="1.4659797833333332" stroke-dasharray="7.0367029599999995"/><g transform="translate(1090.6621979481095,1655.7362064879992) translate(-1090.6621979481095,-1655.7362064879992)"><path fill="black" stroke="none" paint-order="stroke fill markers" d=" M 1105.3219957814429 1648.4063075713325 L 1090.6621979481095 1655.7362064879992 L 1105.3219957814429 1663.066105404666 Z"/></g></g><g><g><rect fill="white" stroke="none" x="857.1557282911043" y="1682.1238425879992" width="5.27752722" height="22.86928462"/></g><text fill="black" stroke="none" font-family="sans-serif" font-size="11pt" font-style="normal" font-weight="normal" text-decoration="normal" x="859.7944919011043" y="1697.9564242479992" text-anchor="start" dominant-baseline="alphabetic" xml:space="preserve"></text></g><g><path fill="none" stroke="black" paint-order="fill stroke markers" d=" M 1073.0704405481094 1704.9931272079991 L 661.0024235134323 1704.9931272079991" stroke-miterlimit="10" stroke-width="1.4659797833333332" stroke-dasharray="7.0367029599999995"/><g transform="translate(646.518543254099,1704.9931272079991) translate(-646.518543254099,-1704.9931272079991)"><path fill="black" stroke="none" paint-order="stroke fill markers" d=" M 661.1783410874323 1697.6632282913324 L 646.518543254099 1704.9931272079991 L 661.1783410874323 1712.3230261246658 Z"/></g></g><g><g><rect fill="white" stroke="none" x="676.1313348774323" y="1731.3807633079991" width="126.03630102371093" height="22.86928462"/></g><text fill="black" stroke="none" font-family="sans-serif" font-size="11pt" font-style="normal" font-weight="normal" text-decoration="normal" x="678.7700984874323" y="1747.213344967999" text-anchor="start" dominant-baseline="alphabetic" xml:space="preserve">notifyObservers()</text></g><g><path fill="none" stroke="black" paint-order="fill stroke markers" d=" M 646.518543254099 1754.2500479279993 L 725.681451554099 1754.2500479279993 L 725.681451554099 1777.1193325479992 L 669.7983022134323 1777.1193325479992" stroke-miterlimit="10" stroke-width="1.4659797833333332" stroke-dasharray=""/><g transform="translate(655.314421954099,1777.1193325479992) translate(-655.314421954099,-1777.1193325479992)"><path fill="black" stroke="none" paint-order="stroke fill markers" d=" M 669.9742197874323 1769.7894336313325 L 655.314421954099 1777.1193325479992 L 669.9742197874323 1784.449231464666 Z"/></g></g><g><g><rect fill="white" stroke="none" x="504.005523097875" y="1803.5069686479992" width="54.93392980789062" height="22.86928462"/></g><text fill="black" stroke="none" font-family="sans-serif" font-size="11pt" font-style="normal" font-weight="normal" text-decoration="normal" x="506.64428670787504" y="1819.3395503079992" text-anchor="start" dominant-baseline="alphabetic" xml:space="preserve">update</text></g><g><path fill="none" stroke="black" paint-order="fill stroke markers" d=" M 637.722664554099 1826.3762532679991 L 439.706191708875 1826.3762532679991" stroke-miterlimit="10" stroke-width="1.4659797833333332" stroke-dasharray=""/><g transform="translate(425.2223114495417,1826.3762532679991) translate(-425.2223114495417,-1826.3762532679991)"><path fill="black" stroke="none" paint-order="stroke fill markers" d=" M 439.88210928287504 1819.0463543513324 L 425.2223114495417 1826.3762532679991 L 439.88210928287504 1833.7061521846658 Z"/></g></g><g><g><rect fill="white" stroke="none" x="486.26392306125393" y="1852.7638893679991" width="90.41712988113281" height="22.86928462"/></g><text fill="black" stroke="none" font-family="sans-serif" font-size="11pt" font-style="normal" font-weight="normal" text-decoration="normal" x="488.90268667125395" y="1868.596471027999" text-anchor="start" dominant-baseline="alphabetic" xml:space="preserve">getAvtivity()</text></g><g><path fill="none" stroke="black" paint-order="fill stroke markers" d=" M 425.2223114495417 1875.633173987999 L 623.2387842947657 1875.633173987999" stroke-miterlimit="10" stroke-width="1.4659797833333332" stroke-dasharray=""/><g transform="translate(637.722664554099,1875.633173987999) translate(-637.722664554099,-1875.633173987999)"><path fill="black" stroke="none" paint-order="stroke fill markers" d=" M 623.0628667207657 1868.3032750713323 L 637.722664554099 1875.633173987999 L 623.0628667207657 1882.9630729046658 Z"/></g></g><g><g><rect fill="white" stroke="none" x="480.3262170676016" y="1902.020810087999" width="102.2925418684375" height="22.86928462"/></g><text fill="black" stroke="none" font-family="sans-serif" font-size="11pt" font-style="normal" font-weight="normal" text-decoration="normal" x="482.9649806776016" y="1917.853391747999" text-anchor="start" dominant-baseline="alphabetic" xml:space="preserve">returnactivity</text></g><g><path fill="none" stroke="black" paint-order="fill stroke markers" d=" M 637.722664554099 1924.890094707999 L 439.706191708875 1924.890094707999" stroke-miterlimit="10" stroke-width="1.4659797833333332" stroke-dasharray="7.0367029599999995"/><g transform="translate(425.2223114495417,1924.890094707999) translate(-425.2223114495417,-1924.890094707999)"><path fill="black" stroke="none" paint-order="stroke fill markers" d=" M 439.88210928287504 1917.5601957913323 L 425.2223114495417 1924.890094707999 L 439.88210928287504 1932.2199936246657 Z"/></g></g><g><g><rect fill="white" stroke="none" x="491.38560427463284" y="1951.277730807999" width="80.173767454375" height="22.86928462"/></g><text fill="black" stroke="none" font-family="sans-serif" font-size="11pt" font-style="normal" font-weight="normal" text-decoration="normal" x="494.02436788463285" y="1967.110312467999" text-anchor="start" dominant-baseline="alphabetic" xml:space="preserve">getRoom()</text></g><g><path fill="none" stroke="black" paint-order="fill stroke markers" d=" M 425.2223114495417 1974.147015427999 L 623.2387842947657 1974.147015427999" stroke-miterlimit="10" stroke-width="1.4659797833333332" stroke-dasharray=""/><g transform="translate(637.722664554099,1974.147015427999) translate(-637.722664554099,-1974.147015427999)"><path fill="black" stroke="none" paint-order="stroke fill markers" d=" M 623.0628667207657 1966.8171165113322 L 637.722664554099 1974.147015427999 L 623.0628667207657 1981.4769143446656 Z"/></g></g><g><g><rect fill="white" stroke="none" x="488.5080331686758" y="2000.534651527999" width="85.92890966628906" height="22.86928462"/></g><text fill="black" stroke="none" font-family="sans-serif" font-size="11pt" font-style="normal" font-weight="normal" text-decoration="normal" x="491.1467967786758" y="2016.3672331879989" text-anchor="start" dominant-baseline="alphabetic" xml:space="preserve">returnroon</text></g><g><path fill="none" stroke="black" paint-order="fill stroke markers" d=" M 637.722664554099 2023.4039361479988 L 439.706191708875 2023.4039361479988" stroke-miterlimit="10" stroke-width="1.4659797833333332" stroke-dasharray="7.0367029599999995"/><g transform="translate(425.2223114495417,2023.4039361479988) translate(-425.2223114495417,-2023.4039361479988)"><path fill="black" stroke="none" paint-order="stroke fill markers" d=" M 439.88210928287504 2016.074037231332 L 425.2223114495417 2023.4039361479988 L 439.88210928287504 2030.7338350646655 Z"/></g></g><g><g><rect fill="white" stroke="none" x="495.83443392551175" y="2049.791572247999" width="71.27610815261718" height="22.86928462"/></g><text fill="black" stroke="none" font-family="sans-serif" font-size="11pt" font-style="normal" font-weight="normal" text-decoration="normal" x="498.47319753551176" y="2065.624153907999" text-anchor="start" dominant-baseline="alphabetic" xml:space="preserve">getDate()</text></g><g><path fill="none" stroke="black" paint-order="fill stroke markers" d=" M 425.2223114495417 2072.660856867999 L 623.2387842947657 2072.660856867999" stroke-miterlimit="10" stroke-width="1.4659797833333332" stroke-dasharray=""/><g transform="translate(637.722664554099,2072.660856867999) translate(-637.722664554099,-2072.660856867999)"><path fill="black" stroke="none" paint-order="stroke fill markers" d=" M 623.0628667207657 2065.3309579513325 L 637.722664554099 2072.660856867999 L 623.0628667207657 2079.9907557846655 Z"/></g></g><g><g><rect fill="white" stroke="none" x="489.5137628439688" y="2099.0484929679988" width="83.91745031570312" height="22.86928462"/></g><text fill="black" stroke="none" font-family="sans-serif" font-size="11pt" font-style="normal" font-weight="normal" text-decoration="normal" x="492.1525264539688" y="2114.8810746279987" text-anchor="start" dominant-baseline="alphabetic" xml:space="preserve">returndate</text></g><g><path fill="none" stroke="black" paint-order="fill stroke markers" d=" M 637.722664554099 2121.917777587999 L 439.706191708875 2121.917777587999" stroke-miterlimit="10" stroke-width="1.4659797833333332" stroke-dasharray=""/><g transform="translate(425.2223114495417,2121.917777587999) translate(-425.2223114495417,-2121.917777587999)"><path fill="black" stroke="none" paint-order="stroke fill markers" d=" M 439.88210928287504 2114.5878786713324 L 425.2223114495417 2121.917777587999 L 439.88210928287504 2129.2476765046654 Z"/></g></g><g><g><rect fill="white" stroke="none" x="528.8337243918204" y="2148.3054136879987" width="5.27752722" height="22.86928462"/></g><text fill="black" stroke="none" font-family="sans-serif" font-size="11pt" font-style="normal" font-weight="normal" text-decoration="normal" x="531.4724880018204" y="2164.1379953479986" text-anchor="start" dominant-baseline="alphabetic" xml:space="preserve"></text></g><g><path fill="none" stroke="black" paint-order="fill stroke markers" d=" M 425.2223114495417 2171.174698307999 L 623.2387842947657 2171.174698307999" stroke-miterlimit="10" stroke-width="1.4659797833333332" stroke-dasharray="7.0367029599999995"/><g transform="translate(637.722664554099,2171.174698307999) translate(-637.722664554099,-2171.174698307999)"><path fill="black" stroke="none" paint-order="stroke fill markers" d=" M 623.0628667207657 2163.8447993913323 L 637.722664554099 2171.174698307999 L 623.0628667207657 2178.5045972246653 Z"/></g></g><g><g><rect fill="white" stroke="none" x="520.0378456918204" y="2197.5623344079986" width="5.27752722" height="22.86928462"/></g><text fill="black" stroke="none" font-family="sans-serif" font-size="11pt" font-style="normal" font-weight="normal" text-decoration="normal" x="522.6766093018203" y="2213.3949160679986" text-anchor="start" dominant-baseline="alphabetic" xml:space="preserve"></text></g><g><path fill="none" stroke="black" paint-order="fill stroke markers" d=" M 628.926785854099 2220.4316190279987 L 430.910313008875 2220.4316190279987" stroke-miterlimit="10" stroke-width="1.4659797833333332" stroke-dasharray="7.0367029599999995"/><g transform="translate(416.4264327495417,2220.4316190279987) translate(-416.4264327495417,-2220.4316190279987)"><path fill="black" stroke="none" paint-order="stroke fill markers" d=" M 431.08623058287503 2213.1017201113323 L 416.4264327495417 2220.4316190279987 L 431.08623058287503 2227.7615179446652 Z"/></g></g><g><g><rect fill="white" stroke="none" x="232.38446019211457" y="2246.8192551279985" width="5.27752722" height="22.86928462"/></g><text fill="black" stroke="none" font-family="sans-serif" font-size="11pt" font-style="normal" font-weight="normal" text-decoration="normal" x="235.0232238021146" y="2262.6518367879985" text-anchor="start" dominant-baseline="alphabetic" xml:space="preserve"></text></g><g><path fill="none" stroke="black" paint-order="fill stroke markers" d=" M 398.83467534954167 2269.6885397479987 L 85.69565251402084 2269.6885397479987" stroke-miterlimit="10" stroke-width="1.4659797833333332" stroke-dasharray="7.0367029599999995"/><g transform="translate(71.2117722546875,2269.6885397479987) translate(-71.2117722546875,-2269.6885397479987)"><path fill="black" stroke="none" paint-order="stroke fill markers" d=" M 85.87157008802083 2262.358640831332 L 71.2117722546875 2269.6885397479987 L 85.87157008802083 2277.018438664665 Z"/></g></g><g><g/><path fill="none" stroke="black" paint-order="fill stroke markers" d=" M 1020.2951683481094 470.4035928759999 L 1212.2408863601538 470.4035928759999 L 1212.2408863601538 806.4061592159998 L 1020.2951683481094 806.4061592159998 L 1020.2951683481094 470.4035928759999 Z" stroke-miterlimit="10" stroke-width="2.5131082" stroke-dasharray=""/><path fill="white" stroke="black" paint-order="fill stroke markers" d=" M 1020.2951683481094 470.4035928759999 L 1020.2951683481094 491.5137017559999 L 1082.1804501158829 491.5137017559999 L 1092.735504555883 480.9586473159999 L 1092.735504555883 470.4035928759999 L 1020.2951683481094 470.4035928759999" stroke-miterlimit="10" stroke-width="2.5131082" stroke-dasharray=""/><text fill="black" stroke="none" font-family="sans-serif" font-size="8.8pt" font-style="normal" font-weight="bold" text-decoration="normal" x="1037.8869257481094" y="484.47699879599986" text-anchor="start" dominant-baseline="alphabetic" xml:space="preserve">loop</text></g></g><g/><g/><g/><g/><g/><g/><g/><g/></g></svg>