<svg version="1.1" xmlns="http://www.w3.org/2000/svg" xmlns:xlink="http://www.w3.org/1999/xlink" width="1985" height="2462"><defs/><g><g/><g/><g/><g/><g/><g/><g/><g/><g/><g/><g/><g/><g/><g/><g/><g/><g/><g/><g/><g/><g/><g/><g/><g/><g/><g/><g/><g/><g/><g/><g/><g/><g/><g/><g/><g/><g/><g/><g/><g><rect fill="white" stroke="none" x="0" y="0" width="1985" height="2462"/></g><g><text fill="black" stroke="none" font-family="sans-serif" font-size="16.5pt" font-style="normal" font-weight="normal" text-decoration="normal" x="957.9938444684043" y="26.3876361" text-anchor="start" dominant-baseline="alphabetic" xml:space="preserve">Cancel</text></g><g/><g><path fill="none" stroke="black" paint-order="fill stroke markers" d=" M 79.1629083 139.67855375599999 L 79.1629083 2462.4942008519984" stroke-miterlimit="10" stroke-width="1.4659797833333332" stroke-dasharray="13.532121076923076,5.863919133333333"/><path fill="none" stroke="black" paint-order="fill stroke markers" d=" M 180.21547366516927 967.1948218520001 L 180.21547366516927 2462.4942008519984" stroke-miterlimit="10" stroke-width="1.4659797833333332" stroke-dasharray="13.532121076923076,5.863919133333333"/><path fill="none" stroke="black" paint-order="fill stroke markers" d=" M 355.85676772558594 139.67855375599999 L 355.85676772558594 2462.4942008519984" stroke-miterlimit="10" stroke-width="1.4659797833333332" stroke-dasharray="13.532121076923076,5.863919133333333"/><path fill="none" stroke="black" paint-order="fill stroke markers" d=" M 721.5107983961589 139.67855375599999 L 721.5107983961589 2462.4942008519984" stroke-miterlimit="10" stroke-width="1.4659797833333332" stroke-dasharray="13.532121076923076,5.863919133333333"/><path fill="none" stroke="black" paint-order="fill stroke markers" d=" M 1244.8757863042317 139.67855375599999 L 1244.8757863042317 2462.4942008519984" stroke-miterlimit="10" stroke-width="1.4659797833333332" stroke-dasharray="13.532121076923076,5.863919133333333"/><path fill="none" stroke="black" paint-order="fill stroke markers" d=" M 1379.1745040476849 139.67855375599999 L 1379.1745040476849 2462.4942008519984" stroke-miterlimit="10" stroke-width="1.4659797833333332" stroke-dasharray="13.532121076923076,5.863919133333333"/><path fill="none" stroke="black" paint-order="fill stroke markers" d=" M 1506.734065402763 139.67855375599999 L 1506.734065402763 1426.3396899919996" stroke-miterlimit="10" stroke-width="1.4659797833333332" stroke-dasharray="13.532121076923076,5.863919133333333"/><path fill="none" stroke="black" paint-order="fill stroke markers" d=" M 1652.4322200968998 139.67855375599999 L 1652.4322200968998 2462.4942008519984" stroke-miterlimit="10" stroke-width="1.4659797833333332" stroke-dasharray="13.532121076923076,5.863919133333333"/><path fill="none" stroke="black" paint-order="fill stroke markers" d=" M 1906.6275150118086 139.67855375599999 L 1906.6275150118086 2462.4942008519984" stroke-miterlimit="10" stroke-width="1.4659797833333332" stroke-dasharray="13.532121076923076,5.863919133333333"/></g><g><g><path fill="white" stroke="black" paint-order="fill stroke markers" d=" M 89.190210018 65.265419954 A 10.027301717999999 10.027301717999999 0 1 1 89.19020500434955 65.25539265395321 M 79.1629083 75.29272167199998 L 79.1629083 96.75466569999998 M 66.496842972 83.033094928 L 91.828973628 83.033094928 M 79.1629083 96.75466569999998 L 66.496842972 116.80926913599998 M 79.1629083 96.75466569999998 L 91.828973628 116.80926913599998" stroke-miterlimit="10" stroke-width="2.990598758" stroke-dasharray=""/></g><g><g/><text fill="black" stroke="none" font-family="sans-serif" font-size="11pt" font-style="normal" font-weight="normal" text-decoration="normal" x="55.98108456953125" y="134.401026536" text-anchor="start" dominant-baseline="alphabetic" xml:space="preserve">Admin</text></g><g><path fill="white" stroke="black" paint-order="fill stroke markers" d=" M 390.7764061645859 89.19021001799997 A 26.123759739 26.123759739 0 1 1 390.7763931027072 89.16408626261492 M 322.432428665586 61.57115089999997 L 322.432428665586 116.80926913599997 M 320.93712928658596 89.19021001799997 L 338.52888668658596 89.19021001799997" stroke-miterlimit="10" stroke-width="2.990598758" stroke-dasharray=""/></g><g><g/><text fill="black" stroke="none" font-family="sans-serif" font-size="11pt" font-style="normal" font-weight="normal" text-decoration="normal" x="324.9727268930664" y="134.401026536" text-anchor="start" dominant-baseline="alphabetic" xml:space="preserve">CancelUI</text></g><g><path fill="white" stroke="black" paint-order="fill stroke markers" d=" M 747.6345581351588 89.19021001799997 A 26.123759739 26.123759739 0 1 1 747.63454507328 89.16408626261492 M 717.9924469161589 63.06645027899997 L 728.5475013561589 54.27057157899998 M 717.9924469161589 63.06645027899997 L 728.5475013561589 71.86232897899997" stroke-miterlimit="10" stroke-width="2.990598758" stroke-dasharray=""/></g><g><g/><text fill="black" stroke="none" font-family="sans-serif" font-size="11pt" font-style="normal" font-weight="normal" text-decoration="normal" x="667.1836575880534" y="134.401026536" text-anchor="start" dominant-baseline="alphabetic" xml:space="preserve">BookingSystem</text></g><path fill="none" stroke="none"/><g><path fill="white" stroke="black" paint-order="fill stroke markers" d=" M 1185.7171505457395 92.18080877599999 L 1304.034422062724 92.18080877599999 L 1304.034422062724 139.67855375599999 L 1185.7171505457395 139.67855375599999 L 1185.7171505457395 92.18080877599999 Z" stroke-miterlimit="10" stroke-width="2.814681184" stroke-dasharray=""/></g><g><g/><text fill="black" stroke="none" font-family="sans-serif" font-size="11pt" font-style="normal" font-weight="normal" text-decoration="normal" x="1204.8042073247395" y="122.08679635600001" text-anchor="start" dominant-baseline="alphabetic" xml:space="preserve">Classrooms</text></g><g><path fill="white" stroke="black" paint-order="fill stroke markers" d=" M 1405.2982637866849 86.79773101159998 A 26.123759739 26.123759739 0 1 1 1405.2982507248062 86.77160725621492 M 1351.5554449296849 115.31396975699997 L 1406.7935631656849 115.31396975699997" stroke-miterlimit="10" stroke-width="2.990598758" stroke-dasharray=""/></g><g><g/><text fill="black" stroke="none" font-family="sans-serif" font-size="11pt" font-style="normal" font-weight="normal" text-decoration="normal" x="1321.626179462724" y="134.401026536" text-anchor="start" dominant-baseline="alphabetic" xml:space="preserve">current_Booking</text></g><g><path fill="white" stroke="black" paint-order="fill stroke markers" d=" M 1532.857825141763 86.79773101159998 A 26.123759739 26.123759739 0 1 1 1532.8578120798843 86.77160725621492 M 1479.115006284763 115.31396975699997 L 1534.353124520763 115.31396975699997" stroke-miterlimit="10" stroke-width="2.990598758" stroke-dasharray=""/></g><g><g/><text fill="black" stroke="none" font-family="sans-serif" font-size="11pt" font-style="normal" font-weight="normal" text-decoration="normal" x="1454.3145860326458" y="134.401026536" text-anchor="start" dominant-baseline="alphabetic" xml:space="preserve">select_Booking</text></g><path fill="none" stroke="none"/><g><path fill="white" stroke="black" paint-order="fill stroke markers" d=" M 1576.7453021728802 92.18080877599999 L 1728.1191380209193 92.18080877599999 L 1728.1191380209193 139.67855375599999 L 1576.7453021728802 139.67855375599999 L 1576.7453021728802 92.18080877599999 Z" stroke-miterlimit="10" stroke-width="2.814681184" stroke-dasharray=""/></g><g><g/><text fill="black" stroke="none" font-family="sans-serif" font-size="11pt" font-style="normal" font-weight="normal" text-decoration="normal" x="1595.8323589518802" y="122.08679635600001" text-anchor="start" dominant-baseline="alphabetic" xml:space="preserve">BookingMapper</text></g><g><path fill="white" stroke="black" paint-order="fill stroke markers" d=" M 1880.9435492078085 105.19870925199999 L 1880.9435492078085 68.25601871199999 L 1932.3114808158086 68.25601871199999 L 1932.3114808158086 105.19870925199999" stroke-miterlimit="10" stroke-width="2.990598758" stroke-dasharray=""/><path fill="white" stroke="black" paint-order="fill stroke markers" d=" M 1932.3114808158086 66.97182042179999 L 1932.31019662822 67.08792408555635 L 1932.3063441938718 67.20401613904309 L 1932.2999238980046 67.3200849731516 L 1932.2909363826423 67.43611898109519 L 1932.279382546529 67.55210655956978 L 1932.2652635450386 67.66803610991414 L 1932.2485807900598 67.78389603926989 L 1932.229335949854 67.8996747617406 L 1932.207530948889 68.01536069955054 L 1932.183167967647 68.1309422842023 L 1932.1562494424056 68.24640795763378 L 1932.126778064995 68.3617461733738 L 1932.0947567825287 68.47694539769695 L 1932.0601887971077 68.59199411077678 L 1932.023077565502 68.70688080783783 L 1931.983426798804 68.82159400030618 L 1931.941240462057 68.93612221695814 L 1931.8965227738597 69.0504540050675 L 1931.8492782059436 69.16457793155072 L 1931.7995114827263 69.27848258411025 L 1931.7472275808384 69.39215657237577 L 1931.6924317286266 69.50558852904317 L 1931.6351294056306 69.61876711101131 L 1931.5753263420347 69.73168100051632 L 1931.5130285180956 69.84431890626333 L 1931.4482421635437 69.95666956455563 L 1931.3809737569604 70.06872174042103 L 1931.3112300251307 70.18046422873529 L 1931.2390179423692 70.29188585534273 L 1931.164344729824 70.40297547817353 L 1931.0872178547545 70.51372198835797 L 1931.0076450297836 70.62411431133734 L 1930.9256342121278 70.73414140797132 L 1930.8411936028 70.84379227564195 L 1930.7543316457914 70.95305594935381 L 1930.6650570272247 71.06192150283061 L 1930.5733786744881 71.1703780496077 L 1930.4793057553397 71.27841474412082 L 1930.3828476769936 71.38602078279051 L 1930.284014085177 71.4931854051026 L 1930.1828148631666 71.59989789468413 L 1930.0792601308005 71.7061475803751 L 1929.9733602434655 71.81192383729548 L 1929.8651257910622 71.9172160879077 L 1929.7545675969457 72.02201380307447 L 1929.641696716843 72.12630650311159 L 1929.526524437748 72.23008375883597 L 1929.4090622767933 72.33333519260853 L 1929.2893219800965 72.43605047937191 L 1929.1673155215876 72.53821934768304 L 1929.0430551018108 72.63983158074024 L 1928.9165531467047 72.74087701740487 L 1928.787822306359 72.84134555321748 L 1928.656875453751 72.94122714140819 L 1928.5237256834564 73.04051179390143 L 1928.3883863103413 73.13918958231469 L 1928.2508708682305 73.23725063895135 L 1928.1111931085534 73.33468515778748 L 1927.9693669989697 73.43148339545236 L 1927.825406721972 73.52763567220293 L 1927.6793266734683 73.6231323728916 L 1927.5311414613413 73.71796394792793 L 1927.3808659039892 73.8121209142334 L 1927.2285150288421 73.90559385618985 L 1927.0741040708608 73.998373426581 L 1926.9176484710126 74.09045034752711 L 1926.7591638747265 74.18181541141281 L 1926.5986661303307 74.27245948180787 L 1926.4361712874654 74.36237349438078 L 1926.27169559548 74.45154845780519 L 1926.1052555018061 74.53997545465909 L 1925.9368676503145 74.62764564231648 L 1925.7665488796504 74.71455025383165 L 1925.5943162215485 74.80068059881587 L 1925.4201868991313 74.88602806430642 L 1925.2441783251857 74.97058411562787 L 1925.0663081004227 75.05434029724555 L 1924.8865940117166 75.13728823361109 L 1924.7050540303262 75.21941962999999 L 1924.5217063100986 75.30072627334106 L 1924.3365691856527 75.38120003303769 L 1924.1496611705472 75.46083286178099 L 1923.9610009554274 75.53961679635444 L 1923.770607406158 75.61754395843025 L 1923.5784995619347 75.69460655535714 L 1923.3846966333824 75.77079688093964 L 1923.189218000632 75.84610731620869 L 1922.9920832113844 75.9205303301835 L 1922.7933119789536 75.99405848062472 L 1922.5929241802978 76.06668441477855 L 1922.3909398540295 76.13840087011211 L 1922.187379198413 76.20920067503964 L 1921.9822625693446 76.27907674963963 L 1921.775610478316 76.34802210636286 L 1921.567443590364 76.4160298507311 L 1921.357782722004 76.48309318202661 L 1921.1466488391484 76.54920539397213 L 1920.9340630550091 76.61435987540155 L 1920.7200466279876 76.67855011092104 L 1920.5046209595482 76.74176968156053 L 1920.2878075920783 76.80401226541565 L 1920.0696282067338 76.86527163827986 L 1919.8501046212716 76.92554167426694 L 1919.6292587878672 76.98481634642351 L 1919.40711279092 77.04308972733178 L 1919.1836888448447 77.10035598970217 L 1918.9590092918493 77.15660940695618 L 1918.733096599702 77.21184435379898 L 1918.5059733594842 77.26605530678191 L 1918.27766228333 77.31923684485484 L 1918.0481862021572 77.37138364990828 L 1917.8175680633826 77.42249050730518 L 1917.585830928628 77.4725523064024 L 1917.3529979714133 77.52156404106174 L 1917.1190924748407 77.56952081015058 L 1916.8841378292648 77.61641781803196 L 1916.6481575299542 77.6622503750442 L 1916.4111751747423 77.70701389796976 L 1916.1732144616672 77.75070391049368 L 1915.9342991866017 77.7933160436511 L 1915.6944532408743 77.83484603626422 L 1915.45370060888 77.87528973536838 L 1915.212065365681 77.91464309662739 L 1914.9695716746003 77.9529021847379 L 1914.726243784805 77.99006317382297 L 1914.4821060288816 78.02612234781469 L 1914.2371828204016 78.0610761008257 L 1913.9914986514823 78.09492093750981 L 1913.7450780903357 78.12765347341158 L 1913.4979457788124 78.15927043530469 L 1913.2501264299378 78.18976866151928 L 1913.0016448254403 78.21914510225817 L 1912.7525258132732 78.24739681990175 L 1912.50279430513 78.27452098930179 L 1912.2524752739535 78.30051489806398 L 1912.0015937514383 78.32537594681908 L 1911.7501748255274 78.34910164948295 L 1911.4982436379044 78.37168963350508 L 1911.2458253814773 78.39313764010592 L 1910.992945297862 78.41344352450264 L 1910.7396286748558 78.43260525612375 L 1910.48590084391 78.45062091881205 L 1910.2317871775965 78.46748871101629 L 1909.97731308707 78.48320694597129 L 1909.7225040195274 78.49777405186667 L 1909.467385455663 78.51118857200397 L 1909.211982907121 78.52344916494236 L 1908.956321913943 78.53455460463276 L 1908.7004280420156 78.54450378054045 L 1908.4443268805126 78.55329569775614 L 1908.1880440393365 78.56092947709544 L 1907.9316051465582 78.56740435518677 L 1907.6750358458532 78.57271968454769 L 1907.418361793938 78.57687493364975 L 1907.1616086580032 78.57986968697145 L 1906.9048021131491 78.58170364504 L 1906.647967839816 78.58237662446106 L 1906.3911315212167 78.58188855793732 L 1906.13431884077 78.58023949427498 L 1905.877555479529 78.57742959837903 L 1905.6208671136164 78.57345915123673 L 1905.364279411655 78.56832854988951 L 1905.1078180322006 78.56203830739318 L 1904.851508621178 78.5545890527668 L 1904.5953768093143 78.54598153092958 L 1904.3394482095775 78.53621660262655 L 1904.083748414614 78.5252952443424 L 1903.8283029941906 78.51321854820387 L 1903.5731374926363 78.4999877218705 L 1903.3182774262887 78.48560408841388 L 1903.0637482809418 78.4700690861854 L 1902.8095755092982 78.45338426867232 L 1902.5557845284231 78.4355513043425 L 1902.3024007172035 78.41657197647748 L 1902.049449413809 78.39644818299428 L 1901.7969559131593 78.37518193625543 L 1901.544945464394 78.35277536286792 L 1901.293443268348 78.32923070347039 L 1901.0424744750314 78.30455031250918 L 1900.792064181114 78.2787366580028 L 1900.5422374274171 78.2517923212952 L 1900.2930191964074 78.2237199967976 L 1900.0444344097007 78.19452249171906 L 1899.7965079255682 78.16420272578573 L 1899.5492645364518 78.13276373094897 L 1899.3027289664844 78.10020865108203 L 1899.0569258690177 78.0665407416658 L 1898.8118798241564 78.03176336946316 L 1898.5676153363008 77.99588001218234 L 1898.3241568316964 77.95889425812916 L 1898.0815286559903 77.92080980584822 L 1897.8397550717982 77.881630463753 L 1897.5988602562772 77.84136014974506 L 1897.3588682987076 77.80000289082224 L 1897.1198031980857 77.75756282267598 L 1896.881688860722 77.71404418927773 L 1896.644549097852 77.66945134245454 L 1896.4084076232543 77.62378874145395 L 1896.1732880508796 77.57706095249802 L 1895.9392138924889 77.52927264832667 L 1895.7062085553034 77.48042860773052 L 1895.4742953396626 77.43053371507293 L 1895.2434974366945 77.37959295980157 L 1895.0138379259974 77.32761143594954 L 1894.7853397733309 77.27459434162587 L 1894.5580258283196 77.22054697849586 L 1894.331918822169 77.16547475125074 L 1894.1070413653908 77.10938316706736 L 1893.8834159455437 77.0522778350574 L 1893.6610649249833 76.99416446570646 L 1893.440010538626 76.93504887030305 L 1893.2202748917266 76.87493696035746 L 1893.0018799576665 76.81383474701059 L 1892.7848475757573 76.75174834043284 L 1892.569199449056 76.68868394921314 L 1892.3549571421959 76.62464787973806 L 1892.142142079229 76.5596465355612 L 1891.930775541484 76.49368641676277 L 1891.7208786654392 76.42677411929971 L 1891.5124724406064 76.358916334346 L 1891.3055777074353 76.2901198476236 L 1891.1002151552261 76.22039153872383 L 1890.8964053200634 76.14973838041949 L 1890.6941685827605 76.07816743796754 L 1890.493525166823 76.00568586840255 L 1890.294495136425 75.9323009198211 L 1890.0970983944035 75.8580199306569 L 1889.9013546802687 75.78285032894695 L 1889.7072835682284 75.70679963158878 L 1889.5149044652326 75.62987544358876 L 1889.3242366090308 75.55208545730159 L 1889.13529906625 75.47343745166106 L 1888.9481107304869 75.3939392914022 L 1888.762690320419 75.31359892627479 L 1888.579056377933 75.2324243902484 L 1888.3972272662702 75.15042380070896 L 1888.21722116819 75.06760535764712 L 1888.0390560841524 74.98397734283817 L 1887.8627498305173 74.89954811901389 L 1887.6883200377629 74.8143261290263 L 1887.5157841487232 74.72831989500338 L 1887.3451594168437 74.64153801749687 L 1887.1764629044549 74.5539891746222 L 1887.0097114810678 74.46568212119071 L 1886.8449218216856 74.37662568783415 L 1886.682110405137 74.28682878012162 L 1886.521293512428 74.19630037766909 L 1886.3624872251137 74.10504953324134 L 1886.2057074236907 74.0130853718468 L 1886.0509697860084 73.92041708982494 L 1885.8982897857015 73.82705395392676 L 1885.747682690643 73.73300530038806 L 1885.5991635614168 73.63828053399578 L 1885.452747249812 73.54288912714766 L 1885.308448397338 73.44684061890487 L 1885.1662814337594 73.3501446140382 L 1885.0262605756545 73.25281078206757 L 1884.8883998249921 73.15484885629505 L 1884.7527129677326 73.05626863283157 L 1884.6192135724484 72.95707996961737 L 1884.4879149889682 72.85729278543607 L 1884.3588303470406 72.75691705892295 L 1884.2319725550221 72.65596282756702 L 1884.1073542985866 72.5544401867073 L 1883.9849880394556 72.45235928852324 L 1883.8648860141532 72.34973034101961 L 1883.7470602327817 72.24656360700563 L 1883.6315224778211 72.14286940306874 L 1883.5182843029506 72.03865809854291 L 1883.4073570318935 71.93394011447177 L 1883.2987517572842 71.82872592256643 L 1883.19247933956 71.72302604415843 L 1883.0885504058735 71.61685104914753 L 1882.9869753490323 71.51021155494473 L 1882.8877643264566 71.4031182254106 L 1882.7909272591667 71.29558176978884 L 1882.6964738307881 71.1876129416354 L 1882.6044134865851 71.07922253774314 L 1882.5147554325156 70.9704213970621 L 1882.42750863431 70.86122039961568 L 1882.3426818165756 70.75163046541265 L 1882.2602834619236 70.64166255335508 L 1882.1803218101204 70.53132766014255 L 1882.1028048572648 70.42063681917243 L 1882.0277403549876 70.30960109943658 L 1881.9551358096762 70.19823160441445 L 1881.8849984817248 70.0865394709627 L 1881.8173353848076 69.97453586820164 L 1881.752153285178 69.86223199639821 L 1881.689458700992 69.74963908584596 L 1881.6292579016551 69.63676839574217 L 1881.5715569071976 69.52363121306175 L 1881.5163614876708 69.41023885142872 L 1881.4636771625703 69.29660264998472 L 1881.4135092002848 69.18273397225522 L 1881.365862617569 69.0686442050131 L 1881.3207421790414 68.95434475714 L 1881.278152396708 68.83984705848547 L 1881.2380975295118 68.72516255872397 L 1881.2005815829061 68.61030272620987 L 1881.1656083084542 68.49527904683073 L 1881.1331812034546 68.38010302285863 L 1881.1033035105904 68.2647861718 L 1881.0759782176065 68.14934002524383 L 1881.0512080570088 68.03377612770858 L 1881.0289955057933 67.9181060354877 L 1881.0093427851962 67.80234131549402 L 1880.9922518604735 67.68649354410306 L 1880.9777244407032 67.57057430599544 L 1880.9657619786153 67.45459519299835 L 1880.9563656704458 67.33856780292646 L 1880.9495364558181 67.22250373842208 L 1880.9452750176479 67.10641460579494 L 1880.9435817820752 66.99031201386155 L 1880.944456918422 66.87420757278437 L 1880.947900339176 66.75811289291076 L 1880.9539116999974 66.64203958361193 L 1880.9624903997556 66.52599925212212 L 1880.9736355805874 66.41000350237775 L 1880.9873461279842 66.29406393385715 L 1881.0036206709026 66.17819214042055 L 1881.022457581902 66.06239970915072 L 1881.043854977307 65.94669821919432 L 1881.0678107173958 65.8310992406039 L 1881.094322406614 65.71561433318102 L 1881.1233873938156 65.60025504532017 L 1881.1550027725254 65.48503291285398 L 1881.189165381232 65.36995945789971 L 1881.2258718037033 65.25504618770695 L 1881.2651183693274 65.14030459350695 L 1881.3069011534803 65.02574614936354 L 1881.3512159779189 64.91138231102563 L 1881.3980584111973 64.79722451478179 L 1881.447423769111 64.68328417631649 L 1881.499307115166 64.56957268956862 L 1881.5537032610705 64.45610142559212 L 1881.6106067672551 64.3428817314188 L 1881.670011943417 64.22992492892377 L 1881.7319128490876 64.1172423136931 L 1881.7963032942284 64.00484515389444 L 1881.8631768398484 63.89274468915009 L 1881.9325267986487 63.78095212941312 L 1882.0043462356912 63.66947865384635 L 1882.0786279690922 63.558335409704426 L 1882.15536457074 63.447533511219156 L 1882.2345483670383 63.337084038488044 L 1882.316171439674 63.226998036366325 L 1882.4002256264073 63.11728651336247 L 1882.48670252189 63.00796044053737 L 1882.5755934785043 62.899030750407185 L 1882.6668896072288 62.790508335850156 L 1882.7605817785266 62.682404049017315 L 1882.8566606232587 62.57472870024724 L 1882.9551165336206 62.4674930569851 L 1883.0559396641036 62.36070784270584 L 1883.1591199324782 62.25438373584191 L 1883.264647020804 62.148531368715396 L 1883.3725103764598 62.04316132647479 L 1883.4826992132 61.938284146036516 L 1883.5952025122328 61.83391031503122 L 1883.710009023322 61.73005027075502 L 1883.8271072659122 61.6267143991258 L 1883.9464855302767 61.52391303364461 L 1884.0681318786887 61.42165645436233 L 1884.1920341466146 61.31995488685167 L 1884.3181799439305 61.21881850118463 L 1884.4465566561626 61.1182574109155 L 1884.5771514457458 61.018281672069506 L 1884.7099512533107 60.91890128213721 L 1884.8449427989867 60.82012617907481 L 1884.9821125837318 60.72196624031029 L 1885.1214468906821 60.62443128175571 L 1885.2629317865228 60.52753105682567 L 1885.4065531228823 60.431275255461905 L 1885.5522965377465 60.33567350316434 L 1885.7001474568956 60.24073536002853 L 1885.8500910953608 60.14647031978968 L 1886.002112458903 60.05288780887326 L 1886.1561963455129 59.959997185452366 L 1886.31232734693 59.86780773851195 L 1886.4704898501843 59.77632868691987 L 1886.6306680391572 59.68556917850505 L 1886.7928458961635 59.59553828914271 L 1886.9570072035526 59.50624502184675 L 1887.1231355453303 59.41769830586949 L 1887.2912143088013 59.32990699580875 L 1887.4612266862289 59.24287987072236 L 1887.6331556765172 59.15662563325033 L 1887.8069840869105 59.0711529087445 L 1887.9826945347124 58.986470244406114 L 1888.160269449025 58.90258610843103 L 1888.3396910725044 58.81950888916295 L 1888.520941463138 58.737246894254554 L 1888.7040024960377 58.65580834983679 L 1888.8888558652527 58.57520139969624 L 1889.0754830856001 58.49543410446074 L 1889.2638654945135 58.41651444079334 L 1889.453984253909 58.33845030059465 L 1889.6458203520692 58.26124949021362 L 1889.839354605544 58.18491972966697 L 1890.0345676610693 58.10946865186714 L 1890.231439997502 58.03490380185903 L 1890.4299519277731 57.96123263606552 L 1890.6300836008547 57.88846252154177 L 1890.8318150037462 57.816600735238616 L 1891.0351259634754 57.74565446327479 L 1891.2399961491158 57.67563080021837 L 1891.4464050738195 57.60653674837731 L 1891.6543320968663 57.53837921709922 L 1891.863756425727 57.47116502208042 L 1892.074657118143 57.40490088468441 L 1892.2870130842211 57.3395934312697 L 1892.5008030885417 57.27524919252721 L 1892.7160057522822 57.21187460282721 L 1892.9325995553559 57.14947599957584 L 1893.1505628385628 57.088059622581426 L 1893.3698738057565 57.02763161343051 L 1893.5905105260226 56.96819801487362 L 1893.8124509358731 56.9097647702211 L 1894.035672841452 56.85233772274873 L 1894.2601539207549 56.79592261511338 L 1894.4858717258608 56.74052508877882 L 1894.7128036851773 56.6861506834515 L 1894.9409271056975 56.63280483652666 L 1895.1702191752695 56.58049288254453 L 1895.4006569648775 56.52922005265691 L 1895.6322174309344 56.47899147410408 L 1895.8648774175867 56.42981216970201 L 1896.0986136590298 56.38168705734017 L 1896.333402781834 56.334620949489704 L 1896.5692213072825 56.28861855272216 L 1896.80604565372 56.24368446723889 L 1897.0438521389085 56.199823186410995 L 1897.2826169823982 56.157039096329996 L 1897.522316307903 56.11533647536926 L 1897.762926145691 56.07471949375613 L 1898.0044224349783 56.035192213154914 L 1898.2467810263374 55.99675858626073 L 1898.4899776841112 55.959422456404255 L 1898.7339880888364 55.923187557167346 L 1898.978787839676 55.88805751200974 L 1899.224352456859 55.85403583390668 L 1899.4706573841281 55.82112592499761 L 1899.717677991196 55.78933107624601 L 1899.9653895762078 55.758654467110254 L 1900.2137673682114 55.72909916522569 L 1900.4627865296345 55.70066812609789 L 1900.7124221587687 55.67336419280706 L 1900.962649292259 55.64719009572377 L 1901.2134429076002 55.62214845223594 L 1901.4647779256404 55.598241766487035 L 1901.716629213087 55.57547242912571 L 1901.9689715850209 55.55384271706673 L 1902.2217798074155 55.533354793263264 L 1902.475028599659 55.51401070649064 L 1902.7286926370834 55.4958123911414 L 1902.9827465534963 55.47876166703191 L 1903.2371649437177 55.46286023922039 L 1903.4919223661207 55.44810969783636 L 1903.746993345175 55.434511517921656 L 1904.0023523739958 55.42206705928295 L 1904.2579739168928 55.41077756635575 L 1904.5138324119243 55.40064416807991 L 1904.7699022734548 55.39166787778682 L 1905.0261578947109 55.38384959309805 L 1905.2825736503444 55.37719009583553 L 1905.5391238989932 55.37169005194345 L 1905.7957829858462 55.36735001142162 L 1906.052525245209 55.36417040827046 L 1906.309325003069 55.36215156044765 L 1906.5661565796647 55.36129366983628 L 1906.8229942920527 55.3615968222247 L 1907.0798124566754 55.363060987297914 L 1907.3365853919306 55.36568601864066 L 1907.5932874207388 55.369471653751965 L 1907.8498928731105 55.37441751407148 L 1908.106376088715 55.3805231050173 L 1908.3627114194444 55.38778781603543 L 1908.6188732319788 55.39621092066079 L 1908.8748359103506 55.40579157658996 L 1909.1305738585054 55.41652882576533 L 1909.3860615028614 55.428421594470926 L 1909.641273294867 55.44146869343979 L 1909.8961837135557 55.45566881797289 L 1910.1507672680982 55.47102054806961 L 1910.4049985003512 55.48752234856974 L 1910.658851987403 55.50517256930697 L 1910.9123023441168 55.52396944527395 L 1911.1653242256682 55.54391109679874 L 1911.4178923300794 55.56499552973279 L 1911.6699814007509 55.587220635650404 L 1911.9215662289855 55.61058419205949 L 1912.1726216565103 55.63508386262389 L 1912.4231225779913 55.660717197396956 L 1912.6730439435453 55.687481633066575 L 1912.9223607612441 55.715374493211485 L 1913.1710480996137 55.744392988568904 L 1913.4190810901275 55.7745342173135 L 1913.666434929693 55.8057951653475 L 1913.9130848831323 55.83817270660215 L 1914.159006285656 55.871663603350314 L 1914.4041745453285 55.90626450653023 L 1914.6485651455282 55.941971956080394 L 1914.8921536473986 55.97878238128563 L 1915.1349156922927 56.01669210113408 L 1915.3768270042083 56.055697324685354 L 1915.6178633922154 56.095794151449596 L 1915.8580007528767 56.136978571777554 L 1916.097215072656 56.17924646726151 L 1916.3354824303203 56.22259361114713 L 1916.572778999333 56.267015668756166 L 1916.8090810502345 56.31250819791986 L 1917.0443649530166 56.35906664942321 L 1917.2786071794856 56.40668636745987 L 1917.5117843056134 56.455362590097714 L 1917.7438730138822 56.505090449755045 L 1917.9748500956143 56.55586497368733 L 1918.2046924532942 56.60768108448449 L 1918.4333771028776 56.66053360057863 L 1918.6608811760898 56.71441723676219 L 1918.8871819227136 56.76932660471643 L 1919.1122567128625 56.82525621355034 L 1919.3360830392453 56.88220047034963 L 1919.5586385194158 56.940153680736074 L 1919.7799008980114 56.999110049436936 L 1919.9998480489787 57.05906368086447 L 1920.218457977786 57.120008579705484 L 1920.4357088236222 57.1819386515209 L 1920.6515788615843 57.244847703355134 L 1920.8660465048479 57.308729444355436 L 1921.0790903068275 57.373577486400926 L 1921.2906889633207 57.439385344741446 L 1921.500821314638 57.506146438646006 L 1921.7094663477194 57.57385409206084 L 1921.9166031982354 57.642501534277045 L 1922.1222111526738 57.712081900607586 L 1922.32626965041 57.78258823307383 L 1922.5287582857648 57.854013481101276 L 1922.7296568100433 57.92635050222464 L 1922.92894513356 57.99959206280211 L 1923.1266033276495 58.07373083873863 L 1923.3226116266562 58.14875941621842 L 1923.5169504299142 58.224670292446234 L 1923.7096003037047 58.30145587639771 L 1923.9005419832013 58.379108489578456 L 1924.0897563743947 58.45762036679186 L 1924.2772245560036 58.53698365691561 L 1924.4629277813663 58.61719042368684 L 1924.6468474803146 58.698232646495725 L 1924.8289652610324 58.7801022211875 L 1925.0092629118928 58.86279096087293 L 1925.1877224032814 58.94629059674695 L 1925.3643258893978 59.03059277891555 L 1925.5390557100402 59.115689077230776 L 1925.7118943923724 59.2015709821337 L 1925.8828246526703 59.2882299055054 L 1926.05182939805 59.375657181525774 L 1926.2188917281778 59.46384406754005 L 1926.3839949369603 59.55278174493313 L 1926.5471225142137 59.642461320011385 L 1926.7082581473167 59.73287382489204 L 1926.86738572284 59.82401021839995 L 1927.0244893281588 59.91586138697171 L 1927.1795532530432 60.008418145567006 L 1927.3325619912302 60.10167123858711 L 1927.4835002419734 60.195611340800426 L 1927.6323529115734 60.29022905827503 L 1927.7791051148877 60.385514929318006 L 1927.9237421768178 60.48145942542166 L 1928.066249633778 60.57805295221634 L 1928.2066132351417 60.67528585042985 L 1928.3448189446656 60.77314839685341 L 1928.480852941894 60.87163080531391 L 1928.6147016235404 60.97072322765259 L 1928.746351604848 61.07041575470979 L 1928.8757897209289 61.170698417315876 L 1929.0030030280789 61.271561187288164 L 1929.1279788050736 61.3729939784337 L 1929.2507045544392 61.47498664755789 L 1929.3711680037031 61.577528995478836 L 1929.4893571066207 61.68061076804718 L 1929.6052600443804 61.78422165717158 L 1929.718865226785 61.88835130184945 L 1929.8301612934106 61.99298928920311 L 1929.9391371147437 62.09812515552101 L 1930.0457817932927 62.203748387304145 L 1930.1500846646788 62.30984842231735 L 1930.2520352987017 62.416414650645535 L 1930.3516235003829 62.52343641575468 L 1930.4488393109852 62.63090301555746 L 1930.5436730090087 62.73880370348344 L 1930.6361151111626 62.847127689553744 L 1930.7261563733134 62.95586414146005 L 1930.8137877914103 63.065002185647764 L 1930.8990006023846 63.174530908403426 L 1930.981786285026 63.28443935694603 L 1931.062136560835 63.39471654052231 L 1931.1400433948513 63.50535143150581 L 1931.2154989964563 63.61633296649962 L 1931.2884958201528 63.72765004744274 L 1931.3590265663192 63.83929154271982 L 1931.4270841819398 63.951246288274376 L 1931.4926618613094 64.06350308872516 L 1931.5557530467152 64.17605071848564 L 1931.6163514290909 64.28887792288667 L 1931.6744509486487 64.40197341930181 L 1931.7300457954852 64.51532589827566 L 1931.7831304101621 64.6289240246548 L 1931.833699484262 64.74275643872124 L 1931.88174796092 64.85681175732844 L 1931.927271035328 64.97107857503958 L 1931.970264155217 65.08554546526814 L 1932.01072302131 65.20020098142045 L 1932.0486435877551 65.31503365804045 L 1932.0840220625266 65.43003201195617 L 1932.1168549078068 65.54518454342806 L 1932.1471388403386 65.66047973729893 L 1932.1748708317537 65.77590606414547 L 1932.200048108876 65.89145198143119 L 1932.2226681539992 66.00710593466063 L 1932.2427287051373 66.12285635853486 L 1932.260227756252 66.23869167810795 L 1932.2751635574527 66.35460030994449 L 1932.287534615172 66.47057066327784 L 1932.2973396923142 66.58659114116935 L 1932.3045778083797 66.70265014166789 L 1932.3092482395632 66.81873605897015 L 1932.311350518825 66.9348372845811 M 1932.3114808158086 103.91451096179999 L 1932.31019662822 104.03061462555635 L 1932.3063441938718 104.14670667904309 L 1932.2999238980046 104.2627755131516 L 1932.2909363826423 104.37880952109519 L 1932.279382546529 104.49479709956978 L 1932.2652635450386 104.61072664991414 L 1932.2485807900598 104.72658657926989 L 1932.229335949854 104.8423653017406 L 1932.207530948889 104.95805123955054 L 1932.183167967647 105.0736328242023 L 1932.1562494424056 105.18909849763378 L 1932.126778064995 105.3044367133738 L 1932.0947567825287 105.41963593769695 L 1932.0601887971077 105.53468465077678 L 1932.023077565502 105.64957134783783 L 1931.983426798804 105.76428454030618 L 1931.941240462057 105.87881275695814 L 1931.8965227738597 105.9931445450675 L 1931.8492782059436 106.10726847155073 L 1931.7995114827263 106.22117312411025 L 1931.7472275808384 106.33484711237577 L 1931.6924317286266 106.44827906904317 L 1931.6351294056306 106.56145765101131 L 1931.5753263420347 106.67437154051632 L 1931.5130285180956 106.78700944626333 L 1931.4482421635437 106.89936010455563 L 1931.3809737569604 107.01141228042103 L 1931.3112300251307 107.12315476873529 L 1931.2390179423692 107.23457639534273 L 1931.164344729824 107.34566601817353 L 1931.0872178547545 107.45641252835797 L 1931.0076450297836 107.56680485133734 L 1930.9256342121278 107.67683194797132 L 1930.8411936028 107.78648281564195 L 1930.7543316457914 107.89574648935381 L 1930.6650570272247 108.00461204283062 L 1930.5733786744881 108.1130685896077 L 1930.4793057553397 108.22110528412082 L 1930.3828476769936 108.32871132279051 L 1930.284014085177 108.4358759451026 L 1930.1828148631666 108.54258843468413 L 1930.0792601308005 108.6488381203751 L 1929.9733602434655 108.75461437729548 L 1929.8651257910622 108.8599066279077 L 1929.7545675969457 108.96470434307447 L 1929.641696716843 109.0689970431116 L 1929.526524437748 109.17277429883598 L 1929.4090622767933 109.27602573260853 L 1929.2893219800965 109.37874101937192 L 1929.1673155215876 109.48090988768304 L 1929.0430551018108 109.58252212074024 L 1928.9165531467047 109.68356755740487 L 1928.787822306359 109.78403609321748 L 1928.656875453751 109.88391768140819 L 1928.5237256834564 109.98320233390143 L 1928.3883863103413 110.08188012231469 L 1928.2508708682305 110.17994117895135 L 1928.1111931085534 110.27737569778748 L 1927.9693669989697 110.37417393545236 L 1927.825406721972 110.47032621220293 L 1927.6793266734683 110.5658229128916 L 1927.5311414613413 110.66065448792793 L 1927.3808659039892 110.7548114542334 L 1927.2285150288421 110.84828439618985 L 1927.0741040708608 110.941063966581 L 1926.9176484710126 111.03314088752711 L 1926.7591638747265 111.12450595141281 L 1926.5986661303307 111.21515002180787 L 1926.4361712874654 111.30506403438078 L 1926.27169559548 111.39423899780519 L 1926.1052555018061 111.48266599465909 L 1925.9368676503145 111.57033618231648 L 1925.7665488796504 111.65724079383165 L 1925.5943162215485 111.74337113881587 L 1925.4201868991313 111.82871860430642 L 1925.2441783251857 111.91327465562787 L 1925.0663081004227 111.99703083724555 L 1924.8865940117166 112.07997877361109 L 1924.7050540303262 112.16211016999999 L 1924.5217063100986 112.24341681334106 L 1924.3365691856527 112.32389057303769 L 1924.1496611705472 112.40352340178099 L 1923.9610009554274 112.48230733635444 L 1923.770607406158 112.56023449843025 L 1923.5784995619347 112.63729709535714 L 1923.3846966333824 112.71348742093964 L 1923.189218000632 112.78879785620869 L 1922.9920832113844 112.8632208701835 L 1922.7933119789536 112.93674902062472 L 1922.5929241802978 113.00937495477855 L 1922.3909398540295 113.08109141011211 L 1922.187379198413 113.15189121503964 L 1921.9822625693446 113.22176728963963 L 1921.775610478316 113.29071264636286 L 1921.567443590364 113.35872039073111 L 1921.357782722004 113.42578372202661 L 1921.1466488391484 113.49189593397213 L 1920.9340630550091 113.55705041540155 L 1920.7200466279876 113.62124065092104 L 1920.5046209595482 113.68446022156053 L 1920.2878075920783 113.74670280541565 L 1920.0696282067338 113.80796217827987 L 1919.8501046212716 113.86823221426694 L 1919.6292587878672 113.92750688642352 L 1919.40711279092 113.98578026733178 L 1919.1836888448447 114.04304652970217 L 1918.9590092918493 114.09929994695618 L 1918.733096599702 114.15453489379898 L 1918.5059733594842 114.20874584678191 L 1918.27766228333 114.26192738485484 L 1918.0481862021572 114.31407418990828 L 1917.8175680633826 114.36518104730519 L 1917.585830928628 114.4152428464024 L 1917.3529979714133 114.46425458106174 L 1917.1190924748407 114.51221135015058 L 1916.8841378292648 114.55910835803196 L 1916.6481575299542 114.6049409150442 L 1916.4111751747423 114.64970443796976 L 1916.1732144616672 114.69339445049368 L 1915.9342991866017 114.7360065836511 L 1915.6944532408743 114.77753657626423 L 1915.45370060888 114.81798027536838 L 1915.212065365681 114.85733363662739 L 1914.9695716746003 114.8955927247379 L 1914.726243784805 114.93275371382298 L 1914.4821060288816 114.96881288781469 L 1914.2371828204016 115.0037666408257 L 1913.9914986514823 115.03761147750981 L 1913.7450780903357 115.07034401341159 L 1913.4979457788124 115.10196097530469 L 1913.2501264299378 115.13245920151928 L 1913.0016448254403 115.16183564225817 L 1912.7525258132732 115.19008735990175 L 1912.50279430513 115.21721152930179 L 1912.2524752739535 115.24320543806398 L 1912.0015937514383 115.26806648681908 L 1911.7501748255274 115.29179218948295 L 1911.4982436379044 115.31438017350509 L 1911.2458253814773 115.33582818010592 L 1910.992945297862 115.35613406450264 L 1910.7396286748558 115.37529579612375 L 1910.48590084391 115.39331145881205 L 1910.2317871775965 115.41017925101629 L 1909.97731308707 115.42589748597129 L 1909.7225040195274 115.44046459186667 L 1909.467385455663 115.45387911200397 L 1909.211982907121 115.46613970494236 L 1908.956321913943 115.47724514463276 L 1908.7004280420156 115.48719432054045 L 1908.4443268805126 115.49598623775614 L 1908.1880440393365 115.50362001709544 L 1907.9316051465582 115.51009489518677 L 1907.6750358458532 115.5154102245477 L 1907.418361793938 115.51956547364975 L 1907.1616086580032 115.52256022697145 L 1906.9048021131491 115.52439418504 L 1906.647967839816 115.52506716446106 L 1906.3911315212167 115.52457909793732 L 1906.13431884077 115.52293003427498 L 1905.877555479529 115.52012013837903 L 1905.6208671136164 115.51614969123673 L 1905.364279411655 115.51101908988952 L 1905.1078180322006 115.50472884739318 L 1904.851508621178 115.4972795927668 L 1904.5953768093143 115.48867207092958 L 1904.3394482095775 115.47890714262655 L 1904.083748414614 115.4679857843424 L 1903.8283029941906 115.45590908820387 L 1903.5731374926363 115.4426782618705 L 1903.3182774262887 115.42829462841388 L 1903.0637482809418 115.4127596261854 L 1902.8095755092982 115.39607480867232 L 1902.5557845284231 115.3782418443425 L 1902.3024007172035 115.35926251647749 L 1902.049449413809 115.33913872299428 L 1901.7969559131593 115.31787247625543 L 1901.544945464394 115.29546590286792 L 1901.293443268348 115.27192124347039 L 1901.0424744750314 115.24724085250918 L 1900.792064181114 115.2214271980028 L 1900.5422374274171 115.1944828612952 L 1900.2930191964074 115.1664105367976 L 1900.0444344097007 115.13721303171906 L 1899.7965079255682 115.10689326578573 L 1899.5492645364518 115.07545427094897 L 1899.3027289664844 115.04289919108203 L 1899.0569258690177 115.0092312816658 L 1898.8118798241564 114.97445390946316 L 1898.5676153363008 114.93857055218234 L 1898.3241568316964 114.90158479812916 L 1898.0815286559903 114.86350034584822 L 1897.8397550717982 114.824321003753 L 1897.5988602562772 114.78405068974506 L 1897.3588682987076 114.74269343082224 L 1897.1198031980857 114.70025336267598 L 1896.881688860722 114.65673472927773 L 1896.644549097852 114.61214188245454 L 1896.4084076232543 114.56647928145395 L 1896.1732880508796 114.51975149249802 L 1895.9392138924889 114.47196318832667 L 1895.7062085553034 114.42311914773052 L 1895.4742953396626 114.37322425507293 L 1895.2434974366945 114.32228349980157 L 1895.0138379259974 114.27030197594954 L 1894.7853397733309 114.21728488162587 L 1894.5580258283196 114.16323751849586 L 1894.331918822169 114.10816529125074 L 1894.1070413653908 114.05207370706736 L 1893.8834159455437 113.9949683750574 L 1893.6610649249833 113.93685500570646 L 1893.440010538626 113.87773941030305 L 1893.2202748917266 113.81762750035746 L 1893.0018799576665 113.75652528701059 L 1892.7848475757573 113.69443888043284 L 1892.569199449056 113.63137448921314 L 1892.3549571421959 113.56733841973806 L 1892.142142079229 113.5023370755612 L 1891.930775541484 113.43637695676277 L 1891.7208786654392 113.36946465929971 L 1891.5124724406064 113.301606874346 L 1891.3055777074353 113.2328103876236 L 1891.1002151552261 113.16308207872383 L 1890.8964053200634 113.0924289204195 L 1890.6941685827605 113.02085797796754 L 1890.493525166823 112.94837640840255 L 1890.294495136425 112.8749914598211 L 1890.0970983944035 112.8007104706569 L 1889.9013546802687 112.72554086894695 L 1889.7072835682284 112.64949017158878 L 1889.5149044652326 112.57256598358876 L 1889.3242366090308 112.49477599730159 L 1889.13529906625 112.41612799166106 L 1888.9481107304869 112.3366298314022 L 1888.762690320419 112.2562894662748 L 1888.579056377933 112.1751149302484 L 1888.3972272662702 112.09311434070896 L 1888.21722116819 112.01029589764713 L 1888.0390560841524 111.92666788283817 L 1887.8627498305173 111.84223865901389 L 1887.6883200377629 111.7570166690263 L 1887.5157841487232 111.67101043500338 L 1887.3451594168437 111.58422855749687 L 1887.1764629044549 111.4966797146222 L 1887.0097114810678 111.40837266119071 L 1886.8449218216856 111.31931622783415 L 1886.682110405137 111.22951932012163 L 1886.521293512428 111.13899091766909 L 1886.3624872251137 111.04774007324134 L 1886.2057074236907 110.9557759118468 L 1886.0509697860084 110.86310762982494 L 1885.8982897857015 110.76974449392677 L 1885.747682690643 110.67569584038806 L 1885.5991635614168 110.58097107399578 L 1885.452747249812 110.48557966714766 L 1885.308448397338 110.38953115890487 L 1885.1662814337594 110.2928351540382 L 1885.0262605756545 110.19550132206757 L 1884.8883998249921 110.09753939629505 L 1884.7527129677326 109.99895917283158 L 1884.6192135724484 109.89977050961737 L 1884.4879149889682 109.79998332543607 L 1884.3588303470406 109.69960759892295 L 1884.2319725550221 109.59865336756702 L 1884.1073542985866 109.4971307267073 L 1883.9849880394556 109.39504982852324 L 1883.8648860141532 109.29242088101961 L 1883.7470602327817 109.18925414700563 L 1883.6315224778211 109.08555994306874 L 1883.5182843029506 108.98134863854291 L 1883.4073570318935 108.87663065447177 L 1883.2987517572842 108.77141646256644 L 1883.19247933956 108.66571658415843 L 1883.0885504058735 108.55954158914753 L 1882.9869753490323 108.45290209494473 L 1882.8877643264566 108.3458087654106 L 1882.7909272591667 108.23827230978884 L 1882.6964738307881 108.1303034816354 L 1882.6044134865851 108.02191307774314 L 1882.5147554325156 107.9131119370621 L 1882.42750863431 107.80391093961568 L 1882.3426818165756 107.69432100541265 L 1882.2602834619236 107.58435309335508 L 1882.1803218101204 107.47401820014255 L 1882.1028048572648 107.36332735917243 L 1882.0277403549876 107.25229163943658 L 1881.9551358096762 107.14092214441445 L 1881.8849984817248 107.0292300109627 L 1881.8173353848076 106.91722640820164 L 1881.752153285178 106.80492253639821 L 1881.689458700992 106.69232962584596 L 1881.6292579016551 106.57945893574217 L 1881.5715569071976 106.46632175306175 L 1881.5163614876708 106.35292939142872 L 1881.4636771625703 106.23929318998472 L 1881.4135092002848 106.12542451225522 L 1881.365862617569 106.0113347450131 L 1881.3207421790414 105.89703529714001 L 1881.278152396708 105.78253759848548 L 1881.2380975295118 105.66785309872397 L 1881.2005815829061 105.55299326620987 L 1881.1656083084542 105.43796958683073 L 1881.1331812034546 105.32279356285864 L 1881.1033035105904 105.2074767118 L 1881.0759782176065 105.09203056524383 L 1881.0512080570088 104.97646666770858 L 1881.0289955057933 104.8607965754877 L 1881.0093427851962 104.74503185549402 L 1880.9922518604735 104.62918408410306 L 1880.9777244407032 104.51326484599544 L 1880.9657619786153 104.39728573299836 L 1880.9563656704458 104.28125834292646 L 1880.9495364558181 104.16519427842208 L 1880.9452750176479 104.04910514579494 L 1880.9435817820752 103.93300255386156" stroke-miterlimit="10" stroke-width="2.990598758" stroke-dasharray=""/></g><g><g/><text fill="black" stroke="none" font-family="sans-serif" font-size="11pt" font-style="normal" font-weight="normal" text-decoration="normal" x="1896.4449741182539" y="134.401026536" text-anchor="start" dominant-baseline="alphabetic" xml:space="preserve">DB</text></g></g><g><path fill="white" stroke="black" paint-order="fill stroke markers" d=" M 347.06088902558594 197.73135317599997 L 364.65264642558594 197.73135317599997 L 364.65264642558594 616.4151792959999 L 347.06088902558594 616.4151792959999 L 347.06088902558594 197.73135317599997" stroke-miterlimit="10" stroke-width="1.4659797833333332" stroke-dasharray=""/><path fill="white" stroke="black" paint-order="fill stroke markers" d=" M 712.7149196961589 296.24519461599994 L 730.3066770961589 296.24519461599994 L 730.3066770961589 567.1582585759999 L 712.7149196961589 567.1582585759999 L 712.7149196961589 296.24519461599994" stroke-miterlimit="10" stroke-width="1.4659797833333332" stroke-dasharray=""/><path fill="white" stroke="black" paint-order="fill stroke markers" d=" M 347.06088902558594 665.672100016 L 364.65264642558594 665.672100016 L 364.65264642558594 1915.3905457119993 L 347.06088902558594 1915.3905457119993 L 347.06088902558594 665.672100016" stroke-miterlimit="10" stroke-width="1.4659797833333332" stroke-dasharray=""/><path fill="white" stroke="black" paint-order="fill stroke markers" d=" M 712.7149196961589 714.929020736 L 730.3066770961589 714.929020736 L 730.3066770961589 2325.278493131999 L 712.7149196961589 2325.278493131999 L 712.7149196961589 714.929020736" stroke-miterlimit="10" stroke-width="1.4659797833333332" stroke-dasharray=""/><path fill="white" stroke="black" paint-order="fill stroke markers" d=" M 1236.0799076042317 764.185941456 L 1253.6716650042317 764.185941456 L 1253.6716650042317 813.4428621760001 L 1236.0799076042317 813.4428621760001 L 1236.0799076042317 764.185941456" stroke-miterlimit="10" stroke-width="1.4659797833333332" stroke-dasharray=""/><path fill="white" stroke="black" paint-order="fill stroke markers" d=" M 355.85676772558594 862.6997828960001 L 373.44852512558595 862.6997828960001 L 373.44852512558595 1377.0827692719997 L 355.85676772558594 1377.0827692719997 L 355.85676772558594 862.6997828960001" stroke-miterlimit="10" stroke-width="1.4659797833333332" stroke-dasharray=""/><path fill="white" stroke="black" paint-order="fill stroke markers" d=" M 171.41959496516927 967.1948218520001 L 189.01135236516927 967.1948218520001 L 189.01135236516927 1016.4517425720002 L 171.41959496516927 1016.4517425720002 L 171.41959496516927 967.1948218520001" stroke-miterlimit="10" stroke-width="1.4659797833333332" stroke-dasharray=""/><path fill="white" stroke="black" paint-order="fill stroke markers" d=" M 171.41959496516927 1113.206408272 L 189.01135236516927 1113.206408272 L 189.01135236516927 1327.8258485519998 L 171.41959496516927 1327.8258485519998 L 171.41959496516927 1113.206408272" stroke-miterlimit="10" stroke-width="1.4659797833333332" stroke-dasharray=""/><path fill="white" stroke="black" paint-order="fill stroke markers" d=" M 1236.0799076042317 1475.5966107119996 L 1253.6716650042317 1475.5966107119996 L 1253.6716650042317 1816.8767042719994 L 1236.0799076042317 1816.8767042719994 L 1236.0799076042317 1475.5966107119996" stroke-miterlimit="10" stroke-width="1.4659797833333332" stroke-dasharray=""/><path fill="white" stroke="black" paint-order="fill stroke markers" d=" M 1643.6363413968998 1524.8535314319995 L 1661.2280987968998 1524.8535314319995 L 1661.2280987968998 1767.6197835519995 L 1643.6363413968998 1767.6197835519995 L 1643.6363413968998 1524.8535314319995" stroke-miterlimit="10" stroke-width="1.4659797833333332" stroke-dasharray=""/><path fill="white" stroke="black" paint-order="fill stroke markers" d=" M 1652.4322200968998 1596.9797367719996 L 1670.0239774968998 1596.9797367719996 L 1670.0239774968998 1695.4935782119996 L 1652.4322200968998 1695.4935782119996 L 1652.4322200968998 1596.9797367719996" stroke-miterlimit="10" stroke-width="1.4659797833333332" stroke-dasharray=""/><path fill="white" stroke="black" paint-order="fill stroke markers" d=" M 347.06088902558594 2012.1452114119993 L 364.65264642558594 2012.1452114119993 L 364.65264642558594 2374.535413851999 L 347.06088902558594 2374.535413851999 L 347.06088902558594 2012.1452114119993" stroke-miterlimit="10" stroke-width="1.4659797833333332" stroke-dasharray=""/><path fill="white" stroke="black" paint-order="fill stroke markers" d=" M 171.41959496516927 2012.1452114119993 L 189.01135236516927 2012.1452114119993 L 189.01135236516927 2226.764651691999 L 171.41959496516927 2226.764651691999 L 171.41959496516927 2012.1452114119993" stroke-miterlimit="10" stroke-width="1.4659797833333332" stroke-dasharray=""/><g><g><rect fill="white" stroke="none" x="141.67212492095703" y="174.86206855599997" width="142.87954748367187" height="22.86928462"/></g><text fill="black" stroke="none" font-family="sans-serif" font-size="11pt" font-style="normal" font-weight="normal" text-decoration="normal" x="144.31088853095704" y="190.69465021599999" text-anchor="start" dominant-baseline="alphabetic" xml:space="preserve">mouseClick(button)</text></g><g><path fill="none" stroke="black" paint-order="fill stroke markers" d=" M 79.1629083 197.73135317599997 L 332.5770087662526 197.73135317599997" stroke-miterlimit="10" stroke-width="1.4659797833333332" stroke-dasharray=""/><g transform="translate(347.06088902558594,197.73135317599997) translate(-347.06088902558594,-197.73135317599997)"><path fill="black" stroke="none" paint-order="stroke fill markers" d=" M 332.4010911922526 190.4014542593333 L 347.06088902558594 197.73135317599997 L 332.4010911922526 205.06125209266665 Z"/></g></g><g><g><rect fill="white" stroke="none" x="165.74156004058594" y="224.11898927599995" width="94.74067724441406" height="22.86928462"/></g><text fill="black" stroke="none" font-family="sans-serif" font-size="11pt" font-style="normal" font-weight="normal" text-decoration="normal" x="168.38032365058595" y="239.95157093599997" text-anchor="start" dominant-baseline="alphabetic" xml:space="preserve">selectWeek()</text></g><g><path fill="none" stroke="black" paint-order="fill stroke markers" d=" M 79.1629083 246.98827389599995 L 332.5770087662526 246.98827389599995" stroke-miterlimit="10" stroke-width="1.4659797833333332" stroke-dasharray=""/><g transform="translate(347.06088902558594,246.98827389599995) translate(-347.06088902558594,-246.98827389599995)"><path fill="black" stroke="none" paint-order="stroke fill markers" d=" M 332.4010911922526 239.65837497933327 L 347.06088902558594 246.98827389599995 L 332.4010911922526 254.31817281266663 Z"/></g></g><g><g><rect fill="white" stroke="none" x="463.9440673024349" y="273.37590999599996" width="149.479431516875" height="22.86928462"/></g><text fill="black" stroke="none" font-family="sans-serif" font-size="11pt" font-style="normal" font-weight="normal" text-decoration="normal" x="466.58283091243493" y="289.208491656" text-anchor="start" dominant-baseline="alphabetic" xml:space="preserve">queryBooking(week)</text></g><g><path fill="none" stroke="black" paint-order="fill stroke markers" d=" M 364.65264642558594 296.24519461599994 L 698.2310394368255 296.24519461599994" stroke-miterlimit="10" stroke-width="1.4659797833333332" stroke-dasharray=""/><g transform="translate(712.7149196961589,296.24519461599994) translate(-712.7149196961589,-296.24519461599994)"><path fill="black" stroke="none" paint-order="stroke fill markers" d=" M 698.0551218628256 288.9152956993333 L 712.7149196961589 296.24519461599994 L 698.0551218628256 303.5750935326666 Z"/></g></g><g><g><rect fill="white" stroke="none" x="1014.6537068447345" y="370.13057569599994" width="80.173767454375" height="22.86928462"/></g><text fill="black" stroke="none" font-family="sans-serif" font-size="11pt" font-style="normal" font-weight="normal" text-decoration="normal" x="1017.2924704547345" y="385.96315735599995" text-anchor="start" dominant-baseline="alphabetic" xml:space="preserve">getRoom()</text></g><g><path fill="none" stroke="black" paint-order="fill stroke markers" d=" M 730.3066770961589 392.9998603159999 L 1364.6906237883516 392.9998603159999" stroke-miterlimit="10" stroke-width="1.4659797833333332" stroke-dasharray=""/><g transform="translate(1379.1745040476849,392.9998603159999) translate(-1379.1745040476849,-392.9998603159999)"><path fill="black" stroke="none" paint-order="stroke fill markers" d=" M 1364.5147062143515 385.66996139933326 L 1379.1745040476849 392.9998603159999 L 1364.5147062143515 400.32975923266656 Z"/></g></g><g><g><rect fill="white" stroke="none" x="1019.1025364956134" y="419.3874964159999" width="71.27610815261718" height="22.86928462"/></g><text fill="black" stroke="none" font-family="sans-serif" font-size="11pt" font-style="normal" font-weight="normal" text-decoration="normal" x="1021.7413001056134" y="435.22007807599994" text-anchor="start" dominant-baseline="alphabetic" xml:space="preserve">getDate()</text></g><g><path fill="none" stroke="black" paint-order="fill stroke markers" d=" M 730.3066770961589 442.2567810359999 L 1364.6906237883516 442.2567810359999" stroke-miterlimit="10" stroke-width="1.4659797833333332" stroke-dasharray=""/><g transform="translate(1379.1745040476849,442.2567810359999) translate(-1379.1745040476849,-442.2567810359999)"><path fill="black" stroke="none" paint-order="stroke fill markers" d=" M 1364.5147062143515 434.92688211933324 L 1379.1745040476849 442.2567810359999 L 1364.5147062143515 449.58667995266654 Z"/></g></g><g><g><rect fill="white" stroke="none" x="1009.8255131801837" y="468.6444171359999" width="89.83015478347656" height="22.86928462"/></g><text fill="black" stroke="none" font-family="sans-serif" font-size="11pt" font-style="normal" font-weight="normal" text-decoration="normal" x="1012.4642767901837" y="484.4769987959999" text-anchor="start" dominant-baseline="alphabetic" xml:space="preserve">getLecture()</text></g><g><path fill="none" stroke="black" paint-order="fill stroke markers" d=" M 730.3066770961589 491.5137017559999 L 1364.6906237883516 491.5137017559999" stroke-miterlimit="10" stroke-width="1.4659797833333332" stroke-dasharray=""/><g transform="translate(1379.1745040476849,491.5137017559999) translate(-1379.1745040476849,-491.5137017559999)"><path fill="black" stroke="none" paint-order="stroke fill markers" d=" M 1364.5147062143515 484.1838028393332 L 1379.1745040476849 491.5137017559999 L 1364.5147062143515 498.8436006726665 Z"/></g></g><g><g><rect fill="white" stroke="none" x="486.7858870656185" y="544.2889739559998" width="103.79579199050781" height="22.86928462"/></g><text fill="black" stroke="none" font-family="sans-serif" font-size="11pt" font-style="normal" font-weight="normal" text-decoration="normal" x="489.4246506756185" y="560.1215556159998" text-anchor="start" dominant-baseline="alphabetic" xml:space="preserve">displayWeek()</text></g><g><path fill="none" stroke="black" paint-order="fill stroke markers" d=" M 712.7149196961589 567.1582585759999 L 379.13652668491926 567.1582585759999" stroke-miterlimit="10" stroke-width="1.4659797833333332" stroke-dasharray="7.0367029599999995"/><g transform="translate(364.65264642558594,567.1582585759999) translate(-364.65264642558594,-567.1582585759999)"><path fill="black" stroke="none" paint-order="stroke fill markers" d=" M 379.3124442589193 559.8283596593332 L 364.65264642558594 567.1582585759999 L 379.3124442589193 574.4881574926666 Z"/></g></g><g><g><rect fill="white" stroke="none" x="210.47313505279297" y="593.5458946759999" width="5.27752722" height="22.86928462"/></g><text fill="black" stroke="none" font-family="sans-serif" font-size="11pt" font-style="normal" font-weight="normal" text-decoration="normal" x="213.11189866279298" y="609.3784763359998" text-anchor="start" dominant-baseline="alphabetic" xml:space="preserve"></text></g><g><path fill="none" stroke="black" paint-order="fill stroke markers" d=" M 347.06088902558594 616.4151792959999 L 93.64678855933333 616.4151792959999" stroke-miterlimit="10" stroke-width="1.4659797833333332" stroke-dasharray="7.0367029599999995"/><g transform="translate(79.1629083,616.4151792959999) translate(-79.1629083,-616.4151792959999)"><path fill="black" stroke="none" paint-order="stroke fill markers" d=" M 93.82270613333333 609.0852803793332 L 79.1629083 616.4151792959999 L 93.82270613333333 623.7450782126666 Z"/></g></g><g><g><rect fill="white" stroke="none" x="152.7744885073828" y="642.8028153959999" width="120.67482031082031" height="22.86928462"/></g><text fill="black" stroke="none" font-family="sans-serif" font-size="11pt" font-style="normal" font-weight="normal" text-decoration="normal" x="155.41325211738283" y="658.6353970559999" text-anchor="start" dominant-baseline="alphabetic" xml:space="preserve">mouseClick(pos)</text></g><g><path fill="none" stroke="black" paint-order="fill stroke markers" d=" M 79.1629083 665.672100016 L 332.5770087662526 665.672100016" stroke-miterlimit="10" stroke-width="1.4659797833333332" stroke-dasharray=""/><g transform="translate(347.06088902558594,665.672100016) translate(-347.06088902558594,-665.672100016)"><path fill="black" stroke="none" paint-order="stroke fill markers" d=" M 332.4010911922526 658.3422010993332 L 347.06088902558594 665.672100016 L 332.4010911922526 673.0019989326667 Z"/></g></g><g><g><rect fill="white" stroke="none" x="463.9440673024349" y="692.059736116" width="149.479431516875" height="22.86928462"/></g><text fill="black" stroke="none" font-family="sans-serif" font-size="11pt" font-style="normal" font-weight="normal" text-decoration="normal" x="466.58283091243493" y="707.8923177759999" text-anchor="start" dominant-baseline="alphabetic" xml:space="preserve">queryBooking(week)</text></g><g><path fill="none" stroke="black" paint-order="fill stroke markers" d=" M 364.65264642558594 714.929020736 L 698.2310394368255 714.929020736" stroke-miterlimit="10" stroke-width="1.4659797833333332" stroke-dasharray=""/><g transform="translate(712.7149196961589,714.929020736) translate(-712.7149196961589,-714.929020736)"><path fill="black" stroke="none" paint-order="stroke fill markers" d=" M 698.0551218628256 707.5991218193333 L 712.7149196961589 714.929020736 L 698.0551218628256 722.2589196526667 Z"/></g></g><g><g><rect fill="white" stroke="none" x="751.1235900194922" y="741.316656836" width="464.1394046614063" height="22.86928462"/></g><text fill="black" stroke="none" font-family="sans-serif" font-size="11pt" font-style="normal" font-weight="normal" text-decoration="normal" x="753.7623536294922" y="757.149238496" text-anchor="start" dominant-baseline="alphabetic" xml:space="preserve">booking:=getBooking(DateTime:time;Int:room;String:activity)</text></g><g><path fill="none" stroke="black" paint-order="fill stroke markers" d=" M 730.3066770961589 764.185941456 L 1221.5960273448984 764.185941456" stroke-miterlimit="10" stroke-width="1.4659797833333332" stroke-dasharray=""/><g transform="translate(1236.0799076042317,764.185941456) translate(-1236.0799076042317,-764.185941456)"><path fill="black" stroke="none" paint-order="stroke fill markers" d=" M 1221.4201097708983 756.8560425393333 L 1236.0799076042317 764.185941456 L 1221.4201097708983 771.5158403726667 Z"/></g></g><g><g><rect fill="white" stroke="none" x="980.5545287401953" y="790.573577556" width="5.27752722" height="22.86928462"/></g><text fill="black" stroke="none" font-family="sans-serif" font-size="11pt" font-style="normal" font-weight="normal" text-decoration="normal" x="983.1932923501953" y="806.406159216" text-anchor="start" dominant-baseline="alphabetic" xml:space="preserve"></text></g><g><path fill="none" stroke="black" paint-order="fill stroke markers" d=" M 1236.0799076042317 813.4428621760001 L 744.7905573554922 813.4428621760001" stroke-miterlimit="10" stroke-width="1.4659797833333332" stroke-dasharray="7.0367029599999995"/><g transform="translate(730.3066770961589,813.4428621760001) translate(-730.3066770961589,-813.4428621760001)"><path fill="black" stroke="none" paint-order="stroke fill markers" d=" M 744.9664749294922 806.1129632593334 L 730.3066770961589 813.4428621760001 L 744.9664749294922 820.7727610926668 Z"/></g></g><g><g><rect fill="white" stroke="none" x="394.2654380489193" y="839.8304982760001" width="297.6325687239063" height="22.86928462"/></g><text fill="black" stroke="none" font-family="sans-serif" font-size="11pt" font-style="normal" font-weight="normal" text-decoration="normal" x="396.9042016589193" y="855.663079936" text-anchor="start" dominant-baseline="alphabetic" xml:space="preserve">message(message:String,true:Boolean)</text></g><g><path fill="none" stroke="black" paint-order="fill stroke markers" d=" M 712.7149196961589 862.6997828960001 L 387.93240538491926 862.6997828960001" stroke-miterlimit="10" stroke-width="1.4659797833333332" stroke-dasharray=""/><g transform="translate(373.44852512558595,862.6997828960001) translate(-373.44852512558595,-862.6997828960001)"><path fill="black" stroke="none" paint-order="stroke fill markers" d=" M 388.1083229589193 855.3698839793334 L 373.44852512558595 862.6997828960001 L 388.1083229589193 870.0296818126668 Z"/></g></g><g><path fill="white" stroke="black" paint-order="fill stroke markers" d=" M 215.13511210416928 915.2111787350001 A 26.123759739 26.123759739 0 1 1 215.1350990422905 915.1850549796151 M 146.79113460516925 887.5921196170001 L 146.79113460516925 942.8302378530001 M 145.29583522616926 915.2111787350001 L 162.88759262616927 915.2111787350001" stroke-miterlimit="10" stroke-width="2.990598758" stroke-dasharray=""/></g><g><g/><text fill="black" stroke="none" font-family="sans-serif" font-size="11pt" font-style="normal" font-weight="normal" text-decoration="normal" x="157.3307156695638" y="960.4219952530001" text-anchor="start" dominant-baseline="alphabetic" xml:space="preserve">Dialog</text></g><g><g><rect fill="white" stroke="none" x="281.4058563193776" y="905.2718358040001" width="5.27752722" height="22.86928462"/></g><text fill="black" stroke="none" font-family="sans-serif" font-size="11pt" font-style="normal" font-weight="normal" text-decoration="normal" x="284.04461992937763" y="921.1044174640001" text-anchor="start" dominant-baseline="alphabetic" xml:space="preserve"></text></g><g><path fill="none" stroke="black" paint-order="fill stroke markers" d=" M 355.85676772558594 928.1411204240002 L 226.71635239250259 928.1411204240002" stroke-miterlimit="10" stroke-width="1.4659797833333332" stroke-dasharray=""/><g transform="translate(212.23247213316927,928.1411204240002) translate(-212.23247213316927,-928.1411204240002)"><path fill="black" stroke="none" paint-order="stroke fill markers" d=" M 226.8922699665026 920.8112215073335 L 212.23247213316927 928.1411204240002 L 226.8922699665026 935.4710193406669 Z"/></g></g><g><g><rect fill="white" stroke="none" x="269.79529643537757" y="993.5824579520001" width="5.27752722" height="22.86928462"/></g><text fill="black" stroke="none" font-family="sans-serif" font-size="11pt" font-style="normal" font-weight="normal" text-decoration="normal" x="272.4340600453776" y="1009.4150396120001" text-anchor="start" dominant-baseline="alphabetic" xml:space="preserve"></text></g><g><path fill="none" stroke="black" paint-order="fill stroke markers" d=" M 189.01135236516927 1016.4517425720002 L 341.3728874662526 1016.4517425720002" stroke-miterlimit="10" stroke-width="1.4659797833333332" stroke-dasharray="7.0367029599999995"/><g transform="translate(355.85676772558594,1016.4517425720002) translate(-355.85676772558594,-1016.4517425720002)"><path fill="black" stroke="none" paint-order="stroke fill markers" d=" M 341.1969698922526 1009.1218436553335 L 355.85676772558594 1016.4517425720002 L 341.1969698922526 1023.7816414886669 Z"/></g></g><g><g><rect fill="white" stroke="none" x="214.22620463850257" y="1090.3371236520002" width="116.41571081375" height="22.86928462"/></g><text fill="black" stroke="none" font-family="sans-serif" font-size="11pt" font-style="normal" font-weight="normal" text-decoration="normal" x="216.86496824850258" y="1106.1697053120001" text-anchor="start" dominant-baseline="alphabetic" xml:space="preserve">showAndWait();</text></g><g><path fill="none" stroke="black" paint-order="fill stroke markers" d=" M 355.85676772558594 1113.206408272 L 203.4952326245026 1113.206408272" stroke-miterlimit="10" stroke-width="1.4659797833333332" stroke-dasharray=""/><g transform="translate(189.01135236516927,1113.206408272) translate(-189.01135236516927,-1113.206408272)"><path fill="black" stroke="none" paint-order="stroke fill markers" d=" M 203.6711501985026 1105.8765093553334 L 189.01135236516927 1113.206408272 L 203.6711501985026 1120.5363071886668 Z"/></g></g><g><g><rect fill="white" stroke="none" x="122.65248802258463" y="1139.594044372" width="5.27752722" height="22.86928462"/></g><text fill="black" stroke="none" font-family="sans-serif" font-size="11pt" font-style="normal" font-weight="normal" text-decoration="normal" x="125.29125163258463" y="1155.426626032" text-anchor="start" dominant-baseline="alphabetic" xml:space="preserve"></text></g><g><path fill="none" stroke="black" paint-order="fill stroke markers" d=" M 171.41959496516927 1162.463328992 L 93.64678855933333 1162.463328992" stroke-miterlimit="10" stroke-width="1.4659797833333332" stroke-dasharray=""/><g transform="translate(79.1629083,1162.463328992) translate(-79.1629083,-1162.463328992)"><path fill="black" stroke="none" paint-order="stroke fill markers" d=" M 93.82270613333333 1155.1334300753333 L 79.1629083 1162.463328992 L 93.82270613333333 1169.7932279086667 Z"/></g></g><g><g><rect fill="white" stroke="none" x="122.65248802258463" y="1188.850965092" width="5.27752722" height="22.86928462"/></g><text fill="black" stroke="none" font-family="sans-serif" font-size="11pt" font-style="normal" font-weight="normal" text-decoration="normal" x="125.29125163258463" y="1204.683546752" text-anchor="start" dominant-baseline="alphabetic" xml:space="preserve"></text></g><g><path fill="none" stroke="black" paint-order="fill stroke markers" d=" M 79.1629083 1211.720249712 L 156.93571470583595 1211.720249712" stroke-miterlimit="10" stroke-width="1.4659797833333332" stroke-dasharray="7.0367029599999995"/><g transform="translate(171.41959496516927,1211.720249712) translate(-171.41959496516927,-1211.720249712)"><path fill="black" stroke="none" paint-order="stroke fill markers" d=" M 156.75979713183594 1204.3903507953332 L 171.41959496516927 1211.720249712 L 156.75979713183594 1219.0501486286666 Z"/></g></g><path fill="white" stroke="black" paint-order="fill stroke markers" d=" M 102.29425054882161 1238.107885812 L 242.30411512151696 1238.107885812 L 258.13669678151695 1253.940467472 L 258.13669678151695 1278.5689278319999 L 102.29425054882161 1278.5689278319999 L 102.29425054882161 1238.107885812 M 242.30411512151696 1238.107885812 L 242.30411512151696 1253.940467472 L 258.13669678151695 1253.940467472" stroke-miterlimit="10" stroke-width="1.4659797833333332" stroke-dasharray=""/><g><text fill="black" stroke="none" font-family="sans-serif" font-size="11pt" font-style="normal" font-weight="normal" text-decoration="normal" x="126.92271090882161" y="1262.7363461719997" text-anchor="start" dominant-baseline="alphabetic" xml:space="preserve">userselectsOK</text></g><g><g><rect fill="white" stroke="none" x="231.8998191404557" y="1304.9565639319999" width="81.06848180984375" height="22.86928462"/></g><text fill="black" stroke="none" font-family="sans-serif" font-size="11pt" font-style="normal" font-weight="normal" text-decoration="normal" x="234.5385827504557" y="1320.7891455919998" text-anchor="start" dominant-baseline="alphabetic" xml:space="preserve">returntrue</text></g><g><path fill="none" stroke="black" paint-order="fill stroke markers" d=" M 189.01135236516927 1327.8258485519998 L 341.3728874662526 1327.8258485519998" stroke-miterlimit="10" stroke-width="1.4659797833333332" stroke-dasharray="7.0367029599999995"/><g transform="translate(355.85676772558594,1327.8258485519998) translate(-355.85676772558594,-1327.8258485519998)"><path fill="black" stroke="none" paint-order="stroke fill markers" d=" M 341.1969698922526 1320.495949635333 L 355.85676772558594 1327.8258485519998 L 341.1969698922526 1335.1557474686665 Z"/></g></g><g><g><rect fill="white" stroke="none" x="502.54748150595054" y="1354.2134846519998" width="81.06848180984375" height="22.86928462"/></g><text fill="black" stroke="none" font-family="sans-serif" font-size="11pt" font-style="normal" font-weight="normal" text-decoration="normal" x="505.18624511595056" y="1370.0460663119998" text-anchor="start" dominant-baseline="alphabetic" xml:space="preserve">returntrue</text></g><g><path fill="none" stroke="black" paint-order="fill stroke markers" d=" M 373.44852512558595 1377.0827692719997 L 698.2310394368255 1377.0827692719997" stroke-miterlimit="10" stroke-width="1.4659797833333332" stroke-dasharray="7.0367029599999995"/><g transform="translate(712.7149196961589,1377.0827692719997) translate(-712.7149196961589,-1377.0827692719997)"><path fill="black" stroke="none" paint-order="stroke fill markers" d=" M 698.0551218628256 1369.752870355333 L 712.7149196961589 1377.0827692719997 L 698.0551218628256 1384.4126681886664 Z"/></g></g><g><g><rect fill="white" stroke="none" x="1055.4270406838943" y="1403.4704053719997" width="126.18666113113281" height="22.86928462"/></g><text fill="black" stroke="none" font-family="sans-serif" font-size="11pt" font-style="normal" font-weight="normal" text-decoration="normal" x="1058.0658042938944" y="1419.3029870319997" text-anchor="start" dominant-baseline="alphabetic" xml:space="preserve">removeBooking()</text></g><g><path fill="none" stroke="black" paint-order="fill stroke markers" d=" M 730.3066770961589 1426.3396899919996 L 1492.2501851434297 1426.3396899919996" stroke-miterlimit="10" stroke-width="1.4659797833333332" stroke-dasharray=""/><g transform="translate(1506.734065402763,1426.3396899919996) translate(-1506.734065402763,-1426.3396899919996)"><path fill="black" stroke="none" paint-order="stroke fill markers" d=" M 1492.0742675694296 1419.009791075333 L 1506.734065402763 1426.3396899919996 L 1492.0742675694296 1433.6695889086664 Z"/></g></g><g><path fill="none" stroke="black" paint-order="fill stroke markers" d=" M 1490.901483742763 1410.5071083319997 L 1522.566647062763 1442.1722716519996 M 1522.566647062763 1410.5071083319997 L 1490.901483742763 1442.1722716519996" stroke-miterlimit="10" stroke-width="2.814681184" stroke-dasharray=""/></g><g><g><rect fill="white" stroke="none" x="826.9503417284766" y="1452.7273260919997" width="312.4859012434375" height="22.86928462"/></g><text fill="black" stroke="none" font-family="sans-serif" font-size="11pt" font-style="normal" font-weight="normal" text-decoration="normal" x="829.5891053384765" y="1468.5599077519996" text-anchor="start" dominant-baseline="alphabetic" xml:space="preserve">removeBooking(selectedBooking:Booking)</text></g><g><path fill="none" stroke="black" paint-order="fill stroke markers" d=" M 730.3066770961589 1475.5966107119996 L 1221.5960273448984 1475.5966107119996" stroke-miterlimit="10" stroke-width="1.4659797833333332" stroke-dasharray=""/><g transform="translate(1236.0799076042317,1475.5966107119996) translate(-1236.0799076042317,-1475.5966107119996)"><path fill="black" stroke="none" paint-order="stroke fill markers" d=" M 1221.4201097708983 1468.2667117953329 L 1236.0799076042317 1475.5966107119996 L 1221.4201097708983 1482.9265096286663 Z"/></g></g><g><g><rect fill="white" stroke="none" x="1350.3566702546282" y="1501.9842468119996" width="196.594665891875" height="22.86928462"/></g><text fill="black" stroke="none" font-family="sans-serif" font-size="11pt" font-style="normal" font-weight="normal" text-decoration="normal" x="1352.9954338646282" y="1517.8168284719995" text-anchor="start" dominant-baseline="alphabetic" xml:space="preserve">deleteBooking(b:Booking)</text></g><g><path fill="none" stroke="black" paint-order="fill stroke markers" d=" M 1253.6716650042317 1524.8535314319995 L 1629.1524611375664 1524.8535314319995" stroke-miterlimit="10" stroke-width="1.4659797833333332" stroke-dasharray=""/><g transform="translate(1643.6363413968998,1524.8535314319995) translate(-1643.6363413968998,-1524.8535314319995)"><path fill="black" stroke="none" paint-order="stroke fill markers" d=" M 1628.9765435635663 1517.5236325153328 L 1643.6363413968998 1524.8535314319995 L 1628.9765435635663 1532.1834303486662 Z"/></g></g><g><g><rect fill="white" stroke="none" x="1690.840890420233" y="1551.2411675319995" width="197.75424230789062" height="22.86928462"/></g><text fill="black" stroke="none" font-family="sans-serif" font-size="11pt" font-style="normal" font-weight="normal" text-decoration="normal" x="1693.4796540302332" y="1567.0737491919995" text-anchor="start" dominant-baseline="alphabetic" xml:space="preserve">performUpdate(sql:String)</text></g><g><path fill="none" stroke="black" paint-order="fill stroke markers" d=" M 1661.2280987968998 1574.1104521519997 L 1740.3910070968998 1574.1104521519997 L 1740.3910070968998 1596.9797367719996 L 1684.507857756233 1596.9797367719996" stroke-miterlimit="10" stroke-width="1.4659797833333332" stroke-dasharray=""/><g transform="translate(1670.0239774968998,1596.9797367719996) translate(-1670.0239774968998,-1596.9797367719996)"><path fill="black" stroke="none" paint-order="stroke fill markers" d=" M 1684.6837753302332 1589.6498378553329 L 1670.0239774968998 1596.9797367719996 L 1684.6837753302332 1604.3096356886663 Z"/></g></g><g><g><rect fill="white" stroke="none" x="1690.840890420233" y="1623.3673728719996" width="194.96971166824218" height="22.86928462"/></g><text fill="black" stroke="none" font-family="sans-serif" font-size="11pt" font-style="normal" font-weight="normal" text-decoration="normal" x="1693.4796540302332" y="1639.1999545319995" text-anchor="start" dominant-baseline="alphabetic" xml:space="preserve">executeUpdate(sql:String)</text></g><g><path fill="none" stroke="black" paint-order="fill stroke markers" d=" M 1670.0239774968998 1646.2366574919995 L 1892.1436347524752 1646.2366574919995" stroke-miterlimit="10" stroke-width="1.4659797833333332" stroke-dasharray=""/><g transform="translate(1906.6275150118086,1646.2366574919995) translate(-1906.6275150118086,-1646.2366574919995)"><path fill="black" stroke="none" paint-order="stroke fill markers" d=" M 1891.9677171784751 1638.9067585753328 L 1906.6275150118086 1646.2366574919995 L 1891.9677171784751 1653.5665564086662 Z"/></g></g><g><g><rect fill="white" stroke="none" x="1690.840890420233" y="1672.6242935919995" width="5.27752722" height="22.86928462"/></g><text fill="black" stroke="none" font-family="sans-serif" font-size="11pt" font-style="normal" font-weight="normal" text-decoration="normal" x="1693.4796540302332" y="1688.4568752519995" text-anchor="start" dominant-baseline="alphabetic" xml:space="preserve"></text></g><g><path fill="none" stroke="black" paint-order="fill stroke markers" d=" M 1670.0239774968998 1695.4935782119996 L 1740.3910070968998 1695.4935782119996 L 1740.3910070968998 1718.3628628319996 L 1675.711979056233 1718.3628628319996" stroke-miterlimit="10" stroke-width="1.4659797833333332" stroke-dasharray="7.0367029599999995"/><g transform="translate(1661.2280987968998,1718.3628628319996) translate(-1661.2280987968998,-1718.3628628319996)"><path fill="black" stroke="none" paint-order="stroke fill markers" d=" M 1675.8878966302332 1711.0329639153329 L 1661.2280987968998 1718.3628628319996 L 1675.8878966302332 1725.6927617486663 Z"/></g></g><g><g><rect fill="white" stroke="none" x="1446.0152395905657" y="1744.7504989319996" width="5.27752722" height="22.86928462"/></g><text fill="black" stroke="none" font-family="sans-serif" font-size="11pt" font-style="normal" font-weight="normal" text-decoration="normal" x="1448.6540032005657" y="1760.5830805919995" text-anchor="start" dominant-baseline="alphabetic" xml:space="preserve"></text></g><g><path fill="none" stroke="black" paint-order="fill stroke markers" d=" M 1643.6363413968998 1767.6197835519995 L 1268.155545263565 1767.6197835519995" stroke-miterlimit="10" stroke-width="1.4659797833333332" stroke-dasharray="7.0367029599999995"/><g transform="translate(1253.6716650042317,1767.6197835519995) translate(-1253.6716650042317,-1767.6197835519995)"><path fill="black" stroke="none" paint-order="stroke fill markers" d=" M 1268.3314628375651 1760.2898846353328 L 1253.6716650042317 1767.6197835519995 L 1268.3314628375651 1774.9496824686662 Z"/></g></g><g><g><rect fill="white" stroke="none" x="980.5545287401953" y="1794.0074196519995" width="5.27752722" height="22.86928462"/></g><text fill="black" stroke="none" font-family="sans-serif" font-size="11pt" font-style="normal" font-weight="normal" text-decoration="normal" x="983.1932923501953" y="1809.8400013119995" text-anchor="start" dominant-baseline="alphabetic" xml:space="preserve"></text></g><g><path fill="none" stroke="black" paint-order="fill stroke markers" d=" M 1236.0799076042317 1816.8767042719994 L 744.7905573554922 1816.8767042719994" stroke-miterlimit="10" stroke-width="1.4659797833333332" stroke-dasharray="7.0367029599999995"/><g transform="translate(730.3066770961589,1816.8767042719994) translate(-730.3066770961589,-1816.8767042719994)"><path fill="black" stroke="none" paint-order="stroke fill markers" d=" M 744.9664749294922 1809.5468053553327 L 730.3066770961589 1816.8767042719994 L 744.9664749294922 1824.2066031886661 Z"/></g></g><g><g><rect fill="white" stroke="none" x="480.8302748830013" y="1843.2643403719994" width="115.70701635574218" height="22.86928462"/></g><text fill="black" stroke="none" font-family="sans-serif" font-size="11pt" font-style="normal" font-weight="normal" text-decoration="normal" x="483.46903849300134" y="1859.0969220319994" text-anchor="start" dominant-baseline="alphabetic" xml:space="preserve">updateDisplay()</text></g><g><path fill="none" stroke="black" paint-order="fill stroke markers" d=" M 712.7149196961589 1866.1336249919993 L 379.13652668491926 1866.1336249919993" stroke-miterlimit="10" stroke-width="1.4659797833333332" stroke-dasharray="7.0367029599999995"/><g transform="translate(364.65264642558594,1866.1336249919993) translate(-364.65264642558594,-1866.1336249919993)"><path fill="black" stroke="none" paint-order="stroke fill markers" d=" M 379.3124442589193 1858.8037260753326 L 364.65264642558594 1866.1336249919993 L 379.3124442589193 1873.463523908666 Z"/></g></g><g><g><rect fill="white" stroke="none" x="210.47313505279297" y="1892.5212610919993" width="5.27752722" height="22.86928462"/></g><text fill="black" stroke="none" font-family="sans-serif" font-size="11pt" font-style="normal" font-weight="normal" text-decoration="normal" x="213.11189866279298" y="1908.3538427519993" text-anchor="start" dominant-baseline="alphabetic" xml:space="preserve"></text></g><g><path fill="none" stroke="black" paint-order="fill stroke markers" d=" M 347.06088902558594 1915.3905457119993 L 93.64678855933333 1915.3905457119993" stroke-miterlimit="10" stroke-width="1.4659797833333332" stroke-dasharray="7.0367029599999995"/><g transform="translate(79.1629083,1915.3905457119993) translate(-79.1629083,-1915.3905457119993)"><path fill="black" stroke="none" paint-order="stroke fill markers" d=" M 93.82270613333333 1908.0606467953326 L 79.1629083 1915.3905457119993 L 93.82270613333333 1922.720444628666 Z"/></g></g><g><g><rect fill="white" stroke="none" x="211.59276113811194" y="1989.2759267919994" width="112.88671911453125" height="22.86928462"/></g><text fill="black" stroke="none" font-family="sans-serif" font-size="11pt" font-style="normal" font-weight="normal" text-decoration="normal" x="214.23152474811195" y="2005.1085084519993" text-anchor="start" dominant-baseline="alphabetic" xml:space="preserve">showAndWait()</text></g><g><path fill="none" stroke="black" paint-order="fill stroke markers" d=" M 347.06088902558594 2012.1452114119993 L 203.4952326245026 2012.1452114119993" stroke-miterlimit="10" stroke-width="1.4659797833333332" stroke-dasharray=""/><g transform="translate(189.01135236516927,2012.1452114119993) translate(-189.01135236516927,-2012.1452114119993)"><path fill="black" stroke="none" paint-order="stroke fill markers" d=" M 203.6711501985026 2004.8153124953326 L 189.01135236516927 2012.1452114119993 L 203.6711501985026 2019.475110328666 Z"/></g></g><g><g><rect fill="white" stroke="none" x="122.65248802258463" y="2038.5328475119993" width="5.27752722" height="22.86928462"/></g><text fill="black" stroke="none" font-family="sans-serif" font-size="11pt" font-style="normal" font-weight="normal" text-decoration="normal" x="125.29125163258463" y="2054.365429171999" text-anchor="start" dominant-baseline="alphabetic" xml:space="preserve"></text></g><g><path fill="none" stroke="black" paint-order="fill stroke markers" d=" M 171.41959496516927 2061.402132131999 L 93.64678855933333 2061.402132131999" stroke-miterlimit="10" stroke-width="1.4659797833333332" stroke-dasharray=""/><g transform="translate(79.1629083,2061.402132131999) translate(-79.1629083,-2061.402132131999)"><path fill="black" stroke="none" paint-order="stroke fill markers" d=" M 93.82270613333333 2054.0722332153327 L 79.1629083 2061.402132131999 L 93.82270613333333 2068.7320310486657 Z"/></g></g><g><g><rect fill="white" stroke="none" x="122.65248802258463" y="2087.789768231999" width="5.27752722" height="22.86928462"/></g><text fill="black" stroke="none" font-family="sans-serif" font-size="11pt" font-style="normal" font-weight="normal" text-decoration="normal" x="125.29125163258463" y="2103.622349891999" text-anchor="start" dominant-baseline="alphabetic" xml:space="preserve"></text></g><g><path fill="none" stroke="black" paint-order="fill stroke markers" d=" M 79.1629083 2110.659052851999 L 156.93571470583595 2110.659052851999" stroke-miterlimit="10" stroke-width="1.4659797833333332" stroke-dasharray="7.0367029599999995"/><g transform="translate(171.41959496516927,2110.659052851999) translate(-171.41959496516927,-2110.659052851999)"><path fill="black" stroke="none" paint-order="stroke fill markers" d=" M 156.75979713183594 2103.3291539353327 L 171.41959496516927 2110.659052851999 L 156.75979713183594 2117.9889517686656 Z"/></g></g><path fill="white" stroke="black" paint-order="fill stroke markers" d=" M 102.29425054882161 2137.046688951999 L 242.30411512151696 2137.046688951999 L 258.13669678151695 2152.879270611999 L 258.13669678151695 2177.507730971999 L 102.29425054882161 2177.507730971999 L 102.29425054882161 2137.046688951999 M 242.30411512151696 2137.046688951999 L 242.30411512151696 2152.879270611999 L 258.13669678151695 2152.879270611999" stroke-miterlimit="10" stroke-width="1.4659797833333332" stroke-dasharray=""/><g><text fill="black" stroke="none" font-family="sans-serif" font-size="11pt" font-style="normal" font-weight="normal" text-decoration="normal" x="126.92271090882161" y="2161.675149311999" text-anchor="start" dominant-baseline="alphabetic" xml:space="preserve">userselectsOK</text></g><g><g><rect fill="white" stroke="none" x="225.61211691203772" y="2203.895367071999" width="84.84800756667968" height="22.86928462"/></g><text fill="black" stroke="none" font-family="sans-serif" font-size="11pt" font-style="normal" font-weight="normal" text-decoration="normal" x="228.25088052203773" y="2219.727948731999" text-anchor="start" dominant-baseline="alphabetic" xml:space="preserve">returnfalse</text></g><g><path fill="none" stroke="black" paint-order="fill stroke markers" d=" M 189.01135236516927 2226.764651691999 L 332.5770087662526 2226.764651691999" stroke-miterlimit="10" stroke-width="1.4659797833333332" stroke-dasharray="7.0367029599999995"/><g transform="translate(347.06088902558594,2226.764651691999) translate(-347.06088902558594,-2226.764651691999)"><path fill="black" stroke="none" paint-order="stroke fill markers" d=" M 332.4010911922526 2219.4347527753325 L 347.06088902558594 2226.764651691999 L 332.4010911922526 2234.0945506086655 Z"/></g></g><g><g><rect fill="white" stroke="none" x="496.2597792775326" y="2253.152287791999" width="84.84800756667968" height="22.86928462"/></g><text fill="black" stroke="none" font-family="sans-serif" font-size="11pt" font-style="normal" font-weight="normal" text-decoration="normal" x="498.8985428875326" y="2268.9848694519987" text-anchor="start" dominant-baseline="alphabetic" xml:space="preserve">returnfalse</text></g><g><path fill="none" stroke="black" paint-order="fill stroke markers" d=" M 364.65264642558594 2276.021572411999 L 698.2310394368255 2276.021572411999" stroke-miterlimit="10" stroke-width="1.4659797833333332" stroke-dasharray="7.0367029599999995"/><g transform="translate(712.7149196961589,2276.021572411999) translate(-712.7149196961589,-2276.021572411999)"><path fill="black" stroke="none" paint-order="stroke fill markers" d=" M 698.0551218628256 2268.6916734953325 L 712.7149196961589 2276.021572411999 L 698.0551218628256 2283.3514713286654 Z"/></g></g><g><g><rect fill="white" stroke="none" x="536.0450194508725" y="2302.4092085119987" width="5.27752722" height="22.86928462"/></g><text fill="black" stroke="none" font-family="sans-serif" font-size="11pt" font-style="normal" font-weight="normal" text-decoration="normal" x="538.6837830608724" y="2318.2417901719987" text-anchor="start" dominant-baseline="alphabetic" xml:space="preserve"></text></g><g><path fill="none" stroke="black" paint-order="fill stroke markers" d=" M 712.7149196961589 2325.278493131999 L 379.13652668491926 2325.278493131999" stroke-miterlimit="10" stroke-width="1.4659797833333332" stroke-dasharray="7.0367029599999995"/><g transform="translate(364.65264642558594,2325.278493131999) translate(-364.65264642558594,-2325.278493131999)"><path fill="black" stroke="none" paint-order="stroke fill markers" d=" M 379.3124442589193 2317.9485942153324 L 364.65264642558594 2325.278493131999 L 379.3124442589193 2332.6083920486653 Z"/></g></g><g><g><rect fill="white" stroke="none" x="210.47313505279297" y="2351.6661292319986" width="5.27752722" height="22.86928462"/></g><text fill="black" stroke="none" font-family="sans-serif" font-size="11pt" font-style="normal" font-weight="normal" text-decoration="normal" x="213.11189866279298" y="2367.4987108919986" text-anchor="start" dominant-baseline="alphabetic" xml:space="preserve"></text></g><g><path fill="none" stroke="black" paint-order="fill stroke markers" d=" M 347.06088902558594 2374.535413851999 L 93.64678855933333 2374.535413851999" stroke-miterlimit="10" stroke-width="1.4659797833333332" stroke-dasharray="7.0367029599999995"/><g transform="translate(79.1629083,2374.535413851999) translate(-79.1629083,-2374.535413851999)"><path fill="black" stroke="none" paint-order="stroke fill markers" d=" M 93.82270613333333 2367.2055149353323 L 79.1629083 2374.535413851999 L 93.82270613333333 2381.8653127686653 Z"/></g></g><g><g/><path fill="none" stroke="black" paint-order="fill stroke markers" d=" M 659.9396474961588 322.63283071599994 L 1440.745654947685 322.63283071599994 L 1440.745654947685 517.9013378559998 L 659.9396474961588 517.9013378559998 L 659.9396474961588 322.63283071599994 Z" stroke-miterlimit="10" stroke-width="2.5131082" stroke-dasharray=""/><path fill="white" stroke="black" paint-order="fill stroke markers" d=" M 659.9396474961588 322.63283071599994 L 659.9396474961588 343.7429395959999 L 721.8249292639323 343.7429395959999 L 732.3799837039323 333.18788515599994 L 732.3799837039323 322.63283071599994 L 659.9396474961588 322.63283071599994" stroke-miterlimit="10" stroke-width="2.5131082" stroke-dasharray=""/><text fill="black" stroke="none" font-family="sans-serif" font-size="8.8pt" font-style="normal" font-weight="bold" text-decoration="normal" x="677.5314048961588" y="336.7062366359999" text-anchor="start" dominant-baseline="alphabetic" xml:space="preserve">loop</text></g><g><g/><path fill="none" stroke="black" paint-order="fill stroke markers" d=" M 17.591757400000006 1042.839378672 L 1968.1986659118086 1042.839378672 L 1968.1986659118086 2400.9230499519986 L 17.591757400000006 2400.9230499519986 L 17.591757400000006 1042.839378672 Z" stroke-miterlimit="10" stroke-width="2.5131082" stroke-dasharray=""/><path fill="white" stroke="black" paint-order="fill stroke markers" d=" M 17.591757400000006 1042.839378672 L 17.591757400000006 1063.9494875520002 L 67.87877256621094 1063.9494875520002 L 78.43382700621095 1053.3944331120001 L 78.43382700621095 1042.839378672 L 17.591757400000006 1042.839378672" stroke-miterlimit="10" stroke-width="2.5131082" stroke-dasharray=""/><text fill="black" stroke="none" font-family="sans-serif" font-size="8.8pt" font-style="normal" font-weight="bold" text-decoration="normal" x="35.183514800000005" y="1056.9127845920002" text-anchor="start" dominant-baseline="alphabetic" xml:space="preserve">alt</text><text fill="black" stroke="none" font-family="sans-serif" font-size="8.8pt" font-style="normal" font-weight="bold" text-decoration="normal" x="96.02558440621095" y="1056.9127845920002" text-anchor="start" dominant-baseline="alphabetic" xml:space="preserve">[caseYes]</text><g><path fill="none" stroke="black" paint-order="fill stroke markers" d=" M 17.591757400000006 1941.7781818119993 L 1968.1986659118086 1941.7781818119993" stroke-miterlimit="10" stroke-width="2.5131082" stroke-dasharray="4.39793935"/></g><g/><text fill="black" stroke="none" font-family="sans-serif" font-size="8.8pt" font-style="normal" font-weight="bold" text-decoration="normal" x="96.02558440621095" y="1955.8515877319994" text-anchor="start" dominant-baseline="alphabetic" xml:space="preserve">[caseNo]</text></g><g/></g><g/><g/><g/><g/><g/><g/><g/><g/></g></svg>