<svg version="1.1" xmlns="http://www.w3.org/2000/svg" xmlns:xlink="http://www.w3.org/1999/xlink" width="2063" height="2707"><defs/><g><g/><g/><g/><g/><g/><g/><g/><g/><g/><g/><g/><g/><g/><g/><g/><g/><g/><g/><g/><g/><g/><g/><g/><g/><g/><g/><g/><g/><g/><g/><g/><g/><g/><g/><g/><g/><g/><g/><g/><g/><g/><g/><g/><g/><g><rect fill="white" stroke="none" x="0" y="0" width="2063" height="2707"/></g><g><text fill="black" stroke="none" font-family="sans-serif" font-size="16.5pt" font-style="normal" font-weight="normal" text-decoration="normal" x="949.4509351816321" y="26.3876361" text-anchor="start" dominant-baseline="alphabetic" xml:space="preserve">Change(Admin)</text></g><g/><g><path fill="none" stroke="black" paint-order="fill stroke markers" d=" M 79.1629083 139.67855375599999 L 79.1629083 2707.019628711998" stroke-miterlimit="10" stroke-width="1.4659797833333332" stroke-dasharray="13.532121076923076,5.863919133333333"/><path fill="none" stroke="black" paint-order="fill stroke markers" d=" M 191.1875577226875 1211.720249712 L 191.1875577226875 2707.019628711998" stroke-miterlimit="10" stroke-width="1.4659797833333332" stroke-dasharray="13.532121076923076,5.863919133333333"/><path fill="none" stroke="black" paint-order="fill stroke markers" d=" M 366.82885178310414 139.67855375599999 L 366.82885178310414 2707.019628711998" stroke-miterlimit="10" stroke-width="1.4659797833333332" stroke-dasharray="13.532121076923076,5.863919133333333"/><path fill="none" stroke="black" paint-order="fill stroke markers" d=" M 732.4828824536771 139.67855375599999 L 732.4828824536771 2707.019628711998" stroke-miterlimit="10" stroke-width="1.4659797833333332" stroke-dasharray="13.532121076923076,5.863919133333333"/><path fill="none" stroke="black" paint-order="fill stroke markers" d=" M 1255.84787036175 139.67855375599999 L 1255.84787036175 2707.019628711998" stroke-miterlimit="10" stroke-width="1.4659797833333332" stroke-dasharray="13.532121076923076,5.863919133333333"/><path fill="none" stroke="black" paint-order="fill stroke markers" d=" M 1390.1465881052031 139.67855375599999 L 1390.1465881052031 2707.019628711998" stroke-miterlimit="10" stroke-width="1.4659797833333332" stroke-dasharray="13.532121076923076,5.863919133333333"/><path fill="none" stroke="black" paint-order="fill stroke markers" d=" M 1517.7061494602813 139.67855375599999 L 1517.7061494602813 1670.8651178519995" stroke-miterlimit="10" stroke-width="1.4659797833333332" stroke-dasharray="13.532121076923076,5.863919133333333"/><path fill="none" stroke="black" paint-order="fill stroke markers" d=" M 1663.404304154418 139.67855375599999 L 1663.404304154418 2707.019628711998" stroke-miterlimit="10" stroke-width="1.4659797833333332" stroke-dasharray="13.532121076923076,5.863919133333333"/><path fill="none" stroke="black" paint-order="fill stroke markers" d=" M 1917.5995990693268 139.67855375599999 L 1917.5995990693268 2707.019628711998" stroke-miterlimit="10" stroke-width="1.4659797833333332" stroke-dasharray="13.532121076923076,5.863919133333333"/><path fill="none" stroke="black" paint-order="fill stroke markers" d=" M 2012.6437517787956 139.67855375599999 L 2012.6437517787956 2707.019628711998" stroke-miterlimit="10" stroke-width="1.4659797833333332" stroke-dasharray="13.532121076923076,5.863919133333333"/></g><g><g><path fill="white" stroke="black" paint-order="fill stroke markers" d=" M 89.190210018 65.265419954 A 10.027301717999999 10.027301717999999 0 1 1 89.19020500434955 65.25539265395321 M 79.1629083 75.29272167199998 L 79.1629083 96.75466569999998 M 66.496842972 83.033094928 L 91.828973628 83.033094928 M 79.1629083 96.75466569999998 L 66.496842972 116.80926913599998 M 79.1629083 96.75466569999998 L 91.828973628 116.80926913599998" stroke-miterlimit="10" stroke-width="2.990598758" stroke-dasharray=""/></g><g><g/><text fill="black" stroke="none" font-family="sans-serif" font-size="11pt" font-style="normal" font-weight="normal" text-decoration="normal" x="16.747014745312498" y="134.401026536" text-anchor="start" dominant-baseline="alphabetic" xml:space="preserve">Teacher&amp;Monitor</text></g><g><path fill="white" stroke="black" paint-order="fill stroke markers" d=" M 401.7484902221041 89.19021001799997 A 26.123759739 26.123759739 0 1 1 401.7484771602254 89.16408626261492 M 333.4045127231042 61.57115089999997 L 333.4045127231042 116.80926913599997 M 331.90921334410416 89.19021001799997 L 349.50097074410417 89.19021001799997" stroke-miterlimit="10" stroke-width="2.990598758" stroke-dasharray=""/></g><g><g/><text fill="black" stroke="none" font-family="sans-serif" font-size="11pt" font-style="normal" font-weight="normal" text-decoration="normal" x="335.9448109505846" y="134.401026536" text-anchor="start" dominant-baseline="alphabetic" xml:space="preserve">CancelUI</text></g><g><path fill="white" stroke="black" paint-order="fill stroke markers" d=" M 758.6066421926771 89.19021001799997 A 26.123759739 26.123759739 0 1 1 758.6066291307983 89.16408626261492 M 728.9645309736771 63.06645027899997 L 739.5195854136772 54.27057157899998 M 728.9645309736771 63.06645027899997 L 739.5195854136772 71.86232897899997" stroke-miterlimit="10" stroke-width="2.990598758" stroke-dasharray=""/></g><g><g/><text fill="black" stroke="none" font-family="sans-serif" font-size="11pt" font-style="normal" font-weight="normal" text-decoration="normal" x="678.1557416455717" y="134.401026536" text-anchor="start" dominant-baseline="alphabetic" xml:space="preserve">BookingSystem</text></g><path fill="none" stroke="none"/><g><path fill="white" stroke="black" paint-order="fill stroke markers" d=" M 1196.6892346032578 92.18080877599999 L 1315.0065061202422 92.18080877599999 L 1315.0065061202422 139.67855375599999 L 1196.6892346032578 139.67855375599999 L 1196.6892346032578 92.18080877599999 Z" stroke-miterlimit="10" stroke-width="2.814681184" stroke-dasharray=""/></g><g><g/><text fill="black" stroke="none" font-family="sans-serif" font-size="11pt" font-style="normal" font-weight="normal" text-decoration="normal" x="1215.7762913822578" y="122.08679635600001" text-anchor="start" dominant-baseline="alphabetic" xml:space="preserve">Classrooms</text></g><g><path fill="white" stroke="black" paint-order="fill stroke markers" d=" M 1416.2703478442031 86.79773101159998 A 26.123759739 26.123759739 0 1 1 1416.2703347823244 86.77160725621492 M 1362.5275289872031 115.31396975699997 L 1417.7656472232031 115.31396975699997" stroke-miterlimit="10" stroke-width="2.990598758" stroke-dasharray=""/></g><g><g/><text fill="black" stroke="none" font-family="sans-serif" font-size="11pt" font-style="normal" font-weight="normal" text-decoration="normal" x="1332.5982635202422" y="134.401026536" text-anchor="start" dominant-baseline="alphabetic" xml:space="preserve">current_Booking</text></g><g><path fill="white" stroke="black" paint-order="fill stroke markers" d=" M 1543.8299091992812 86.79773101159998 A 26.123759739 26.123759739 0 1 1 1543.8298961374026 86.77160725621492 M 1490.0870903422813 115.31396975699997 L 1545.3252085782813 115.31396975699997" stroke-miterlimit="10" stroke-width="2.990598758" stroke-dasharray=""/></g><g><g/><text fill="black" stroke="none" font-family="sans-serif" font-size="11pt" font-style="normal" font-weight="normal" text-decoration="normal" x="1465.286670090164" y="134.401026536" text-anchor="start" dominant-baseline="alphabetic" xml:space="preserve">select_Booking</text></g><path fill="none" stroke="none"/><g><path fill="white" stroke="black" paint-order="fill stroke markers" d=" M 1587.7173862303985 92.18080877599999 L 1739.0912220784376 92.18080877599999 L 1739.0912220784376 139.67855375599999 L 1587.7173862303985 139.67855375599999 L 1587.7173862303985 92.18080877599999 Z" stroke-miterlimit="10" stroke-width="2.814681184" stroke-dasharray=""/></g><g><g/><text fill="black" stroke="none" font-family="sans-serif" font-size="11pt" font-style="normal" font-weight="normal" text-decoration="normal" x="1606.8044430093985" y="122.08679635600001" text-anchor="start" dominant-baseline="alphabetic" xml:space="preserve">BookingMapper</text></g><g><path fill="white" stroke="black" paint-order="fill stroke markers" d=" M 1891.9156332653267 105.19870925199999 L 1891.9156332653267 68.25601871199999 L 1943.283564873327 68.25601871199999 L 1943.283564873327 105.19870925199999" stroke-miterlimit="10" stroke-width="2.990598758" stroke-dasharray=""/><path fill="white" stroke="black" paint-order="fill stroke markers" d=" M 1943.283564873327 66.97182042179999 L 1943.2822806857382 67.08792408555635 L 1943.27842825139 67.20401613904309 L 1943.272007955523 67.3200849731516 L 1943.2630204401605 67.43611898109519 L 1943.2514666040472 67.55210655956978 L 1943.2373476025568 67.66803610991414 L 1943.220664847578 67.78389603926989 L 1943.2014200073722 67.8996747617406 L 1943.1796150064072 68.01536069955054 L 1943.1552520251653 68.1309422842023 L 1943.1283334999239 68.24640795763378 L 1943.0988621225133 68.3617461733738 L 1943.066840840047 68.47694539769695 L 1943.032272854626 68.59199411077678 L 1942.9951616230203 68.70688080783783 L 1942.9555108563222 68.82159400030618 L 1942.9133245195753 68.93612221695814 L 1942.868606831378 69.0504540050675 L 1942.8213622634619 69.16457793155072 L 1942.7715955402446 69.27848258411025 L 1942.7193116383567 69.39215657237577 L 1942.6645157861449 69.50558852904317 L 1942.6072134631488 69.61876711101131 L 1942.547410399553 69.73168100051632 L 1942.4851125756138 69.84431890626333 L 1942.420326221062 69.95666956455563 L 1942.3530578144787 70.06872174042103 L 1942.283314082649 70.18046422873529 L 1942.2111019998874 70.29188585534273 L 1942.1364287873423 70.40297547817353 L 1942.0593019122728 70.51372198835797 L 1941.9797290873018 70.62411431133734 L 1941.897718269646 70.73414140797132 L 1941.8132776603184 70.84379227564195 L 1941.7264157033096 70.95305594935381 L 1941.637141084743 71.06192150283061 L 1941.5454627320064 71.1703780496077 L 1941.451389812858 71.27841474412082 L 1941.3549317345119 71.38602078279051 L 1941.2560981426952 71.4931854051026 L 1941.154898920685 71.59989789468413 L 1941.0513441883188 71.7061475803751 L 1940.9454443009838 71.81192383729548 L 1940.8372098485804 71.9172160879077 L 1940.726651654464 72.02201380307447 L 1940.6137807743612 72.12630650311159 L 1940.4986084952664 72.23008375883597 L 1940.3811463343116 72.33333519260853 L 1940.2614060376147 72.43605047937191 L 1940.1393995791059 72.53821934768304 L 1940.015139159329 72.63983158074024 L 1939.888637204223 72.74087701740487 L 1939.7599063638772 72.84134555321748 L 1939.6289595112692 72.94122714140819 L 1939.4958097409747 73.04051179390143 L 1939.3604703678595 73.13918958231469 L 1939.2229549257488 73.23725063895135 L 1939.0832771660716 73.33468515778748 L 1938.941451056488 73.43148339545236 L 1938.7974907794903 73.52763567220293 L 1938.6514107309865 73.6231323728916 L 1938.5032255188596 73.71796394792793 L 1938.3529499615074 73.8121209142334 L 1938.2005990863604 73.90559385618985 L 1938.046188128379 73.998373426581 L 1937.8897325285309 74.09045034752711 L 1937.7312479322447 74.18181541141281 L 1937.570750187849 74.27245948180787 L 1937.4082553449837 74.36237349438078 L 1937.2437796529982 74.45154845780519 L 1937.0773395593244 74.53997545465909 L 1936.9089517078328 74.62764564231648 L 1936.7386329371686 74.71455025383165 L 1936.5664002790668 74.80068059881587 L 1936.3922709566496 74.88602806430642 L 1936.216262382704 74.97058411562787 L 1936.038392157941 75.05434029724555 L 1935.8586780692349 75.13728823361109 L 1935.6771380878445 75.21941962999999 L 1935.4937903676168 75.30072627334106 L 1935.308653243171 75.38120003303769 L 1935.1217452280655 75.46083286178099 L 1934.9330850129456 75.53961679635444 L 1934.7426914636762 75.61754395843025 L 1934.550583619453 75.69460655535714 L 1934.3567806909007 75.77079688093964 L 1934.1613020581503 75.84610731620869 L 1933.9641672689027 75.9205303301835 L 1933.7653960364719 75.99405848062472 L 1933.565008237816 76.06668441477855 L 1933.3630239115478 76.13840087011211 L 1933.1594632559313 76.20920067503964 L 1932.9543466268628 76.27907674963963 L 1932.7476945358342 76.34802210636286 L 1932.5395276478823 76.4160298507311 L 1932.3298667795223 76.48309318202661 L 1932.1187328966666 76.54920539397213 L 1931.9061471125274 76.61435987540155 L 1931.6921306855058 76.67855011092104 L 1931.4767050170665 76.74176968156053 L 1931.2598916495965 76.80401226541565 L 1931.041712264252 76.86527163827986 L 1930.8221886787899 76.92554167426694 L 1930.6013428453855 76.98481634642351 L 1930.3791968484384 77.04308972733178 L 1930.155772902363 77.10035598970217 L 1929.9310933493675 77.15660940695618 L 1929.7051806572204 77.21184435379898 L 1929.4780574170024 77.26605530678191 L 1929.2497463408483 77.31923684485484 L 1929.0202702596755 77.37138364990828 L 1928.7896521209009 77.42249050730518 L 1928.5579149861462 77.4725523064024 L 1928.3250820289315 77.52156404106174 L 1928.091176532359 77.56952081015058 L 1927.856221886783 77.61641781803196 L 1927.6202415874725 77.6622503750442 L 1927.3832592322606 77.70701389796976 L 1927.1452985191854 77.75070391049368 L 1926.90638324412 77.7933160436511 L 1926.6665372983925 77.83484603626422 L 1926.4257846663982 77.87528973536838 L 1926.1841494231992 77.91464309662739 L 1925.9416557321185 77.9529021847379 L 1925.6983278423234 77.99006317382297 L 1925.4541900863999 78.02612234781469 L 1925.2092668779198 78.0610761008257 L 1924.9635827090005 78.09492093750981 L 1924.717162147854 78.12765347341158 L 1924.4700298363307 78.15927043530469 L 1924.222210487456 78.18976866151928 L 1923.9737288829585 78.21914510225817 L 1923.7246098707915 78.24739681990175 L 1923.4748783626483 78.27452098930179 L 1923.2245593314717 78.30051489806398 L 1922.9736778089566 78.32537594681908 L 1922.7222588830457 78.34910164948295 L 1922.4703276954226 78.37168963350508 L 1922.2179094389955 78.39313764010592 L 1921.9650293553802 78.41344352450264 L 1921.711712732374 78.43260525612375 L 1921.4579849014283 78.45062091881205 L 1921.2038712351148 78.46748871101629 L 1920.9493971445881 78.48320694597129 L 1920.6945880770456 78.49777405186667 L 1920.4394695131812 78.51118857200397 L 1920.1840669646392 78.52344916494236 L 1919.9284059714612 78.53455460463276 L 1919.6725120995338 78.54450378054045 L 1919.4164109380308 78.55329569775614 L 1919.1601280968548 78.56092947709544 L 1918.9036892040765 78.56740435518677 L 1918.6471199033715 78.57271968454769 L 1918.3904458514562 78.57687493364975 L 1918.1336927155214 78.57986968697145 L 1917.8768861706674 78.58170364504 L 1917.6200518973342 78.58237662446106 L 1917.363215578735 78.58188855793732 L 1917.1064028982883 78.58023949427498 L 1916.8496395370473 78.57742959837903 L 1916.5929511711347 78.57345915123673 L 1916.3363634691732 78.56832854988951 L 1916.0799020897189 78.56203830739318 L 1915.8235926786963 78.5545890527668 L 1915.5674608668326 78.54598153092958 L 1915.3115322670958 78.53621660262655 L 1915.0558324721324 78.5252952443424 L 1914.8003870517089 78.51321854820387 L 1914.5452215501546 78.4999877218705 L 1914.290361483807 78.48560408841388 L 1914.03583233846 78.4700690861854 L 1913.7816595668164 78.45338426867232 L 1913.5278685859414 78.4355513043425 L 1913.2744847747217 78.41657197647748 L 1913.0215334713273 78.39644818299428 L 1912.7690399706776 78.37518193625543 L 1912.5170295219123 78.35277536286792 L 1912.2655273258663 78.32923070347039 L 1912.0145585325497 78.30455031250918 L 1911.7641482386323 78.2787366580028 L 1911.5143214849354 78.2517923212952 L 1911.2651032539256 78.2237199967976 L 1911.016518467219 78.19452249171906 L 1910.7685919830865 78.16420272578573 L 1910.52134859397 78.13276373094897 L 1910.2748130240027 78.10020865108203 L 1910.029009926536 78.0665407416658 L 1909.7839638816747 78.03176336946316 L 1909.539699393819 77.99588001218234 L 1909.2962408892147 77.95889425812916 L 1909.0536127135085 77.92080980584822 L 1908.8118391293165 77.881630463753 L 1908.5709443137955 77.84136014974506 L 1908.330952356226 77.80000289082224 L 1908.091887255604 77.75756282267598 L 1907.8537729182403 77.71404418927773 L 1907.6166331553702 77.66945134245454 L 1907.3804916807726 77.62378874145395 L 1907.1453721083979 77.57706095249802 L 1906.911297950007 77.52927264832667 L 1906.6782926128217 77.48042860773052 L 1906.4463793971809 77.43053371507293 L 1906.2155814942128 77.37959295980157 L 1905.9859219835157 77.32761143594954 L 1905.7574238308491 77.27459434162587 L 1905.5301098858379 77.22054697849586 L 1905.3040028796872 77.16547475125074 L 1905.079125422909 77.10938316706736 L 1904.855500003062 77.0522778350574 L 1904.6331489825016 76.99416446570646 L 1904.4120945961442 76.93504887030305 L 1904.1923589492449 76.87493696035746 L 1903.9739640151847 76.81383474701059 L 1903.7569316332756 76.75174834043284 L 1903.5412835065742 76.68868394921314 L 1903.3270411997141 76.62464787973806 L 1903.1142261367472 76.5596465355612 L 1902.9028595990023 76.49368641676277 L 1902.6929627229574 76.42677411929971 L 1902.4845564981247 76.358916334346 L 1902.2776617649536 76.2901198476236 L 1902.0722992127444 76.22039153872383 L 1901.8684893775817 76.14973838041949 L 1901.6662526402788 76.07816743796754 L 1901.4656092243413 76.00568586840255 L 1901.2665791939432 75.9323009198211 L 1901.0691824519217 75.8580199306569 L 1900.873438737787 75.78285032894695 L 1900.6793676257466 75.70679963158878 L 1900.4869885227508 75.62987544358876 L 1900.296320666549 75.55208545730159 L 1900.1073831237682 75.47343745166106 L 1899.9201947880051 75.3939392914022 L 1899.7347743779374 75.31359892627479 L 1899.5511404354513 75.2324243902484 L 1899.3693113237885 75.15042380070896 L 1899.1893052257083 75.06760535764712 L 1899.0111401416707 74.98397734283817 L 1898.8348338880355 74.89954811901389 L 1898.6604040952811 74.8143261290263 L 1898.4878682062415 74.72831989500338 L 1898.317243474362 74.64153801749687 L 1898.1485469619731 74.5539891746222 L 1897.981795538586 74.46568212119071 L 1897.8170058792039 74.37662568783415 L 1897.6541944626554 74.28682878012162 L 1897.4933775699462 74.19630037766909 L 1897.334571282632 74.10504953324134 L 1897.177791481209 74.0130853718468 L 1897.0230538435267 73.92041708982494 L 1896.8703738432198 73.82705395392676 L 1896.7197667481612 73.73300530038806 L 1896.571247618935 73.63828053399578 L 1896.4248313073304 73.54288912714766 L 1896.2805324548563 73.44684061890487 L 1896.1383654912777 73.3501446140382 L 1895.9983446331728 73.25281078206757 L 1895.8604838825104 73.15484885629505 L 1895.7247970252508 73.05626863283157 L 1895.5912976299667 72.95707996961737 L 1895.4599990464865 72.85729278543607 L 1895.3309144045588 72.75691705892295 L 1895.2040566125404 72.65596282756702 L 1895.079438356105 72.5544401867073 L 1894.957072096974 72.45235928852324 L 1894.8369700716714 72.34973034101961 L 1894.7191442903 72.24656360700563 L 1894.6036065353394 72.14286940306874 L 1894.490368360469 72.03865809854291 L 1894.3794410894118 71.93394011447177 L 1894.2708358148025 71.82872592256643 L 1894.1645633970782 71.72302604415843 L 1894.0606344633918 71.61685104914753 L 1893.9590594065505 71.51021155494473 L 1893.8598483839748 71.4031182254106 L 1893.763011316685 71.29558176978884 L 1893.6685578883064 71.1876129416354 L 1893.5764975441034 71.07922253774314 L 1893.4868394900338 70.9704213970621 L 1893.3995926918283 70.86122039961568 L 1893.3147658740938 70.75163046541265 L 1893.2323675194418 70.64166255335508 L 1893.1524058676387 70.53132766014255 L 1893.074888914783 70.42063681917243 L 1892.9998244125059 70.30960109943658 L 1892.9272198671945 70.19823160441445 L 1892.857082539243 70.0865394709627 L 1892.7894194423259 69.97453586820164 L 1892.7242373426964 69.86223199639821 L 1892.6615427585102 69.74963908584596 L 1892.6013419591734 69.63676839574217 L 1892.543640964716 69.52363121306175 L 1892.488445545189 69.41023885142872 L 1892.4357612200886 69.29660264998472 L 1892.385593257803 69.18273397225522 L 1892.3379466750873 69.0686442050131 L 1892.2928262365597 68.95434475714 L 1892.2502364542263 68.83984705848547 L 1892.21018158703 68.72516255872397 L 1892.1726656404244 68.61030272620987 L 1892.1376923659725 68.49527904683073 L 1892.1052652609728 68.38010302285863 L 1892.0753875681087 68.2647861718 L 1892.0480622751247 68.14934002524383 L 1892.023292114527 68.03377612770858 L 1892.0010795633116 67.9181060354877 L 1891.9814268427144 67.80234131549402 L 1891.9643359179918 67.68649354410306 L 1891.9498084982215 67.57057430599544 L 1891.9378460361336 67.45459519299835 L 1891.928449727964 67.33856780292646 L 1891.9216205133364 67.22250373842208 L 1891.9173590751661 67.10641460579494 L 1891.9156658395934 66.99031201386155 L 1891.9165409759403 66.87420757278437 L 1891.9199843966942 66.75811289291076 L 1891.9259957575157 66.64203958361193 L 1891.9345744572738 66.52599925212212 L 1891.9457196381056 66.41000350237775 L 1891.9594301855025 66.29406393385715 L 1891.9757047284209 66.17819214042055 L 1891.9945416394203 66.06239970915072 L 1892.0159390348254 65.94669821919432 L 1892.039894774914 65.8310992406039 L 1892.0664064641323 65.71561433318102 L 1892.0954714513339 65.60025504532017 L 1892.1270868300437 65.48503291285398 L 1892.1612494387502 65.36995945789971 L 1892.1979558612215 65.25504618770695 L 1892.2372024268457 65.14030459350695 L 1892.2789852109986 65.02574614936354 L 1892.3233000354371 64.91138231102563 L 1892.3701424687156 64.79722451478179 L 1892.4195078266293 64.68328417631649 L 1892.4713911726842 64.56957268956862 L 1892.5257873185888 64.45610142559212 L 1892.5826908247734 64.3428817314188 L 1892.6420960009352 64.22992492892377 L 1892.7039969066059 64.1172423136931 L 1892.7683873517467 64.00484515389444 L 1892.8352608973667 63.89274468915009 L 1892.904610856167 63.78095212941312 L 1892.9764302932094 63.66947865384635 L 1893.0507120266104 63.558335409704426 L 1893.1274486282582 63.447533511219156 L 1893.2066324245566 63.337084038488044 L 1893.2882554971923 63.226998036366325 L 1893.3723096839256 63.11728651336247 L 1893.4587865794083 63.00796044053737 L 1893.5476775360225 62.899030750407185 L 1893.638973664747 62.790508335850156 L 1893.7326658360448 62.682404049017315 L 1893.828744680777 62.57472870024724 L 1893.927200591139 62.4674930569851 L 1894.0280237216218 62.36070784270584 L 1894.1312039899965 62.25438373584191 L 1894.2367310783222 62.148531368715396 L 1894.344594433978 62.04316132647479 L 1894.4547832707183 61.938284146036516 L 1894.567286569751 61.83391031503122 L 1894.6820930808403 61.73005027075502 L 1894.7991913234305 61.6267143991258 L 1894.918569587795 61.52391303364461 L 1895.040215936207 61.42165645436233 L 1895.1641182041328 61.31995488685167 L 1895.2902640014488 61.21881850118463 L 1895.4186407136808 61.1182574109155 L 1895.549235503264 61.018281672069506 L 1895.682035310829 60.91890128213721 L 1895.817026856505 60.82012617907481 L 1895.95419664125 60.72196624031029 L 1896.0935309482004 60.62443128175571 L 1896.235015844041 60.52753105682567 L 1896.3786371804006 60.431275255461905 L 1896.5243805952648 60.33567350316434 L 1896.6722315144139 60.24073536002853 L 1896.822175152879 60.14647031978968 L 1896.9741965164212 60.05288780887326 L 1897.128280403031 59.959997185452366 L 1897.2844114044483 59.86780773851195 L 1897.4425739077026 59.77632868691987 L 1897.6027520966754 59.68556917850505 L 1897.7649299536818 59.59553828914271 L 1897.9290912610709 59.50624502184675 L 1898.0952196028486 59.41769830586949 L 1898.2632983663195 59.32990699580875 L 1898.4333107437471 59.24287987072236 L 1898.6052397340354 59.15662563325033 L 1898.7790681444287 59.0711529087445 L 1898.9547785922307 58.986470244406114 L 1899.1323535065433 58.90258610843103 L 1899.3117751300226 58.81950888916295 L 1899.4930255206561 58.737246894254554 L 1899.676086553556 58.65580834983679 L 1899.860939922771 58.57520139969624 L 1900.0475671431184 58.49543410446074 L 1900.2359495520318 58.41651444079334 L 1900.4260683114273 58.33845030059465 L 1900.6179044095875 58.26124949021362 L 1900.8114386630623 58.18491972966697 L 1901.0066517185876 58.10946865186714 L 1901.2035240550204 58.03490380185903 L 1901.4020359852914 57.96123263606552 L 1901.602167658373 57.88846252154177 L 1901.8038990612645 57.816600735238616 L 1902.0072100209936 57.74565446327479 L 1902.212080206634 57.67563080021837 L 1902.4184891313378 57.60653674837731 L 1902.6264161543845 57.53837921709922 L 1902.8358404832452 57.47116502208042 L 1903.0467411756613 57.40490088468441 L 1903.2590971417394 57.3395934312697 L 1903.47288714606 57.27524919252721 L 1903.6880898098004 57.21187460282721 L 1903.9046836128741 57.14947599957584 L 1904.122646896081 57.088059622581426 L 1904.3419578632747 57.02763161343051 L 1904.5625945835409 56.96819801487362 L 1904.7845349933914 56.9097647702211 L 1905.0077568989702 56.85233772274873 L 1905.2322379782731 56.79592261511338 L 1905.457955783379 56.74052508877882 L 1905.6848877426955 56.6861506834515 L 1905.9130111632157 56.63280483652666 L 1906.1423032327878 56.58049288254453 L 1906.3727410223958 56.52922005265691 L 1906.6043014884526 56.47899147410408 L 1906.836961475105 56.42981216970201 L 1907.070697716548 56.38168705734017 L 1907.3054868393522 56.334620949489704 L 1907.5413053648008 56.28861855272216 L 1907.7781297112383 56.24368446723889 L 1908.0159361964268 56.199823186410995 L 1908.2547010399164 56.157039096329996 L 1908.4944003654214 56.11533647536926 L 1908.7350102032092 56.07471949375613 L 1908.9765064924966 56.035192213154914 L 1909.2188650838557 55.99675858626073 L 1909.4620617416294 55.959422456404255 L 1909.7060721463547 55.923187557167346 L 1909.9508718971942 55.88805751200974 L 1910.1964365143772 55.85403583390668 L 1910.4427414416464 55.82112592499761 L 1910.6897620487143 55.78933107624601 L 1910.937473633726 55.758654467110254 L 1911.1858514257297 55.72909916522569 L 1911.4348705871528 55.70066812609789 L 1911.684506216287 55.67336419280706 L 1911.9347333497772 55.64719009572377 L 1912.1855269651185 55.62214845223594 L 1912.4368619831587 55.598241766487035 L 1912.6887132706051 55.57547242912571 L 1912.9410556425391 55.55384271706673 L 1913.1938638649337 55.533354793263264 L 1913.4471126571773 55.51401070649064 L 1913.7007766946017 55.4958123911414 L 1913.9548306110146 55.47876166703191 L 1914.209249001236 55.46286023922039 L 1914.464006423639 55.44810969783636 L 1914.7190774026933 55.434511517921656 L 1914.974436431514 55.42206705928295 L 1915.230057974411 55.41077756635575 L 1915.4859164694426 55.40064416807991 L 1915.741986330973 55.39166787778682 L 1915.9982419522291 55.38384959309805 L 1916.2546577078626 55.37719009583553 L 1916.5112079565115 55.37169005194345 L 1916.7678670433645 55.36735001142162 L 1917.0246093027272 55.36417040827046 L 1917.2814090605873 55.36215156044765 L 1917.538240637183 55.36129366983628 L 1917.795078349571 55.3615968222247 L 1918.0518965141937 55.363060987297914 L 1918.3086694494489 55.36568601864066 L 1918.565371478257 55.369471653751965 L 1918.8219769306288 55.37441751407148 L 1919.0784601462333 55.3805231050173 L 1919.3347954769627 55.38778781603543 L 1919.590957289497 55.39621092066079 L 1919.8469199678689 55.40579157658996 L 1920.1026579160236 55.41652882576533 L 1920.3581455603796 55.428421594470926 L 1920.6133573523853 55.44146869343979 L 1920.868267771074 55.45566881797289 L 1921.1228513256165 55.47102054806961 L 1921.3770825578695 55.48752234856974 L 1921.6309360449213 55.50517256930697 L 1921.884386401635 55.52396944527395 L 1922.1374082831865 55.54391109679874 L 1922.3899763875977 55.56499552973279 L 1922.6420654582691 55.587220635650404 L 1922.8936502865038 55.61058419205949 L 1923.1447057140285 55.63508386262389 L 1923.3952066355096 55.660717197396956 L 1923.6451280010635 55.687481633066575 L 1923.8944448187624 55.715374493211485 L 1924.143132157132 55.744392988568904 L 1924.3911651476458 55.7745342173135 L 1924.6385189872112 55.8057951653475 L 1924.8851689406506 55.83817270660215 L 1925.1310903431743 55.871663603350314 L 1925.3762586028467 55.90626450653023 L 1925.6206492030465 55.941971956080394 L 1925.8642377049168 55.97878238128563 L 1926.106999749811 56.01669210113408 L 1926.3489110617265 56.055697324685354 L 1926.5899474497337 56.095794151449596 L 1926.830084810395 56.136978571777554 L 1927.0692991301742 56.17924646726151 L 1927.3075664878386 56.22259361114713 L 1927.5448630568512 56.267015668756166 L 1927.7811651077527 56.31250819791986 L 1928.0164490105349 56.35906664942321 L 1928.2506912370038 56.40668636745987 L 1928.4838683631317 56.455362590097714 L 1928.7159570714005 56.505090449755045 L 1928.9469341531326 56.55586497368733 L 1929.1767765108125 56.60768108448449 L 1929.4054611603958 56.66053360057863 L 1929.632965233608 56.71441723676219 L 1929.8592659802318 56.76932660471643 L 1930.0843407703808 56.82525621355034 L 1930.3081670967636 56.88220047034963 L 1930.530722576934 56.940153680736074 L 1930.7519849555297 56.999110049436936 L 1930.971932106497 57.05906368086447 L 1931.1905420353044 57.120008579705484 L 1931.4077928811405 57.1819386515209 L 1931.6236629191026 57.244847703355134 L 1931.8381305623661 57.308729444355436 L 1932.0511743643458 57.373577486400926 L 1932.262773020839 57.439385344741446 L 1932.4729053721562 57.506146438646006 L 1932.6815504052377 57.57385409206084 L 1932.8886872557537 57.642501534277045 L 1933.094295210192 57.712081900607586 L 1933.2983537079283 57.78258823307383 L 1933.500842343283 57.854013481101276 L 1933.7017408675615 57.92635050222464 L 1933.9010291910784 57.99959206280211 L 1934.0986873851678 58.07373083873863 L 1934.2946956841745 58.14875941621842 L 1934.4890344874325 58.224670292446234 L 1934.681684361223 58.30145587639771 L 1934.8726260407195 58.379108489578456 L 1935.061840431913 58.45762036679186 L 1935.2493086135219 58.53698365691561 L 1935.4350118388845 58.61719042368684 L 1935.6189315378329 58.698232646495725 L 1935.8010493185507 58.7801022211875 L 1935.981346969411 58.86279096087293 L 1936.1598064607997 58.94629059674695 L 1936.336409946916 59.03059277891555 L 1936.5111397675585 59.115689077230776 L 1936.6839784498907 59.2015709821337 L 1936.8549087101885 59.2882299055054 L 1937.0239134555682 59.375657181525774 L 1937.190975785696 59.46384406754005 L 1937.3560789944786 59.55278174493313 L 1937.519206571732 59.642461320011385 L 1937.680342204835 59.73287382489204 L 1937.8394697803583 59.82401021839995 L 1937.996573385677 59.91586138697171 L 1938.1516373105615 60.008418145567006 L 1938.3046460487485 60.10167123858711 L 1938.4555842994916 60.195611340800426 L 1938.6044369690917 60.29022905827503 L 1938.751189172406 60.385514929318006 L 1938.895826234336 60.48145942542166 L 1939.0383336912962 60.57805295221634 L 1939.17869729266 60.67528585042985 L 1939.3169030021838 60.77314839685341 L 1939.4529369994123 60.87163080531391 L 1939.5867856810587 60.97072322765259 L 1939.7184356623663 61.07041575470979 L 1939.8478737784471 61.170698417315876 L 1939.9750870855971 61.271561187288164 L 1940.1000628625918 61.3729939784337 L 1940.2227886119574 61.47498664755789 L 1940.3432520612214 61.577528995478836 L 1940.461441164139 61.68061076804718 L 1940.5773441018987 61.78422165717158 L 1940.6909492843033 61.88835130184945 L 1940.8022453509288 61.99298928920311 L 1940.911221172262 62.09812515552101 L 1941.017865850811 62.203748387304145 L 1941.122168722197 62.30984842231735 L 1941.22411935622 62.416414650645535 L 1941.3237075579011 62.52343641575468 L 1941.4209233685035 62.63090301555746 L 1941.515757066527 62.73880370348344 L 1941.6081991686808 62.847127689553744 L 1941.6982404308317 62.95586414146005 L 1941.7858718489285 63.065002185647764 L 1941.8710846599029 63.174530908403426 L 1941.9538703425442 63.28443935694603 L 1942.0342206183532 63.39471654052231 L 1942.1121274523696 63.50535143150581 L 1942.1875830539745 63.61633296649962 L 1942.260579877671 63.72765004744274 L 1942.3311106238375 63.83929154271982 L 1942.399168239458 63.951246288274376 L 1942.4647459188277 64.06350308872516 L 1942.5278371042334 64.17605071848564 L 1942.5884354866091 64.28887792288667 L 1942.646535006167 64.40197341930181 L 1942.7021298530035 64.51532589827566 L 1942.7552144676804 64.6289240246548 L 1942.8057835417803 64.74275643872124 L 1942.8538320184382 64.85681175732844 L 1942.8993550928462 64.97107857503958 L 1942.9423482127352 65.08554546526814 L 1942.9828070788283 65.20020098142045 L 1943.0207276452734 65.31503365804045 L 1943.056106120045 65.43003201195617 L 1943.088938965325 65.54518454342806 L 1943.1192228978568 65.66047973729893 L 1943.146954889272 65.77590606414547 L 1943.1721321663942 65.89145198143119 L 1943.1947522115174 66.00710593466063 L 1943.2148127626556 66.12285635853486 L 1943.2323118137704 66.23869167810795 L 1943.247247614971 66.35460030994449 L 1943.2596186726903 66.47057066327784 L 1943.2694237498324 66.58659114116935 L 1943.276661865898 66.70265014166789 L 1943.2813322970815 66.81873605897015 L 1943.2834345763433 66.9348372845811 M 1943.283564873327 103.91451096179999 L 1943.2822806857382 104.03061462555635 L 1943.27842825139 104.14670667904309 L 1943.272007955523 104.2627755131516 L 1943.2630204401605 104.37880952109519 L 1943.2514666040472 104.49479709956978 L 1943.2373476025568 104.61072664991414 L 1943.220664847578 104.72658657926989 L 1943.2014200073722 104.8423653017406 L 1943.1796150064072 104.95805123955054 L 1943.1552520251653 105.0736328242023 L 1943.1283334999239 105.18909849763378 L 1943.0988621225133 105.3044367133738 L 1943.066840840047 105.41963593769695 L 1943.032272854626 105.53468465077678 L 1942.9951616230203 105.64957134783783 L 1942.9555108563222 105.76428454030618 L 1942.9133245195753 105.87881275695814 L 1942.868606831378 105.9931445450675 L 1942.8213622634619 106.10726847155073 L 1942.7715955402446 106.22117312411025 L 1942.7193116383567 106.33484711237577 L 1942.6645157861449 106.44827906904317 L 1942.6072134631488 106.56145765101131 L 1942.547410399553 106.67437154051632 L 1942.4851125756138 106.78700944626333 L 1942.420326221062 106.89936010455563 L 1942.3530578144787 107.01141228042103 L 1942.283314082649 107.12315476873529 L 1942.2111019998874 107.23457639534273 L 1942.1364287873423 107.34566601817353 L 1942.0593019122728 107.45641252835797 L 1941.9797290873018 107.56680485133734 L 1941.897718269646 107.67683194797132 L 1941.8132776603184 107.78648281564195 L 1941.7264157033096 107.89574648935381 L 1941.637141084743 108.00461204283062 L 1941.5454627320064 108.1130685896077 L 1941.451389812858 108.22110528412082 L 1941.3549317345119 108.32871132279051 L 1941.2560981426952 108.4358759451026 L 1941.154898920685 108.54258843468413 L 1941.0513441883188 108.6488381203751 L 1940.9454443009838 108.75461437729548 L 1940.8372098485804 108.8599066279077 L 1940.726651654464 108.96470434307447 L 1940.6137807743612 109.0689970431116 L 1940.4986084952664 109.17277429883598 L 1940.3811463343116 109.27602573260853 L 1940.2614060376147 109.37874101937192 L 1940.1393995791059 109.48090988768304 L 1940.015139159329 109.58252212074024 L 1939.888637204223 109.68356755740487 L 1939.7599063638772 109.78403609321748 L 1939.6289595112692 109.88391768140819 L 1939.4958097409747 109.98320233390143 L 1939.3604703678595 110.08188012231469 L 1939.2229549257488 110.17994117895135 L 1939.0832771660716 110.27737569778748 L 1938.941451056488 110.37417393545236 L 1938.7974907794903 110.47032621220293 L 1938.6514107309865 110.5658229128916 L 1938.5032255188596 110.66065448792793 L 1938.3529499615074 110.7548114542334 L 1938.2005990863604 110.84828439618985 L 1938.046188128379 110.941063966581 L 1937.8897325285309 111.03314088752711 L 1937.7312479322447 111.12450595141281 L 1937.570750187849 111.21515002180787 L 1937.4082553449837 111.30506403438078 L 1937.2437796529982 111.39423899780519 L 1937.0773395593244 111.48266599465909 L 1936.9089517078328 111.57033618231648 L 1936.7386329371686 111.65724079383165 L 1936.5664002790668 111.74337113881587 L 1936.3922709566496 111.82871860430642 L 1936.216262382704 111.91327465562787 L 1936.038392157941 111.99703083724555 L 1935.8586780692349 112.07997877361109 L 1935.6771380878445 112.16211016999999 L 1935.4937903676168 112.24341681334106 L 1935.308653243171 112.32389057303769 L 1935.1217452280655 112.40352340178099 L 1934.9330850129456 112.48230733635444 L 1934.7426914636762 112.56023449843025 L 1934.550583619453 112.63729709535714 L 1934.3567806909007 112.71348742093964 L 1934.1613020581503 112.78879785620869 L 1933.9641672689027 112.8632208701835 L 1933.7653960364719 112.93674902062472 L 1933.565008237816 113.00937495477855 L 1933.3630239115478 113.08109141011211 L 1933.1594632559313 113.15189121503964 L 1932.9543466268628 113.22176728963963 L 1932.7476945358342 113.29071264636286 L 1932.5395276478823 113.35872039073111 L 1932.3298667795223 113.42578372202661 L 1932.1187328966666 113.49189593397213 L 1931.9061471125274 113.55705041540155 L 1931.6921306855058 113.62124065092104 L 1931.4767050170665 113.68446022156053 L 1931.2598916495965 113.74670280541565 L 1931.041712264252 113.80796217827987 L 1930.8221886787899 113.86823221426694 L 1930.6013428453855 113.92750688642352 L 1930.3791968484384 113.98578026733178 L 1930.155772902363 114.04304652970217 L 1929.9310933493675 114.09929994695618 L 1929.7051806572204 114.15453489379898 L 1929.4780574170024 114.20874584678191 L 1929.2497463408483 114.26192738485484 L 1929.0202702596755 114.31407418990828 L 1928.7896521209009 114.36518104730519 L 1928.5579149861462 114.4152428464024 L 1928.3250820289315 114.46425458106174 L 1928.091176532359 114.51221135015058 L 1927.856221886783 114.55910835803196 L 1927.6202415874725 114.6049409150442 L 1927.3832592322606 114.64970443796976 L 1927.1452985191854 114.69339445049368 L 1926.90638324412 114.7360065836511 L 1926.6665372983925 114.77753657626423 L 1926.4257846663982 114.81798027536838 L 1926.1841494231992 114.85733363662739 L 1925.9416557321185 114.8955927247379 L 1925.6983278423234 114.93275371382298 L 1925.4541900863999 114.96881288781469 L 1925.2092668779198 115.0037666408257 L 1924.9635827090005 115.03761147750981 L 1924.717162147854 115.07034401341159 L 1924.4700298363307 115.10196097530469 L 1924.222210487456 115.13245920151928 L 1923.9737288829585 115.16183564225817 L 1923.7246098707915 115.19008735990175 L 1923.4748783626483 115.21721152930179 L 1923.2245593314717 115.24320543806398 L 1922.9736778089566 115.26806648681908 L 1922.7222588830457 115.29179218948295 L 1922.4703276954226 115.31438017350509 L 1922.2179094389955 115.33582818010592 L 1921.9650293553802 115.35613406450264 L 1921.711712732374 115.37529579612375 L 1921.4579849014283 115.39331145881205 L 1921.2038712351148 115.41017925101629 L 1920.9493971445881 115.42589748597129 L 1920.6945880770456 115.44046459186667 L 1920.4394695131812 115.45387911200397 L 1920.1840669646392 115.46613970494236 L 1919.9284059714612 115.47724514463276 L 1919.6725120995338 115.48719432054045 L 1919.4164109380308 115.49598623775614 L 1919.1601280968548 115.50362001709544 L 1918.9036892040765 115.51009489518677 L 1918.6471199033715 115.5154102245477 L 1918.3904458514562 115.51956547364975 L 1918.1336927155214 115.52256022697145 L 1917.8768861706674 115.52439418504 L 1917.6200518973342 115.52506716446106 L 1917.363215578735 115.52457909793732 L 1917.1064028982883 115.52293003427498 L 1916.8496395370473 115.52012013837903 L 1916.5929511711347 115.51614969123673 L 1916.3363634691732 115.51101908988952 L 1916.0799020897189 115.50472884739318 L 1915.8235926786963 115.4972795927668 L 1915.5674608668326 115.48867207092958 L 1915.3115322670958 115.47890714262655 L 1915.0558324721324 115.4679857843424 L 1914.8003870517089 115.45590908820387 L 1914.5452215501546 115.4426782618705 L 1914.290361483807 115.42829462841388 L 1914.03583233846 115.4127596261854 L 1913.7816595668164 115.39607480867232 L 1913.5278685859414 115.3782418443425 L 1913.2744847747217 115.35926251647749 L 1913.0215334713273 115.33913872299428 L 1912.7690399706776 115.31787247625543 L 1912.5170295219123 115.29546590286792 L 1912.2655273258663 115.27192124347039 L 1912.0145585325497 115.24724085250918 L 1911.7641482386323 115.2214271980028 L 1911.5143214849354 115.1944828612952 L 1911.2651032539256 115.1664105367976 L 1911.016518467219 115.13721303171906 L 1910.7685919830865 115.10689326578573 L 1910.52134859397 115.07545427094897 L 1910.2748130240027 115.04289919108203 L 1910.029009926536 115.0092312816658 L 1909.7839638816747 114.97445390946316 L 1909.539699393819 114.93857055218234 L 1909.2962408892147 114.90158479812916 L 1909.0536127135085 114.86350034584822 L 1908.8118391293165 114.824321003753 L 1908.5709443137955 114.78405068974506 L 1908.330952356226 114.74269343082224 L 1908.091887255604 114.70025336267598 L 1907.8537729182403 114.65673472927773 L 1907.6166331553702 114.61214188245454 L 1907.3804916807726 114.56647928145395 L 1907.1453721083979 114.51975149249802 L 1906.911297950007 114.47196318832667 L 1906.6782926128217 114.42311914773052 L 1906.4463793971809 114.37322425507293 L 1906.2155814942128 114.32228349980157 L 1905.9859219835157 114.27030197594954 L 1905.7574238308491 114.21728488162587 L 1905.5301098858379 114.16323751849586 L 1905.3040028796872 114.10816529125074 L 1905.079125422909 114.05207370706736 L 1904.855500003062 113.9949683750574 L 1904.6331489825016 113.93685500570646 L 1904.4120945961442 113.87773941030305 L 1904.1923589492449 113.81762750035746 L 1903.9739640151847 113.75652528701059 L 1903.7569316332756 113.69443888043284 L 1903.5412835065742 113.63137448921314 L 1903.3270411997141 113.56733841973806 L 1903.1142261367472 113.5023370755612 L 1902.9028595990023 113.43637695676277 L 1902.6929627229574 113.36946465929971 L 1902.4845564981247 113.301606874346 L 1902.2776617649536 113.2328103876236 L 1902.0722992127444 113.16308207872383 L 1901.8684893775817 113.0924289204195 L 1901.6662526402788 113.02085797796754 L 1901.4656092243413 112.94837640840255 L 1901.2665791939432 112.8749914598211 L 1901.0691824519217 112.8007104706569 L 1900.873438737787 112.72554086894695 L 1900.6793676257466 112.64949017158878 L 1900.4869885227508 112.57256598358876 L 1900.296320666549 112.49477599730159 L 1900.1073831237682 112.41612799166106 L 1899.9201947880051 112.3366298314022 L 1899.7347743779374 112.2562894662748 L 1899.5511404354513 112.1751149302484 L 1899.3693113237885 112.09311434070896 L 1899.1893052257083 112.01029589764713 L 1899.0111401416707 111.92666788283817 L 1898.8348338880355 111.84223865901389 L 1898.6604040952811 111.7570166690263 L 1898.4878682062415 111.67101043500338 L 1898.317243474362 111.58422855749687 L 1898.1485469619731 111.4966797146222 L 1897.981795538586 111.40837266119071 L 1897.8170058792039 111.31931622783415 L 1897.6541944626554 111.22951932012163 L 1897.4933775699462 111.13899091766909 L 1897.334571282632 111.04774007324134 L 1897.177791481209 110.9557759118468 L 1897.0230538435267 110.86310762982494 L 1896.8703738432198 110.76974449392677 L 1896.7197667481612 110.67569584038806 L 1896.571247618935 110.58097107399578 L 1896.4248313073304 110.48557966714766 L 1896.2805324548563 110.38953115890487 L 1896.1383654912777 110.2928351540382 L 1895.9983446331728 110.19550132206757 L 1895.8604838825104 110.09753939629505 L 1895.7247970252508 109.99895917283158 L 1895.5912976299667 109.89977050961737 L 1895.4599990464865 109.79998332543607 L 1895.3309144045588 109.69960759892295 L 1895.2040566125404 109.59865336756702 L 1895.079438356105 109.4971307267073 L 1894.957072096974 109.39504982852324 L 1894.8369700716714 109.29242088101961 L 1894.7191442903 109.18925414700563 L 1894.6036065353394 109.08555994306874 L 1894.490368360469 108.98134863854291 L 1894.3794410894118 108.87663065447177 L 1894.2708358148025 108.77141646256644 L 1894.1645633970782 108.66571658415843 L 1894.0606344633918 108.55954158914753 L 1893.9590594065505 108.45290209494473 L 1893.8598483839748 108.3458087654106 L 1893.763011316685 108.23827230978884 L 1893.6685578883064 108.1303034816354 L 1893.5764975441034 108.02191307774314 L 1893.4868394900338 107.9131119370621 L 1893.3995926918283 107.80391093961568 L 1893.3147658740938 107.69432100541265 L 1893.2323675194418 107.58435309335508 L 1893.1524058676387 107.47401820014255 L 1893.074888914783 107.36332735917243 L 1892.9998244125059 107.25229163943658 L 1892.9272198671945 107.14092214441445 L 1892.857082539243 107.0292300109627 L 1892.7894194423259 106.91722640820164 L 1892.7242373426964 106.80492253639821 L 1892.6615427585102 106.69232962584596 L 1892.6013419591734 106.57945893574217 L 1892.543640964716 106.46632175306175 L 1892.488445545189 106.35292939142872 L 1892.4357612200886 106.23929318998472 L 1892.385593257803 106.12542451225522 L 1892.3379466750873 106.0113347450131 L 1892.2928262365597 105.89703529714001 L 1892.2502364542263 105.78253759848548 L 1892.21018158703 105.66785309872397 L 1892.1726656404244 105.55299326620987 L 1892.1376923659725 105.43796958683073 L 1892.1052652609728 105.32279356285864 L 1892.0753875681087 105.2074767118 L 1892.0480622751247 105.09203056524383 L 1892.023292114527 104.97646666770858 L 1892.0010795633116 104.8607965754877 L 1891.9814268427144 104.74503185549402 L 1891.9643359179918 104.62918408410306 L 1891.9498084982215 104.51326484599544 L 1891.9378460361336 104.39728573299836 L 1891.928449727964 104.28125834292646 L 1891.9216205133364 104.16519427842208 L 1891.9173590751661 104.04910514579494 L 1891.9156658395934 103.93300255386156" stroke-miterlimit="10" stroke-width="2.990598758" stroke-dasharray=""/></g><g><g/><text fill="black" stroke="none" font-family="sans-serif" font-size="11pt" font-style="normal" font-weight="normal" text-decoration="normal" x="1907.4170581757721" y="134.401026536" text-anchor="start" dominant-baseline="alphabetic" xml:space="preserve">DB</text></g><path fill="none" stroke="none"/><g><path fill="white" stroke="black" paint-order="fill stroke markers" d=" M 1970.3748712693268 92.18080877599999 L 2054.9126322882644 92.18080877599999 L 2054.9126322882644 139.67855375599999 L 1970.3748712693268 139.67855375599999 L 1970.3748712693268 92.18080877599999 Z" stroke-miterlimit="10" stroke-width="2.814681184" stroke-dasharray=""/></g><g><g/><text fill="black" stroke="none" font-family="sans-serif" font-size="11pt" font-style="normal" font-weight="normal" text-decoration="normal" x="1989.4619280483269" y="122.08679635600001" text-anchor="start" dominant-baseline="alphabetic" xml:space="preserve">Admin</text></g></g><g><path fill="white" stroke="black" paint-order="fill stroke markers" d=" M 358.03297308310414 197.73135317599997 L 375.62473048310414 197.73135317599997 L 375.62473048310414 616.4151792959999 L 358.03297308310414 616.4151792959999 L 358.03297308310414 197.73135317599997" stroke-miterlimit="10" stroke-width="1.4659797833333332" stroke-dasharray=""/><path fill="white" stroke="black" paint-order="fill stroke markers" d=" M 723.6870037536771 296.24519461599994 L 741.2787611536771 296.24519461599994 L 741.2787611536771 567.1582585759999 L 723.6870037536771 567.1582585759999 L 723.6870037536771 296.24519461599994" stroke-miterlimit="10" stroke-width="1.4659797833333332" stroke-dasharray=""/><path fill="white" stroke="black" paint-order="fill stroke markers" d=" M 358.03297308310414 665.672100016 L 375.62473048310414 665.672100016 L 375.62473048310414 2159.915973571999 L 358.03297308310414 2159.915973571999 L 358.03297308310414 665.672100016" stroke-miterlimit="10" stroke-width="1.4659797833333332" stroke-dasharray=""/><path fill="white" stroke="black" paint-order="fill stroke markers" d=" M 723.6870037536771 714.929020736 L 741.2787611536771 714.929020736 L 741.2787611536771 2569.8039209919984 L 723.6870037536771 2569.8039209919984 L 723.6870037536771 714.929020736" stroke-miterlimit="10" stroke-width="1.4659797833333332" stroke-dasharray=""/><path fill="white" stroke="black" paint-order="fill stroke markers" d=" M 1247.05199166175 910.197527876 L 1264.64374906175 910.197527876 L 1264.64374906175 959.454448596 L 1247.05199166175 959.454448596 L 1247.05199166175 910.197527876" stroke-miterlimit="10" stroke-width="1.4659797833333332" stroke-dasharray=""/><path fill="white" stroke="black" paint-order="fill stroke markers" d=" M 1247.05199166175 959.454448596 L 1264.64374906175 959.454448596 L 1264.64374906175 959.454448596 L 1247.05199166175 959.454448596 L 1247.05199166175 959.454448596" stroke-miterlimit="10" stroke-width="1.4659797833333332" stroke-dasharray=""/><path fill="white" stroke="black" paint-order="fill stroke markers" d=" M 366.82885178310414 1107.225210756 L 384.42060918310415 1107.225210756 L 384.42060918310415 1621.6081971319995 L 366.82885178310414 1621.6081971319995 L 366.82885178310414 1107.225210756" stroke-miterlimit="10" stroke-width="1.4659797833333332" stroke-dasharray=""/><path fill="white" stroke="black" paint-order="fill stroke markers" d=" M 182.3916790226875 1211.720249712 L 199.9834364226875 1211.720249712 L 199.9834364226875 1260.9771704319999 L 182.3916790226875 1260.9771704319999 L 182.3916790226875 1211.720249712" stroke-miterlimit="10" stroke-width="1.4659797833333332" stroke-dasharray=""/><path fill="white" stroke="black" paint-order="fill stroke markers" d=" M 182.3916790226875 1357.731836132 L 199.9834364226875 1357.731836132 L 199.9834364226875 1572.3512764119996 L 182.3916790226875 1572.3512764119996 L 182.3916790226875 1357.731836132" stroke-miterlimit="10" stroke-width="1.4659797833333332" stroke-dasharray=""/><path fill="white" stroke="black" paint-order="fill stroke markers" d=" M 1247.05199166175 1720.1220385719994 L 1264.64374906175 1720.1220385719994 L 1264.64374906175 2061.402132131999 L 1247.05199166175 2061.402132131999 L 1247.05199166175 1720.1220385719994" stroke-miterlimit="10" stroke-width="1.4659797833333332" stroke-dasharray=""/><path fill="white" stroke="black" paint-order="fill stroke markers" d=" M 1654.608425454418 1769.3789592919993 L 1672.200182854418 1769.3789592919993 L 1672.200182854418 2012.1452114119993 L 1654.608425454418 2012.1452114119993 L 1654.608425454418 1769.3789592919993" stroke-miterlimit="10" stroke-width="1.4659797833333332" stroke-dasharray=""/><path fill="white" stroke="black" paint-order="fill stroke markers" d=" M 1663.404304154418 1841.5051646319994 L 1680.996061554418 1841.5051646319994 L 1680.996061554418 1940.0190060719995 L 1663.404304154418 1940.0190060719995 L 1663.404304154418 1841.5051646319994" stroke-miterlimit="10" stroke-width="1.4659797833333332" stroke-dasharray=""/><path fill="white" stroke="black" paint-order="fill stroke markers" d=" M 358.03297308310414 2256.670639271999 L 375.62473048310414 2256.670639271999 L 375.62473048310414 2619.0608417119984 L 358.03297308310414 2619.0608417119984 L 358.03297308310414 2256.670639271999" stroke-miterlimit="10" stroke-width="1.4659797833333332" stroke-dasharray=""/><path fill="white" stroke="black" paint-order="fill stroke markers" d=" M 182.3916790226875 2256.670639271999 L 199.9834364226875 2256.670639271999 L 199.9834364226875 2471.2900795519986 L 182.3916790226875 2471.2900795519986 L 182.3916790226875 2256.670639271999" stroke-miterlimit="10" stroke-width="1.4659797833333332" stroke-dasharray=""/><g><g><rect fill="white" stroke="none" x="147.1581669497161" y="174.86206855599997" width="142.87954748367187" height="22.86928462"/></g><text fill="black" stroke="none" font-family="sans-serif" font-size="11pt" font-style="normal" font-weight="normal" text-decoration="normal" x="149.79693055971612" y="190.69465021599999" text-anchor="start" dominant-baseline="alphabetic" xml:space="preserve">mouseClick(button)</text></g><g><path fill="none" stroke="black" paint-order="fill stroke markers" d=" M 79.1629083 197.73135317599997 L 343.5490928237708 197.73135317599997" stroke-miterlimit="10" stroke-width="1.4659797833333332" stroke-dasharray=""/><g transform="translate(358.03297308310414,197.73135317599997) translate(-358.03297308310414,-197.73135317599997)"><path fill="black" stroke="none" paint-order="stroke fill markers" d=" M 343.3731752497708 190.4014542593333 L 358.03297308310414 197.73135317599997 L 343.3731752497708 205.06125209266665 Z"/></g></g><g><g><rect fill="white" stroke="none" x="171.227602069345" y="224.11898927599995" width="94.74067724441406" height="22.86928462"/></g><text fill="black" stroke="none" font-family="sans-serif" font-size="11pt" font-style="normal" font-weight="normal" text-decoration="normal" x="173.86636567934502" y="239.95157093599997" text-anchor="start" dominant-baseline="alphabetic" xml:space="preserve">selectWeek()</text></g><g><path fill="none" stroke="black" paint-order="fill stroke markers" d=" M 79.1629083 246.98827389599995 L 343.5490928237708 246.98827389599995" stroke-miterlimit="10" stroke-width="1.4659797833333332" stroke-dasharray=""/><g transform="translate(358.03297308310414,246.98827389599995) translate(-358.03297308310414,-246.98827389599995)"><path fill="black" stroke="none" paint-order="stroke fill markers" d=" M 343.3731752497708 239.65837497933327 L 358.03297308310414 246.98827389599995 L 343.3731752497708 254.31817281266663 Z"/></g></g><g><g><rect fill="white" stroke="none" x="474.9161513599532" y="273.37590999599996" width="149.479431516875" height="22.86928462"/></g><text fill="black" stroke="none" font-family="sans-serif" font-size="11pt" font-style="normal" font-weight="normal" text-decoration="normal" x="477.5549149699532" y="289.208491656" text-anchor="start" dominant-baseline="alphabetic" xml:space="preserve">queryBooking(week)</text></g><g><path fill="none" stroke="black" paint-order="fill stroke markers" d=" M 375.62473048310414 296.24519461599994 L 709.2031234943438 296.24519461599994" stroke-miterlimit="10" stroke-width="1.4659797833333332" stroke-dasharray=""/><g transform="translate(723.6870037536771,296.24519461599994) translate(-723.6870037536771,-296.24519461599994)"><path fill="black" stroke="none" paint-order="stroke fill markers" d=" M 709.0272059203438 288.9152956993333 L 723.6870037536771 296.24519461599994 L 709.0272059203438 303.5750935326666 Z"/></g></g><g><g><rect fill="white" stroke="none" x="1025.6257909022527" y="370.13057569599994" width="80.173767454375" height="22.86928462"/></g><text fill="black" stroke="none" font-family="sans-serif" font-size="11pt" font-style="normal" font-weight="normal" text-decoration="normal" x="1028.2645545122527" y="385.96315735599995" text-anchor="start" dominant-baseline="alphabetic" xml:space="preserve">getRoom()</text></g><g><path fill="none" stroke="black" paint-order="fill stroke markers" d=" M 741.2787611536771 392.9998603159999 L 1375.6627078458698 392.9998603159999" stroke-miterlimit="10" stroke-width="1.4659797833333332" stroke-dasharray=""/><g transform="translate(1390.1465881052031,392.9998603159999) translate(-1390.1465881052031,-392.9998603159999)"><path fill="black" stroke="none" paint-order="stroke fill markers" d=" M 1375.4867902718697 385.66996139933326 L 1390.1465881052031 392.9998603159999 L 1375.4867902718697 400.32975923266656 Z"/></g></g><g><g><rect fill="white" stroke="none" x="1030.0746205531316" y="419.3874964159999" width="71.27610815261718" height="22.86928462"/></g><text fill="black" stroke="none" font-family="sans-serif" font-size="11pt" font-style="normal" font-weight="normal" text-decoration="normal" x="1032.7133841631316" y="435.22007807599994" text-anchor="start" dominant-baseline="alphabetic" xml:space="preserve">getDate()</text></g><g><path fill="none" stroke="black" paint-order="fill stroke markers" d=" M 741.2787611536771 442.2567810359999 L 1375.6627078458698 442.2567810359999" stroke-miterlimit="10" stroke-width="1.4659797833333332" stroke-dasharray=""/><g transform="translate(1390.1465881052031,442.2567810359999) translate(-1390.1465881052031,-442.2567810359999)"><path fill="black" stroke="none" paint-order="stroke fill markers" d=" M 1375.4867902718697 434.92688211933324 L 1390.1465881052031 442.2567810359999 L 1375.4867902718697 449.58667995266654 Z"/></g></g><g><g><rect fill="white" stroke="none" x="1020.797597237702" y="468.6444171359999" width="89.83015478347656" height="22.86928462"/></g><text fill="black" stroke="none" font-family="sans-serif" font-size="11pt" font-style="normal" font-weight="normal" text-decoration="normal" x="1023.436360847702" y="484.4769987959999" text-anchor="start" dominant-baseline="alphabetic" xml:space="preserve">getLecture()</text></g><g><path fill="none" stroke="black" paint-order="fill stroke markers" d=" M 741.2787611536771 491.5137017559999 L 1375.6627078458698 491.5137017559999" stroke-miterlimit="10" stroke-width="1.4659797833333332" stroke-dasharray=""/><g transform="translate(1390.1465881052031,491.5137017559999) translate(-1390.1465881052031,-491.5137017559999)"><path fill="black" stroke="none" paint-order="stroke fill markers" d=" M 1375.4867902718697 484.1838028393332 L 1390.1465881052031 491.5137017559999 L 1375.4867902718697 498.8436006726665 Z"/></g></g><g><g><rect fill="white" stroke="none" x="497.75797112313677" y="544.2889739559998" width="103.79579199050781" height="22.86928462"/></g><text fill="black" stroke="none" font-family="sans-serif" font-size="11pt" font-style="normal" font-weight="normal" text-decoration="normal" x="500.3967347331368" y="560.1215556159998" text-anchor="start" dominant-baseline="alphabetic" xml:space="preserve">displayWeek()</text></g><g><path fill="none" stroke="black" paint-order="fill stroke markers" d=" M 723.6870037536771 567.1582585759999 L 390.10861074243746 567.1582585759999" stroke-miterlimit="10" stroke-width="1.4659797833333332" stroke-dasharray="7.0367029599999995"/><g transform="translate(375.62473048310414,567.1582585759999) translate(-375.62473048310414,-567.1582585759999)"><path fill="black" stroke="none" paint-order="stroke fill markers" d=" M 390.2845283164375 559.8283596593332 L 375.62473048310414 567.1582585759999 L 390.2845283164375 574.4881574926666 Z"/></g></g><g><g><rect fill="white" stroke="none" x="215.95917708155204" y="593.5458946759999" width="5.27752722" height="22.86928462"/></g><text fill="black" stroke="none" font-family="sans-serif" font-size="11pt" font-style="normal" font-weight="normal" text-decoration="normal" x="218.59794069155205" y="609.3784763359998" text-anchor="start" dominant-baseline="alphabetic" xml:space="preserve"></text></g><g><path fill="none" stroke="black" paint-order="fill stroke markers" d=" M 358.03297308310414 616.4151792959999 L 93.64678855933333 616.4151792959999" stroke-miterlimit="10" stroke-width="1.4659797833333332" stroke-dasharray="7.0367029599999995"/><g transform="translate(79.1629083,616.4151792959999) translate(-79.1629083,-616.4151792959999)"><path fill="black" stroke="none" paint-order="stroke fill markers" d=" M 93.82270613333333 609.0852803793332 L 79.1629083 616.4151792959999 L 93.82270613333333 623.7450782126666 Z"/></g></g><g><g><rect fill="white" stroke="none" x="158.26053053614189" y="642.8028153959999" width="120.67482031082031" height="22.86928462"/></g><text fill="black" stroke="none" font-family="sans-serif" font-size="11pt" font-style="normal" font-weight="normal" text-decoration="normal" x="160.8992941461419" y="658.6353970559999" text-anchor="start" dominant-baseline="alphabetic" xml:space="preserve">mouseClick(pos)</text></g><g><path fill="none" stroke="black" paint-order="fill stroke markers" d=" M 79.1629083 665.672100016 L 343.5490928237708 665.672100016" stroke-miterlimit="10" stroke-width="1.4659797833333332" stroke-dasharray=""/><g transform="translate(358.03297308310414,665.672100016) translate(-358.03297308310414,-665.672100016)"><path fill="black" stroke="none" paint-order="stroke fill markers" d=" M 343.3731752497708 658.3422010993332 L 358.03297308310414 665.672100016 L 343.3731752497708 673.0019989326667 Z"/></g></g><g><g><rect fill="white" stroke="none" x="474.9161513599532" y="692.059736116" width="149.479431516875" height="22.86928462"/></g><text fill="black" stroke="none" font-family="sans-serif" font-size="11pt" font-style="normal" font-weight="normal" text-decoration="normal" x="477.5549149699532" y="707.8923177759999" text-anchor="start" dominant-baseline="alphabetic" xml:space="preserve">queryBooking(week)</text></g><g><path fill="none" stroke="black" paint-order="fill stroke markers" d=" M 375.62473048310414 714.929020736 L 709.2031234943438 714.929020736" stroke-miterlimit="10" stroke-width="1.4659797833333332" stroke-dasharray=""/><g transform="translate(723.6870037536771,714.929020736) translate(-723.6870037536771,-714.929020736)"><path fill="black" stroke="none" paint-order="stroke fill markers" d=" M 709.0272059203438 707.5991218193333 L 723.6870037536771 714.929020736 L 709.0272059203438 722.2589196526667 Z"/></g></g><g><g><rect fill="white" stroke="none" x="762.0956740770105" y="788.814401816" width="131.76286352371093" height="22.86928462"/></g><text fill="black" stroke="none" font-family="sans-serif" font-size="11pt" font-style="normal" font-weight="normal" text-decoration="normal" x="764.7344376870104" y="804.646983476" text-anchor="start" dominant-baseline="alphabetic" xml:space="preserve">checkId(String:id)</text></g><g><path fill="none" stroke="black" paint-order="fill stroke markers" d=" M 741.2787611536771 811.6836864359999 L 811.6457907536771 811.6836864359999 L 811.6457907536771 834.5529710559999 L 755.7626414130104 834.5529710559999" stroke-miterlimit="10" stroke-width="1.4659797833333332" stroke-dasharray=""/><g transform="translate(741.2787611536771,834.5529710559999) translate(-741.2787611536771,-834.5529710559999)"><path fill="black" stroke="none" paint-order="stroke fill markers" d=" M 755.9385589870104 827.2230721393332 L 741.2787611536771 834.5529710559999 L 755.9385589870104 841.8828699726666 Z"/></g></g><g><g><rect fill="white" stroke="none" x="762.0956740770105" y="887.328243256" width="464.1394046614063" height="22.86928462"/></g><text fill="black" stroke="none" font-family="sans-serif" font-size="11pt" font-style="normal" font-weight="normal" text-decoration="normal" x="764.7344376870104" y="903.1608249159999" text-anchor="start" dominant-baseline="alphabetic" xml:space="preserve">booking:=getBooking(DateTime:time;Int:room;String:activity)</text></g><g><path fill="none" stroke="black" paint-order="fill stroke markers" d=" M 741.2787611536771 910.197527876 L 1232.5681114024167 910.197527876" stroke-miterlimit="10" stroke-width="1.4659797833333332" stroke-dasharray=""/><g transform="translate(1247.05199166175,910.197527876) translate(-1247.05199166175,-910.197527876)"><path fill="black" stroke="none" paint-order="stroke fill markers" d=" M 1232.3921938284166 902.8676289593333 L 1247.05199166175 910.197527876 L 1232.3921938284166 917.5274267926667 Z"/></g></g><g><g><rect fill="white" stroke="none" x="991.5266127977136" y="936.585163976" width="5.27752722" height="22.86928462"/></g><text fill="black" stroke="none" font-family="sans-serif" font-size="11pt" font-style="normal" font-weight="normal" text-decoration="normal" x="994.1653764077136" y="952.417745636" text-anchor="start" dominant-baseline="alphabetic" xml:space="preserve"></text></g><g><path fill="none" stroke="black" paint-order="fill stroke markers" d=" M 1247.05199166175 959.454448596 L 755.7626414130104 959.454448596" stroke-miterlimit="10" stroke-width="1.4659797833333332" stroke-dasharray="7.0367029599999995"/><g transform="translate(741.2787611536771,959.454448596) translate(-741.2787611536771,-959.454448596)"><path fill="black" stroke="none" paint-order="stroke fill markers" d=" M 755.9385589870104 952.1245496793333 L 741.2787611536771 959.454448596 L 755.9385589870104 966.7843475126667 Z"/></g></g><g><g><rect fill="white" stroke="none" x="507.23186333505083" y="985.842084696" width="84.84800756667968" height="22.86928462"/></g><text fill="black" stroke="none" font-family="sans-serif" font-size="11pt" font-style="normal" font-weight="normal" text-decoration="normal" x="509.87062694505084" y="1001.674666356" text-anchor="start" dominant-baseline="alphabetic" xml:space="preserve">returnfalse</text></g><g><path fill="none" stroke="black" paint-order="fill stroke markers" d=" M 723.6870037536771 1008.7113693160001 L 390.10861074243746 1008.7113693160001" stroke-miterlimit="10" stroke-width="1.4659797833333332" stroke-dasharray=""/><g transform="translate(375.62473048310414,1008.7113693160001) translate(-375.62473048310414,-1008.7113693160001)"><path fill="black" stroke="none" paint-order="stroke fill markers" d=" M 390.2845283164375 1001.3814703993334 L 375.62473048310414 1008.7113693160001 L 390.2845283164375 1016.0412682326668 Z"/></g></g><g><g><rect fill="white" stroke="none" x="1151.7102373476098" y="1035.0990054160002" width="84.84800756667968" height="22.86928462"/></g><text fill="black" stroke="none" font-family="sans-serif" font-size="11pt" font-style="normal" font-weight="normal" text-decoration="normal" x="1154.3490009576099" y="1050.9315870760001" text-anchor="start" dominant-baseline="alphabetic" xml:space="preserve">returnfalse</text></g><g><path fill="none" stroke="black" paint-order="fill stroke markers" d=" M 375.62473048310414 1057.968290036 L 1998.1598715194623 1057.968290036" stroke-miterlimit="10" stroke-width="1.4659797833333332" stroke-dasharray=""/><g transform="translate(2012.6437517787956,1057.968290036) translate(-2012.6437517787956,-1057.968290036)"><path fill="black" stroke="none" paint-order="stroke fill markers" d=" M 1997.9839539454622 1050.6383911193334 L 2012.6437517787956 1057.968290036 L 1997.9839539454622 1065.2981889526668 Z"/></g></g><g><g><rect fill="white" stroke="none" x="405.23752210643744" y="1084.355926136" width="297.6325687239063" height="22.86928462"/></g><text fill="black" stroke="none" font-family="sans-serif" font-size="11pt" font-style="normal" font-weight="normal" text-decoration="normal" x="407.87628571643745" y="1100.188507796" text-anchor="start" dominant-baseline="alphabetic" xml:space="preserve">message(message:String,true:Boolean)</text></g><g><path fill="none" stroke="black" paint-order="fill stroke markers" d=" M 723.6870037536771 1107.225210756 L 398.90448944243747 1107.225210756" stroke-miterlimit="10" stroke-width="1.4659797833333332" stroke-dasharray=""/><g transform="translate(384.42060918310415,1107.225210756) translate(-384.42060918310415,-1107.225210756)"><path fill="black" stroke="none" paint-order="stroke fill markers" d=" M 399.0804070164375 1099.8953118393333 L 384.42060918310415 1107.225210756 L 399.0804070164375 1114.5551096726667 Z"/></g></g><g><path fill="white" stroke="black" paint-order="fill stroke markers" d=" M 226.1071961616875 1159.736606595 A 26.123759739 26.123759739 0 1 1 226.1071830998087 1159.710482839615 M 157.76321866268748 1132.117547477 L 157.76321866268748 1187.355665713 M 156.2679192836875 1159.736606595 L 173.8596766836875 1159.736606595" stroke-miterlimit="10" stroke-width="2.990598758" stroke-dasharray=""/></g><g><g/><text fill="black" stroke="none" font-family="sans-serif" font-size="11pt" font-style="normal" font-weight="normal" text-decoration="normal" x="168.30279972708203" y="1204.947423113" text-anchor="start" dominant-baseline="alphabetic" xml:space="preserve">Dialog</text></g><g><g><rect fill="white" stroke="none" x="292.3779403768958" y="1149.797263664" width="5.27752722" height="22.86928462"/></g><text fill="black" stroke="none" font-family="sans-serif" font-size="11pt" font-style="normal" font-weight="normal" text-decoration="normal" x="295.01670398689583" y="1165.629845324" text-anchor="start" dominant-baseline="alphabetic" xml:space="preserve"></text></g><g><path fill="none" stroke="black" paint-order="fill stroke markers" d=" M 366.82885178310414 1172.6665482839999 L 237.68843645002084 1172.6665482839999" stroke-miterlimit="10" stroke-width="1.4659797833333332" stroke-dasharray=""/><g transform="translate(223.2045561906875,1172.6665482839999) translate(-223.2045561906875,-1172.6665482839999)"><path fill="black" stroke="none" paint-order="stroke fill markers" d=" M 237.86435402402083 1165.3366493673332 L 223.2045561906875 1172.6665482839999 L 237.86435402402083 1179.9964472006666 Z"/></g></g><g><g><rect fill="white" stroke="none" x="280.7673804928958" y="1238.107885812" width="5.27752722" height="22.86928462"/></g><text fill="black" stroke="none" font-family="sans-serif" font-size="11pt" font-style="normal" font-weight="normal" text-decoration="normal" x="283.40614410289584" y="1253.940467472" text-anchor="start" dominant-baseline="alphabetic" xml:space="preserve"></text></g><g><path fill="none" stroke="black" paint-order="fill stroke markers" d=" M 199.9834364226875 1260.9771704319999 L 352.3449715237708 1260.9771704319999" stroke-miterlimit="10" stroke-width="1.4659797833333332" stroke-dasharray="7.0367029599999995"/><g transform="translate(366.82885178310414,1260.9771704319999) translate(-366.82885178310414,-1260.9771704319999)"><path fill="black" stroke="none" paint-order="stroke fill markers" d=" M 352.1690539497708 1253.6472715153332 L 366.82885178310414 1260.9771704319999 L 352.1690539497708 1268.3070693486666 Z"/></g></g><g><g><rect fill="white" stroke="none" x="225.19828869602082" y="1334.862551512" width="116.41571081375" height="22.86928462"/></g><text fill="black" stroke="none" font-family="sans-serif" font-size="11pt" font-style="normal" font-weight="normal" text-decoration="normal" x="227.83705230602084" y="1350.695133172" text-anchor="start" dominant-baseline="alphabetic" xml:space="preserve">showAndWait();</text></g><g><path fill="none" stroke="black" paint-order="fill stroke markers" d=" M 366.82885178310414 1357.731836132 L 214.46731668202085 1357.731836132" stroke-miterlimit="10" stroke-width="1.4659797833333332" stroke-dasharray=""/><g transform="translate(199.9834364226875,1357.731836132) translate(-199.9834364226875,-1357.731836132)"><path fill="black" stroke="none" paint-order="stroke fill markers" d=" M 214.64323425602083 1350.4019372153332 L 199.9834364226875 1357.731836132 L 214.64323425602083 1365.0617350486666 Z"/></g></g><g><g><rect fill="white" stroke="none" x="128.13853005134374" y="1384.119472232" width="5.27752722" height="22.86928462"/></g><text fill="black" stroke="none" font-family="sans-serif" font-size="11pt" font-style="normal" font-weight="normal" text-decoration="normal" x="130.77729366134375" y="1399.9520538919999" text-anchor="start" dominant-baseline="alphabetic" xml:space="preserve"></text></g><g><path fill="none" stroke="black" paint-order="fill stroke markers" d=" M 182.3916790226875 1406.9887568519998 L 93.64678855933333 1406.9887568519998" stroke-miterlimit="10" stroke-width="1.4659797833333332" stroke-dasharray=""/><g transform="translate(79.1629083,1406.9887568519998) translate(-79.1629083,-1406.9887568519998)"><path fill="black" stroke="none" paint-order="stroke fill markers" d=" M 93.82270613333333 1399.6588579353331 L 79.1629083 1406.9887568519998 L 93.82270613333333 1414.3186557686665 Z"/></g></g><g><g><rect fill="white" stroke="none" x="128.13853005134374" y="1433.3763929519998" width="5.27752722" height="22.86928462"/></g><text fill="black" stroke="none" font-family="sans-serif" font-size="11pt" font-style="normal" font-weight="normal" text-decoration="normal" x="130.77729366134375" y="1449.2089746119998" text-anchor="start" dominant-baseline="alphabetic" xml:space="preserve"></text></g><g><path fill="none" stroke="black" paint-order="fill stroke markers" d=" M 79.1629083 1456.2456775719997 L 167.90779876335415 1456.2456775719997" stroke-miterlimit="10" stroke-width="1.4659797833333332" stroke-dasharray="7.0367029599999995"/><g transform="translate(182.3916790226875,1456.2456775719997) translate(-182.3916790226875,-1456.2456775719997)"><path fill="black" stroke="none" paint-order="stroke fill markers" d=" M 167.73188118935417 1448.915778655333 L 182.3916790226875 1456.2456775719997 L 167.73188118935417 1463.5755764886665 Z"/></g></g><path fill="white" stroke="black" paint-order="fill stroke markers" d=" M 113.26633460633984 1482.6333136719998 L 253.27619917903516 1482.6333136719998 L 269.10878083903515 1498.4658953319997 L 269.10878083903515 1523.0943556919997 L 113.26633460633984 1523.0943556919997 L 113.26633460633984 1482.6333136719998 M 253.27619917903516 1482.6333136719998 L 253.27619917903516 1498.4658953319997 L 269.10878083903515 1498.4658953319997" stroke-miterlimit="10" stroke-width="1.4659797833333332" stroke-dasharray=""/><g><text fill="black" stroke="none" font-family="sans-serif" font-size="11pt" font-style="normal" font-weight="normal" text-decoration="normal" x="137.89479496633984" y="1507.2617740319995" text-anchor="start" dominant-baseline="alphabetic" xml:space="preserve">userselectsOK</text></g><g><g><rect fill="white" stroke="none" x="242.87190319797395" y="1549.4819917919997" width="81.06848180984375" height="22.86928462"/></g><text fill="black" stroke="none" font-family="sans-serif" font-size="11pt" font-style="normal" font-weight="normal" text-decoration="normal" x="245.51066680797396" y="1565.3145734519996" text-anchor="start" dominant-baseline="alphabetic" xml:space="preserve">returntrue</text></g><g><path fill="none" stroke="black" paint-order="fill stroke markers" d=" M 199.9834364226875 1572.3512764119996 L 352.3449715237708 1572.3512764119996" stroke-miterlimit="10" stroke-width="1.4659797833333332" stroke-dasharray="7.0367029599999995"/><g transform="translate(366.82885178310414,1572.3512764119996) translate(-366.82885178310414,-1572.3512764119996)"><path fill="black" stroke="none" paint-order="stroke fill markers" d=" M 352.1690539497708 1565.021377495333 L 366.82885178310414 1572.3512764119996 L 352.1690539497708 1579.6811753286663 Z"/></g></g><g><g><rect fill="white" stroke="none" x="513.5195655634687" y="1598.7389125119996" width="81.06848180984375" height="22.86928462"/></g><text fill="black" stroke="none" font-family="sans-serif" font-size="11pt" font-style="normal" font-weight="normal" text-decoration="normal" x="516.1583291734687" y="1614.5714941719996" text-anchor="start" dominant-baseline="alphabetic" xml:space="preserve">returntrue</text></g><g><path fill="none" stroke="black" paint-order="fill stroke markers" d=" M 384.42060918310415 1621.6081971319995 L 709.2031234943438 1621.6081971319995" stroke-miterlimit="10" stroke-width="1.4659797833333332" stroke-dasharray="7.0367029599999995"/><g transform="translate(723.6870037536771,1621.6081971319995) translate(-723.6870037536771,-1621.6081971319995)"><path fill="black" stroke="none" paint-order="stroke fill markers" d=" M 709.0272059203438 1614.2782982153328 L 723.6870037536771 1621.6081971319995 L 709.0272059203438 1628.9380960486662 Z"/></g></g><g><g><rect fill="white" stroke="none" x="1066.3991247414126" y="1647.9958332319995" width="126.18666113113281" height="22.86928462"/></g><text fill="black" stroke="none" font-family="sans-serif" font-size="11pt" font-style="normal" font-weight="normal" text-decoration="normal" x="1069.0378883514127" y="1663.8284148919995" text-anchor="start" dominant-baseline="alphabetic" xml:space="preserve">removeBooking()</text></g><g><path fill="none" stroke="black" paint-order="fill stroke markers" d=" M 741.2787611536771 1670.8651178519995 L 1503.222269200948 1670.8651178519995" stroke-miterlimit="10" stroke-width="1.4659797833333332" stroke-dasharray=""/><g transform="translate(1517.7061494602813,1670.8651178519995) translate(-1517.7061494602813,-1670.8651178519995)"><path fill="black" stroke="none" paint-order="stroke fill markers" d=" M 1503.0463516269479 1663.5352189353328 L 1517.7061494602813 1670.8651178519995 L 1503.0463516269479 1678.1950167686662 Z"/></g></g><g><path fill="none" stroke="black" paint-order="fill stroke markers" d=" M 1501.8735678002813 1655.0325361919995 L 1533.5387311202812 1686.6976995119994 M 1533.5387311202812 1655.0325361919995 L 1501.8735678002813 1686.6976995119994" stroke-miterlimit="10" stroke-width="2.814681184" stroke-dasharray=""/></g><g><g><rect fill="white" stroke="none" x="837.9224257859948" y="1697.2527539519995" width="312.4859012434375" height="22.86928462"/></g><text fill="black" stroke="none" font-family="sans-serif" font-size="11pt" font-style="normal" font-weight="normal" text-decoration="normal" x="840.5611893959948" y="1713.0853356119994" text-anchor="start" dominant-baseline="alphabetic" xml:space="preserve">removeBooking(selectedBooking:Booking)</text></g><g><path fill="none" stroke="black" paint-order="fill stroke markers" d=" M 741.2787611536771 1720.1220385719994 L 1232.5681114024167 1720.1220385719994" stroke-miterlimit="10" stroke-width="1.4659797833333332" stroke-dasharray=""/><g transform="translate(1247.05199166175,1720.1220385719994) translate(-1247.05199166175,-1720.1220385719994)"><path fill="black" stroke="none" paint-order="stroke fill markers" d=" M 1232.3921938284166 1712.7921396553327 L 1247.05199166175 1720.1220385719994 L 1232.3921938284166 1727.451937488666 Z"/></g></g><g><g><rect fill="white" stroke="none" x="1361.3287543121464" y="1746.5096746719994" width="196.594665891875" height="22.86928462"/></g><text fill="black" stroke="none" font-family="sans-serif" font-size="11pt" font-style="normal" font-weight="normal" text-decoration="normal" x="1363.9675179221465" y="1762.3422563319994" text-anchor="start" dominant-baseline="alphabetic" xml:space="preserve">deleteBooking(b:Booking)</text></g><g><path fill="none" stroke="black" paint-order="fill stroke markers" d=" M 1264.64374906175 1769.3789592919993 L 1640.1245451950847 1769.3789592919993" stroke-miterlimit="10" stroke-width="1.4659797833333332" stroke-dasharray=""/><g transform="translate(1654.608425454418,1769.3789592919993) translate(-1654.608425454418,-1769.3789592919993)"><path fill="black" stroke="none" paint-order="stroke fill markers" d=" M 1639.9486276210846 1762.0490603753326 L 1654.608425454418 1769.3789592919993 L 1639.9486276210846 1776.708858208666 Z"/></g></g><g><g><rect fill="white" stroke="none" x="1701.8129744777514" y="1795.7665953919993" width="197.75424230789062" height="22.86928462"/></g><text fill="black" stroke="none" font-family="sans-serif" font-size="11pt" font-style="normal" font-weight="normal" text-decoration="normal" x="1704.4517380877514" y="1811.5991770519993" text-anchor="start" dominant-baseline="alphabetic" xml:space="preserve">performUpdate(sql:String)</text></g><g><path fill="none" stroke="black" paint-order="fill stroke markers" d=" M 1672.200182854418 1818.6358800119995 L 1751.363091154418 1818.6358800119995 L 1751.363091154418 1841.5051646319994 L 1695.4799418137513 1841.5051646319994" stroke-miterlimit="10" stroke-width="1.4659797833333332" stroke-dasharray=""/><g transform="translate(1680.996061554418,1841.5051646319994) translate(-1680.996061554418,-1841.5051646319994)"><path fill="black" stroke="none" paint-order="stroke fill markers" d=" M 1695.6558593877514 1834.1752657153327 L 1680.996061554418 1841.5051646319994 L 1695.6558593877514 1848.835063548666 Z"/></g></g><g><g><rect fill="white" stroke="none" x="1701.8129744777514" y="1867.8928007319994" width="194.96971166824218" height="22.86928462"/></g><text fill="black" stroke="none" font-family="sans-serif" font-size="11pt" font-style="normal" font-weight="normal" text-decoration="normal" x="1704.4517380877514" y="1883.7253823919993" text-anchor="start" dominant-baseline="alphabetic" xml:space="preserve">executeUpdate(sql:String)</text></g><g><path fill="none" stroke="black" paint-order="fill stroke markers" d=" M 1680.996061554418 1890.7620853519993 L 1903.1157188099935 1890.7620853519993" stroke-miterlimit="10" stroke-width="1.4659797833333332" stroke-dasharray=""/><g transform="translate(1917.5995990693268,1890.7620853519993) translate(-1917.5995990693268,-1890.7620853519993)"><path fill="black" stroke="none" paint-order="stroke fill markers" d=" M 1902.9398012359934 1883.4321864353326 L 1917.5995990693268 1890.7620853519993 L 1902.9398012359934 1898.091984268666 Z"/></g></g><g><g><rect fill="white" stroke="none" x="1701.8129744777514" y="1917.1497214519993" width="5.27752722" height="22.86928462"/></g><text fill="black" stroke="none" font-family="sans-serif" font-size="11pt" font-style="normal" font-weight="normal" text-decoration="normal" x="1704.4517380877514" y="1932.9823031119993" text-anchor="start" dominant-baseline="alphabetic" xml:space="preserve"></text></g><g><path fill="none" stroke="black" paint-order="fill stroke markers" d=" M 1680.996061554418 1940.0190060719995 L 1751.363091154418 1940.0190060719995 L 1751.363091154418 1962.8882906919994 L 1686.6840631137513 1962.8882906919994" stroke-miterlimit="10" stroke-width="1.4659797833333332" stroke-dasharray="7.0367029599999995"/><g transform="translate(1672.200182854418,1962.8882906919994) translate(-1672.200182854418,-1962.8882906919994)"><path fill="black" stroke="none" paint-order="stroke fill markers" d=" M 1686.8599806877514 1955.5583917753327 L 1672.200182854418 1962.8882906919994 L 1686.8599806877514 1970.218189608666 Z"/></g></g><g><g><rect fill="white" stroke="none" x="1456.987323648084" y="1989.2759267919994" width="5.27752722" height="22.86928462"/></g><text fill="black" stroke="none" font-family="sans-serif" font-size="11pt" font-style="normal" font-weight="normal" text-decoration="normal" x="1459.626087258084" y="2005.1085084519993" text-anchor="start" dominant-baseline="alphabetic" xml:space="preserve"></text></g><g><path fill="none" stroke="black" paint-order="fill stroke markers" d=" M 1654.608425454418 2012.1452114119993 L 1279.1276293210833 2012.1452114119993" stroke-miterlimit="10" stroke-width="1.4659797833333332" stroke-dasharray="7.0367029599999995"/><g transform="translate(1264.64374906175,2012.1452114119993) translate(-1264.64374906175,-2012.1452114119993)"><path fill="black" stroke="none" paint-order="stroke fill markers" d=" M 1279.3035468950834 2004.8153124953326 L 1264.64374906175 2012.1452114119993 L 1279.3035468950834 2019.475110328666 Z"/></g></g><g><g><rect fill="white" stroke="none" x="991.5266127977136" y="2038.5328475119993" width="5.27752722" height="22.86928462"/></g><text fill="black" stroke="none" font-family="sans-serif" font-size="11pt" font-style="normal" font-weight="normal" text-decoration="normal" x="994.1653764077136" y="2054.365429171999" text-anchor="start" dominant-baseline="alphabetic" xml:space="preserve"></text></g><g><path fill="none" stroke="black" paint-order="fill stroke markers" d=" M 1247.05199166175 2061.402132131999 L 755.7626414130104 2061.402132131999" stroke-miterlimit="10" stroke-width="1.4659797833333332" stroke-dasharray="7.0367029599999995"/><g transform="translate(741.2787611536771,2061.402132131999) translate(-741.2787611536771,-2061.402132131999)"><path fill="black" stroke="none" paint-order="stroke fill markers" d=" M 755.9385589870104 2054.0722332153327 L 741.2787611536771 2061.402132131999 L 755.9385589870104 2068.7320310486657 Z"/></g></g><g><g><rect fill="white" stroke="none" x="491.8023589405196" y="2087.789768231999" width="115.70701635574218" height="22.86928462"/></g><text fill="black" stroke="none" font-family="sans-serif" font-size="11pt" font-style="normal" font-weight="normal" text-decoration="normal" x="494.4411225505196" y="2103.622349891999" text-anchor="start" dominant-baseline="alphabetic" xml:space="preserve">updateDisplay()</text></g><g><path fill="none" stroke="black" paint-order="fill stroke markers" d=" M 723.6870037536771 2110.659052851999 L 390.10861074243746 2110.659052851999" stroke-miterlimit="10" stroke-width="1.4659797833333332" stroke-dasharray="7.0367029599999995"/><g transform="translate(375.62473048310414,2110.659052851999) translate(-375.62473048310414,-2110.659052851999)"><path fill="black" stroke="none" paint-order="stroke fill markers" d=" M 390.2845283164375 2103.3291539353327 L 375.62473048310414 2110.659052851999 L 390.2845283164375 2117.9889517686656 Z"/></g></g><g><g><rect fill="white" stroke="none" x="215.95917708155204" y="2137.046688951999" width="5.27752722" height="22.86928462"/></g><text fill="black" stroke="none" font-family="sans-serif" font-size="11pt" font-style="normal" font-weight="normal" text-decoration="normal" x="218.59794069155205" y="2152.879270611999" text-anchor="start" dominant-baseline="alphabetic" xml:space="preserve"></text></g><g><path fill="none" stroke="black" paint-order="fill stroke markers" d=" M 358.03297308310414 2159.915973571999 L 93.64678855933333 2159.915973571999" stroke-miterlimit="10" stroke-width="1.4659797833333332" stroke-dasharray="7.0367029599999995"/><g transform="translate(79.1629083,2159.915973571999) translate(-79.1629083,-2159.915973571999)"><path fill="black" stroke="none" paint-order="stroke fill markers" d=" M 93.82270613333333 2152.5860746553326 L 79.1629083 2159.915973571999 L 93.82270613333333 2167.2458724886656 Z"/></g></g><g><g><rect fill="white" stroke="none" x="222.5648451956302" y="2233.8013546519987" width="112.88671911453125" height="22.86928462"/></g><text fill="black" stroke="none" font-family="sans-serif" font-size="11pt" font-style="normal" font-weight="normal" text-decoration="normal" x="225.2036088056302" y="2249.6339363119987" text-anchor="start" dominant-baseline="alphabetic" xml:space="preserve">showAndWait()</text></g><g><path fill="none" stroke="black" paint-order="fill stroke markers" d=" M 358.03297308310414 2256.670639271999 L 214.46731668202085 2256.670639271999" stroke-miterlimit="10" stroke-width="1.4659797833333332" stroke-dasharray=""/><g transform="translate(199.9834364226875,2256.670639271999) translate(-199.9834364226875,-2256.670639271999)"><path fill="black" stroke="none" paint-order="stroke fill markers" d=" M 214.64323425602083 2249.3407403553324 L 199.9834364226875 2256.670639271999 L 214.64323425602083 2264.0005381886654 Z"/></g></g><g><g><rect fill="white" stroke="none" x="128.13853005134374" y="2283.0582753719987" width="5.27752722" height="22.86928462"/></g><text fill="black" stroke="none" font-family="sans-serif" font-size="11pt" font-style="normal" font-weight="normal" text-decoration="normal" x="130.77729366134375" y="2298.8908570319986" text-anchor="start" dominant-baseline="alphabetic" xml:space="preserve"></text></g><g><path fill="none" stroke="black" paint-order="fill stroke markers" d=" M 182.3916790226875 2305.927559991999 L 93.64678855933333 2305.927559991999" stroke-miterlimit="10" stroke-width="1.4659797833333332" stroke-dasharray=""/><g transform="translate(79.1629083,2305.927559991999) translate(-79.1629083,-2305.927559991999)"><path fill="black" stroke="none" paint-order="stroke fill markers" d=" M 93.82270613333333 2298.5976610753323 L 79.1629083 2305.927559991999 L 93.82270613333333 2313.2574589086653 Z"/></g></g><g><g><rect fill="white" stroke="none" x="128.13853005134374" y="2332.3151960919986" width="5.27752722" height="22.86928462"/></g><text fill="black" stroke="none" font-family="sans-serif" font-size="11pt" font-style="normal" font-weight="normal" text-decoration="normal" x="130.77729366134375" y="2348.1477777519985" text-anchor="start" dominant-baseline="alphabetic" xml:space="preserve"></text></g><g><path fill="none" stroke="black" paint-order="fill stroke markers" d=" M 79.1629083 2355.1844807119987 L 167.90779876335415 2355.1844807119987" stroke-miterlimit="10" stroke-width="1.4659797833333332" stroke-dasharray="7.0367029599999995"/><g transform="translate(182.3916790226875,2355.1844807119987) translate(-182.3916790226875,-2355.1844807119987)"><path fill="black" stroke="none" paint-order="stroke fill markers" d=" M 167.73188118935417 2347.8545817953323 L 182.3916790226875 2355.1844807119987 L 167.73188118935417 2362.514379628665 Z"/></g></g><path fill="white" stroke="black" paint-order="fill stroke markers" d=" M 113.26633460633984 2381.5721168119985 L 253.27619917903516 2381.5721168119985 L 269.10878083903515 2397.4046984719985 L 269.10878083903515 2422.0331588319987 L 113.26633460633984 2422.0331588319987 L 113.26633460633984 2381.5721168119985 M 253.27619917903516 2381.5721168119985 L 253.27619917903516 2397.4046984719985 L 269.10878083903515 2397.4046984719985" stroke-miterlimit="10" stroke-width="1.4659797833333332" stroke-dasharray=""/><g><text fill="black" stroke="none" font-family="sans-serif" font-size="11pt" font-style="normal" font-weight="normal" text-decoration="normal" x="137.89479496633984" y="2406.2005771719987" text-anchor="start" dominant-baseline="alphabetic" xml:space="preserve">userselectsOK</text></g><g><g><rect fill="white" stroke="none" x="236.58420096955598" y="2448.4207949319984" width="84.84800756667968" height="22.86928462"/></g><text fill="black" stroke="none" font-family="sans-serif" font-size="11pt" font-style="normal" font-weight="normal" text-decoration="normal" x="239.222964579556" y="2464.2533765919984" text-anchor="start" dominant-baseline="alphabetic" xml:space="preserve">returnfalse</text></g><g><path fill="none" stroke="black" paint-order="fill stroke markers" d=" M 199.9834364226875 2471.2900795519986 L 343.5490928237708 2471.2900795519986" stroke-miterlimit="10" stroke-width="1.4659797833333332" stroke-dasharray="7.0367029599999995"/><g transform="translate(358.03297308310414,2471.2900795519986) translate(-358.03297308310414,-2471.2900795519986)"><path fill="black" stroke="none" paint-order="stroke fill markers" d=" M 343.3731752497708 2463.960180635332 L 358.03297308310414 2471.2900795519986 L 343.3731752497708 2478.619978468665 Z"/></g></g><g><g><rect fill="white" stroke="none" x="507.23186333505083" y="2497.6777156519984" width="84.84800756667968" height="22.86928462"/></g><text fill="black" stroke="none" font-family="sans-serif" font-size="11pt" font-style="normal" font-weight="normal" text-decoration="normal" x="509.87062694505084" y="2513.5102973119983" text-anchor="start" dominant-baseline="alphabetic" xml:space="preserve">returnfalse</text></g><g><path fill="none" stroke="black" paint-order="fill stroke markers" d=" M 375.62473048310414 2520.5470002719985 L 709.2031234943438 2520.5470002719985" stroke-miterlimit="10" stroke-width="1.4659797833333332" stroke-dasharray="7.0367029599999995"/><g transform="translate(723.6870037536771,2520.5470002719985) translate(-723.6870037536771,-2520.5470002719985)"><path fill="black" stroke="none" paint-order="stroke fill markers" d=" M 709.0272059203438 2513.217101355332 L 723.6870037536771 2520.5470002719985 L 709.0272059203438 2527.876899188665 Z"/></g></g><g><g><rect fill="white" stroke="none" x="547.0171035083907" y="2546.9346363719983" width="5.27752722" height="22.86928462"/></g><text fill="black" stroke="none" font-family="sans-serif" font-size="11pt" font-style="normal" font-weight="normal" text-decoration="normal" x="549.6558671183907" y="2562.7672180319983" text-anchor="start" dominant-baseline="alphabetic" xml:space="preserve"></text></g><g><path fill="none" stroke="black" paint-order="fill stroke markers" d=" M 723.6870037536771 2569.8039209919984 L 390.10861074243746 2569.8039209919984" stroke-miterlimit="10" stroke-width="1.4659797833333332" stroke-dasharray="7.0367029599999995"/><g transform="translate(375.62473048310414,2569.8039209919984) translate(-375.62473048310414,-2569.8039209919984)"><path fill="black" stroke="none" paint-order="stroke fill markers" d=" M 390.2845283164375 2562.474022075332 L 375.62473048310414 2569.8039209919984 L 390.2845283164375 2577.133819908665 Z"/></g></g><g><g><rect fill="white" stroke="none" x="215.95917708155204" y="2596.191557091998" width="5.27752722" height="22.86928462"/></g><text fill="black" stroke="none" font-family="sans-serif" font-size="11pt" font-style="normal" font-weight="normal" text-decoration="normal" x="218.59794069155205" y="2612.024138751998" text-anchor="start" dominant-baseline="alphabetic" xml:space="preserve"></text></g><g><path fill="none" stroke="black" paint-order="fill stroke markers" d=" M 358.03297308310414 2619.0608417119984 L 93.64678855933333 2619.0608417119984" stroke-miterlimit="10" stroke-width="1.4659797833333332" stroke-dasharray="7.0367029599999995"/><g transform="translate(79.1629083,2619.0608417119984) translate(-79.1629083,-2619.0608417119984)"><path fill="black" stroke="none" paint-order="stroke fill markers" d=" M 93.82270613333333 2611.730942795332 L 79.1629083 2619.0608417119984 L 93.82270613333333 2626.390740628665 Z"/></g></g><g><g/><path fill="none" stroke="black" paint-order="fill stroke markers" d=" M 670.9117315536771 322.63283071599994 L 1451.7177390052032 322.63283071599994 L 1451.7177390052032 517.9013378559998 L 670.9117315536771 517.9013378559998 L 670.9117315536771 322.63283071599994 Z" stroke-miterlimit="10" stroke-width="2.5131082" stroke-dasharray=""/><path fill="white" stroke="black" paint-order="fill stroke markers" d=" M 670.9117315536771 322.63283071599994 L 670.9117315536771 343.7429395959999 L 732.7970133214505 343.7429395959999 L 743.3520677614506 333.18788515599994 L 743.3520677614506 322.63283071599994 L 670.9117315536771 322.63283071599994" stroke-miterlimit="10" stroke-width="2.5131082" stroke-dasharray=""/><text fill="black" stroke="none" font-family="sans-serif" font-size="8.8pt" font-style="normal" font-weight="bold" text-decoration="normal" x="688.5034889536771" y="336.7062366359999" text-anchor="start" dominant-baseline="alphabetic" xml:space="preserve">loop</text></g><g><g/><path fill="none" stroke="black" paint-order="fill stroke markers" d=" M 670.9117315536771 741.316656836 L 900.0156526907214 741.316656836 L 900.0156526907214 860.9406071559999 L 670.9117315536771 860.9406071559999 L 670.9117315536771 741.316656836 Z" stroke-miterlimit="10" stroke-width="2.5131082" stroke-dasharray=""/><path fill="white" stroke="black" paint-order="fill stroke markers" d=" M 670.9117315536771 741.316656836 L 670.9117315536771 762.426765716 L 783.5830545812162 762.426765716 L 794.1381090212162 751.871711276 L 794.1381090212162 741.316656836 L 670.9117315536771 741.316656836" stroke-miterlimit="10" stroke-width="2.5131082" stroke-dasharray=""/><text fill="black" stroke="none" font-family="sans-serif" font-size="8.8pt" font-style="normal" font-weight="bold" text-decoration="normal" x="688.5034889536771" y="755.390062756" text-anchor="start" dominant-baseline="alphabetic" xml:space="preserve">expandable</text><text fill="black" stroke="none" font-family="sans-serif" font-size="8.8pt" font-style="normal" font-weight="bold" text-decoration="normal" x="811.7298664212162" y="755.390062756" text-anchor="start" dominant-baseline="alphabetic" xml:space="preserve">[Checkuserhasjurisdictionornot]</text></g><g><g/><path fill="none" stroke="black" paint-order="fill stroke markers" d=" M 17.591757400000006 1287.3648065319999 L 1979.1707499693268 1287.3648065319999 L 1979.1707499693268 2645.448477811998 L 17.591757400000006 2645.448477811998 L 17.591757400000006 1287.3648065319999 Z" stroke-miterlimit="10" stroke-width="2.5131082" stroke-dasharray=""/><path fill="white" stroke="black" paint-order="fill stroke markers" d=" M 17.591757400000006 1287.3648065319999 L 17.591757400000006 1308.474915412 L 67.87877256621094 1308.474915412 L 78.43382700621095 1297.919860972 L 78.43382700621095 1287.3648065319999 L 17.591757400000006 1287.3648065319999" stroke-miterlimit="10" stroke-width="2.5131082" stroke-dasharray=""/><text fill="black" stroke="none" font-family="sans-serif" font-size="8.8pt" font-style="normal" font-weight="bold" text-decoration="normal" x="35.183514800000005" y="1301.438212452" text-anchor="start" dominant-baseline="alphabetic" xml:space="preserve">alt</text><text fill="black" stroke="none" font-family="sans-serif" font-size="8.8pt" font-style="normal" font-weight="bold" text-decoration="normal" x="96.02558440621095" y="1301.438212452" text-anchor="start" dominant-baseline="alphabetic" xml:space="preserve">[caseYes]</text><g><path fill="none" stroke="black" paint-order="fill stroke markers" d=" M 17.591757400000006 2186.303609671999 L 1979.1707499693268 2186.303609671999" stroke-miterlimit="10" stroke-width="2.5131082" stroke-dasharray="4.39793935"/></g><g/><text fill="black" stroke="none" font-family="sans-serif" font-size="8.8pt" font-style="normal" font-weight="bold" text-decoration="normal" x="96.02558440621095" y="2200.3770155919988" text-anchor="start" dominant-baseline="alphabetic" xml:space="preserve">[caseNo]</text></g><g/></g><g/><g/><g/><g/><g/><g/><g/><g/><g/></g></svg>