<svg version="1.1" xmlns="http://www.w3.org/2000/svg" xmlns:xlink="http://www.w3.org/1999/xlink" width="1003" height="649"><defs/><g><g/><g/><g/><g/><g/><g/><g><rect fill="white" stroke="none" x="0" y="0" width="1003" height="649"/></g><g><text fill="black" stroke="none" font-family="sans-serif" font-size="16.5pt" font-style="normal" font-weight="normal" text-decoration="normal" x="469.0155151936523" y="26.3876361" text-anchor="start" dominant-baseline="alphabetic" xml:space="preserve">Log in</text></g><g/><g><path fill="none" stroke="black" paint-order="fill stroke markers" d=" M 79.1629083 139.67855375599999 L 79.1629083 649.839518356" stroke-miterlimit="10" stroke-width="1.4659797833333332" stroke-dasharray="13.532121076923076,5.863919133333333"/><path fill="none" stroke="black" paint-order="fill stroke markers" d=" M 291.38564747506507 139.67855375599999 L 291.38564747506507 649.839518356" stroke-miterlimit="10" stroke-width="1.4659797833333332" stroke-dasharray="13.532121076923076,5.863919133333333"/><path fill="none" stroke="black" paint-order="fill stroke markers" d=" M 634.3512410581379 139.67855375599999 L 634.3512410581379 649.839518356" stroke-miterlimit="10" stroke-width="1.4659797833333332" stroke-dasharray="13.532121076923076,5.863919133333333"/><path fill="none" stroke="black" paint-order="fill stroke markers" d=" M 959.3211681373045 139.67855375599999 L 959.3211681373045 649.839518356" stroke-miterlimit="10" stroke-width="1.4659797833333332" stroke-dasharray="13.532121076923076,5.863919133333333"/></g><g><g><path fill="white" stroke="black" paint-order="fill stroke markers" d=" M 89.190210018 65.265419954 A 10.027301717999999 10.027301717999999 0 1 1 89.19020500434955 65.25539265395321 M 79.1629083 75.29272167199998 L 79.1629083 96.75466569999998 M 66.496842972 83.033094928 L 91.828973628 83.033094928 M 79.1629083 96.75466569999998 L 66.496842972 116.80926913599998 M 79.1629083 96.75466569999998 L 91.828973628 116.80926913599998" stroke-miterlimit="10" stroke-width="2.990598758" stroke-dasharray=""/></g><g><g/><text fill="black" stroke="none" font-family="sans-serif" font-size="11pt" font-style="normal" font-weight="normal" text-decoration="normal" x="63.33971951826172" y="134.401026536" text-anchor="start" dominant-baseline="alphabetic" xml:space="preserve">User</text></g><g><path fill="white" stroke="black" paint-order="fill stroke markers" d=" M 326.30528591406505 89.19021001799997 A 26.123759739 26.123759739 0 1 1 326.3052728521863 89.16408626261492 M 257.9613084150651 61.57115089999997 L 257.9613084150651 116.80926913599997 M 256.4660090360651 89.19021001799997 L 274.0577664360651 89.19021001799997" stroke-miterlimit="10" stroke-width="2.990598758" stroke-dasharray=""/></g><g><g/><text fill="black" stroke="none" font-family="sans-serif" font-size="11pt" font-style="normal" font-weight="normal" text-decoration="normal" x="264.180912672819" y="134.401026536" text-anchor="start" dominant-baseline="alphabetic" xml:space="preserve">LoginUI</text></g><g><path fill="white" stroke="black" paint-order="fill stroke markers" d=" M 660.4750007971379 89.19021001799997 A 26.123759739 26.123759739 0 1 1 660.4749877352591 89.16408626261492 M 630.832889578138 63.06645027899997 L 641.387944018138 54.27057157899998 M 630.832889578138 63.06645027899997 L 641.387944018138 71.86232897899997" stroke-miterlimit="10" stroke-width="2.990598758" stroke-dasharray=""/></g><g><g/><text fill="black" stroke="none" font-family="sans-serif" font-size="11pt" font-style="normal" font-weight="normal" text-decoration="normal" x="589.8988408506184" y="134.401026536" text-anchor="start" dominant-baseline="alphabetic" xml:space="preserve">UserManage</text></g><g><path fill="white" stroke="black" paint-order="fill stroke markers" d=" M 933.6372023333046 105.19870925199999 L 933.6372023333046 68.25601871199999 L 985.0051339413045 68.25601871199999 L 985.0051339413045 105.19870925199999" stroke-miterlimit="10" stroke-width="2.990598758" stroke-dasharray=""/><path fill="white" stroke="black" paint-order="fill stroke markers" d=" M 985.0051339413045 66.97182042179999 L 985.0038497537159 67.08792408555635 L 984.9999973193679 67.20401613904309 L 984.9935770235006 67.3200849731516 L 984.9845895081382 67.43611898109519 L 984.9730356720249 67.55210655956978 L 984.9589166705347 67.66803610991414 L 984.9422339155558 67.78389603926989 L 984.9229890753498 67.8996747617406 L 984.9011840743849 68.01536069955054 L 984.8768210931429 68.1309422842023 L 984.8499025679016 68.24640795763378 L 984.8204311904911 68.3617461733738 L 984.7884099080246 68.47694539769695 L 984.7538419226037 68.59199411077678 L 984.716730690998 68.70688080783783 L 984.6770799243 68.82159400030618 L 984.634893587553 68.93612221695814 L 984.5901758993557 69.0504540050675 L 984.5429313314397 69.16457793155072 L 984.4931646082223 69.27848258411025 L 984.4408807063344 69.39215657237577 L 984.3860848541226 69.50558852904317 L 984.3287825311265 69.61876711101131 L 984.2689794675307 69.73168100051632 L 984.2066816435915 69.84431890626333 L 984.1418952890397 69.95666956455563 L 984.0746268824565 70.06872174042103 L 984.0048831506266 70.18046422873529 L 983.932671067865 70.29188585534273 L 983.85799785532 70.40297547817353 L 983.7808709802505 70.51372198835797 L 983.7012981552796 70.62411431133734 L 983.6192873376236 70.73414140797132 L 983.5348467282961 70.84379227564195 L 983.4479847712873 70.95305594935381 L 983.3587101527208 71.06192150283061 L 983.267031799984 71.1703780496077 L 983.1729588808357 71.27841474412082 L 983.0765008024896 71.38602078279051 L 982.9776672106728 71.4931854051026 L 982.8764679886625 71.59989789468413 L 982.7729132562964 71.7061475803751 L 982.6670133689615 71.81192383729548 L 982.5587789165583 71.9172160879077 L 982.4482207224415 72.02201380307447 L 982.3353498423389 72.12630650311159 L 982.2201775632442 72.23008375883597 L 982.1027154022893 72.33333519260853 L 981.9829751055925 72.43605047937191 L 981.8609686470836 72.53821934768304 L 981.7367082273068 72.63983158074024 L 981.6102062722006 72.74087701740487 L 981.4814754318551 72.84134555321748 L 981.3505285792469 72.94122714140819 L 981.2173788089523 73.04051179390143 L 981.0820394358374 73.13918958231469 L 980.9445239937265 73.23725063895135 L 980.8048462340494 73.33468515778748 L 980.6630201244657 73.43148339545236 L 980.519059847468 73.52763567220293 L 980.3729797989643 73.6231323728916 L 980.2247945868373 73.71796394792793 L 980.0745190294851 73.8121209142334 L 979.9221681543381 73.90559385618985 L 979.7677571963569 73.998373426581 L 979.6113015965085 74.09045034752711 L 979.4528170002226 74.18181541141281 L 979.2923192558267 74.27245948180787 L 979.1298244129615 74.36237349438078 L 978.9653487209758 74.45154845780519 L 978.798908627302 74.53997545465909 L 978.6305207758105 74.62764564231648 L 978.4602020051464 74.71455025383165 L 978.2879693470444 74.80068059881587 L 978.1138400246272 74.88602806430642 L 977.9378314506818 74.97058411562787 L 977.7599612259187 75.05434029724555 L 977.5802471372125 75.13728823361109 L 977.3987071558222 75.21941962999999 L 977.2153594355945 75.30072627334106 L 977.0302223111488 75.38120003303769 L 976.8433142960432 75.46083286178099 L 976.6546540809235 75.53961679635444 L 976.4642605316538 75.61754395843025 L 976.2721526874308 75.69460655535714 L 976.0783497588784 75.77079688093964 L 975.8828711261281 75.84610731620869 L 975.6857363368804 75.9205303301835 L 975.4869651044497 75.99405848062472 L 975.2865773057938 76.06668441477855 L 975.0845929795255 76.13840087011211 L 974.8810323239092 76.20920067503964 L 974.6759156948407 76.27907674963963 L 974.4692636038119 76.34802210636286 L 974.2610967158599 76.4160298507311 L 974.0514358475001 76.48309318202661 L 973.8403019646443 76.54920539397213 L 973.627716180505 76.61435987540155 L 973.4136997534836 76.67855011092104 L 973.1982740850442 76.74176968156053 L 972.9814607175742 76.80401226541565 L 972.7632813322298 76.86527163827986 L 972.5437577467676 76.92554167426694 L 972.3229119133633 76.98481634642351 L 972.1007659164161 77.04308972733178 L 971.8773419703406 77.10035598970217 L 971.6526624173453 77.15660940695618 L 971.4267497251981 77.21184435379898 L 971.1996264849802 77.26605530678191 L 970.9713154088261 77.31923684485484 L 970.7418393276533 77.37138364990828 L 970.5112211888786 77.42249050730518 L 970.2794840541239 77.4725523064024 L 970.0466510969094 77.52156404106174 L 969.8127456003367 77.56952081015058 L 969.5777909547606 77.61641781803196 L 969.3418106554501 77.6622503750442 L 969.1048283002382 77.70701389796976 L 968.866867587163 77.75070391049368 L 968.6279523120976 77.7933160436511 L 968.3881063663704 77.83484603626422 L 968.1473537343759 77.87528973536838 L 967.9057184911769 77.91464309662739 L 967.6632248000963 77.9529021847379 L 967.4198969103011 77.99006317382297 L 967.1757591543775 78.02612234781469 L 966.9308359458977 78.0610761008257 L 966.6851517769784 78.09492093750981 L 966.4387312158317 78.12765347341158 L 966.1915989043084 78.15927043530469 L 965.9437795554339 78.18976866151928 L 965.6952979509363 78.21914510225817 L 965.4461789387691 78.24739681990175 L 965.196447430626 78.27452098930179 L 964.9461283994495 78.30051489806398 L 964.6952468769343 78.32537594681908 L 964.4438279510235 78.34910164948295 L 964.1918967634002 78.37168963350508 L 963.9394785069733 78.39313764010592 L 963.6865984233579 78.41344352450264 L 963.4332818003518 78.43260525612375 L 963.1795539694061 78.45062091881205 L 962.9254403030925 78.46748871101629 L 962.6709662125659 78.48320694597129 L 962.4161571450232 78.49777405186667 L 962.161038581159 78.51118857200397 L 961.9056360326169 78.52344916494236 L 961.6499750394389 78.53455460463276 L 961.3940811675116 78.54450378054045 L 961.1379800060084 78.55329569775614 L 960.8816971648325 78.56092947709544 L 960.6252582720542 78.56740435518677 L 960.3686889713493 78.57271968454769 L 960.1120149194338 78.57687493364975 L 959.8552617834993 78.57986968697145 L 959.598455238645 78.58170364504 L 959.3416209653118 78.58237662446106 L 959.0847846467128 78.58188855793732 L 958.8279719662659 78.58023949427498 L 958.571208605025 78.57742959837903 L 958.3145202391125 78.57345915123673 L 958.0579325371509 78.56832854988951 L 957.8014711576966 78.56203830739318 L 957.5451617466739 78.5545890527668 L 957.2890299348103 78.54598153092958 L 957.0331013350734 78.53621660262655 L 956.7774015401101 78.5252952443424 L 956.5219561196866 78.51321854820387 L 956.2667906181323 78.4999877218705 L 956.0119305517845 78.48560408841388 L 955.7574014064377 78.4700690861854 L 955.5032286347941 78.45338426867232 L 955.2494376539192 78.4355513043425 L 954.9960538426996 78.41657197647748 L 954.743102539305 78.39644818299428 L 954.4906090386554 78.37518193625543 L 954.2385985898901 78.35277536286792 L 953.987096393844 78.32923070347039 L 953.7361276005273 78.30455031250918 L 953.4857173066101 78.2787366580028 L 953.235890552913 78.2517923212952 L 952.9866723219035 78.2237199967976 L 952.7380875351967 78.19452249171906 L 952.4901610510641 78.16420272578573 L 952.2429176619478 78.13276373094897 L 951.9963820919804 78.10020865108203 L 951.7505789945137 78.0665407416658 L 951.5055329496524 78.03176336946316 L 951.2612684617968 77.99588001218234 L 951.0178099571923 77.95889425812916 L 950.7751817814864 77.92080980584822 L 950.5334081972943 77.881630463753 L 950.2925133817731 77.84136014974506 L 950.0525214242037 77.80000289082224 L 949.8134563235817 77.75756282267598 L 949.5753419862181 77.71404418927773 L 949.338202223348 77.66945134245454 L 949.1020607487503 77.62378874145395 L 948.8669411763755 77.57706095249802 L 948.632867017985 77.52927264832667 L 948.3998616807994 77.48042860773052 L 948.1679484651586 77.43053371507293 L 947.9371505621905 77.37959295980157 L 947.7074910514934 77.32761143594954 L 947.4789928988268 77.27459434162587 L 947.2516789538156 77.22054697849586 L 947.0255719476648 77.16547475125074 L 946.8006944908868 77.10938316706736 L 946.5770690710398 77.0522778350574 L 946.3547180504792 76.99416446570646 L 946.1336636641221 76.93504887030305 L 945.9139280172226 76.87493696035746 L 945.6955330831626 76.81383474701059 L 945.4785007012532 76.75174834043284 L 945.262852574552 76.68868394921314 L 945.0486102676919 76.62464787973806 L 944.835795204725 76.5596465355612 L 944.6244286669801 76.49368641676277 L 944.414531790935 76.42677411929971 L 944.2061255661025 76.358916334346 L 943.9992308329313 76.2901198476236 L 943.7938682807222 76.22039153872383 L 943.5900584455594 76.14973838041949 L 943.3878217082566 76.07816743796754 L 943.187178292319 76.00568586840255 L 942.9881482619209 75.9323009198211 L 942.7907515198996 75.8580199306569 L 942.5950078057646 75.78285032894695 L 942.4009366937245 75.70679963158878 L 942.2085575907284 75.62987544358876 L 942.0178897345266 75.55208545730159 L 941.8289521917459 75.47343745166106 L 941.6417638559827 75.3939392914022 L 941.456343445915 75.31359892627479 L 941.272709503429 75.2324243902484 L 941.0908803917662 75.15042380070896 L 940.910874293686 75.06760535764712 L 940.7327092096484 74.98397734283817 L 940.5564029560131 74.89954811901389 L 940.3819731632589 74.8143261290263 L 940.2094372742192 74.72831989500338 L 940.0388125423397 74.64153801749687 L 939.870116029951 74.5539891746222 L 939.7033646065638 74.46568212119071 L 939.5385749471816 74.37662568783415 L 939.375763530633 74.28682878012162 L 939.214946637924 74.19630037766909 L 939.0561403506097 74.10504953324134 L 938.8993605491867 74.0130853718468 L 938.7446229115043 73.92041708982494 L 938.5919429111975 73.82705395392676 L 938.4413358161389 73.73300530038806 L 938.2928166869128 73.63828053399578 L 938.1464003753081 73.54288912714766 L 938.002101522834 73.44684061890487 L 937.8599345592554 73.3501446140382 L 937.7199137011504 73.25281078206757 L 937.5820529504881 73.15484885629505 L 937.4463660932286 73.05626863283157 L 937.3128666979445 72.95707996961737 L 937.1815681144641 72.85729278543607 L 937.0524834725364 72.75691705892295 L 936.9256256805181 72.65596282756702 L 936.8010074240825 72.5544401867073 L 936.6786411649516 72.45235928852324 L 936.5585391396492 72.34973034101961 L 936.4407133582777 72.24656360700563 L 936.3251756033171 72.14286940306874 L 936.2119374284466 72.03865809854291 L 936.1010101573895 71.93394011447177 L 935.9924048827802 71.82872592256643 L 935.8861324650559 71.72302604415843 L 935.7822035313695 71.61685104914753 L 935.6806284745281 71.51021155494473 L 935.5814174519527 71.4031182254106 L 935.4845803846625 71.29558176978884 L 935.390126956284 71.1876129416354 L 935.2980666120811 71.07922253774314 L 935.2084085580116 70.9704213970621 L 935.121161759806 70.86122039961568 L 935.0363349420717 70.75163046541265 L 934.9539365874194 70.64166255335508 L 934.8739749356163 70.53132766014255 L 934.7964579827608 70.42063681917243 L 934.7213934804835 70.30960109943658 L 934.6487889351721 70.19823160441445 L 934.5786516072208 70.0865394709627 L 934.5109885103036 69.97453586820164 L 934.4458064106742 69.86223199639821 L 934.383111826488 69.74963908584596 L 934.3229110271512 69.63676839574217 L 934.2652100326936 69.52363121306175 L 934.2100146131667 69.41023885142872 L 934.1573302880662 69.29660264998472 L 934.1071623257809 69.18273397225522 L 934.059515743065 69.0686442050131 L 934.0143953045374 68.95434475714 L 933.9718055222041 68.83984705848547 L 933.9317506550079 68.72516255872397 L 933.8942347084022 68.61030272620987 L 933.8592614339503 68.49527904683073 L 933.8268343289506 68.38010302285863 L 933.7969566360864 68.2647861718 L 933.7696313431023 68.14934002524383 L 933.7448611825048 68.03377612770858 L 933.7226486312892 67.9181060354877 L 933.7029959106922 67.80234131549402 L 933.6859049859695 67.68649354410306 L 933.6713775661992 67.57057430599544 L 933.6594151041113 67.45459519299835 L 933.650018795942 67.33856780292646 L 933.6431895813142 67.22250373842208 L 933.6389281431439 67.10641460579494 L 933.637234907571 66.99031201386155 L 933.638110043918 66.87420757278437 L 933.6415534646719 66.75811289291076 L 933.6475648254934 66.64203958361193 L 933.6561435252515 66.52599925212212 L 933.6672887060834 66.41000350237775 L 933.6809992534802 66.29406393385715 L 933.6972737963987 66.17819214042055 L 933.7161107073981 66.06239970915072 L 933.737508102803 65.94669821919432 L 933.7614638428917 65.8310992406039 L 933.7879755321102 65.71561433318102 L 933.8170405193115 65.60025504532017 L 933.8486558980213 65.48503291285398 L 933.8828185067281 65.36995945789971 L 933.9195249291993 65.25504618770695 L 933.9587714948234 65.14030459350695 L 934.0005542789764 65.02574614936354 L 934.0448691034148 64.91138231102563 L 934.0917115366932 64.79722451478179 L 934.1410768946071 64.68328417631649 L 934.1929602406619 64.56957268956862 L 934.2473563865664 64.45610142559212 L 934.304259892751 64.3428817314188 L 934.3636650689128 64.22992492892377 L 934.4255659745837 64.1172423136931 L 934.4899564197244 64.00484515389444 L 934.5568299653444 63.89274468915009 L 934.6261799241447 63.78095212941312 L 934.6979993611872 63.66947865384635 L 934.772281094588 63.558335409704426 L 934.8490176962358 63.447533511219156 L 934.9282014925344 63.337084038488044 L 935.00982456517 63.226998036366325 L 935.0938787519034 63.11728651336247 L 935.180355647386 63.00796044053737 L 935.2692466040004 62.899030750407185 L 935.3605427327248 62.790508335850156 L 935.4542349040225 62.682404049017315 L 935.5503137487547 62.57472870024724 L 935.6487696591166 62.4674930569851 L 935.7495927895994 62.36070784270584 L 935.8527730579742 62.25438373584191 L 935.9583001462998 62.148531368715396 L 936.0661635019557 62.04316132647479 L 936.1763523386959 61.938284146036516 L 936.2888556377287 61.83391031503122 L 936.403662148818 61.73005027075502 L 936.5207603914082 61.6267143991258 L 936.6401386557728 61.52391303364461 L 936.7617850041847 61.42165645436233 L 936.8856872721104 61.31995488685167 L 937.0118330694266 61.21881850118463 L 937.1402097816585 61.1182574109155 L 937.2708045712419 61.018281672069506 L 937.4036043788066 60.91890128213721 L 937.5385959244826 60.82012617907481 L 937.6757657092278 60.72196624031029 L 937.8151000161781 60.62443128175571 L 937.9565849120188 60.52753105682567 L 938.1002062483783 60.431275255461905 L 938.2459496632425 60.33567350316434 L 938.3938005823916 60.24073536002853 L 938.5437442208568 60.14647031978968 L 938.695765584399 60.05288780887326 L 938.8498494710088 59.959997185452366 L 939.0059804724259 59.86780773851195 L 939.1641429756803 59.77632868691987 L 939.3243211646533 59.68556917850505 L 939.4864990216596 59.59553828914271 L 939.6506603290486 59.50624502184675 L 939.8167886708263 59.41769830586949 L 939.9848674342973 59.32990699580875 L 940.1548798117249 59.24287987072236 L 940.3268088020131 59.15662563325033 L 940.5006372124064 59.0711529087445 L 940.6763476602085 58.986470244406114 L 940.853922574521 58.90258610843103 L 941.0333441980003 58.81950888916295 L 941.214594588634 58.737246894254554 L 941.3976556215335 58.65580834983679 L 941.5825089907486 58.57520139969624 L 941.7691362110961 58.49543410446074 L 941.9575186200096 58.41651444079334 L 942.1476373794052 58.33845030059465 L 942.3394734775653 58.26124949021362 L 942.53300773104 58.18491972966697 L 942.7282207865653 58.10946865186714 L 942.9250931229982 58.03490380185903 L 943.1236050532692 57.96123263606552 L 943.3237367263507 57.88846252154177 L 943.5254681292421 57.816600735238616 L 943.7287790889714 57.74565446327479 L 943.9336492746118 57.67563080021837 L 944.1400581993155 57.60653674837731 L 944.3479852223622 57.53837921709922 L 944.5574095512228 57.47116502208042 L 944.7683102436389 57.40490088468441 L 944.9806662097171 57.3395934312697 L 945.1944562140376 57.27524919252721 L 945.4096588777783 57.21187460282721 L 945.626252680852 57.14947599957584 L 945.8442159640589 57.088059622581426 L 946.0635269312523 57.02763161343051 L 946.2841636515185 56.96819801487362 L 946.5061040613691 56.9097647702211 L 946.7293259669481 56.85233772274873 L 946.9538070462509 56.79592261511338 L 947.1795248513567 56.74052508877882 L 947.4064568106731 56.6861506834515 L 947.6345802311934 56.63280483652666 L 947.8638723007655 56.58049288254453 L 948.0943100903734 56.52922005265691 L 948.3258705564303 56.47899147410408 L 948.5585305430827 56.42981216970201 L 948.7922667845256 56.38168705734017 L 949.0270559073298 56.334620949489704 L 949.2628744327786 56.28861855272216 L 949.4996987792159 56.24368446723889 L 949.7375052644045 56.199823186410995 L 949.976270107894 56.157039096329996 L 950.2159694333992 56.11533647536926 L 950.456579271187 56.07471949375613 L 950.6980755604743 56.035192213154914 L 950.9404341518334 55.99675858626073 L 951.1836308096072 55.959422456404255 L 951.4276412143324 55.923187557167346 L 951.6724409651721 55.88805751200974 L 951.918005582355 55.85403583390668 L 952.1643105096241 55.82112592499761 L 952.411331116692 55.78933107624601 L 952.6590427017038 55.758654467110254 L 952.9074204937074 55.72909916522569 L 953.1564396551305 55.70066812609789 L 953.4060752842646 55.67336419280706 L 953.6563024177548 55.64719009572377 L 953.9070960330963 55.62214845223594 L 954.1584310511364 55.598241766487035 L 954.4102823385829 55.57547242912571 L 954.6626247105169 55.55384271706673 L 954.9154329329115 55.533354793263264 L 955.168681725155 55.51401070649064 L 955.4223457625794 55.4958123911414 L 955.6763996789923 55.47876166703191 L 955.9308180692136 55.46286023922039 L 956.1855754916165 55.44810969783636 L 956.440646470671 55.434511517921656 L 956.6960054994918 55.42206705928295 L 956.9516270423886 55.41077756635575 L 957.2074855374204 55.40064416807991 L 957.4635553989508 55.39166787778682 L 957.719811020207 55.38384959309805 L 957.9762267758404 55.37719009583553 L 958.2327770244892 55.37169005194345 L 958.4894361113423 55.36735001142162 L 958.7461783707049 55.36417040827046 L 959.0029781285649 55.36215156044765 L 959.2598097051607 55.36129366983628 L 959.5166474175486 55.3615968222247 L 959.7734655821714 55.363060987297914 L 960.0302385174266 55.36568601864066 L 960.2869405462346 55.369471653751965 L 960.5435459986066 55.37441751407148 L 960.8000292142111 55.3805231050173 L 961.0563645449403 55.38778781603543 L 961.3125263574747 55.39621092066079 L 961.5684890358466 55.40579157658996 L 961.8242269840014 55.41652882576533 L 962.0797146283572 55.428421594470926 L 962.3349264203629 55.44146869343979 L 962.5898368390517 55.45566881797289 L 962.8444203935942 55.47102054806961 L 963.0986516258471 55.48752234856974 L 963.352505112899 55.50517256930697 L 963.6059554696129 55.52396944527395 L 963.8589773511641 55.54391109679874 L 964.1115454555754 55.56499552973279 L 964.363634526247 55.587220635650404 L 964.6152193544816 55.61058419205949 L 964.8662747820061 55.63508386262389 L 965.1167757034872 55.660717197396956 L 965.3666970690413 55.687481633066575 L 965.6160138867401 55.715374493211485 L 965.8647012251097 55.744392988568904 L 966.1127342156234 55.7745342173135 L 966.360088055189 55.8057951653475 L 966.6067380086284 55.83817270660215 L 966.852659411152 55.871663603350314 L 967.0978276708245 55.90626450653023 L 967.3422182710242 55.941971956080394 L 967.5858067728946 55.97878238128563 L 967.8285688177887 56.01669210113408 L 968.0704801297042 56.055697324685354 L 968.3115165177114 56.095794151449596 L 968.5516538783727 56.136978571777554 L 968.7908681981519 56.17924646726151 L 969.0291355558163 56.22259361114713 L 969.2664321248288 56.267015668756166 L 969.5027341757303 56.31250819791986 L 969.7380180785126 56.35906664942321 L 969.9722603049814 56.40668636745987 L 970.2054374311094 56.455362590097714 L 970.4375261393782 56.505090449755045 L 970.6685032211103 56.55586497368733 L 970.8983455787901 56.60768108448449 L 971.1270302283734 56.66053360057863 L 971.3545343015858 56.71441723676219 L 971.5808350482096 56.76932660471643 L 971.8059098383585 56.82525621355034 L 972.0297361647414 56.88220047034963 L 972.2522916449119 56.940153680736074 L 972.4735540235075 56.999110049436936 L 972.6935011744748 57.05906368086447 L 972.912111103282 57.120008579705484 L 973.1293619491183 57.1819386515209 L 973.3452319870802 57.244847703355134 L 973.5596996303439 57.308729444355436 L 973.7727434323235 57.373577486400926 L 973.9843420888167 57.439385344741446 L 974.1944744401341 57.506146438646006 L 974.4031194732154 57.57385409206084 L 974.6102563237314 57.642501534277045 L 974.8158642781697 57.712081900607586 L 975.019922775906 57.78258823307383 L 975.2224114112609 57.854013481101276 L 975.4233099355392 57.92635050222464 L 975.6225982590562 57.99959206280211 L 975.8202564531455 58.07373083873863 L 976.0162647521523 58.14875941621842 L 976.2106035554102 58.224670292446234 L 976.4032534292008 58.30145587639771 L 976.5941951086972 58.379108489578456 L 976.7834094998907 58.45762036679186 L 976.9708776814996 58.53698365691561 L 977.1565809068622 58.61719042368684 L 977.3405006058107 58.698232646495725 L 977.5226183865284 58.7801022211875 L 977.702916037389 58.86279096087293 L 977.8813755287775 58.94629059674695 L 978.0579790148938 59.03059277891555 L 978.2327088355362 59.115689077230776 L 978.4055475178684 59.2015709821337 L 978.5764777781662 59.2882299055054 L 978.7454825235459 59.375657181525774 L 978.9125448536738 59.46384406754005 L 979.0776480624562 59.55278174493313 L 979.2407756397098 59.642461320011385 L 979.4019112728128 59.73287382489204 L 979.561038848336 59.82401021839995 L 979.7181424536548 59.91586138697171 L 979.8732063785392 60.008418145567006 L 980.0262151167262 60.10167123858711 L 980.1771533674694 60.195611340800426 L 980.3260060370695 60.29022905827503 L 980.4727582403837 60.385514929318006 L 980.6173953023136 60.48145942542166 L 980.759902759274 60.57805295221634 L 980.9002663606377 60.67528585042985 L 981.0384720701617 60.77314839685341 L 981.17450606739 60.87163080531391 L 981.3083547490363 60.97072322765259 L 981.4400047303441 61.07041575470979 L 981.5694428464249 61.170698417315876 L 981.696656153575 61.271561187288164 L 981.8216319305695 61.3729939784337 L 981.9443576799351 61.47498664755789 L 982.064821129199 61.577528995478836 L 982.1830102321168 61.68061076804718 L 982.2989131698764 61.78422165717158 L 982.4125183522809 61.88835130184945 L 982.5238144189067 61.99298928920311 L 982.6327902402397 62.09812515552101 L 982.7394349187888 62.203748387304145 L 982.8437377901748 62.30984842231735 L 982.9456884241977 62.416414650645535 L 983.0452766258788 62.52343641575468 L 983.1424924364811 62.63090301555746 L 983.2373261345047 62.73880370348344 L 983.3297682366584 62.847127689553744 L 983.4198094988094 62.95586414146005 L 983.5074409169064 63.065002185647764 L 983.5926537278806 63.174530908403426 L 983.6754394105218 63.28443935694603 L 983.7557896863309 63.39471654052231 L 983.8336965203472 63.50535143150581 L 983.9091521219523 63.61633296649962 L 983.9821489456488 63.72765004744274 L 984.0526796918152 63.83929154271982 L 984.1207373074358 63.951246288274376 L 984.1863149868054 64.06350308872516 L 984.2494061722111 64.17605071848564 L 984.3100045545867 64.28887792288667 L 984.3681040741446 64.40197341930181 L 984.4236989209812 64.51532589827566 L 984.4767835356581 64.6289240246548 L 984.527352609758 64.74275643872124 L 984.5754010864159 64.85681175732844 L 984.620924160824 64.97107857503958 L 984.6639172807128 65.08554546526814 L 984.7043761468061 65.20020098142045 L 984.7422967132511 65.31503365804045 L 984.7776751880226 65.43003201195617 L 984.8105080333029 65.54518454342806 L 984.8407919658345 65.66047973729893 L 984.8685239572495 65.77590606414547 L 984.893701234372 65.89145198143119 L 984.9163212794952 66.00710593466063 L 984.9363818306332 66.12285635853486 L 984.953880881748 66.23869167810795 L 984.9688166829488 66.35460030994449 L 984.981187740668 66.47057066327784 L 984.9909928178103 66.58659114116935 L 984.9982309338758 66.70265014166789 L 985.0029013650592 66.81873605897015 L 985.0050036443212 66.9348372845811 M 985.0051339413045 103.91451096179999 L 985.0038497537159 104.03061462555635 L 984.9999973193679 104.14670667904309 L 984.9935770235006 104.2627755131516 L 984.9845895081382 104.37880952109519 L 984.9730356720249 104.49479709956978 L 984.9589166705347 104.61072664991414 L 984.9422339155558 104.72658657926989 L 984.9229890753498 104.8423653017406 L 984.9011840743849 104.95805123955054 L 984.8768210931429 105.0736328242023 L 984.8499025679016 105.18909849763378 L 984.8204311904911 105.3044367133738 L 984.7884099080246 105.41963593769695 L 984.7538419226037 105.53468465077678 L 984.716730690998 105.64957134783783 L 984.6770799243 105.76428454030618 L 984.634893587553 105.87881275695814 L 984.5901758993557 105.9931445450675 L 984.5429313314397 106.10726847155073 L 984.4931646082223 106.22117312411025 L 984.4408807063344 106.33484711237577 L 984.3860848541226 106.44827906904317 L 984.3287825311265 106.56145765101131 L 984.2689794675307 106.67437154051632 L 984.2066816435915 106.78700944626333 L 984.1418952890397 106.89936010455563 L 984.0746268824565 107.01141228042103 L 984.0048831506266 107.12315476873529 L 983.932671067865 107.23457639534273 L 983.85799785532 107.34566601817353 L 983.7808709802505 107.45641252835797 L 983.7012981552796 107.56680485133734 L 983.6192873376236 107.67683194797132 L 983.5348467282961 107.78648281564195 L 983.4479847712873 107.89574648935381 L 983.3587101527208 108.00461204283062 L 983.267031799984 108.1130685896077 L 983.1729588808357 108.22110528412082 L 983.0765008024896 108.32871132279051 L 982.9776672106728 108.4358759451026 L 982.8764679886625 108.54258843468413 L 982.7729132562964 108.6488381203751 L 982.6670133689615 108.75461437729548 L 982.5587789165583 108.8599066279077 L 982.4482207224415 108.96470434307447 L 982.3353498423389 109.0689970431116 L 982.2201775632442 109.17277429883598 L 982.1027154022893 109.27602573260853 L 981.9829751055925 109.37874101937192 L 981.8609686470836 109.48090988768304 L 981.7367082273068 109.58252212074024 L 981.6102062722006 109.68356755740487 L 981.4814754318551 109.78403609321748 L 981.3505285792469 109.88391768140819 L 981.2173788089523 109.98320233390143 L 981.0820394358374 110.08188012231469 L 980.9445239937265 110.17994117895135 L 980.8048462340494 110.27737569778748 L 980.6630201244657 110.37417393545236 L 980.519059847468 110.47032621220293 L 980.3729797989643 110.5658229128916 L 980.2247945868373 110.66065448792793 L 980.0745190294851 110.7548114542334 L 979.9221681543381 110.84828439618985 L 979.7677571963569 110.941063966581 L 979.6113015965085 111.03314088752711 L 979.4528170002226 111.12450595141281 L 979.2923192558267 111.21515002180787 L 979.1298244129615 111.30506403438078 L 978.9653487209758 111.39423899780519 L 978.798908627302 111.48266599465909 L 978.6305207758105 111.57033618231648 L 978.4602020051464 111.65724079383165 L 978.2879693470444 111.74337113881587 L 978.1138400246272 111.82871860430642 L 977.9378314506818 111.91327465562787 L 977.7599612259187 111.99703083724555 L 977.5802471372125 112.07997877361109 L 977.3987071558222 112.16211016999999 L 977.2153594355945 112.24341681334106 L 977.0302223111488 112.32389057303769 L 976.8433142960432 112.40352340178099 L 976.6546540809235 112.48230733635444 L 976.4642605316538 112.56023449843025 L 976.2721526874308 112.63729709535714 L 976.0783497588784 112.71348742093964 L 975.8828711261281 112.78879785620869 L 975.6857363368804 112.8632208701835 L 975.4869651044497 112.93674902062472 L 975.2865773057938 113.00937495477855 L 975.0845929795255 113.08109141011211 L 974.8810323239092 113.15189121503964 L 974.6759156948407 113.22176728963963 L 974.4692636038119 113.29071264636286 L 974.2610967158599 113.35872039073111 L 974.0514358475001 113.42578372202661 L 973.8403019646443 113.49189593397213 L 973.627716180505 113.55705041540155 L 973.4136997534836 113.62124065092104 L 973.1982740850442 113.68446022156053 L 972.9814607175742 113.74670280541565 L 972.7632813322298 113.80796217827987 L 972.5437577467676 113.86823221426694 L 972.3229119133633 113.92750688642352 L 972.1007659164161 113.98578026733178 L 971.8773419703406 114.04304652970217 L 971.6526624173453 114.09929994695618 L 971.4267497251981 114.15453489379898 L 971.1996264849802 114.20874584678191 L 970.9713154088261 114.26192738485484 L 970.7418393276533 114.31407418990828 L 970.5112211888786 114.36518104730519 L 970.2794840541239 114.4152428464024 L 970.0466510969094 114.46425458106174 L 969.8127456003367 114.51221135015058 L 969.5777909547606 114.55910835803196 L 969.3418106554501 114.6049409150442 L 969.1048283002382 114.64970443796976 L 968.866867587163 114.69339445049368 L 968.6279523120976 114.7360065836511 L 968.3881063663704 114.77753657626423 L 968.1473537343759 114.81798027536838 L 967.9057184911769 114.85733363662739 L 967.6632248000963 114.8955927247379 L 967.4198969103011 114.93275371382298 L 967.1757591543775 114.96881288781469 L 966.9308359458977 115.0037666408257 L 966.6851517769784 115.03761147750981 L 966.4387312158317 115.07034401341159 L 966.1915989043084 115.10196097530469 L 965.9437795554339 115.13245920151928 L 965.6952979509363 115.16183564225817 L 965.4461789387691 115.19008735990175 L 965.196447430626 115.21721152930179 L 964.9461283994495 115.24320543806398 L 964.6952468769343 115.26806648681908 L 964.4438279510235 115.29179218948295 L 964.1918967634002 115.31438017350509 L 963.9394785069733 115.33582818010592 L 963.6865984233579 115.35613406450264 L 963.4332818003518 115.37529579612375 L 963.1795539694061 115.39331145881205 L 962.9254403030925 115.41017925101629 L 962.6709662125659 115.42589748597129 L 962.4161571450232 115.44046459186667 L 962.161038581159 115.45387911200397 L 961.9056360326169 115.46613970494236 L 961.6499750394389 115.47724514463276 L 961.3940811675116 115.48719432054045 L 961.1379800060084 115.49598623775614 L 960.8816971648325 115.50362001709544 L 960.6252582720542 115.51009489518677 L 960.3686889713493 115.5154102245477 L 960.1120149194338 115.51956547364975 L 959.8552617834993 115.52256022697145 L 959.598455238645 115.52439418504 L 959.3416209653118 115.52506716446106 L 959.0847846467128 115.52457909793732 L 958.8279719662659 115.52293003427498 L 958.571208605025 115.52012013837903 L 958.3145202391125 115.51614969123673 L 958.0579325371509 115.51101908988952 L 957.8014711576966 115.50472884739318 L 957.5451617466739 115.4972795927668 L 957.2890299348103 115.48867207092958 L 957.0331013350734 115.47890714262655 L 956.7774015401101 115.4679857843424 L 956.5219561196866 115.45590908820387 L 956.2667906181323 115.4426782618705 L 956.0119305517845 115.42829462841388 L 955.7574014064377 115.4127596261854 L 955.5032286347941 115.39607480867232 L 955.2494376539192 115.3782418443425 L 954.9960538426996 115.35926251647749 L 954.743102539305 115.33913872299428 L 954.4906090386554 115.31787247625543 L 954.2385985898901 115.29546590286792 L 953.987096393844 115.27192124347039 L 953.7361276005273 115.24724085250918 L 953.4857173066101 115.2214271980028 L 953.235890552913 115.1944828612952 L 952.9866723219035 115.1664105367976 L 952.7380875351967 115.13721303171906 L 952.4901610510641 115.10689326578573 L 952.2429176619478 115.07545427094897 L 951.9963820919804 115.04289919108203 L 951.7505789945137 115.0092312816658 L 951.5055329496524 114.97445390946316 L 951.2612684617968 114.93857055218234 L 951.0178099571923 114.90158479812916 L 950.7751817814864 114.86350034584822 L 950.5334081972943 114.824321003753 L 950.2925133817731 114.78405068974506 L 950.0525214242037 114.74269343082224 L 949.8134563235817 114.70025336267598 L 949.5753419862181 114.65673472927773 L 949.338202223348 114.61214188245454 L 949.1020607487503 114.56647928145395 L 948.8669411763755 114.51975149249802 L 948.632867017985 114.47196318832667 L 948.3998616807994 114.42311914773052 L 948.1679484651586 114.37322425507293 L 947.9371505621905 114.32228349980157 L 947.7074910514934 114.27030197594954 L 947.4789928988268 114.21728488162587 L 947.2516789538156 114.16323751849586 L 947.0255719476648 114.10816529125074 L 946.8006944908868 114.05207370706736 L 946.5770690710398 113.9949683750574 L 946.3547180504792 113.93685500570646 L 946.1336636641221 113.87773941030305 L 945.9139280172226 113.81762750035746 L 945.6955330831626 113.75652528701059 L 945.4785007012532 113.69443888043284 L 945.262852574552 113.63137448921314 L 945.0486102676919 113.56733841973806 L 944.835795204725 113.5023370755612 L 944.6244286669801 113.43637695676277 L 944.414531790935 113.36946465929971 L 944.2061255661025 113.301606874346 L 943.9992308329313 113.2328103876236 L 943.7938682807222 113.16308207872383 L 943.5900584455594 113.0924289204195 L 943.3878217082566 113.02085797796754 L 943.187178292319 112.94837640840255 L 942.9881482619209 112.8749914598211 L 942.7907515198996 112.8007104706569 L 942.5950078057646 112.72554086894695 L 942.4009366937245 112.64949017158878 L 942.2085575907284 112.57256598358876 L 942.0178897345266 112.49477599730159 L 941.8289521917459 112.41612799166106 L 941.6417638559827 112.3366298314022 L 941.456343445915 112.2562894662748 L 941.272709503429 112.1751149302484 L 941.0908803917662 112.09311434070896 L 940.910874293686 112.01029589764713 L 940.7327092096484 111.92666788283817 L 940.5564029560131 111.84223865901389 L 940.3819731632589 111.7570166690263 L 940.2094372742192 111.67101043500338 L 940.0388125423397 111.58422855749687 L 939.870116029951 111.4966797146222 L 939.7033646065638 111.40837266119071 L 939.5385749471816 111.31931622783415 L 939.375763530633 111.22951932012163 L 939.214946637924 111.13899091766909 L 939.0561403506097 111.04774007324134 L 938.8993605491867 110.9557759118468 L 938.7446229115043 110.86310762982494 L 938.5919429111975 110.76974449392677 L 938.4413358161389 110.67569584038806 L 938.2928166869128 110.58097107399578 L 938.1464003753081 110.48557966714766 L 938.002101522834 110.38953115890487 L 937.8599345592554 110.2928351540382 L 937.7199137011504 110.19550132206757 L 937.5820529504881 110.09753939629505 L 937.4463660932286 109.99895917283158 L 937.3128666979445 109.89977050961737 L 937.1815681144641 109.79998332543607 L 937.0524834725364 109.69960759892295 L 936.9256256805181 109.59865336756702 L 936.8010074240825 109.4971307267073 L 936.6786411649516 109.39504982852324 L 936.5585391396492 109.29242088101961 L 936.4407133582777 109.18925414700563 L 936.3251756033171 109.08555994306874 L 936.2119374284466 108.98134863854291 L 936.1010101573895 108.87663065447177 L 935.9924048827802 108.77141646256644 L 935.8861324650559 108.66571658415843 L 935.7822035313695 108.55954158914753 L 935.6806284745281 108.45290209494473 L 935.5814174519527 108.3458087654106 L 935.4845803846625 108.23827230978884 L 935.390126956284 108.1303034816354 L 935.2980666120811 108.02191307774314 L 935.2084085580116 107.9131119370621 L 935.121161759806 107.80391093961568 L 935.0363349420717 107.69432100541265 L 934.9539365874194 107.58435309335508 L 934.8739749356163 107.47401820014255 L 934.7964579827608 107.36332735917243 L 934.7213934804835 107.25229163943658 L 934.6487889351721 107.14092214441445 L 934.5786516072208 107.0292300109627 L 934.5109885103036 106.91722640820164 L 934.4458064106742 106.80492253639821 L 934.383111826488 106.69232962584596 L 934.3229110271512 106.57945893574217 L 934.2652100326936 106.46632175306175 L 934.2100146131667 106.35292939142872 L 934.1573302880662 106.23929318998472 L 934.1071623257809 106.12542451225522 L 934.059515743065 106.0113347450131 L 934.0143953045374 105.89703529714001 L 933.9718055222041 105.78253759848548 L 933.9317506550079 105.66785309872397 L 933.8942347084022 105.55299326620987 L 933.8592614339503 105.43796958683073 L 933.8268343289506 105.32279356285864 L 933.7969566360864 105.2074767118 L 933.7696313431023 105.09203056524383 L 933.7448611825048 104.97646666770858 L 933.7226486312892 104.8607965754877 L 933.7029959106922 104.74503185549402 L 933.6859049859695 104.62918408410306 L 933.6713775661992 104.51326484599544 L 933.6594151041113 104.39728573299836 L 933.650018795942 104.28125834292646 L 933.6431895813142 104.16519427842208 L 933.6389281431439 104.04910514579494 L 933.637234907571 103.93300255386156" stroke-miterlimit="10" stroke-width="2.990598758" stroke-dasharray=""/></g><g><g/><text fill="black" stroke="none" font-family="sans-serif" font-size="11pt" font-style="normal" font-weight="normal" text-decoration="normal" x="949.1386272437499" y="134.401026536" text-anchor="start" dominant-baseline="alphabetic" xml:space="preserve">DB</text></g></g><g><path fill="white" stroke="black" paint-order="fill stroke markers" d=" M 625.5553623581379 246.98827389599995 L 643.1471197581379 246.98827389599995 L 643.1471197581379 588.268367456 L 625.5553623581379 588.268367456 L 625.5553623581379 246.98827389599995" stroke-miterlimit="10" stroke-width="1.4659797833333332" stroke-dasharray=""/><g><g><rect fill="white" stroke="none" x="99.97982122333333" y="174.86206855599997" width="170.58891332839843" height="22.86928462"/></g><text fill="black" stroke="none" font-family="sans-serif" font-size="11pt" font-style="normal" font-weight="normal" text-decoration="normal" x="102.61858483333333" y="190.69465021599999" text-anchor="start" dominant-baseline="alphabetic" xml:space="preserve">login(userID, password)</text></g><g><path fill="none" stroke="black" paint-order="fill stroke markers" d=" M 79.1629083 197.73135317599997 L 276.90176721573175 197.73135317599997" stroke-miterlimit="10" stroke-width="1.4659797833333332" stroke-dasharray=""/><g transform="translate(291.38564747506507,197.73135317599997) translate(-291.38564747506507,-197.73135317599997)"><path fill="black" stroke="none" paint-order="stroke fill markers" d=" M 276.7258496417317 190.4014542593333 L 291.38564747506507 197.73135317599997 L 276.7258496417317 205.06125209266665 Z"/></g></g><g><g><rect fill="white" stroke="none" x="312.20256039839836" y="224.11898927599995" width="292.5358890364063" height="22.86928462"/></g><text fill="black" stroke="none" font-family="sans-serif" font-size="11pt" font-style="normal" font-weight="normal" text-decoration="normal" x="314.8413240083984" y="239.95157093599997" text-anchor="start" dominant-baseline="alphabetic" xml:space="preserve">transmit(String: userID, String: password)</text></g><g><path fill="none" stroke="black" paint-order="fill stroke markers" d=" M 291.38564747506507 246.98827389599995 L 611.0714820988046 246.98827389599995" stroke-miterlimit="10" stroke-width="1.4659797833333332" stroke-dasharray=""/><g transform="translate(625.5553623581379,246.98827389599995) translate(-625.5553623581379,-246.98827389599995)"><path fill="black" stroke="none" paint-order="stroke fill markers" d=" M 610.8955645248046 239.65837497933327 L 625.5553623581379 246.98827389599995 L 610.8955645248046 254.31817281266663 Z"/></g></g><g><g><rect fill="white" stroke="none" x="663.9640326814713" y="273.37590999599996" width="274.5402225325" height="22.86928462"/></g><text fill="black" stroke="none" font-family="sans-serif" font-size="11pt" font-style="normal" font-weight="normal" text-decoration="normal" x="666.6027962914712" y="289.208491656" text-anchor="start" dominant-baseline="alphabetic" xml:space="preserve">query(String: userID, String: password)</text></g><g><path fill="none" stroke="black" paint-order="fill stroke markers" d=" M 643.1471197581379 296.24519461599994 L 944.8372878779712 296.24519461599994" stroke-miterlimit="10" stroke-width="1.4659797833333332" stroke-dasharray=""/><g transform="translate(959.3211681373045,296.24519461599994) translate(-959.3211681373045,-296.24519461599994)"><path fill="black" stroke="none" paint-order="stroke fill markers" d=" M 944.6613703039712 288.9152956993333 L 959.3211681373045 296.24519461599994 L 944.6613703039712 303.5750935326666 Z"/></g></g><g><g><rect fill="white" stroke="none" x="663.9640326814713" y="322.63283071599994" width="53.423569090117184" height="22.86928462"/></g><text fill="black" stroke="none" font-family="sans-serif" font-size="11pt" font-style="normal" font-weight="normal" text-decoration="normal" x="666.6027962914712" y="338.46541237599996" text-anchor="start" dominant-baseline="alphabetic" xml:space="preserve">verify()</text></g><g><path fill="none" stroke="black" paint-order="fill stroke markers" d=" M 643.1471197581379 345.502115336 L 713.514149358138 345.502115336 L 713.514149358138 368.37139995599995 L 657.6310000174713 368.37139995599995" stroke-miterlimit="10" stroke-width="1.4659797833333332" stroke-dasharray=""/><g transform="translate(643.1471197581379,368.37139995599995) translate(-643.1471197581379,-368.37139995599995)"><path fill="black" stroke="none" paint-order="stroke fill markers" d=" M 657.8069175914712 361.0415010393333 L 643.1471197581379 368.37139995599995 L 657.8069175914712 375.7012988726666 Z"/></g></g><g><g><rect fill="white" stroke="none" x="300.3037762600846" y="442.25678103599995" width="104.11071813796875" height="22.86928462"/></g><text fill="black" stroke="none" font-family="sans-serif" font-size="11pt" font-style="normal" font-weight="normal" text-decoration="normal" x="302.9425398700846" y="458.08936269599997" text-anchor="start" dominant-baseline="alphabetic" xml:space="preserve">return Correct</text></g><g><path fill="none" stroke="black" paint-order="fill stroke markers" d=" M 625.5553623581379 465.1260656559999 L 93.64678855933333 465.1260656559999" stroke-miterlimit="10" stroke-width="1.4659797833333332" stroke-dasharray="7.0367029599999995"/><g transform="translate(79.1629083,465.1260656559999) translate(-79.1629083,-465.1260656559999)"><path fill="black" stroke="none" paint-order="stroke fill markers" d=" M 93.82270613333333 457.7961667393333 L 79.1629083 465.1260656559999 L 93.82270613333333 472.4559645726666 Z"/></g></g><g><g><rect fill="white" stroke="none" x="301.9072003323502" y="539.0114467359999" width="100.9038699934375" height="22.86928462"/></g><text fill="black" stroke="none" font-family="sans-serif" font-size="11pt" font-style="normal" font-weight="normal" text-decoration="normal" x="304.5459639423502" y="554.8440283959999" text-anchor="start" dominant-baseline="alphabetic" xml:space="preserve">return Wrong</text></g><g><path fill="none" stroke="black" paint-order="fill stroke markers" d=" M 625.5553623581379 561.880731356 L 93.64678855933333 561.880731356" stroke-miterlimit="10" stroke-width="1.4659797833333332" stroke-dasharray="7.0367029599999995"/><g transform="translate(79.1629083,561.880731356) translate(-79.1629083,-561.880731356)"><path fill="black" stroke="none" paint-order="stroke fill markers" d=" M 93.82270613333333 554.5508324393332 L 79.1629083 561.880731356 L 93.82270613333333 569.2106302726667 Z"/></g></g><g><g/><path fill="none" stroke="black" paint-order="fill stroke markers" d=" M 17.591757400000006 394.75903605599996 L 695.922391958138 394.75903605599996 L 695.922391958138 588.268367456 L 17.591757400000006 588.268367456 L 17.591757400000006 394.75903605599996 Z" stroke-miterlimit="10" stroke-width="2.5131082" stroke-dasharray=""/><path fill="white" stroke="black" paint-order="fill stroke markers" d=" M 17.591757400000006 394.75903605599996 L 17.591757400000006 415.86914493599994 L 67.87877256621094 415.86914493599994 L 78.43382700621095 405.31409049599995 L 78.43382700621095 394.75903605599996 L 17.591757400000006 394.75903605599996" stroke-miterlimit="10" stroke-width="2.5131082" stroke-dasharray=""/><text fill="black" stroke="none" font-family="sans-serif" font-size="8.8pt" font-style="normal" font-weight="bold" text-decoration="normal" x="35.183514800000005" y="408.8324419759999" text-anchor="start" dominant-baseline="alphabetic" xml:space="preserve">alt</text><text fill="black" stroke="none" font-family="sans-serif" font-size="8.8pt" font-style="normal" font-weight="bold" text-decoration="normal" x="96.02558440621095" y="408.8324419759999" text-anchor="start" dominant-baseline="alphabetic" xml:space="preserve">[userID&amp;password correct]</text><g><path fill="none" stroke="black" paint-order="fill stroke markers" d=" M 17.591757400000006 491.51370175599993 L 695.922391958138 491.51370175599993" stroke-miterlimit="10" stroke-width="2.5131082" stroke-dasharray="4.39793935"/></g><g/><text fill="black" stroke="none" font-family="sans-serif" font-size="8.8pt" font-style="normal" font-weight="bold" text-decoration="normal" x="96.02558440621095" y="505.5871076759999" text-anchor="start" dominant-baseline="alphabetic" xml:space="preserve">[userID&amp;password wrong]</text></g><g/></g><g/><g/><g/><g/></g></svg>