<svg version="1.1" xmlns="http://www.w3.org/2000/svg" xmlns:xlink="http://www.w3.org/1999/xlink" width="969" height="554"><defs/><g><g/><g/><g/><g/><g/><g/><g/><g><rect fill="white" stroke="none" x="0" y="0" width="969" height="554"/></g><g><text fill="black" stroke="none" font-family="sans-serif" font-size="16.5pt" font-style="normal" font-weight="normal" text-decoration="normal" x="441.9591736903809" y="26.3876361" text-anchor="start" dominant-baseline="alphabetic" xml:space="preserve">Register</text></g><g/><g><path fill="none" stroke="black" paint-order="fill stroke markers" d=" M 31.97770243046875 139.67855375599999 L 31.97770243046875 554.8440283959999" stroke-miterlimit="10" stroke-width="1.4659797833333332" stroke-dasharray="13.532121076923076,5.863919133333333"/><path fill="none" stroke="black" paint-order="fill stroke markers" d=" M 256.9046760184245 139.67855375599999 L 256.9046760184245 554.8440283959999" stroke-miterlimit="10" stroke-width="1.4659797833333332" stroke-dasharray="13.532121076923076,5.863919133333333"/><path fill="none" stroke="black" paint-order="fill stroke markers" d=" M 601.6081649030599 139.67855375599999 L 601.6081649030599 554.8440283959999" stroke-miterlimit="10" stroke-width="1.4659797833333332" stroke-dasharray="13.532121076923076,5.863919133333333"/><path fill="none" stroke="black" paint-order="fill stroke markers" d=" M 828.7454611607423 139.67855375599999 L 828.7454611607423 554.8440283959999" stroke-miterlimit="10" stroke-width="1.4659797833333332" stroke-dasharray="13.532121076923076,5.863919133333333"/><path fill="none" stroke="black" paint-order="fill stroke markers" d=" M 925.9731335682618 139.67855375599999 L 925.9731335682618 554.8440283959999" stroke-miterlimit="10" stroke-width="1.4659797833333332" stroke-dasharray="13.532121076923076,5.863919133333333"/></g><g><g><path fill="white" stroke="black" paint-order="fill stroke markers" d=" M 42.00500414846875 65.265419954 A 10.027301717999999 10.027301717999999 0 1 1 42.004999134818306 65.25539265395321 M 31.97770243046875 75.29272167199998 L 31.97770243046875 96.75466569999998 M 19.31163710246875 83.033094928 L 44.64376775846875 83.033094928 M 31.97770243046875 96.75466569999998 L 19.31163710246875 116.80926913599998 M 31.97770243046875 96.75466569999998 L 44.64376775846875 116.80926913599998" stroke-miterlimit="10" stroke-width="2.990598758" stroke-dasharray=""/></g><g><g/><text fill="black" stroke="none" font-family="sans-serif" font-size="11pt" font-style="normal" font-weight="normal" text-decoration="normal" x="8.7958787" y="134.401026536" text-anchor="start" dominant-baseline="alphabetic" xml:space="preserve">Admin</text></g><g><path fill="white" stroke="black" paint-order="fill stroke markers" d=" M 291.82431445742446 89.19021001799997 A 26.123759739 26.123759739 0 1 1 291.8243013955457 89.16408626261492 M 223.48033695842446 61.57115089999997 L 223.48033695842446 116.80926913599997 M 221.98503757942447 89.19021001799997 L 239.57679497942448 89.19021001799997" stroke-miterlimit="10" stroke-width="2.990598758" stroke-dasharray=""/></g><g><g/><text fill="black" stroke="none" font-family="sans-serif" font-size="11pt" font-style="normal" font-weight="normal" text-decoration="normal" x="220.61262279576823" y="134.401026536" text-anchor="start" dominant-baseline="alphabetic" xml:space="preserve">RegisterUI</text></g><g><path fill="white" stroke="black" paint-order="fill stroke markers" d=" M 636.5278033420599 89.19021001799997 A 26.123759739 26.123759739 0 1 1 636.5277902801811 89.16408626261492 M 568.1838258430599 61.57115089999997 L 568.1838258430599 116.80926913599997 M 566.6885264640599 89.19021001799997 L 584.2802838640599 89.19021001799997" stroke-miterlimit="10" stroke-width="2.990598758" stroke-dasharray=""/></g><g><g/><text fill="black" stroke="none" font-family="sans-serif" font-size="11pt" font-style="normal" font-weight="normal" text-decoration="normal" x="572.9431716169271" y="134.401026536" text-anchor="start" dominant-baseline="alphabetic" xml:space="preserve">Register</text></g><g><path fill="white" stroke="black" paint-order="fill stroke markers" d=" M 854.8692208997422 89.19021001799997 A 26.123759739 26.123759739 0 1 1 854.8692078378634 89.16408626261492 M 825.2271096807423 63.06645027899997 L 835.7821641207423 54.27057157899998 M 825.2271096807423 63.06645027899997 L 835.7821641207423 71.86232897899997" stroke-miterlimit="10" stroke-width="2.990598758" stroke-dasharray=""/></g><g><g/><text fill="black" stroke="none" font-family="sans-serif" font-size="11pt" font-style="normal" font-weight="normal" text-decoration="normal" x="784.2930609532227" y="134.401026536" text-anchor="start" dominant-baseline="alphabetic" xml:space="preserve">UserManage</text></g><g><path fill="white" stroke="black" paint-order="fill stroke markers" d=" M 900.2891677642618 105.19870925199999 L 900.2891677642618 68.25601871199999 L 951.6570993722618 68.25601871199999 L 951.6570993722618 105.19870925199999" stroke-miterlimit="10" stroke-width="2.990598758" stroke-dasharray=""/><path fill="white" stroke="black" paint-order="fill stroke markers" d=" M 951.6570993722618 66.97182042179999 L 951.6558151846732 67.08792408555635 L 951.6519627503252 67.20401613904309 L 951.6455424544579 67.3200849731516 L 951.6365549390955 67.43611898109519 L 951.6250011029822 67.55210655956978 L 951.6108821014919 67.66803610991414 L 951.594199346513 67.78389603926989 L 951.5749545063071 67.8996747617406 L 951.5531495053422 68.01536069955054 L 951.5287865241002 68.1309422842023 L 951.5018679988589 68.24640795763378 L 951.4723966214484 68.3617461733738 L 951.4403753389819 68.47694539769695 L 951.4058073535609 68.59199411077678 L 951.3686961219553 68.70688080783783 L 951.3290453552572 68.82159400030618 L 951.2868590185103 68.93612221695814 L 951.242141330313 69.0504540050675 L 951.194896762397 69.16457793155072 L 951.1451300391795 69.27848258411025 L 951.0928461372916 69.39215657237577 L 951.0380502850799 69.50558852904317 L 950.9807479620838 69.61876711101131 L 950.920944898488 69.73168100051632 L 950.8586470745488 69.84431890626333 L 950.7938607199969 69.95666956455563 L 950.7265923134138 70.06872174042103 L 950.6568485815839 70.18046422873529 L 950.5846364988223 70.29188585534273 L 950.5099632862773 70.40297547817353 L 950.4328364112077 70.51372198835797 L 950.3532635862368 70.62411431133734 L 950.2712527685809 70.73414140797132 L 950.1868121592533 70.84379227564195 L 950.0999502022446 70.95305594935381 L 950.0106755836781 71.06192150283061 L 949.9189972309413 71.1703780496077 L 949.824924311793 71.27841474412082 L 949.7284662334469 71.38602078279051 L 949.6296326416301 71.4931854051026 L 949.5284334196198 71.59989789468413 L 949.4248786872537 71.7061475803751 L 949.3189787999188 71.81192383729548 L 949.2107443475155 71.9172160879077 L 949.1001861533988 72.02201380307447 L 948.9873152732962 72.12630650311159 L 948.8721429942015 72.23008375883597 L 948.7546808332465 72.33333519260853 L 948.6349405365497 72.43605047937191 L 948.5129340780409 72.53821934768304 L 948.3886736582641 72.63983158074024 L 948.2621717031578 72.74087701740487 L 948.1334408628123 72.84134555321748 L 948.0024940102041 72.94122714140819 L 947.8693442399095 73.04051179390143 L 947.7340048667946 73.13918958231469 L 947.5964894246838 73.23725063895135 L 947.4568116650066 73.33468515778748 L 947.3149855554229 73.43148339545236 L 947.1710252784253 73.52763567220293 L 947.0249452299215 73.6231323728916 L 946.8767600177946 73.71796394792793 L 946.7264844604424 73.8121209142334 L 946.5741335852954 73.90559385618985 L 946.4197226273142 73.998373426581 L 946.2632670274658 74.09045034752711 L 946.1047824311798 74.18181541141281 L 945.9442846867839 74.27245948180787 L 945.7817898439188 74.36237349438078 L 945.6173141519331 74.45154845780519 L 945.4508740582593 74.53997545465909 L 945.2824862067678 74.62764564231648 L 945.1121674361036 74.71455025383165 L 944.9399347780017 74.80068059881587 L 944.7658054555844 74.88602806430642 L 944.589796881639 74.97058411562787 L 944.411926656876 75.05434029724555 L 944.2322125681698 75.13728823361109 L 944.0506725867795 75.21941962999999 L 943.8673248665517 75.30072627334106 L 943.6821877421061 75.38120003303769 L 943.4952797270005 75.46083286178099 L 943.3066195118807 75.53961679635444 L 943.1162259626111 75.61754395843025 L 942.924118118388 75.69460655535714 L 942.7303151898357 75.77079688093964 L 942.5348365570853 75.84610731620869 L 942.3377017678376 75.9205303301835 L 942.138930535407 75.99405848062472 L 941.9385427367511 76.06668441477855 L 941.7365584104828 76.13840087011211 L 941.5329977548664 76.20920067503964 L 941.327881125798 76.27907674963963 L 941.1212290347692 76.34802210636286 L 940.9130621468172 76.4160298507311 L 940.7034012784574 76.48309318202661 L 940.4922673956015 76.54920539397213 L 940.2796816114623 76.61435987540155 L 940.0656651844408 76.67855011092104 L 939.8502395160015 76.74176968156053 L 939.6334261485315 76.80401226541565 L 939.415246763187 76.86527163827986 L 939.1957231777249 76.92554167426694 L 938.9748773443206 76.98481634642351 L 938.7527313473734 77.04308972733178 L 938.5293074012978 77.10035598970217 L 938.3046278483025 77.15660940695618 L 938.0787151561553 77.21184435379898 L 937.8515919159374 77.26605530678191 L 937.6232808397833 77.31923684485484 L 937.3938047586106 77.37138364990828 L 937.1631866198359 77.42249050730518 L 936.9314494850812 77.4725523064024 L 936.6986165278666 77.52156404106174 L 936.464711031294 77.56952081015058 L 936.2297563857179 77.61641781803196 L 935.9937760864074 77.6622503750442 L 935.7567937311954 77.70701389796976 L 935.5188330181203 77.75070391049368 L 935.2799177430549 77.7933160436511 L 935.0400717973276 77.83484603626422 L 934.7993191653331 77.87528973536838 L 934.5576839221342 77.91464309662739 L 934.3151902310535 77.9529021847379 L 934.0718623412583 77.99006317382297 L 933.8277245853347 78.02612234781469 L 933.582801376855 78.0610761008257 L 933.3371172079356 78.09492093750981 L 933.090696646789 78.12765347341158 L 932.8435643352657 78.15927043530469 L 932.5957449863912 78.18976866151928 L 932.3472633818935 78.21914510225817 L 932.0981443697264 78.24739681990175 L 931.8484128615833 78.27452098930179 L 931.5980938304068 78.30051489806398 L 931.3472123078916 78.32537594681908 L 931.0957933819808 78.34910164948295 L 930.8438621943575 78.37168963350508 L 930.5914439379305 78.39313764010592 L 930.3385638543151 78.41344352450264 L 930.085247231309 78.43260525612375 L 929.8315194003634 78.45062091881205 L 929.5774057340498 78.46748871101629 L 929.3229316435231 78.48320694597129 L 929.0681225759805 78.49777405186667 L 928.8130040121163 78.51118857200397 L 928.5576014635742 78.52344916494236 L 928.3019404703962 78.53455460463276 L 928.0460465984688 78.54450378054045 L 927.7899454369657 78.55329569775614 L 927.5336625957898 78.56092947709544 L 927.2772237030115 78.56740435518677 L 927.0206544023066 78.57271968454769 L 926.7639803503911 78.57687493364975 L 926.5072272144565 78.57986968697145 L 926.2504206696022 78.58170364504 L 925.993586396269 78.58237662446106 L 925.7367500776701 78.58188855793732 L 925.4799373972231 78.58023949427498 L 925.2231740359823 78.57742959837903 L 924.9664856700698 78.57345915123673 L 924.7098979681082 78.56832854988951 L 924.4534365886539 78.56203830739318 L 924.1971271776312 78.5545890527668 L 923.9409953657675 78.54598153092958 L 923.6850667660307 78.53621660262655 L 923.4293669710673 78.5252952443424 L 923.1739215506439 78.51321854820387 L 922.9187560490896 78.4999877218705 L 922.6638959827418 78.48560408841388 L 922.4093668373949 78.4700690861854 L 922.1551940657514 78.45338426867232 L 921.9014030848765 78.4355513043425 L 921.6480192736568 78.41657197647748 L 921.3950679702623 78.39644818299428 L 921.1425744696127 78.37518193625543 L 920.8905640208474 78.35277536286792 L 920.6390618248013 78.32923070347039 L 920.3880930314846 78.30455031250918 L 920.1376827375674 78.2787366580028 L 919.8878559838703 78.2517923212952 L 919.6386377528607 78.2237199967976 L 919.3900529661539 78.19452249171906 L 919.1421264820214 78.16420272578573 L 918.894883092905 78.13276373094897 L 918.6483475229377 78.10020865108203 L 918.402544425471 78.0665407416658 L 918.1574983806097 78.03176336946316 L 917.9132338927541 77.99588001218234 L 917.6697753881496 77.95889425812916 L 917.4271472124436 77.92080980584822 L 917.1853736282516 77.881630463753 L 916.9444788127304 77.84136014974506 L 916.704486855161 77.80000289082224 L 916.465421754539 77.75756282267598 L 916.2273074171753 77.71404418927773 L 915.9901676543053 77.66945134245454 L 915.7540261797076 77.62378874145395 L 915.5189066073327 77.57706095249802 L 915.2848324489422 77.52927264832667 L 915.0518271117567 77.48042860773052 L 914.8199138961158 77.43053371507293 L 914.5891159931477 77.37959295980157 L 914.3594564824507 77.32761143594954 L 914.1309583297841 77.27459434162587 L 913.9036443847729 77.22054697849586 L 913.6775373786221 77.16547475125074 L 913.4526599218441 77.10938316706736 L 913.229034501997 77.0522778350574 L 913.0066834814364 76.99416446570646 L 912.7856290950793 76.93504887030305 L 912.5658934481798 76.87493696035746 L 912.3474985141198 76.81383474701059 L 912.1304661322105 76.75174834043284 L 911.9148180055092 76.68868394921314 L 911.7005756986491 76.62464787973806 L 911.4877606356822 76.5596465355612 L 911.2763940979373 76.49368641676277 L 911.0664972218923 76.42677411929971 L 910.8580909970598 76.358916334346 L 910.6511962638886 76.2901198476236 L 910.4458337116795 76.22039153872383 L 910.2420238765167 76.14973838041949 L 910.0397871392139 76.07816743796754 L 909.8391437232763 76.00568586840255 L 909.6401136928781 75.9323009198211 L 909.4427169508568 75.8580199306569 L 909.2469732367218 75.78285032894695 L 909.0529021246817 75.70679963158878 L 908.8605230216857 75.62987544358876 L 908.6698551654839 75.55208545730159 L 908.4809176227031 75.47343745166106 L 908.29372928694 75.3939392914022 L 908.1083088768722 75.31359892627479 L 907.9246749343863 75.2324243902484 L 907.7428458227234 75.15042380070896 L 907.5628397246433 75.06760535764712 L 907.3846746406057 74.98397734283817 L 907.2083683869704 74.89954811901389 L 907.0339385942161 74.8143261290263 L 906.8614027051765 74.72831989500338 L 906.6907779732969 74.64153801749687 L 906.5220814609082 74.5539891746222 L 906.3553300375211 74.46568212119071 L 906.1905403781388 74.37662568783415 L 906.0277289615902 74.28682878012162 L 905.8669120688812 74.19630037766909 L 905.7081057815669 74.10504953324134 L 905.5513259801439 74.0130853718468 L 905.3965883424615 73.92041708982494 L 905.2439083421548 73.82705395392676 L 905.0933012470962 73.73300530038806 L 904.9447821178701 73.63828053399578 L 904.7983658062653 73.54288912714766 L 904.6540669537912 73.44684061890487 L 904.5118999902127 73.3501446140382 L 904.3718791321077 73.25281078206757 L 904.2340183814454 73.15484885629505 L 904.0983315241858 73.05626863283157 L 903.9648321289018 72.95707996961737 L 903.8335335454213 72.85729278543607 L 903.7044489034937 72.75691705892295 L 903.5775911114754 72.65596282756702 L 903.4529728550398 72.5544401867073 L 903.3306065959089 72.45235928852324 L 903.2105045706064 72.34973034101961 L 903.0926787892349 72.24656360700563 L 902.9771410342744 72.14286940306874 L 902.8639028594039 72.03865809854291 L 902.7529755883468 71.93394011447177 L 902.6443703137375 71.82872592256643 L 902.5380978960131 71.72302604415843 L 902.4341689623268 71.61685104914753 L 902.3325939054854 71.51021155494473 L 902.23338288291 71.4031182254106 L 902.1365458156198 71.29558176978884 L 902.0420923872413 71.1876129416354 L 901.9500320430384 71.07922253774314 L 901.8603739889688 70.9704213970621 L 901.7731271907633 70.86122039961568 L 901.6883003730289 70.75163046541265 L 901.6059020183767 70.64166255335508 L 901.5259403665735 70.53132766014255 L 901.448423413718 70.42063681917243 L 901.3733589114407 70.30960109943658 L 901.3007543661294 70.19823160441445 L 901.230617038178 70.0865394709627 L 901.1629539412609 69.97453586820164 L 901.0977718416315 69.86223199639821 L 901.0350772574452 69.74963908584596 L 900.9748764581085 69.63676839574217 L 900.9171754636509 69.52363121306175 L 900.8619800441239 69.41023885142872 L 900.8092957190235 69.29660264998472 L 900.7591277567382 69.18273397225522 L 900.7114811740223 69.0686442050131 L 900.6663607354947 68.95434475714 L 900.6237709531614 68.83984705848547 L 900.5837160859652 68.72516255872397 L 900.5462001393595 68.61030272620987 L 900.5112268649076 68.49527904683073 L 900.4787997599078 68.38010302285863 L 900.4489220670437 68.2647861718 L 900.4215967740596 68.14934002524383 L 900.396826613462 68.03377612770858 L 900.3746140622465 67.9181060354877 L 900.3549613416494 67.80234131549402 L 900.3378704169268 67.68649354410306 L 900.3233429971565 67.57057430599544 L 900.3113805350686 67.45459519299835 L 900.3019842268992 67.33856780292646 L 900.2951550122715 67.22250373842208 L 900.2908935741011 67.10641460579494 L 900.2892003385283 66.99031201386155 L 900.2900754748753 66.87420757278437 L 900.2935188956292 66.75811289291076 L 900.2995302564507 66.64203958361193 L 900.3081089562088 66.52599925212212 L 900.3192541370406 66.41000350237775 L 900.3329646844375 66.29406393385715 L 900.349239227356 66.17819214042055 L 900.3680761383554 66.06239970915072 L 900.3894735337602 65.94669821919432 L 900.4134292738489 65.8310992406039 L 900.4399409630674 65.71561433318102 L 900.4690059502688 65.60025504532017 L 900.5006213289786 65.48503291285398 L 900.5347839376853 65.36995945789971 L 900.5714903601565 65.25504618770695 L 900.6107369257807 65.14030459350695 L 900.6525197099337 65.02574614936354 L 900.6968345343721 64.91138231102563 L 900.7436769676505 64.79722451478179 L 900.7930423255643 64.68328417631649 L 900.8449256716192 64.56957268956862 L 900.8993218175236 64.45610142559212 L 900.9562253237083 64.3428817314188 L 901.0156304998701 64.22992492892377 L 901.077531405541 64.1172423136931 L 901.1419218506817 64.00484515389444 L 901.2087953963016 63.89274468915009 L 901.278145355102 63.78095212941312 L 901.3499647921444 63.66947865384635 L 901.4242465255453 63.558335409704426 L 901.5009831271931 63.447533511219156 L 901.5801669234917 63.337084038488044 L 901.6617899961273 63.226998036366325 L 901.7458441828607 63.11728651336247 L 901.8323210783433 63.00796044053737 L 901.9212120349576 62.899030750407185 L 902.012508163682 62.790508335850156 L 902.1062003349798 62.682404049017315 L 902.2022791797119 62.57472870024724 L 902.3007350900739 62.4674930569851 L 902.4015582205567 62.36070784270584 L 902.5047384889315 62.25438373584191 L 902.6102655772571 62.148531368715396 L 902.7181289329129 62.04316132647479 L 902.8283177696532 61.938284146036516 L 902.940821068686 61.83391031503122 L 903.0556275797752 61.73005027075502 L 903.1727258223655 61.6267143991258 L 903.2921040867301 61.52391303364461 L 903.413750435142 61.42165645436233 L 903.5376527030677 61.31995488685167 L 903.6637985003839 61.21881850118463 L 903.7921752126158 61.1182574109155 L 903.9227700021992 61.018281672069506 L 904.0555698097638 60.91890128213721 L 904.1905613554399 60.82012617907481 L 904.327731140185 60.72196624031029 L 904.4670654471354 60.62443128175571 L 904.6085503429761 60.52753105682567 L 904.7521716793356 60.431275255461905 L 904.8979150941998 60.33567350316434 L 905.0457660133488 60.24073536002853 L 905.195709651814 60.14647031978968 L 905.3477310153563 60.05288780887326 L 905.5018149019661 59.959997185452366 L 905.6579459033832 59.86780773851195 L 905.8161084066376 59.77632868691987 L 905.9762865956105 59.68556917850505 L 906.1384644526169 59.59553828914271 L 906.3026257600059 59.50624502184675 L 906.4687541017836 59.41769830586949 L 906.6368328652545 59.32990699580875 L 906.8068452426821 59.24287987072236 L 906.9787742329704 59.15662563325033 L 907.1526026433637 59.0711529087445 L 907.3283130911658 58.986470244406114 L 907.5058880054783 58.90258610843103 L 907.6853096289576 58.81950888916295 L 907.8665600195912 58.737246894254554 L 908.0496210524908 58.65580834983679 L 908.2344744217058 58.57520139969624 L 908.4211016420534 58.49543410446074 L 908.6094840509669 58.41651444079334 L 908.7996028103624 58.33845030059465 L 908.9914389085226 58.26124949021362 L 909.1849731619973 58.18491972966697 L 909.3801862175226 58.10946865186714 L 909.5770585539555 58.03490380185903 L 909.7755704842265 57.96123263606552 L 909.975702157308 57.88846252154177 L 910.1774335601993 57.816600735238616 L 910.3807445199286 57.74565446327479 L 910.585614705569 57.67563080021837 L 910.7920236302728 57.60653674837731 L 910.9999506533195 57.53837921709922 L 911.2093749821801 57.47116502208042 L 911.4202756745962 57.40490088468441 L 911.6326316406744 57.3395934312697 L 911.8464216449948 57.27524919252721 L 912.0616243087355 57.21187460282721 L 912.2782181118092 57.14947599957584 L 912.4961813950162 57.088059622581426 L 912.7154923622096 57.02763161343051 L 912.9361290824758 56.96819801487362 L 913.1580694923264 56.9097647702211 L 913.3812913979053 56.85233772274873 L 913.6057724772081 56.79592261511338 L 913.831490282314 56.74052508877882 L 914.0584222416304 56.6861506834515 L 914.2865456621506 56.63280483652666 L 914.5158377317227 56.58049288254453 L 914.7462755213306 56.52922005265691 L 914.9778359873876 56.47899147410408 L 915.21049597404 56.42981216970201 L 915.4442322154829 56.38168705734017 L 915.679021338287 56.334620949489704 L 915.9148398637359 56.28861855272216 L 916.1516642101732 56.24368446723889 L 916.3894706953618 56.199823186410995 L 916.6282355388513 56.157039096329996 L 916.8679348643565 56.11533647536926 L 917.1085447021443 56.07471949375613 L 917.3500409914316 56.035192213154914 L 917.5923995827907 55.99675858626073 L 917.8355962405644 55.959422456404255 L 918.0796066452897 55.923187557167346 L 918.3244063961293 55.88805751200974 L 918.5699710133123 55.85403583390668 L 918.8162759405814 55.82112592499761 L 919.0632965476493 55.78933107624601 L 919.3110081326611 55.758654467110254 L 919.5593859246646 55.72909916522569 L 919.8084050860878 55.70066812609789 L 920.0580407152219 55.67336419280706 L 920.308267848712 55.64719009572377 L 920.5590614640536 55.62214845223594 L 920.8103964820937 55.598241766487035 L 921.0622477695401 55.57547242912571 L 921.3145901414741 55.55384271706673 L 921.5673983638687 55.533354793263264 L 921.8206471561123 55.51401070649064 L 922.0743111935367 55.4958123911414 L 922.3283651099496 55.47876166703191 L 922.5827835001709 55.46286023922039 L 922.8375409225738 55.44810969783636 L 923.0926119016283 55.434511517921656 L 923.347970930449 55.42206705928295 L 923.6035924733459 55.41077756635575 L 923.8594509683777 55.40064416807991 L 924.1155208299081 55.39166787778682 L 924.3717764511642 55.38384959309805 L 924.6281922067976 55.37719009583553 L 924.8847424554465 55.37169005194345 L 925.1414015422996 55.36735001142162 L 925.3981438016622 55.36417040827046 L 925.6549435595222 55.36215156044765 L 925.911775136118 55.36129366983628 L 926.1686128485059 55.3615968222247 L 926.4254310131287 55.363060987297914 L 926.6822039483839 55.36568601864066 L 926.9389059771919 55.369471653751965 L 927.1955114295639 55.37441751407148 L 927.4519946451684 55.3805231050173 L 927.7083299758975 55.38778781603543 L 927.9644917884319 55.39621092066079 L 928.2204544668039 55.40579157658996 L 928.4761924149586 55.41652882576533 L 928.7316800593145 55.428421594470926 L 928.9868918513201 55.44146869343979 L 929.241802270009 55.45566881797289 L 929.4963858245515 55.47102054806961 L 929.7506170568043 55.48752234856974 L 930.0044705438563 55.50517256930697 L 930.2579209005702 55.52396944527395 L 930.5109427821213 55.54391109679874 L 930.7635108865327 55.56499552973279 L 931.0155999572042 55.587220635650404 L 931.2671847854389 55.61058419205949 L 931.5182402129634 55.63508386262389 L 931.7687411344444 55.660717197396956 L 932.0186624999985 55.687481633066575 L 932.2679793176974 55.715374493211485 L 932.516666656067 55.744392988568904 L 932.7646996465807 55.7745342173135 L 933.0120534861462 55.8057951653475 L 933.2587034395857 55.83817270660215 L 933.5046248421093 55.871663603350314 L 933.7497931017817 55.90626450653023 L 933.9941837019815 55.941971956080394 L 934.2377722038518 55.97878238128563 L 934.4805342487459 56.01669210113408 L 934.7224455606614 56.055697324685354 L 934.9634819486687 56.095794151449596 L 935.20361930933 56.136978571777554 L 935.4428336291091 56.17924646726151 L 935.6811009867736 56.22259361114713 L 935.9183975557861 56.267015668756166 L 936.1546996066876 56.31250819791986 L 936.3899835094699 56.35906664942321 L 936.6242257359387 56.40668636745987 L 936.8574028620667 56.455362590097714 L 937.0894915703354 56.505090449755045 L 937.3204686520676 56.55586497368733 L 937.5503110097474 56.60768108448449 L 937.7789956593307 56.66053360057863 L 938.006499732543 56.71441723676219 L 938.2328004791668 56.76932660471643 L 938.4578752693158 56.82525621355034 L 938.6817015956987 56.88220047034963 L 938.9042570758692 56.940153680736074 L 939.1255194544648 56.999110049436936 L 939.3454666054321 57.05906368086447 L 939.5640765342392 57.120008579705484 L 939.7813273800756 57.1819386515209 L 939.9971974180374 57.244847703355134 L 940.2116650613011 57.308729444355436 L 940.4247088632808 57.373577486400926 L 940.6363075197739 57.439385344741446 L 940.8464398710913 57.506146438646006 L 941.0550849041726 57.57385409206084 L 941.2622217546887 57.642501534277045 L 941.4678297091269 57.712081900607586 L 941.6718882068633 57.78258823307383 L 941.8743768422181 57.854013481101276 L 942.0752753664965 57.92635050222464 L 942.2745636900135 57.99959206280211 L 942.4722218841027 58.07373083873863 L 942.6682301831096 58.14875941621842 L 942.8625689863675 58.224670292446234 L 943.0552188601581 58.30145587639771 L 943.2461605396545 58.379108489578456 L 943.435374930848 58.45762036679186 L 943.6228431124568 58.53698365691561 L 943.8085463378195 58.61719042368684 L 943.992466036768 58.698232646495725 L 944.1745838174857 58.7801022211875 L 944.3548814683462 58.86279096087293 L 944.5333409597348 58.94629059674695 L 944.7099444458511 59.03059277891555 L 944.8846742664934 59.115689077230776 L 945.0575129488257 59.2015709821337 L 945.2284432091235 59.2882299055054 L 945.3974479545031 59.375657181525774 L 945.5645102846311 59.46384406754005 L 945.7296134934135 59.55278174493313 L 945.8927410706671 59.642461320011385 L 946.05387670377 59.73287382489204 L 946.2130042792933 59.82401021839995 L 946.370107884612 59.91586138697171 L 946.5251718094964 60.008418145567006 L 946.6781805476835 60.10167123858711 L 946.8291187984266 60.195611340800426 L 946.9779714680268 60.29022905827503 L 947.1247236713409 60.385514929318006 L 947.2693607332709 60.48145942542166 L 947.4118681902313 60.57805295221634 L 947.552231791595 60.67528585042985 L 947.6904375011189 60.77314839685341 L 947.8264714983472 60.87163080531391 L 947.9603201799936 60.97072322765259 L 948.0919701613013 61.07041575470979 L 948.2214082773821 61.170698417315876 L 948.3486215845322 61.271561187288164 L 948.4735973615268 61.3729939784337 L 948.5963231108924 61.47498664755789 L 948.7167865601563 61.577528995478836 L 948.834975663074 61.68061076804718 L 948.9508786008337 61.78422165717158 L 949.0644837832382 61.88835130184945 L 949.1757798498639 61.99298928920311 L 949.284755671197 62.09812515552101 L 949.391400349746 62.203748387304145 L 949.4957032211321 62.30984842231735 L 949.5976538551549 62.416414650645535 L 949.6972420568361 62.52343641575468 L 949.7944578674384 62.63090301555746 L 949.8892915654619 62.73880370348344 L 949.9817336676157 62.847127689553744 L 950.0717749297667 62.95586414146005 L 950.1594063478636 63.065002185647764 L 950.2446191588378 63.174530908403426 L 950.327404841479 63.28443935694603 L 950.4077551172882 63.39471654052231 L 950.4856619513045 63.50535143150581 L 950.5611175529095 63.61633296649962 L 950.634114376606 63.72765004744274 L 950.7046451227725 63.83929154271982 L 950.772702738393 63.951246288274376 L 950.8382804177627 64.06350308872516 L 950.9013716031684 64.17605071848564 L 950.961969985544 64.28887792288667 L 951.0200695051019 64.40197341930181 L 951.0756643519385 64.51532589827566 L 951.1287489666154 64.6289240246548 L 951.1793180407153 64.74275643872124 L 951.2273665173732 64.85681175732844 L 951.2728895917812 64.97107857503958 L 951.31588271167 65.08554546526814 L 951.3563415777634 65.20020098142045 L 951.3942621442084 65.31503365804045 L 951.4296406189799 65.43003201195617 L 951.4624734642601 65.54518454342806 L 951.4927573967917 65.66047973729893 L 951.5204893882068 65.77590606414547 L 951.5456666653292 65.89145198143119 L 951.5682867104524 66.00710593466063 L 951.5883472615905 66.12285635853486 L 951.6058463127052 66.23869167810795 L 951.6207821139061 66.35460030994449 L 951.6331531716253 66.47057066327784 L 951.6429582487675 66.58659114116935 L 951.650196364833 66.70265014166789 L 951.6548667960164 66.81873605897015 L 951.6569690752784 66.9348372845811 M 951.6570993722618 103.91451096179999 L 951.6558151846732 104.03061462555635 L 951.6519627503252 104.14670667904309 L 951.6455424544579 104.2627755131516 L 951.6365549390955 104.37880952109519 L 951.6250011029822 104.49479709956978 L 951.6108821014919 104.61072664991414 L 951.594199346513 104.72658657926989 L 951.5749545063071 104.8423653017406 L 951.5531495053422 104.95805123955054 L 951.5287865241002 105.0736328242023 L 951.5018679988589 105.18909849763378 L 951.4723966214484 105.3044367133738 L 951.4403753389819 105.41963593769695 L 951.4058073535609 105.53468465077678 L 951.3686961219553 105.64957134783783 L 951.3290453552572 105.76428454030618 L 951.2868590185103 105.87881275695814 L 951.242141330313 105.9931445450675 L 951.194896762397 106.10726847155073 L 951.1451300391795 106.22117312411025 L 951.0928461372916 106.33484711237577 L 951.0380502850799 106.44827906904317 L 950.9807479620838 106.56145765101131 L 950.920944898488 106.67437154051632 L 950.8586470745488 106.78700944626333 L 950.7938607199969 106.89936010455563 L 950.7265923134138 107.01141228042103 L 950.6568485815839 107.12315476873529 L 950.5846364988223 107.23457639534273 L 950.5099632862773 107.34566601817353 L 950.4328364112077 107.45641252835797 L 950.3532635862368 107.56680485133734 L 950.2712527685809 107.67683194797132 L 950.1868121592533 107.78648281564195 L 950.0999502022446 107.89574648935381 L 950.0106755836781 108.00461204283062 L 949.9189972309413 108.1130685896077 L 949.824924311793 108.22110528412082 L 949.7284662334469 108.32871132279051 L 949.6296326416301 108.4358759451026 L 949.5284334196198 108.54258843468413 L 949.4248786872537 108.6488381203751 L 949.3189787999188 108.75461437729548 L 949.2107443475155 108.8599066279077 L 949.1001861533988 108.96470434307447 L 948.9873152732962 109.0689970431116 L 948.8721429942015 109.17277429883598 L 948.7546808332465 109.27602573260853 L 948.6349405365497 109.37874101937192 L 948.5129340780409 109.48090988768304 L 948.3886736582641 109.58252212074024 L 948.2621717031578 109.68356755740487 L 948.1334408628123 109.78403609321748 L 948.0024940102041 109.88391768140819 L 947.8693442399095 109.98320233390143 L 947.7340048667946 110.08188012231469 L 947.5964894246838 110.17994117895135 L 947.4568116650066 110.27737569778748 L 947.3149855554229 110.37417393545236 L 947.1710252784253 110.47032621220293 L 947.0249452299215 110.5658229128916 L 946.8767600177946 110.66065448792793 L 946.7264844604424 110.7548114542334 L 946.5741335852954 110.84828439618985 L 946.4197226273142 110.941063966581 L 946.2632670274658 111.03314088752711 L 946.1047824311798 111.12450595141281 L 945.9442846867839 111.21515002180787 L 945.7817898439188 111.30506403438078 L 945.6173141519331 111.39423899780519 L 945.4508740582593 111.48266599465909 L 945.2824862067678 111.57033618231648 L 945.1121674361036 111.65724079383165 L 944.9399347780017 111.74337113881587 L 944.7658054555844 111.82871860430642 L 944.589796881639 111.91327465562787 L 944.411926656876 111.99703083724555 L 944.2322125681698 112.07997877361109 L 944.0506725867795 112.16211016999999 L 943.8673248665517 112.24341681334106 L 943.6821877421061 112.32389057303769 L 943.4952797270005 112.40352340178099 L 943.3066195118807 112.48230733635444 L 943.1162259626111 112.56023449843025 L 942.924118118388 112.63729709535714 L 942.7303151898357 112.71348742093964 L 942.5348365570853 112.78879785620869 L 942.3377017678376 112.8632208701835 L 942.138930535407 112.93674902062472 L 941.9385427367511 113.00937495477855 L 941.7365584104828 113.08109141011211 L 941.5329977548664 113.15189121503964 L 941.327881125798 113.22176728963963 L 941.1212290347692 113.29071264636286 L 940.9130621468172 113.35872039073111 L 940.7034012784574 113.42578372202661 L 940.4922673956015 113.49189593397213 L 940.2796816114623 113.55705041540155 L 940.0656651844408 113.62124065092104 L 939.8502395160015 113.68446022156053 L 939.6334261485315 113.74670280541565 L 939.415246763187 113.80796217827987 L 939.1957231777249 113.86823221426694 L 938.9748773443206 113.92750688642352 L 938.7527313473734 113.98578026733178 L 938.5293074012978 114.04304652970217 L 938.3046278483025 114.09929994695618 L 938.0787151561553 114.15453489379898 L 937.8515919159374 114.20874584678191 L 937.6232808397833 114.26192738485484 L 937.3938047586106 114.31407418990828 L 937.1631866198359 114.36518104730519 L 936.9314494850812 114.4152428464024 L 936.6986165278666 114.46425458106174 L 936.464711031294 114.51221135015058 L 936.2297563857179 114.55910835803196 L 935.9937760864074 114.6049409150442 L 935.7567937311954 114.64970443796976 L 935.5188330181203 114.69339445049368 L 935.2799177430549 114.7360065836511 L 935.0400717973276 114.77753657626423 L 934.7993191653331 114.81798027536838 L 934.5576839221342 114.85733363662739 L 934.3151902310535 114.8955927247379 L 934.0718623412583 114.93275371382298 L 933.8277245853347 114.96881288781469 L 933.582801376855 115.0037666408257 L 933.3371172079356 115.03761147750981 L 933.090696646789 115.07034401341159 L 932.8435643352657 115.10196097530469 L 932.5957449863912 115.13245920151928 L 932.3472633818935 115.16183564225817 L 932.0981443697264 115.19008735990175 L 931.8484128615833 115.21721152930179 L 931.5980938304068 115.24320543806398 L 931.3472123078916 115.26806648681908 L 931.0957933819808 115.29179218948295 L 930.8438621943575 115.31438017350509 L 930.5914439379305 115.33582818010592 L 930.3385638543151 115.35613406450264 L 930.085247231309 115.37529579612375 L 929.8315194003634 115.39331145881205 L 929.5774057340498 115.41017925101629 L 929.3229316435231 115.42589748597129 L 929.0681225759805 115.44046459186667 L 928.8130040121163 115.45387911200397 L 928.5576014635742 115.46613970494236 L 928.3019404703962 115.47724514463276 L 928.0460465984688 115.48719432054045 L 927.7899454369657 115.49598623775614 L 927.5336625957898 115.50362001709544 L 927.2772237030115 115.51009489518677 L 927.0206544023066 115.5154102245477 L 926.7639803503911 115.51956547364975 L 926.5072272144565 115.52256022697145 L 926.2504206696022 115.52439418504 L 925.993586396269 115.52506716446106 L 925.7367500776701 115.52457909793732 L 925.4799373972231 115.52293003427498 L 925.2231740359823 115.52012013837903 L 924.9664856700698 115.51614969123673 L 924.7098979681082 115.51101908988952 L 924.4534365886539 115.50472884739318 L 924.1971271776312 115.4972795927668 L 923.9409953657675 115.48867207092958 L 923.6850667660307 115.47890714262655 L 923.4293669710673 115.4679857843424 L 923.1739215506439 115.45590908820387 L 922.9187560490896 115.4426782618705 L 922.6638959827418 115.42829462841388 L 922.4093668373949 115.4127596261854 L 922.1551940657514 115.39607480867232 L 921.9014030848765 115.3782418443425 L 921.6480192736568 115.35926251647749 L 921.3950679702623 115.33913872299428 L 921.1425744696127 115.31787247625543 L 920.8905640208474 115.29546590286792 L 920.6390618248013 115.27192124347039 L 920.3880930314846 115.24724085250918 L 920.1376827375674 115.2214271980028 L 919.8878559838703 115.1944828612952 L 919.6386377528607 115.1664105367976 L 919.3900529661539 115.13721303171906 L 919.1421264820214 115.10689326578573 L 918.894883092905 115.07545427094897 L 918.6483475229377 115.04289919108203 L 918.402544425471 115.0092312816658 L 918.1574983806097 114.97445390946316 L 917.9132338927541 114.93857055218234 L 917.6697753881496 114.90158479812916 L 917.4271472124436 114.86350034584822 L 917.1853736282516 114.824321003753 L 916.9444788127304 114.78405068974506 L 916.704486855161 114.74269343082224 L 916.465421754539 114.70025336267598 L 916.2273074171753 114.65673472927773 L 915.9901676543053 114.61214188245454 L 915.7540261797076 114.56647928145395 L 915.5189066073327 114.51975149249802 L 915.2848324489422 114.47196318832667 L 915.0518271117567 114.42311914773052 L 914.8199138961158 114.37322425507293 L 914.5891159931477 114.32228349980157 L 914.3594564824507 114.27030197594954 L 914.1309583297841 114.21728488162587 L 913.9036443847729 114.16323751849586 L 913.6775373786221 114.10816529125074 L 913.4526599218441 114.05207370706736 L 913.229034501997 113.9949683750574 L 913.0066834814364 113.93685500570646 L 912.7856290950793 113.87773941030305 L 912.5658934481798 113.81762750035746 L 912.3474985141198 113.75652528701059 L 912.1304661322105 113.69443888043284 L 911.9148180055092 113.63137448921314 L 911.7005756986491 113.56733841973806 L 911.4877606356822 113.5023370755612 L 911.2763940979373 113.43637695676277 L 911.0664972218923 113.36946465929971 L 910.8580909970598 113.301606874346 L 910.6511962638886 113.2328103876236 L 910.4458337116795 113.16308207872383 L 910.2420238765167 113.0924289204195 L 910.0397871392139 113.02085797796754 L 909.8391437232763 112.94837640840255 L 909.6401136928781 112.8749914598211 L 909.4427169508568 112.8007104706569 L 909.2469732367218 112.72554086894695 L 909.0529021246817 112.64949017158878 L 908.8605230216857 112.57256598358876 L 908.6698551654839 112.49477599730159 L 908.4809176227031 112.41612799166106 L 908.29372928694 112.3366298314022 L 908.1083088768722 112.2562894662748 L 907.9246749343863 112.1751149302484 L 907.7428458227234 112.09311434070896 L 907.5628397246433 112.01029589764713 L 907.3846746406057 111.92666788283817 L 907.2083683869704 111.84223865901389 L 907.0339385942161 111.7570166690263 L 906.8614027051765 111.67101043500338 L 906.6907779732969 111.58422855749687 L 906.5220814609082 111.4966797146222 L 906.3553300375211 111.40837266119071 L 906.1905403781388 111.31931622783415 L 906.0277289615902 111.22951932012163 L 905.8669120688812 111.13899091766909 L 905.7081057815669 111.04774007324134 L 905.5513259801439 110.9557759118468 L 905.3965883424615 110.86310762982494 L 905.2439083421548 110.76974449392677 L 905.0933012470962 110.67569584038806 L 904.9447821178701 110.58097107399578 L 904.7983658062653 110.48557966714766 L 904.6540669537912 110.38953115890487 L 904.5118999902127 110.2928351540382 L 904.3718791321077 110.19550132206757 L 904.2340183814454 110.09753939629505 L 904.0983315241858 109.99895917283158 L 903.9648321289018 109.89977050961737 L 903.8335335454213 109.79998332543607 L 903.7044489034937 109.69960759892295 L 903.5775911114754 109.59865336756702 L 903.4529728550398 109.4971307267073 L 903.3306065959089 109.39504982852324 L 903.2105045706064 109.29242088101961 L 903.0926787892349 109.18925414700563 L 902.9771410342744 109.08555994306874 L 902.8639028594039 108.98134863854291 L 902.7529755883468 108.87663065447177 L 902.6443703137375 108.77141646256644 L 902.5380978960131 108.66571658415843 L 902.4341689623268 108.55954158914753 L 902.3325939054854 108.45290209494473 L 902.23338288291 108.3458087654106 L 902.1365458156198 108.23827230978884 L 902.0420923872413 108.1303034816354 L 901.9500320430384 108.02191307774314 L 901.8603739889688 107.9131119370621 L 901.7731271907633 107.80391093961568 L 901.6883003730289 107.69432100541265 L 901.6059020183767 107.58435309335508 L 901.5259403665735 107.47401820014255 L 901.448423413718 107.36332735917243 L 901.3733589114407 107.25229163943658 L 901.3007543661294 107.14092214441445 L 901.230617038178 107.0292300109627 L 901.1629539412609 106.91722640820164 L 901.0977718416315 106.80492253639821 L 901.0350772574452 106.69232962584596 L 900.9748764581085 106.57945893574217 L 900.9171754636509 106.46632175306175 L 900.8619800441239 106.35292939142872 L 900.8092957190235 106.23929318998472 L 900.7591277567382 106.12542451225522 L 900.7114811740223 106.0113347450131 L 900.6663607354947 105.89703529714001 L 900.6237709531614 105.78253759848548 L 900.5837160859652 105.66785309872397 L 900.5462001393595 105.55299326620987 L 900.5112268649076 105.43796958683073 L 900.4787997599078 105.32279356285864 L 900.4489220670437 105.2074767118 L 900.4215967740596 105.09203056524383 L 900.396826613462 104.97646666770858 L 900.3746140622465 104.8607965754877 L 900.3549613416494 104.74503185549402 L 900.3378704169268 104.62918408410306 L 900.3233429971565 104.51326484599544 L 900.3113805350686 104.39728573299836 L 900.3019842268992 104.28125834292646 L 900.2951550122715 104.16519427842208 L 900.2908935741011 104.04910514579494 L 900.2892003385283 103.93300255386156" stroke-miterlimit="10" stroke-width="2.990598758" stroke-dasharray=""/></g><g><g/><text fill="black" stroke="none" font-family="sans-serif" font-size="11pt" font-style="normal" font-weight="normal" text-decoration="normal" x="915.7905926747071" y="134.401026536" text-anchor="start" dominant-baseline="alphabetic" xml:space="preserve">DB</text></g></g><g><path fill="white" stroke="black" paint-order="fill stroke markers" d=" M 248.10879731842448 197.73135317599997 L 265.7005547184245 197.73135317599997 L 265.7005547184245 493.27287749599986 L 248.10879731842448 493.27287749599986 L 248.10879731842448 197.73135317599997" stroke-miterlimit="10" stroke-width="1.4659797833333332" stroke-dasharray=""/><path fill="white" stroke="black" paint-order="fill stroke markers" d=" M 592.8122862030599 246.98827389599995 L 610.4040436030599 246.98827389599995 L 610.4040436030599 444.0159567759999 L 592.8122862030599 444.0159567759999 L 592.8122862030599 246.98827389599995" stroke-miterlimit="10" stroke-width="1.4659797833333332" stroke-dasharray=""/><path fill="white" stroke="black" paint-order="fill stroke markers" d=" M 819.9495824607422 345.5021153359999 L 837.5413398607423 345.5021153359999 L 837.5413398607423 394.7590360559999 L 819.9495824607422 394.7590360559999 L 819.9495824607422 345.5021153359999" stroke-miterlimit="10" stroke-width="1.4659797833333332" stroke-dasharray=""/><g><g><rect fill="white" stroke="none" x="52.79461535380209" y="174.86206855599997" width="174.49726904128906" height="22.86928462"/></g><text fill="black" stroke="none" font-family="sans-serif" font-size="11pt" font-style="normal" font-weight="normal" text-decoration="normal" x="55.433378963802085" y="190.69465021599999" text-anchor="start" dominant-baseline="alphabetic" xml:space="preserve">regist(userID, password)</text></g><g><path fill="none" stroke="black" paint-order="fill stroke markers" d=" M 31.97770243046875 197.73135317599997 L 233.62491705909116 197.73135317599997" stroke-miterlimit="10" stroke-width="1.4659797833333332" stroke-dasharray=""/><g transform="translate(248.10879731842448,197.73135317599997) translate(-248.10879731842448,-197.73135317599997)"><path fill="black" stroke="none" paint-order="stroke fill markers" d=" M 233.44899948509115 190.4014542593333 L 248.10879731842448 197.73135317599997 L 233.44899948509115 205.06125209266665 Z"/></g></g><g><g><rect fill="white" stroke="none" x="286.51746764175783" y="224.11898927599995" width="285.4779056379688" height="22.86928462"/></g><text fill="black" stroke="none" font-family="sans-serif" font-size="11pt" font-style="normal" font-weight="normal" text-decoration="normal" x="289.15623125175784" y="239.95157093599997" text-anchor="start" dominant-baseline="alphabetic" xml:space="preserve">transmit(String userID, String password)</text></g><g><path fill="none" stroke="black" paint-order="fill stroke markers" d=" M 265.7005547184245 246.98827389599995 L 578.3284059437266 246.98827389599995" stroke-miterlimit="10" stroke-width="1.4659797833333332" stroke-dasharray=""/><g transform="translate(592.8122862030599,246.98827389599995) translate(-592.8122862030599,-246.98827389599995)"><path fill="black" stroke="none" paint-order="stroke fill markers" d=" M 578.1524883697266 239.65837497933327 L 592.8122862030599 246.98827389599995 L 578.1524883697266 254.31817281266663 Z"/></g></g><g><g><rect fill="white" stroke="none" x="727.8404438721453" y="273.37590999599996" width="80.69628942703125" height="22.86928462"/></g><text fill="black" stroke="none" font-family="sans-serif" font-size="11pt" font-style="normal" font-weight="normal" text-decoration="normal" x="730.4792074821453" y="289.208491656" text-anchor="start" dominant-baseline="alphabetic" xml:space="preserve">record(sql)</text></g><g><path fill="none" stroke="black" paint-order="fill stroke markers" d=" M 610.4040436030599 296.24519461599994 L 911.4892533089285 296.24519461599994" stroke-miterlimit="10" stroke-width="1.4659797833333332" stroke-dasharray=""/><g transform="translate(925.9731335682618,296.24519461599994) translate(-925.9731335682618,-296.24519461599994)"><path fill="black" stroke="none" paint-order="stroke fill markers" d=" M 911.3133357349285 288.9152956993333 L 925.9731335682618 296.24519461599994 L 911.3133357349285 303.5750935326666 Z"/></g></g><g><g><rect fill="white" stroke="none" x="684.8608796220964" y="322.63283071599994" width="60.63186681960937" height="22.86928462"/></g><text fill="black" stroke="none" font-family="sans-serif" font-size="11pt" font-style="normal" font-weight="normal" text-decoration="normal" x="687.4996432320963" y="338.46541237599996" text-anchor="start" dominant-baseline="alphabetic" xml:space="preserve">record()</text></g><g><path fill="none" stroke="black" paint-order="fill stroke markers" d=" M 610.4040436030599 345.5021153359999 L 805.4657022014089 345.5021153359999" stroke-miterlimit="10" stroke-width="1.4659797833333332" stroke-dasharray=""/><g transform="translate(819.9495824607422,345.5021153359999) translate(-819.9495824607422,-345.5021153359999)"><path fill="black" stroke="none" paint-order="stroke fill markers" d=" M 805.289784627409 338.17221641933327 L 819.9495824607422 345.5021153359999 L 805.289784627409 352.83201425266657 Z"/></g></g><g><g><rect fill="white" stroke="none" x="631.2209565263933" y="371.8897514359999" width="167.91171301101562" height="22.86928462"/></g><text fill="black" stroke="none" font-family="sans-serif" font-size="11pt" font-style="normal" font-weight="normal" text-decoration="normal" x="633.8597201363932" y="387.72233309599994" text-anchor="start" dominant-baseline="alphabetic" xml:space="preserve">return createSuccessful</text></g><g><path fill="none" stroke="black" paint-order="fill stroke markers" d=" M 819.9495824607422 394.7590360559999 L 624.8879238623932 394.7590360559999" stroke-miterlimit="10" stroke-width="1.4659797833333332" stroke-dasharray="7.0367029599999995"/><g transform="translate(610.4040436030599,394.7590360559999) translate(-610.4040436030599,-394.7590360559999)"><path fill="black" stroke="none" paint-order="stroke fill markers" d=" M 625.0638414363932 387.42913713933325 L 610.4040436030599 394.7590360559999 L 625.0638414363932 402.08893497266655 Z"/></g></g><g><g><rect fill="white" stroke="none" x="347.15453734390627" y="421.1466721559999" width="164.20376623367187" height="22.86928462"/></g><text fill="black" stroke="none" font-family="sans-serif" font-size="11pt" font-style="normal" font-weight="normal" text-decoration="normal" x="349.7933009539063" y="436.9792538159999" text-anchor="start" dominant-baseline="alphabetic" xml:space="preserve">return registSuccessful</text></g><g><path fill="none" stroke="black" paint-order="fill stroke markers" d=" M 592.8122862030599 444.0159567759999 L 280.1844349777578 444.0159567759999" stroke-miterlimit="10" stroke-width="1.4659797833333332" stroke-dasharray="7.0367029599999995"/><g transform="translate(265.7005547184245,444.0159567759999) translate(-265.7005547184245,-444.0159567759999)"><path fill="black" stroke="none" paint-order="stroke fill markers" d=" M 280.36035255175784 436.68605785933323 L 265.7005547184245 444.0159567759999 L 280.36035255175784 451.34585569266653 Z"/></g></g><g><g><rect fill="white" stroke="none" x="137.4044862644466" y="470.4035928759999" width="5.27752722" height="22.86928462"/></g><text fill="black" stroke="none" font-family="sans-serif" font-size="11pt" font-style="normal" font-weight="normal" text-decoration="normal" x="140.04324987444662" y="486.2361745359999" text-anchor="start" dominant-baseline="alphabetic" xml:space="preserve"></text></g><g><path fill="none" stroke="black" paint-order="fill stroke markers" d=" M 248.10879731842448 493.27287749599986 L 46.461582689802086 493.27287749599986" stroke-miterlimit="10" stroke-width="1.4659797833333332" stroke-dasharray="7.0367029599999995"/><g transform="translate(31.97770243046875,493.27287749599986) translate(-31.97770243046875,-493.27287749599986)"><path fill="black" stroke="none" paint-order="stroke fill markers" d=" M 46.63750026380208 485.9429785793332 L 31.97770243046875 493.27287749599986 L 46.63750026380208 500.6027764126665 Z"/></g></g></g><g/><g/><g/><g/><g/></g></svg>