<svg version="1.1" xmlns="http://www.w3.org/2000/svg" xmlns:xlink="http://www.w3.org/1999/xlink" width="853" height="1010"><defs/><g><g/><g/><g/><g/><g/><g/><g/><g/><g/><g/><g/><g/><g/><g/><g><rect fill="white" stroke="none" x="0" y="0" width="853" height="1010"/></g><g><text fill="black" stroke="none" font-family="sans-serif" font-size="16.5pt" font-style="normal" font-weight="normal" text-decoration="normal" x="330.85261983219334" y="26.3876361" text-anchor="start" dominant-baseline="alphabetic" xml:space="preserve">Retrieve Password</text></g><g/><g><path fill="none" stroke="black" paint-order="fill stroke markers" d=" M 24.61906748173828 139.67855375599999 L 24.61906748173828 1010.1187099080001" stroke-miterlimit="10" stroke-width="1.4659797833333332" stroke-dasharray="13.532121076923076,5.863919133333333"/><path fill="none" stroke="black" paint-order="fill stroke markers" d=" M 291.8223777396159 302.22639213199994 L 291.8223777396159 1010.1187099080001" stroke-miterlimit="10" stroke-width="1.4659797833333332" stroke-dasharray="13.532121076923076,5.863919133333333"/><path fill="none" stroke="black" paint-order="fill stroke markers" d=" M 291.8223777396159 702.2629554079999 L 291.8223777396159 1010.1187099080001" stroke-miterlimit="10" stroke-width="1.4659797833333332" stroke-dasharray="13.532121076923076,5.863919133333333"/><path fill="none" stroke="black" paint-order="fill stroke markers" d=" M 436.0666851366367 139.67855375599999 L 436.0666851366367 1010.1187099080001" stroke-miterlimit="10" stroke-width="1.4659797833333332" stroke-dasharray="13.532121076923076,5.863919133333333"/><path fill="none" stroke="black" paint-order="fill stroke markers" d=" M 580.3109925336576 139.67855375599999 L 580.3109925336576 1010.1187099080001" stroke-miterlimit="10" stroke-width="1.4659797833333332" stroke-dasharray="13.532121076923076,5.863919133333333"/><path fill="none" stroke="black" paint-order="fill stroke markers" d=" M 809.8606117893867 139.67855375599999 L 809.8606117893867 1010.1187099080001" stroke-miterlimit="10" stroke-width="1.4659797833333332" stroke-dasharray="13.532121076923076,5.863919133333333"/></g><g><g><path fill="white" stroke="black" paint-order="fill stroke markers" d=" M 34.64636919973828 65.265419954 A 10.027301717999999 10.027301717999999 0 1 1 34.64636418608784 65.25539265395321 M 24.61906748173828 75.29272167199998 L 24.61906748173828 96.75466569999998 M 11.953002153738282 83.033094928 L 37.28513280973828 83.033094928 M 24.61906748173828 96.75466569999998 L 11.953002153738282 116.80926913599998 M 24.61906748173828 96.75466569999998 L 37.28513280973828 116.80926913599998" stroke-miterlimit="10" stroke-width="2.990598758" stroke-dasharray=""/></g><g><g/><text fill="black" stroke="none" font-family="sans-serif" font-size="11pt" font-style="normal" font-weight="normal" text-decoration="normal" x="8.7958787" y="134.401026536" text-anchor="start" dominant-baseline="alphabetic" xml:space="preserve">User</text></g><g><path fill="white" stroke="black" paint-order="fill stroke markers" d=" M 470.9863235756367 89.19021001799997 A 26.123759739 26.123759739 0 1 1 470.9863105137579 89.16408626261492 M 402.6423460766367 61.57115089999997 L 402.6423460766367 116.80926913599997 M 401.1470466976367 89.19021001799997 L 418.7388040976367 89.19021001799997" stroke-miterlimit="10" stroke-width="2.990598758" stroke-dasharray=""/></g><g><g/><text fill="black" stroke="none" font-family="sans-serif" font-size="11pt" font-style="normal" font-weight="normal" text-decoration="normal" x="399.8497890795078" y="134.401026536" text-anchor="start" dominant-baseline="alphabetic" xml:space="preserve">RetrieveUI</text></g><g><path fill="white" stroke="black" paint-order="fill stroke markers" d=" M 606.4347522726575 89.19021001799997 A 26.123759739 26.123759739 0 1 1 606.4347392107787 89.16408626261492 M 576.7926410536576 63.06645027899997 L 587.3476954936576 54.27057157899998 M 576.7926410536576 63.06645027899997 L 587.3476954936576 71.86232897899997" stroke-miterlimit="10" stroke-width="2.990598758" stroke-dasharray=""/></g><g><g/><text fill="black" stroke="none" font-family="sans-serif" font-size="11pt" font-style="normal" font-weight="normal" text-decoration="normal" x="535.858592326138" y="134.401026536" text-anchor="start" dominant-baseline="alphabetic" xml:space="preserve">UserManage</text></g><g><path fill="white" stroke="black" paint-order="fill stroke markers" d=" M 784.1766459853867 105.19870925199999 L 784.1766459853867 68.25601871199999 L 835.5445775933866 68.25601871199999 L 835.5445775933866 105.19870925199999" stroke-miterlimit="10" stroke-width="2.990598758" stroke-dasharray=""/><path fill="white" stroke="black" paint-order="fill stroke markers" d=" M 835.5445775933866 66.97182042179999 L 835.5432934057981 67.08792408555635 L 835.5394409714501 67.20401613904309 L 835.5330206755827 67.3200849731516 L 835.5240331602204 67.43611898109519 L 835.5124793241071 67.55210655956978 L 835.4983603226168 67.66803610991414 L 835.4816775676379 67.78389603926989 L 835.462432727432 67.8996747617406 L 835.440627726467 68.01536069955054 L 835.416264745225 68.1309422842023 L 835.3893462199837 68.24640795763378 L 835.3598748425733 68.3617461733738 L 835.3278535601067 68.47694539769695 L 835.2932855746858 68.59199411077678 L 835.2561743430801 68.70688080783783 L 835.2165235763821 68.82159400030618 L 835.1743372396352 68.93612221695814 L 835.1296195514378 69.0504540050675 L 835.0823749835218 69.16457793155072 L 835.0326082603044 69.27848258411025 L 834.9803243584165 69.39215657237577 L 834.9255285062047 69.50558852904317 L 834.8682261832087 69.61876711101131 L 834.8084231196128 69.73168100051632 L 834.7461252956737 69.84431890626333 L 834.6813389411218 69.95666956455563 L 834.6140705345387 70.06872174042103 L 834.5443268027087 70.18046422873529 L 834.4721147199472 70.29188585534273 L 834.3974415074022 70.40297547817353 L 834.3203146323326 70.51372198835797 L 834.2407418073617 70.62411431133734 L 834.1587309897058 70.73414140797132 L 834.0742903803782 70.84379227564195 L 833.9874284233695 70.95305594935381 L 833.898153804803 71.06192150283061 L 833.8064754520661 71.1703780496077 L 833.7124025329178 71.27841474412082 L 833.6159444545717 71.38602078279051 L 833.517110862755 71.4931854051026 L 833.4159116407446 71.59989789468413 L 833.3123569083785 71.7061475803751 L 833.2064570210437 71.81192383729548 L 833.0982225686404 71.9172160879077 L 832.9876643745237 72.02201380307447 L 832.874793494421 72.12630650311159 L 832.7596212153263 72.23008375883597 L 832.6421590543714 72.33333519260853 L 832.5224187576746 72.43605047937191 L 832.4004122991657 72.53821934768304 L 832.276151879389 72.63983158074024 L 832.1496499242827 72.74087701740487 L 832.0209190839372 72.84134555321748 L 831.889972231329 72.94122714140819 L 831.7568224610344 73.04051179390143 L 831.6214830879195 73.13918958231469 L 831.4839676458087 73.23725063895135 L 831.3442898861315 73.33468515778748 L 831.2024637765478 73.43148339545236 L 831.0585034995502 73.52763567220293 L 830.9124234510464 73.6231323728916 L 830.7642382389195 73.71796394792793 L 830.6139626815673 73.8121209142334 L 830.4616118064203 73.90559385618985 L 830.307200848439 73.998373426581 L 830.1507452485906 74.09045034752711 L 829.9922606523047 74.18181541141281 L 829.8317629079088 74.27245948180787 L 829.6692680650436 74.36237349438078 L 829.504792373058 74.45154845780519 L 829.3383522793841 74.53997545465909 L 829.1699644278926 74.62764564231648 L 828.9996456572285 74.71455025383165 L 828.8274129991265 74.80068059881587 L 828.6532836767093 74.88602806430642 L 828.4772751027639 74.97058411562787 L 828.2994048780008 75.05434029724555 L 828.1196907892946 75.13728823361109 L 827.9381508079043 75.21941962999999 L 827.7548030876766 75.30072627334106 L 827.5696659632309 75.38120003303769 L 827.3827579481253 75.46083286178099 L 827.1940977330056 75.53961679635444 L 827.003704183736 75.61754395843025 L 826.8115963395129 75.69460655535714 L 826.6177934109605 75.77079688093964 L 826.4223147782102 75.84610731620869 L 826.2251799889625 75.9205303301835 L 826.0264087565319 75.99405848062472 L 825.8260209578759 76.06668441477855 L 825.6240366316076 76.13840087011211 L 825.4204759759913 76.20920067503964 L 825.2153593469228 76.27907674963963 L 825.008707255894 76.34802210636286 L 824.8005403679421 76.4160298507311 L 824.5908794995822 76.48309318202661 L 824.3797456167264 76.54920539397213 L 824.1671598325871 76.61435987540155 L 823.9531434055657 76.67855011092104 L 823.7377177371263 76.74176968156053 L 823.5209043696564 76.80401226541565 L 823.3027249843119 76.86527163827986 L 823.0832013988497 76.92554167426694 L 822.8623555654455 76.98481634642351 L 822.6402095684982 77.04308972733178 L 822.4167856224227 77.10035598970217 L 822.1921060694274 77.15660940695618 L 821.9661933772802 77.21184435379898 L 821.7390701370623 77.26605530678191 L 821.5107590609082 77.31923684485484 L 821.2812829797355 77.37138364990828 L 821.0506648409607 77.42249050730518 L 820.8189277062061 77.4725523064024 L 820.5860947489915 77.52156404106174 L 820.3521892524188 77.56952081015058 L 820.1172346068428 77.61641781803196 L 819.8812543075322 77.6622503750442 L 819.6442719523203 77.70701389796976 L 819.4063112392452 77.75070391049368 L 819.1673959641797 77.7933160436511 L 818.9275500184525 77.83484603626422 L 818.686797386458 77.87528973536838 L 818.445162143259 77.91464309662739 L 818.2026684521784 77.9529021847379 L 817.9593405623832 77.99006317382297 L 817.7152028064596 78.02612234781469 L 817.4702795979798 78.0610761008257 L 817.2245954290605 78.09492093750981 L 816.9781748679138 78.12765347341158 L 816.7310425563905 78.15927043530469 L 816.4832232075161 78.18976866151928 L 816.2347416030184 78.21914510225817 L 815.9856225908512 78.24739681990175 L 815.7358910827081 78.27452098930179 L 815.4855720515317 78.30051489806398 L 815.2346905290165 78.32537594681908 L 814.9832716031057 78.34910164948295 L 814.7313404154824 78.37168963350508 L 814.4789221590554 78.39313764010592 L 814.22604207544 78.41344352450264 L 813.9727254524339 78.43260525612375 L 813.7189976214883 78.45062091881205 L 813.4648839551746 78.46748871101629 L 813.210409864648 78.48320694597129 L 812.9556007971054 78.49777405186667 L 812.7004822332411 78.51118857200397 L 812.4450796846991 78.52344916494236 L 812.189418691521 78.53455460463276 L 811.9335248195937 78.54450378054045 L 811.6774236580906 78.55329569775614 L 811.4211408169147 78.56092947709544 L 811.1647019241364 78.56740435518677 L 810.9081326234315 78.57271968454769 L 810.651458571516 78.57687493364975 L 810.3947054355814 78.57986968697145 L 810.1378988907271 78.58170364504 L 809.8810646173939 78.58237662446106 L 809.624228298795 78.58188855793732 L 809.367415618348 78.58023949427498 L 809.1106522571072 78.57742959837903 L 808.8539638911947 78.57345915123673 L 808.597376189233 78.56832854988951 L 808.3409148097787 78.56203830739318 L 808.084605398756 78.5545890527668 L 807.8284735868924 78.54598153092958 L 807.5725449871555 78.53621660262655 L 807.3168451921922 78.5252952443424 L 807.0613997717687 78.51321854820387 L 806.8062342702144 78.4999877218705 L 806.5513742038667 78.48560408841388 L 806.2968450585198 78.4700690861854 L 806.0426722868763 78.45338426867232 L 805.7888813060014 78.4355513043425 L 805.5354974947817 78.41657197647748 L 805.2825461913872 78.39644818299428 L 805.0300526907375 78.37518193625543 L 804.7780422419722 78.35277536286792 L 804.5265400459261 78.32923070347039 L 804.2755712526094 78.30455031250918 L 804.0251609586923 78.2787366580028 L 803.7753342049951 78.2517923212952 L 803.5261159739856 78.2237199967976 L 803.2775311872788 78.19452249171906 L 803.0296047031462 78.16420272578573 L 802.7823613140299 78.13276373094897 L 802.5358257440625 78.10020865108203 L 802.2900226465958 78.0665407416658 L 802.0449766017346 78.03176336946316 L 801.800712113879 77.99588001218234 L 801.5572536092744 77.95889425812916 L 801.3146254335685 77.92080980584822 L 801.0728518493764 77.881630463753 L 800.8319570338552 77.84136014974506 L 800.5919650762859 77.80000289082224 L 800.3528999756638 77.75756282267598 L 800.1147856383002 77.71404418927773 L 799.8776458754302 77.66945134245454 L 799.6415044008324 77.62378874145395 L 799.4063848284576 77.57706095249802 L 799.1723106700671 77.52927264832667 L 798.9393053328815 77.48042860773052 L 798.7073921172407 77.43053371507293 L 798.4765942142726 77.37959295980157 L 798.2469347035756 77.32761143594954 L 798.018436550909 77.27459434162587 L 797.7911226058977 77.22054697849586 L 797.565015599747 77.16547475125074 L 797.340138142969 77.10938316706736 L 797.1165127231219 77.0522778350574 L 796.8941617025613 76.99416446570646 L 796.6731073162042 76.93504887030305 L 796.4533716693047 76.87493696035746 L 796.2349767352447 76.81383474701059 L 796.0179443533353 76.75174834043284 L 795.8022962266341 76.68868394921314 L 795.588053919774 76.62464787973806 L 795.3752388568071 76.5596465355612 L 795.1638723190622 76.49368641676277 L 794.9539754430172 76.42677411929971 L 794.7455692181846 76.358916334346 L 794.5386744850134 76.2901198476236 L 794.3333119328043 76.22039153872383 L 794.1295020976415 76.14973838041949 L 793.9272653603388 76.07816743796754 L 793.7266219444011 76.00568586840255 L 793.527591914003 75.9323009198211 L 793.3301951719817 75.8580199306569 L 793.1344514578467 75.78285032894695 L 792.9403803458066 75.70679963158878 L 792.7480012428106 75.62987544358876 L 792.5573333866088 75.55208545730159 L 792.368395843828 75.47343745166106 L 792.1812075080649 75.3939392914022 L 791.9957870979971 75.31359892627479 L 791.8121531555112 75.2324243902484 L 791.6303240438483 75.15042380070896 L 791.4503179457681 75.06760535764712 L 791.2721528617305 74.98397734283817 L 791.0958466080953 74.89954811901389 L 790.921416815341 74.8143261290263 L 790.7488809263014 74.72831989500338 L 790.5782561944218 74.64153801749687 L 790.4095596820331 74.5539891746222 L 790.2428082586459 74.46568212119071 L 790.0780185992637 74.37662568783415 L 789.9152071827151 74.28682878012162 L 789.7543902900061 74.19630037766909 L 789.5955840026918 74.10504953324134 L 789.4388042012688 74.0130853718468 L 789.2840665635864 73.92041708982494 L 789.1313865632796 73.82705395392676 L 788.980779468221 73.73300530038806 L 788.832260338995 73.63828053399578 L 788.6858440273902 73.54288912714766 L 788.5415451749161 73.44684061890487 L 788.3993782113375 73.3501446140382 L 788.2593573532325 73.25281078206757 L 788.1214966025702 73.15484885629505 L 787.9858097453107 73.05626863283157 L 787.8523103500266 72.95707996961737 L 787.7210117665462 72.85729278543607 L 787.5919271246186 72.75691705892295 L 787.4650693326003 72.65596282756702 L 787.3404510761646 72.5544401867073 L 787.2180848170337 72.45235928852324 L 787.0979827917313 72.34973034101961 L 786.9801570103598 72.24656360700563 L 786.8646192553992 72.14286940306874 L 786.7513810805287 72.03865809854291 L 786.6404538094716 71.93394011447177 L 786.5318485348623 71.82872592256643 L 786.425576117138 71.72302604415843 L 786.3216471834517 71.61685104914753 L 786.2200721266103 71.51021155494473 L 786.1208611040348 71.4031182254106 L 786.0240240367447 71.29558176978884 L 785.9295706083661 71.1876129416354 L 785.8375102641633 71.07922253774314 L 785.7478522100937 70.9704213970621 L 785.6606054118881 70.86122039961568 L 785.5757785941538 70.75163046541265 L 785.4933802395016 70.64166255335508 L 785.4134185876984 70.53132766014255 L 785.3359016348429 70.42063681917243 L 785.2608371325656 70.30960109943658 L 785.1882325872542 70.19823160441445 L 785.1180952593029 70.0865394709627 L 785.0504321623857 69.97453586820164 L 784.9852500627563 69.86223199639821 L 784.9225554785701 69.74963908584596 L 784.8623546792334 69.63676839574217 L 784.8046536847758 69.52363121306175 L 784.7494582652488 69.41023885142872 L 784.6967739401483 69.29660264998472 L 784.646605977863 69.18273397225522 L 784.5989593951472 69.0686442050131 L 784.5538389566195 68.95434475714 L 784.5112491742863 68.83984705848547 L 784.4711943070901 68.72516255872397 L 784.4336783604844 68.61030272620987 L 784.3987050860325 68.49527904683073 L 784.3662779810327 68.38010302285863 L 784.3364002881685 68.2647861718 L 784.3090749951845 68.14934002524383 L 784.2843048345869 68.03377612770858 L 784.2620922833713 67.9181060354877 L 784.2424395627743 67.80234131549402 L 784.2253486380516 67.68649354410306 L 784.2108212182814 67.57057430599544 L 784.1988587561934 67.45459519299835 L 784.1894624480241 67.33856780292646 L 784.1826332333964 67.22250373842208 L 784.178371795226 67.10641460579494 L 784.1766785596532 66.99031201386155 L 784.1775536960001 66.87420757278437 L 784.180997116754 66.75811289291076 L 784.1870084775755 66.64203958361193 L 784.1955871773337 66.52599925212212 L 784.2067323581655 66.41000350237775 L 784.2204429055623 66.29406393385715 L 784.2367174484808 66.17819214042055 L 784.2555543594802 66.06239970915072 L 784.2769517548851 65.94669821919432 L 784.3009074949738 65.8310992406039 L 784.3274191841923 65.71561433318102 L 784.3564841713936 65.60025504532017 L 784.3880995501034 65.48503291285398 L 784.4222621588102 65.36995945789971 L 784.4589685812814 65.25504618770695 L 784.4982151469055 65.14030459350695 L 784.5399979310586 65.02574614936354 L 784.584312755497 64.91138231102563 L 784.6311551887753 64.79722451478179 L 784.6805205466892 64.68328417631649 L 784.7324038927441 64.56957268956862 L 784.7868000386485 64.45610142559212 L 784.8437035448331 64.3428817314188 L 784.903108720995 64.22992492892377 L 784.9650096266658 64.1172423136931 L 785.0294000718065 64.00484515389444 L 785.0962736174265 63.89274468915009 L 785.1656235762268 63.78095212941312 L 785.2374430132693 63.66947865384635 L 785.3117247466702 63.558335409704426 L 785.388461348318 63.447533511219156 L 785.4676451446165 63.337084038488044 L 785.5492682172521 63.226998036366325 L 785.6333224039855 63.11728651336247 L 785.7197992994681 63.00796044053737 L 785.8086902560825 62.899030750407185 L 785.8999863848069 62.790508335850156 L 785.9936785561047 62.682404049017315 L 786.0897574008368 62.57472870024724 L 786.1882133111988 62.4674930569851 L 786.2890364416816 62.36070784270584 L 786.3922167100563 62.25438373584191 L 786.497743798382 62.148531368715396 L 786.6056071540378 62.04316132647479 L 786.715795990778 61.938284146036516 L 786.8282992898108 61.83391031503122 L 786.9431058009001 61.73005027075502 L 787.0602040434903 61.6267143991258 L 787.179582307855 61.52391303364461 L 787.3012286562669 61.42165645436233 L 787.4251309241926 61.31995488685167 L 787.5512767215088 61.21881850118463 L 787.6796534337407 61.1182574109155 L 787.810248223324 61.018281672069506 L 787.9430480308887 60.91890128213721 L 788.0780395765647 60.82012617907481 L 788.2152093613099 60.72196624031029 L 788.3545436682602 60.62443128175571 L 788.4960285641009 60.52753105682567 L 788.6396499004604 60.431275255461905 L 788.7853933153247 60.33567350316434 L 788.9332442344737 60.24073536002853 L 789.0831878729389 60.14647031978968 L 789.2352092364812 60.05288780887326 L 789.389293123091 59.959997185452366 L 789.545424124508 59.86780773851195 L 789.7035866277624 59.77632868691987 L 789.8637648167354 59.68556917850505 L 790.0259426737417 59.59553828914271 L 790.1901039811307 59.50624502184675 L 790.3562323229085 59.41769830586949 L 790.5243110863794 59.32990699580875 L 790.694323463807 59.24287987072236 L 790.8662524540953 59.15662563325033 L 791.0400808644886 59.0711529087445 L 791.2157913122907 58.986470244406114 L 791.3933662266031 58.90258610843103 L 791.5727878500825 58.81950888916295 L 791.7540382407161 58.737246894254554 L 791.9370992736157 58.65580834983679 L 792.1219526428307 58.57520139969624 L 792.3085798631782 58.49543410446074 L 792.4969622720918 58.41651444079334 L 792.6870810314873 58.33845030059465 L 792.8789171296474 58.26124949021362 L 793.0724513831221 58.18491972966697 L 793.2676644386474 58.10946865186714 L 793.4645367750803 58.03490380185903 L 793.6630487053513 57.96123263606552 L 793.8631803784328 57.88846252154177 L 794.0649117813242 57.816600735238616 L 794.2682227410535 57.74565446327479 L 794.4730929266939 57.67563080021837 L 794.6795018513976 57.60653674837731 L 794.8874288744444 57.53837921709922 L 795.0968532033049 57.47116502208042 L 795.307753895721 57.40490088468441 L 795.5201098617993 57.3395934312697 L 795.7338998661197 57.27524919252721 L 795.9491025298604 57.21187460282721 L 796.1656963329341 57.14947599957584 L 796.383659616141 57.088059622581426 L 796.6029705833345 57.02763161343051 L 796.8236073036006 56.96819801487362 L 797.0455477134512 56.9097647702211 L 797.2687696190302 56.85233772274873 L 797.493250698333 56.79592261511338 L 797.7189685034389 56.74052508877882 L 797.9459004627553 56.6861506834515 L 798.1740238832755 56.63280483652666 L 798.4033159528476 56.58049288254453 L 798.6337537424555 56.52922005265691 L 798.8653142085125 56.47899147410408 L 799.0979741951649 56.42981216970201 L 799.3317104366078 56.38168705734017 L 799.5664995594119 56.334620949489704 L 799.8023180848608 56.28861855272216 L 800.039142431298 56.24368446723889 L 800.2769489164866 56.199823186410995 L 800.5157137599762 56.157039096329996 L 800.7554130854813 56.11533647536926 L 800.9960229232692 56.07471949375613 L 801.2375192125564 56.035192213154914 L 801.4798778039155 55.99675858626073 L 801.7230744616893 55.959422456404255 L 801.9670848664146 55.923187557167346 L 802.2118846172542 55.88805751200974 L 802.4574492344371 55.85403583390668 L 802.7037541617062 55.82112592499761 L 802.9507747687742 55.78933107624601 L 803.1984863537859 55.758654467110254 L 803.4468641457895 55.72909916522569 L 803.6958833072126 55.70066812609789 L 803.9455189363467 55.67336419280706 L 804.1957460698369 55.64719009572377 L 804.4465396851784 55.62214845223594 L 804.6978747032185 55.598241766487035 L 804.949725990665 55.57547242912571 L 805.202068362599 55.55384271706673 L 805.4548765849936 55.533354793263264 L 805.7081253772371 55.51401070649064 L 805.9617894146616 55.4958123911414 L 806.2158433310744 55.47876166703191 L 806.4702617212957 55.46286023922039 L 806.7250191436987 55.44810969783636 L 806.9800901227532 55.434511517921656 L 807.2354491515739 55.42206705928295 L 807.4910706944707 55.41077756635575 L 807.7469291895026 55.40064416807991 L 808.0029990510329 55.39166787778682 L 808.2592546722891 55.38384959309805 L 808.5156704279225 55.37719009583553 L 808.7722206765714 55.37169005194345 L 809.0288797634245 55.36735001142162 L 809.285622022787 55.36417040827046 L 809.542421780647 55.36215156044765 L 809.7992533572428 55.36129366983628 L 810.0560910696307 55.3615968222247 L 810.3129092342535 55.363060987297914 L 810.5696821695087 55.36568601864066 L 810.8263841983168 55.369471653751965 L 811.0829896506888 55.37441751407148 L 811.3394728662932 55.3805231050173 L 811.5958081970224 55.38778781603543 L 811.8519700095568 55.39621092066079 L 812.1079326879287 55.40579157658996 L 812.3636706360835 55.41652882576533 L 812.6191582804394 55.428421594470926 L 812.874370072445 55.44146869343979 L 813.1292804911338 55.45566881797289 L 813.3838640456763 55.47102054806961 L 813.6380952779292 55.48752234856974 L 813.8919487649812 55.50517256930697 L 814.145399121695 55.52396944527395 L 814.3984210032462 55.54391109679874 L 814.6509891076576 55.56499552973279 L 814.9030781783291 55.587220635650404 L 815.1546630065637 55.61058419205949 L 815.4057184340883 55.63508386262389 L 815.6562193555693 55.660717197396956 L 815.9061407211234 55.687481633066575 L 816.1554575388222 55.715374493211485 L 816.4041448771918 55.744392988568904 L 816.6521778677055 55.7745342173135 L 816.8995317072711 55.8057951653475 L 817.1461816607106 55.83817270660215 L 817.3921030632341 55.871663603350314 L 817.6372713229066 55.90626450653023 L 817.8816619231063 55.941971956080394 L 818.1252504249767 55.97878238128563 L 818.3680124698708 56.01669210113408 L 818.6099237817863 56.055697324685354 L 818.8509601697936 56.095794151449596 L 819.0910975304548 56.136978571777554 L 819.330311850234 56.17924646726151 L 819.5685792078984 56.22259361114713 L 819.805875776911 56.267015668756166 L 820.0421778278125 56.31250819791986 L 820.2774617305947 56.35906664942321 L 820.5117039570636 56.40668636745987 L 820.7448810831916 56.455362590097714 L 820.9769697914603 56.505090449755045 L 821.2079468731924 56.55586497368733 L 821.4377892308722 56.60768108448449 L 821.6664738804556 56.66053360057863 L 821.8939779536679 56.71441723676219 L 822.1202787002917 56.76932660471643 L 822.3453534904406 56.82525621355034 L 822.5691798168235 56.88220047034963 L 822.791735296994 56.940153680736074 L 823.0129976755896 56.999110049436936 L 823.232944826557 57.05906368086447 L 823.4515547553641 57.120008579705484 L 823.6688056012005 57.1819386515209 L 823.8846756391623 57.244847703355134 L 824.099143282426 57.308729444355436 L 824.3121870844057 57.373577486400926 L 824.5237857408988 57.439385344741446 L 824.7339180922162 57.506146438646006 L 824.9425631252975 57.57385409206084 L 825.1496999758135 57.642501534277045 L 825.3553079302518 57.712081900607586 L 825.5593664279882 57.78258823307383 L 825.761855063343 57.854013481101276 L 825.9627535876214 57.92635050222464 L 826.1620419111383 57.99959206280211 L 826.3597001052276 58.07373083873863 L 826.5557084042345 58.14875941621842 L 826.7500472074923 58.224670292446234 L 826.942697081283 58.30145587639771 L 827.1336387607794 58.379108489578456 L 827.3228531519728 58.45762036679186 L 827.5103213335817 58.53698365691561 L 827.6960245589444 58.61719042368684 L 827.8799442578928 58.698232646495725 L 828.0620620386105 58.7801022211875 L 828.2423596894711 58.86279096087293 L 828.4208191808597 58.94629059674695 L 828.597422666976 59.03059277891555 L 828.7721524876183 59.115689077230776 L 828.9449911699505 59.2015709821337 L 829.1159214302484 59.2882299055054 L 829.284926175628 59.375657181525774 L 829.4519885057559 59.46384406754005 L 829.6170917145383 59.55278174493313 L 829.7802192917919 59.642461320011385 L 829.9413549248949 59.73287382489204 L 830.1004825004181 59.82401021839995 L 830.2575861057369 59.91586138697171 L 830.4126500306213 60.008418145567006 L 830.5656587688084 60.10167123858711 L 830.7165970195515 60.195611340800426 L 830.8654496891517 60.29022905827503 L 831.0122018924658 60.385514929318006 L 831.1568389543958 60.48145942542166 L 831.2993464113562 60.57805295221634 L 831.4397100127198 60.67528585042985 L 831.5779157222438 60.77314839685341 L 831.7139497194721 60.87163080531391 L 831.8477984011184 60.97072322765259 L 831.9794483824262 61.07041575470979 L 832.108886498507 61.170698417315876 L 832.2360998056571 61.271561187288164 L 832.3610755826517 61.3729939784337 L 832.4838013320173 61.47498664755789 L 832.6042647812811 61.577528995478836 L 832.7224538841989 61.68061076804718 L 832.8383568219585 61.78422165717158 L 832.951962004363 61.88835130184945 L 833.0632580709888 61.99298928920311 L 833.1722338923219 62.09812515552101 L 833.2788785708709 62.203748387304145 L 833.383181442257 62.30984842231735 L 833.4851320762798 62.416414650645535 L 833.584720277961 62.52343641575468 L 833.6819360885632 62.63090301555746 L 833.7767697865868 62.73880370348344 L 833.8692118887406 62.847127689553744 L 833.9592531508915 62.95586414146005 L 834.0468845689885 63.065002185647764 L 834.1320973799627 63.174530908403426 L 834.2148830626039 63.28443935694603 L 834.295233338413 63.39471654052231 L 834.3731401724293 63.50535143150581 L 834.4485957740344 63.61633296649962 L 834.5215925977309 63.72765004744274 L 834.5921233438974 63.83929154271982 L 834.6601809595179 63.951246288274376 L 834.7257586388876 64.06350308872516 L 834.7888498242933 64.17605071848564 L 834.8494482066689 64.28887792288667 L 834.9075477262268 64.40197341930181 L 834.9631425730634 64.51532589827566 L 835.0162271877402 64.6289240246548 L 835.0667962618402 64.74275643872124 L 835.114844738498 64.85681175732844 L 835.1603678129061 64.97107857503958 L 835.2033609327949 65.08554546526814 L 835.2438197988882 65.20020098142045 L 835.2817403653332 65.31503365804045 L 835.3171188401047 65.43003201195617 L 835.349951685385 65.54518454342806 L 835.3802356179166 65.66047973729893 L 835.4079676093316 65.77590606414547 L 835.4331448864541 65.89145198143119 L 835.4557649315773 66.00710593466063 L 835.4758254827153 66.12285635853486 L 835.4933245338301 66.23869167810795 L 835.508260335031 66.35460030994449 L 835.5206313927501 66.47057066327784 L 835.5304364698924 66.58659114116935 L 835.5376745859579 66.70265014166789 L 835.5423450171413 66.81873605897015 L 835.5444472964033 66.9348372845811 M 835.5445775933866 103.91451096179999 L 835.5432934057981 104.03061462555635 L 835.5394409714501 104.14670667904309 L 835.5330206755827 104.2627755131516 L 835.5240331602204 104.37880952109519 L 835.5124793241071 104.49479709956978 L 835.4983603226168 104.61072664991414 L 835.4816775676379 104.72658657926989 L 835.462432727432 104.8423653017406 L 835.440627726467 104.95805123955054 L 835.416264745225 105.0736328242023 L 835.3893462199837 105.18909849763378 L 835.3598748425733 105.3044367133738 L 835.3278535601067 105.41963593769695 L 835.2932855746858 105.53468465077678 L 835.2561743430801 105.64957134783783 L 835.2165235763821 105.76428454030618 L 835.1743372396352 105.87881275695814 L 835.1296195514378 105.9931445450675 L 835.0823749835218 106.10726847155073 L 835.0326082603044 106.22117312411025 L 834.9803243584165 106.33484711237577 L 834.9255285062047 106.44827906904317 L 834.8682261832087 106.56145765101131 L 834.8084231196128 106.67437154051632 L 834.7461252956737 106.78700944626333 L 834.6813389411218 106.89936010455563 L 834.6140705345387 107.01141228042103 L 834.5443268027087 107.12315476873529 L 834.4721147199472 107.23457639534273 L 834.3974415074022 107.34566601817353 L 834.3203146323326 107.45641252835797 L 834.2407418073617 107.56680485133734 L 834.1587309897058 107.67683194797132 L 834.0742903803782 107.78648281564195 L 833.9874284233695 107.89574648935381 L 833.898153804803 108.00461204283062 L 833.8064754520661 108.1130685896077 L 833.7124025329178 108.22110528412082 L 833.6159444545717 108.32871132279051 L 833.517110862755 108.4358759451026 L 833.4159116407446 108.54258843468413 L 833.3123569083785 108.6488381203751 L 833.2064570210437 108.75461437729548 L 833.0982225686404 108.8599066279077 L 832.9876643745237 108.96470434307447 L 832.874793494421 109.0689970431116 L 832.7596212153263 109.17277429883598 L 832.6421590543714 109.27602573260853 L 832.5224187576746 109.37874101937192 L 832.4004122991657 109.48090988768304 L 832.276151879389 109.58252212074024 L 832.1496499242827 109.68356755740487 L 832.0209190839372 109.78403609321748 L 831.889972231329 109.88391768140819 L 831.7568224610344 109.98320233390143 L 831.6214830879195 110.08188012231469 L 831.4839676458087 110.17994117895135 L 831.3442898861315 110.27737569778748 L 831.2024637765478 110.37417393545236 L 831.0585034995502 110.47032621220293 L 830.9124234510464 110.5658229128916 L 830.7642382389195 110.66065448792793 L 830.6139626815673 110.7548114542334 L 830.4616118064203 110.84828439618985 L 830.307200848439 110.941063966581 L 830.1507452485906 111.03314088752711 L 829.9922606523047 111.12450595141281 L 829.8317629079088 111.21515002180787 L 829.6692680650436 111.30506403438078 L 829.504792373058 111.39423899780519 L 829.3383522793841 111.48266599465909 L 829.1699644278926 111.57033618231648 L 828.9996456572285 111.65724079383165 L 828.8274129991265 111.74337113881587 L 828.6532836767093 111.82871860430642 L 828.4772751027639 111.91327465562787 L 828.2994048780008 111.99703083724555 L 828.1196907892946 112.07997877361109 L 827.9381508079043 112.16211016999999 L 827.7548030876766 112.24341681334106 L 827.5696659632309 112.32389057303769 L 827.3827579481253 112.40352340178099 L 827.1940977330056 112.48230733635444 L 827.003704183736 112.56023449843025 L 826.8115963395129 112.63729709535714 L 826.6177934109605 112.71348742093964 L 826.4223147782102 112.78879785620869 L 826.2251799889625 112.8632208701835 L 826.0264087565319 112.93674902062472 L 825.8260209578759 113.00937495477855 L 825.6240366316076 113.08109141011211 L 825.4204759759913 113.15189121503964 L 825.2153593469228 113.22176728963963 L 825.008707255894 113.29071264636286 L 824.8005403679421 113.35872039073111 L 824.5908794995822 113.42578372202661 L 824.3797456167264 113.49189593397213 L 824.1671598325871 113.55705041540155 L 823.9531434055657 113.62124065092104 L 823.7377177371263 113.68446022156053 L 823.5209043696564 113.74670280541565 L 823.3027249843119 113.80796217827987 L 823.0832013988497 113.86823221426694 L 822.8623555654455 113.92750688642352 L 822.6402095684982 113.98578026733178 L 822.4167856224227 114.04304652970217 L 822.1921060694274 114.09929994695618 L 821.9661933772802 114.15453489379898 L 821.7390701370623 114.20874584678191 L 821.5107590609082 114.26192738485484 L 821.2812829797355 114.31407418990828 L 821.0506648409607 114.36518104730519 L 820.8189277062061 114.4152428464024 L 820.5860947489915 114.46425458106174 L 820.3521892524188 114.51221135015058 L 820.1172346068428 114.55910835803196 L 819.8812543075322 114.6049409150442 L 819.6442719523203 114.64970443796976 L 819.4063112392452 114.69339445049368 L 819.1673959641797 114.7360065836511 L 818.9275500184525 114.77753657626423 L 818.686797386458 114.81798027536838 L 818.445162143259 114.85733363662739 L 818.2026684521784 114.8955927247379 L 817.9593405623832 114.93275371382298 L 817.7152028064596 114.96881288781469 L 817.4702795979798 115.0037666408257 L 817.2245954290605 115.03761147750981 L 816.9781748679138 115.07034401341159 L 816.7310425563905 115.10196097530469 L 816.4832232075161 115.13245920151928 L 816.2347416030184 115.16183564225817 L 815.9856225908512 115.19008735990175 L 815.7358910827081 115.21721152930179 L 815.4855720515317 115.24320543806398 L 815.2346905290165 115.26806648681908 L 814.9832716031057 115.29179218948295 L 814.7313404154824 115.31438017350509 L 814.4789221590554 115.33582818010592 L 814.22604207544 115.35613406450264 L 813.9727254524339 115.37529579612375 L 813.7189976214883 115.39331145881205 L 813.4648839551746 115.41017925101629 L 813.210409864648 115.42589748597129 L 812.9556007971054 115.44046459186667 L 812.7004822332411 115.45387911200397 L 812.4450796846991 115.46613970494236 L 812.189418691521 115.47724514463276 L 811.9335248195937 115.48719432054045 L 811.6774236580906 115.49598623775614 L 811.4211408169147 115.50362001709544 L 811.1647019241364 115.51009489518677 L 810.9081326234315 115.5154102245477 L 810.651458571516 115.51956547364975 L 810.3947054355814 115.52256022697145 L 810.1378988907271 115.52439418504 L 809.8810646173939 115.52506716446106 L 809.624228298795 115.52457909793732 L 809.367415618348 115.52293003427498 L 809.1106522571072 115.52012013837903 L 808.8539638911947 115.51614969123673 L 808.597376189233 115.51101908988952 L 808.3409148097787 115.50472884739318 L 808.084605398756 115.4972795927668 L 807.8284735868924 115.48867207092958 L 807.5725449871555 115.47890714262655 L 807.3168451921922 115.4679857843424 L 807.0613997717687 115.45590908820387 L 806.8062342702144 115.4426782618705 L 806.5513742038667 115.42829462841388 L 806.2968450585198 115.4127596261854 L 806.0426722868763 115.39607480867232 L 805.7888813060014 115.3782418443425 L 805.5354974947817 115.35926251647749 L 805.2825461913872 115.33913872299428 L 805.0300526907375 115.31787247625543 L 804.7780422419722 115.29546590286792 L 804.5265400459261 115.27192124347039 L 804.2755712526094 115.24724085250918 L 804.0251609586923 115.2214271980028 L 803.7753342049951 115.1944828612952 L 803.5261159739856 115.1664105367976 L 803.2775311872788 115.13721303171906 L 803.0296047031462 115.10689326578573 L 802.7823613140299 115.07545427094897 L 802.5358257440625 115.04289919108203 L 802.2900226465958 115.0092312816658 L 802.0449766017346 114.97445390946316 L 801.800712113879 114.93857055218234 L 801.5572536092744 114.90158479812916 L 801.3146254335685 114.86350034584822 L 801.0728518493764 114.824321003753 L 800.8319570338552 114.78405068974506 L 800.5919650762859 114.74269343082224 L 800.3528999756638 114.70025336267598 L 800.1147856383002 114.65673472927773 L 799.8776458754302 114.61214188245454 L 799.6415044008324 114.56647928145395 L 799.4063848284576 114.51975149249802 L 799.1723106700671 114.47196318832667 L 798.9393053328815 114.42311914773052 L 798.7073921172407 114.37322425507293 L 798.4765942142726 114.32228349980157 L 798.2469347035756 114.27030197594954 L 798.018436550909 114.21728488162587 L 797.7911226058977 114.16323751849586 L 797.565015599747 114.10816529125074 L 797.340138142969 114.05207370706736 L 797.1165127231219 113.9949683750574 L 796.8941617025613 113.93685500570646 L 796.6731073162042 113.87773941030305 L 796.4533716693047 113.81762750035746 L 796.2349767352447 113.75652528701059 L 796.0179443533353 113.69443888043284 L 795.8022962266341 113.63137448921314 L 795.588053919774 113.56733841973806 L 795.3752388568071 113.5023370755612 L 795.1638723190622 113.43637695676277 L 794.9539754430172 113.36946465929971 L 794.7455692181846 113.301606874346 L 794.5386744850134 113.2328103876236 L 794.3333119328043 113.16308207872383 L 794.1295020976415 113.0924289204195 L 793.9272653603388 113.02085797796754 L 793.7266219444011 112.94837640840255 L 793.527591914003 112.8749914598211 L 793.3301951719817 112.8007104706569 L 793.1344514578467 112.72554086894695 L 792.9403803458066 112.64949017158878 L 792.7480012428106 112.57256598358876 L 792.5573333866088 112.49477599730159 L 792.368395843828 112.41612799166106 L 792.1812075080649 112.3366298314022 L 791.9957870979971 112.2562894662748 L 791.8121531555112 112.1751149302484 L 791.6303240438483 112.09311434070896 L 791.4503179457681 112.01029589764713 L 791.2721528617305 111.92666788283817 L 791.0958466080953 111.84223865901389 L 790.921416815341 111.7570166690263 L 790.7488809263014 111.67101043500338 L 790.5782561944218 111.58422855749687 L 790.4095596820331 111.4966797146222 L 790.2428082586459 111.40837266119071 L 790.0780185992637 111.31931622783415 L 789.9152071827151 111.22951932012163 L 789.7543902900061 111.13899091766909 L 789.5955840026918 111.04774007324134 L 789.4388042012688 110.9557759118468 L 789.2840665635864 110.86310762982494 L 789.1313865632796 110.76974449392677 L 788.980779468221 110.67569584038806 L 788.832260338995 110.58097107399578 L 788.6858440273902 110.48557966714766 L 788.5415451749161 110.38953115890487 L 788.3993782113375 110.2928351540382 L 788.2593573532325 110.19550132206757 L 788.1214966025702 110.09753939629505 L 787.9858097453107 109.99895917283158 L 787.8523103500266 109.89977050961737 L 787.7210117665462 109.79998332543607 L 787.5919271246186 109.69960759892295 L 787.4650693326003 109.59865336756702 L 787.3404510761646 109.4971307267073 L 787.2180848170337 109.39504982852324 L 787.0979827917313 109.29242088101961 L 786.9801570103598 109.18925414700563 L 786.8646192553992 109.08555994306874 L 786.7513810805287 108.98134863854291 L 786.6404538094716 108.87663065447177 L 786.5318485348623 108.77141646256644 L 786.425576117138 108.66571658415843 L 786.3216471834517 108.55954158914753 L 786.2200721266103 108.45290209494473 L 786.1208611040348 108.3458087654106 L 786.0240240367447 108.23827230978884 L 785.9295706083661 108.1303034816354 L 785.8375102641633 108.02191307774314 L 785.7478522100937 107.9131119370621 L 785.6606054118881 107.80391093961568 L 785.5757785941538 107.69432100541265 L 785.4933802395016 107.58435309335508 L 785.4134185876984 107.47401820014255 L 785.3359016348429 107.36332735917243 L 785.2608371325656 107.25229163943658 L 785.1882325872542 107.14092214441445 L 785.1180952593029 107.0292300109627 L 785.0504321623857 106.91722640820164 L 784.9852500627563 106.80492253639821 L 784.9225554785701 106.69232962584596 L 784.8623546792334 106.57945893574217 L 784.8046536847758 106.46632175306175 L 784.7494582652488 106.35292939142872 L 784.6967739401483 106.23929318998472 L 784.646605977863 106.12542451225522 L 784.5989593951472 106.0113347450131 L 784.5538389566195 105.89703529714001 L 784.5112491742863 105.78253759848548 L 784.4711943070901 105.66785309872397 L 784.4336783604844 105.55299326620987 L 784.3987050860325 105.43796958683073 L 784.3662779810327 105.32279356285864 L 784.3364002881685 105.2074767118 L 784.3090749951845 105.09203056524383 L 784.2843048345869 104.97646666770858 L 784.2620922833713 104.8607965754877 L 784.2424395627743 104.74503185549402 L 784.2253486380516 104.62918408410306 L 784.2108212182814 104.51326484599544 L 784.1988587561934 104.39728573299836 L 784.1894624480241 104.28125834292646 L 784.1826332333964 104.16519427842208 L 784.178371795226 104.04910514579494 L 784.1766785596532 103.93300255386156" stroke-miterlimit="10" stroke-width="2.990598758" stroke-dasharray=""/></g><g><g/><text fill="black" stroke="none" font-family="sans-serif" font-size="11pt" font-style="normal" font-weight="normal" text-decoration="normal" x="799.678070895832" y="134.401026536" text-anchor="start" dominant-baseline="alphabetic" xml:space="preserve">DB</text></g></g><g><path fill="white" stroke="black" paint-order="fill stroke markers" d=" M 283.0264990396159 302.22639213199994 L 300.6182564396159 302.22639213199994 L 300.6182564396159 351.4833128519999 L 283.0264990396159 351.4833128519999 L 283.0264990396159 302.22639213199994" stroke-miterlimit="10" stroke-width="1.4659797833333332" stroke-dasharray=""/><path fill="white" stroke="black" paint-order="fill stroke markers" d=" M 801.0647330893867 449.9971542919999 L 818.6564904893867 449.9971542919999 L 818.6564904893867 597.7679164519999 L 801.0647330893867 597.7679164519999 L 801.0647330893867 449.9971542919999" stroke-miterlimit="10" stroke-width="1.4659797833333332" stroke-dasharray=""/><path fill="white" stroke="black" paint-order="fill stroke markers" d=" M 571.5151138336576 449.9971542919999 L 589.1068712336576 449.9971542919999 L 589.1068712336576 597.7679164519999 L 571.5151138336576 597.7679164519999 L 571.5151138336576 449.9971542919999" stroke-miterlimit="10" stroke-width="1.4659797833333332" stroke-dasharray=""/><path fill="white" stroke="black" paint-order="fill stroke markers" d=" M 283.0264990396159 702.2629554079999 L 300.6182564396159 702.2629554079999 L 300.6182564396159 800.776796848 L 283.0264990396159 800.776796848 L 283.0264990396159 702.2629554079999" stroke-miterlimit="10" stroke-width="1.4659797833333332" stroke-dasharray=""/><path fill="white" stroke="black" paint-order="fill stroke markers" d=" M 571.5151138336576 800.776796848 L 589.1068712336576 800.776796848 L 589.1068712336576 948.5475590080001 L 571.5151138336576 948.5475590080001 L 571.5151138336576 800.776796848" stroke-miterlimit="10" stroke-width="1.4659797833333332" stroke-dasharray=""/><path fill="white" stroke="black" paint-order="fill stroke markers" d=" M 801.0647330893867 850.033717568 L 818.6564904893867 850.033717568 L 818.6564904893867 899.2906382880001 L 801.0647330893867 899.2906382880001 L 801.0647330893867 850.033717568" stroke-miterlimit="10" stroke-width="1.4659797833333332" stroke-dasharray=""/><g><g><rect fill="white" stroke="none" x="158.90310256735154" y="174.86206855599997" width="142.87954748367187" height="22.86928462"/></g><text fill="black" stroke="none" font-family="sans-serif" font-size="11pt" font-style="normal" font-weight="normal" text-decoration="normal" x="161.54186617735155" y="190.69465021599999" text-anchor="start" dominant-baseline="alphabetic" xml:space="preserve">mouseClick(button)</text></g><g><path fill="none" stroke="black" paint-order="fill stroke markers" d=" M 24.61906748173828 197.73135317599997 L 421.5828048773034 197.73135317599997" stroke-miterlimit="10" stroke-width="1.4659797833333332" stroke-dasharray=""/><g transform="translate(436.0666851366367,197.73135317599997) translate(-436.0666851366367,-197.73135317599997)"><path fill="black" stroke="none" paint-order="stroke fill markers" d=" M 421.40688730330334 190.4014542593333 L 436.0666851366367 197.73135317599997 L 421.40688730330334 205.06125209266665 Z"/></g></g><g><path fill="white" stroke="black" paint-order="fill stroke markers" d=" M 326.74201617861587 250.24274901499996 A 26.123759739 26.123759739 0 1 1 326.7420031167371 250.21662525961491 M 258.3980386796159 222.62368989699996 L 258.3980386796159 277.86180813299995 M 256.9027393006159 250.24274901499996 L 274.4944967006159 250.24274901499996" stroke-miterlimit="10" stroke-width="2.990598758" stroke-dasharray=""/></g><g><g/><text fill="black" stroke="none" font-family="sans-serif" font-size="11pt" font-style="normal" font-weight="normal" text-decoration="normal" x="268.9376197440104" y="295.4535655329999" text-anchor="start" dominant-baseline="alphabetic" xml:space="preserve">Dialog</text></g><g><g><rect fill="white" stroke="none" x="377.31426706212625" y="240.30340608399993" width="5.27752722" height="22.86928462"/></g><text fill="black" stroke="none" font-family="sans-serif" font-size="11pt" font-style="normal" font-weight="normal" text-decoration="normal" x="379.95303067212626" y="256.1359877439999" text-anchor="start" dominant-baseline="alphabetic" xml:space="preserve"></text></g><g><path fill="none" stroke="black" paint-order="fill stroke markers" d=" M 436.0666851366367 263.17269070399993 L 338.3232564669492 263.17269070399993" stroke-miterlimit="10" stroke-width="1.4659797833333332" stroke-dasharray="7.0367029599999995"/><g transform="translate(323.8393762076159,263.17269070399993) translate(-323.8393762076159,-263.17269070399993)"><path fill="black" stroke="none" paint-order="stroke fill markers" d=" M 338.49917404094924 255.84279178733325 L 323.8393762076159 263.17269070399993 L 338.49917404094924 270.5025896206666 Z"/></g></g><g><g><rect fill="white" stroke="none" x="105.28566607401693" y="328.61402823199995" width="97.07423437332031" height="22.86928462"/></g><text fill="black" stroke="none" font-family="sans-serif" font-size="11pt" font-style="normal" font-weight="normal" text-decoration="normal" x="107.92442968401693" y="344.44660989199997" text-anchor="start" dominant-baseline="alphabetic" xml:space="preserve">input(userID)</text></g><g><path fill="none" stroke="black" paint-order="fill stroke markers" d=" M 24.61906748173828 351.4833128519999 L 268.54261878028257 351.4833128519999" stroke-miterlimit="10" stroke-width="1.4659797833333332" stroke-dasharray=""/><g transform="translate(283.0264990396159,351.4833128519999) translate(-283.0264990396159,-351.4833128519999)"><path fill="black" stroke="none" paint-order="stroke fill markers" d=" M 268.3667012062825 344.1534139353333 L 283.0264990396159 351.4833128519999 L 268.3667012062825 358.8132117686666 Z"/></g></g><g><g><rect fill="white" stroke="none" x="389.1687891413828" y="377.87094895199994" width="93.79579199050781" height="22.86928462"/></g><text fill="black" stroke="none" font-family="sans-serif" font-size="11pt" font-style="normal" font-weight="normal" text-decoration="normal" x="391.8075527513828" y="393.70353061199995" text-anchor="start" dominant-baseline="alphabetic" xml:space="preserve">send(userID)</text></g><g><path fill="none" stroke="black" paint-order="fill stroke markers" d=" M 291.8223777396159 400.7402335719999 L 565.8271122743242 400.7402335719999" stroke-miterlimit="10" stroke-width="1.4659797833333332" stroke-dasharray=""/><g transform="translate(580.3109925336576,400.7402335719999) translate(-580.3109925336576,-400.7402335719999)"><path fill="black" stroke="none" paint-order="stroke fill markers" d=" M 565.6511947003243 393.41033465533326 L 580.3109925336576 400.7402335719999 L 565.6511947003243 408.07013248866656 Z"/></g></g><g><g><rect fill="white" stroke="none" x="657.4756640398034" y="427.1278696719999" width="75.2202762434375" height="22.86928462"/></g><text fill="black" stroke="none" font-family="sans-serif" font-size="11pt" font-style="normal" font-weight="normal" text-decoration="normal" x="660.1144276498034" y="442.96045133199993" text-anchor="start" dominant-baseline="alphabetic" xml:space="preserve">query(sql)</text></g><g><path fill="none" stroke="black" paint-order="fill stroke markers" d=" M 589.1068712336576 449.9971542919999 L 786.5808528300533 449.9971542919999" stroke-miterlimit="10" stroke-width="1.4659797833333332" stroke-dasharray=""/><g transform="translate(801.0647330893867,449.9971542919999) translate(-801.0647330893867,-449.9971542919999)"><path fill="black" stroke="none" paint-order="stroke fill markers" d=" M 786.4049352560534 442.66725537533324 L 801.0647330893867 449.9971542919999 L 786.4049352560534 457.32705320866654 Z"/></g></g><g><g><rect fill="white" stroke="none" x="638.0698183977136" y="476.3847903919999" width="114.03196752761718" height="22.86928462"/></g><text fill="black" stroke="none" font-family="sans-serif" font-size="11pt" font-style="normal" font-weight="normal" text-decoration="normal" x="640.7085820077135" y="492.2173720519999" text-anchor="start" dominant-baseline="alphabetic" xml:space="preserve">return userExist</text></g><g><path fill="none" stroke="black" paint-order="fill stroke markers" d=" M 801.0647330893867 499.2540750119999 L 603.5907514929909 499.2540750119999" stroke-miterlimit="10" stroke-width="1.4659797833333332" stroke-dasharray="7.0367029599999995"/><g transform="translate(589.1068712336576,499.2540750119999) translate(-589.1068712336576,-499.2540750119999)"><path fill="black" stroke="none" paint-order="stroke fill markers" d=" M 603.7666690669909 491.9241760953332 L 589.1068712336576 499.2540750119999 L 603.7666690669909 506.5839739286665 Z"/></g></g><g><g><rect fill="white" stroke="none" x="634.9774645769128" y="525.6417111119998" width="120.21667516921875" height="22.86928462"/></g><text fill="black" stroke="none" font-family="sans-serif" font-size="11pt" font-style="normal" font-weight="normal" text-decoration="normal" x="637.6162281869127" y="541.4742927719998" text-anchor="start" dominant-baseline="alphabetic" xml:space="preserve">delete password</text></g><g><path fill="none" stroke="black" paint-order="fill stroke markers" d=" M 589.1068712336576 548.5109957319999 L 786.5808528300533 548.5109957319999" stroke-miterlimit="10" stroke-width="1.4659797833333332" stroke-dasharray=""/><g transform="translate(801.0647330893867,548.5109957319999) translate(-801.0647330893867,-548.5109957319999)"><path fill="black" stroke="none" paint-order="stroke fill markers" d=" M 786.4049352560534 541.1810968153331 L 801.0647330893867 548.5109957319999 L 786.4049352560534 555.8408946486666 Z"/></g></g><g><g><rect fill="white" stroke="none" x="692.4470385515222" y="574.8986318319999" width="5.27752722" height="22.86928462"/></g><text fill="black" stroke="none" font-family="sans-serif" font-size="11pt" font-style="normal" font-weight="normal" text-decoration="normal" x="695.0858021615221" y="590.7312134919998" text-anchor="start" dominant-baseline="alphabetic" xml:space="preserve"></text></g><g><path fill="none" stroke="black" paint-order="fill stroke markers" d=" M 801.0647330893867 597.7679164519999 L 603.5907514929909 597.7679164519999" stroke-miterlimit="10" stroke-width="1.4659797833333332" stroke-dasharray="7.0367029599999995"/><g transform="translate(589.1068712336576,597.7679164519999) translate(-589.1068712336576,-597.7679164519999)"><path fill="black" stroke="none" paint-order="stroke fill markers" d=" M 603.7666690669909 590.4380175353332 L 589.1068712336576 597.7679164519999 L 603.7666690669909 605.0978153686666 Z"/></g></g><g><path fill="white" stroke="black" paint-order="fill stroke markers" d=" M 326.74201617861587 650.2793122909999 A 26.123759739 26.123759739 0 1 1 326.7420031167371 650.2531885356149 M 258.3980386796159 622.6602531729999 L 258.3980386796159 677.8983714089999 M 256.9027393006159 650.2793122909999 L 274.4944967006159 650.2793122909999" stroke-miterlimit="10" stroke-width="2.990598758" stroke-dasharray=""/></g><g><g/><text fill="black" stroke="none" font-family="sans-serif" font-size="11pt" font-style="normal" font-weight="normal" text-decoration="normal" x="268.9376197440104" y="695.4901288089999" text-anchor="start" dominant-baseline="alphabetic" xml:space="preserve">Dialog</text></g><g><g><rect fill="white" stroke="none" x="353.45216783094924" y="640.3399693599999" width="197.246033079375" height="22.86928462"/></g><text fill="black" stroke="none" font-family="sans-serif" font-size="11pt" font-style="normal" font-weight="normal" text-decoration="normal" x="356.09093144094925" y="656.1725510199999" text-anchor="start" dominant-baseline="alphabetic" xml:space="preserve">return EnterNewPassword()</text></g><g><path fill="none" stroke="black" paint-order="fill stroke markers" d=" M 580.3109925336576 663.20925398 L 338.3232564669492 663.20925398" stroke-miterlimit="10" stroke-width="1.4659797833333332" stroke-dasharray=""/><g transform="translate(323.8393762076159,663.20925398) translate(-323.8393762076159,-663.20925398)"><path fill="black" stroke="none" paint-order="stroke fill markers" d=" M 338.49917404094924 655.8793550633333 L 323.8393762076159 663.20925398 L 338.49917404094924 670.5391528966667 Z"/></g></g><g><g><rect fill="white" stroke="none" x="45.43598040507162" y="728.6505915079999" width="216.77360571121093" height="22.86928462"/></g><text fill="black" stroke="none" font-family="sans-serif" font-size="11pt" font-style="normal" font-weight="normal" text-decoration="normal" x="48.074744015071616" y="744.4831731679999" text-anchor="start" dominant-baseline="alphabetic" xml:space="preserve">EnterNewPassword(password)</text></g><g><path fill="none" stroke="black" paint-order="fill stroke markers" d=" M 24.61906748173828 751.519876128 L 268.54261878028257 751.519876128" stroke-miterlimit="10" stroke-width="1.4659797833333332" stroke-dasharray=""/><g transform="translate(283.0264990396159,751.519876128) translate(-283.0264990396159,-751.519876128)"><path fill="black" stroke="none" paint-order="stroke fill markers" d=" M 268.3667012062825 744.1899772113333 L 283.0264990396159 751.519876128 L 268.3667012062825 758.8497750446667 Z"/></g></g><g><g><rect fill="white" stroke="none" x="342.95191597243746" y="777.907512228" width="186.22953832839843" height="22.86928462"/></g><text fill="black" stroke="none" font-family="sans-serif" font-size="11pt" font-style="normal" font-weight="normal" text-decoration="normal" x="345.5906795824375" y="793.7400938879999" text-anchor="start" dominant-baseline="alphabetic" xml:space="preserve">transmit(String password)</text></g><g><path fill="none" stroke="black" paint-order="fill stroke markers" d=" M 300.6182564396159 800.776796848 L 557.0312335743242 800.776796848" stroke-miterlimit="10" stroke-width="1.4659797833333332" stroke-dasharray=""/><g transform="translate(571.5151138336576,800.776796848) translate(-571.5151138336576,-800.776796848)"><path fill="black" stroke="none" paint-order="stroke fill markers" d=" M 556.8553160003243 793.4468979313333 L 571.5151138336576 800.776796848 L 556.8553160003243 808.1066957646667 Z"/></g></g><g><g><rect fill="white" stroke="none" x="631.3160418474206" y="827.164432948" width="127.53952062820312" height="22.86928462"/></g><text fill="black" stroke="none" font-family="sans-serif" font-size="11pt" font-style="normal" font-weight="normal" text-decoration="normal" x="633.9548054574205" y="842.997014608" text-anchor="start" dominant-baseline="alphabetic" xml:space="preserve">record(password)</text></g><g><path fill="none" stroke="black" paint-order="fill stroke markers" d=" M 589.1068712336576 850.033717568 L 786.5808528300533 850.033717568" stroke-miterlimit="10" stroke-width="1.4659797833333332" stroke-dasharray=""/><g transform="translate(801.0647330893867,850.033717568) translate(-801.0647330893867,-850.033717568)"><path fill="black" stroke="none" paint-order="stroke fill markers" d=" M 786.4049352560534 842.7038186513333 L 801.0647330893867 850.033717568 L 786.4049352560534 857.3636164846667 Z"/></g></g><g><g><rect fill="white" stroke="none" x="609.9237841569909" y="876.421353668" width="170.3240360090625" height="22.86928462"/></g><text fill="black" stroke="none" font-family="sans-serif" font-size="11pt" font-style="normal" font-weight="normal" text-decoration="normal" x="612.5625477669909" y="892.253935328" text-anchor="start" dominant-baseline="alphabetic" xml:space="preserve">return recordSuccessful</text></g><g><path fill="none" stroke="black" paint-order="fill stroke markers" d=" M 801.0647330893867 899.2906382880001 L 603.5907514929909 899.2906382880001" stroke-miterlimit="10" stroke-width="1.4659797833333332" stroke-dasharray="7.0367029599999995"/><g transform="translate(589.1068712336576,899.2906382880001) translate(-589.1068712336576,-899.2906382880001)"><path fill="black" stroke="none" paint-order="stroke fill markers" d=" M 603.7666690669909 891.9607393713334 L 589.1068712336576 899.2906382880001 L 603.7666690669909 906.6205372046668 Z"/></g></g><g><g><rect fill="white" stroke="none" x="210.0811590789479" y="925.6782743880001" width="175.9718631575" height="22.86928462"/></g><text fill="black" stroke="none" font-family="sans-serif" font-size="11pt" font-style="normal" font-weight="normal" text-decoration="normal" x="212.71992268894792" y="941.510856048" text-anchor="start" dominant-baseline="alphabetic" xml:space="preserve">return changeSuccessful</text></g><g><path fill="none" stroke="black" paint-order="fill stroke markers" d=" M 571.5151138336576 948.5475590080001 L 39.10294774107162 948.5475590080001" stroke-miterlimit="10" stroke-width="1.4659797833333332" stroke-dasharray="7.0367029599999995"/><g transform="translate(24.61906748173828,948.5475590080001) translate(-24.61906748173828,-948.5475590080001)"><path fill="black" stroke="none" paint-order="stroke fill markers" d=" M 39.27886531507161 941.2176600913334 L 24.61906748173828 948.5475590080001 L 39.27886531507161 955.8774579246668 Z"/></g></g></g><g/><g/><g/><g/></g></svg>