<svg version="1.1" xmlns="http://www.w3.org/2000/svg" xmlns:xlink="http://www.w3.org/1999/xlink" width="1005" height="924"><defs/><g><g/><g/><g/><g/><g/><g/><g/><g/><g/><g/><g/><g/><g/><g><rect fill="white" stroke="none" x="0" y="0" width="1005" height="924"/></g><g><text fill="black" stroke="none" font-family="sans-serif" font-size="16.5pt" font-style="normal" font-weight="normal" text-decoration="normal" x="450.75766636933594" y="26.3876361" text-anchor="start" dominant-baseline="alphabetic" xml:space="preserve">ViewMine</text></g><g/><g><path fill="none" stroke="black" paint-order="fill stroke markers" d=" M 73.98199015019532 139.67855375599999 L 73.98199015019532 924.2709337960001" stroke-miterlimit="10" stroke-width="1.4659797833333332" stroke-dasharray="13.532121076923076,5.863919133333333"/><path fill="none" stroke="black" paint-order="fill stroke markers" d=" M 255.34422069615886 139.67855375599999 L 255.34422069615886 924.2709337960001" stroke-miterlimit="10" stroke-width="1.4659797833333332" stroke-dasharray="13.532121076923076,5.863919133333333"/><path fill="none" stroke="black" paint-order="fill stroke markers" d=" M 428.52309715403646 139.67855375599999 L 428.52309715403646 924.2709337960001" stroke-miterlimit="10" stroke-width="1.4659797833333332" stroke-dasharray="13.532121076923076,5.863919133333333"/><path fill="none" stroke="black" paint-order="fill stroke markers" d=" M 689.0104605503907 139.67855375599999 L 689.0104605503907 924.2709337960001" stroke-miterlimit="10" stroke-width="1.4659797833333332" stroke-dasharray="13.532121076923076,5.863919133333333"/><path fill="none" stroke="black" paint-order="fill stroke markers" d=" M 838.8678953578776 139.67855375599999 L 838.8678953578776 924.2709337960001" stroke-miterlimit="10" stroke-width="1.4659797833333332" stroke-dasharray="13.532121076923076,5.863919133333333"/><path fill="none" stroke="black" paint-order="fill stroke markers" d=" M 961.5095720511719 139.67855375599999 L 961.5095720511719 924.2709337960001" stroke-miterlimit="10" stroke-width="1.4659797833333332" stroke-dasharray="13.532121076923076,5.863919133333333"/></g><g><g><path fill="white" stroke="black" paint-order="fill stroke markers" d=" M 84.00929186819532 65.265419954 A 10.027301717999999 10.027301717999999 0 1 1 84.00928685454487 65.25539265395321 M 73.98199015019532 75.29272167199998 L 73.98199015019532 96.75466569999998 M 61.31592482219531 83.033094928 L 86.64805547819532 83.033094928 M 73.98199015019532 96.75466569999998 L 61.31592482219531 116.80926913599998 M 73.98199015019532 96.75466569999998 L 86.64805547819532 116.80926913599998" stroke-miterlimit="10" stroke-width="2.990598758" stroke-dasharray=""/></g><g><g/><text fill="black" stroke="none" font-family="sans-serif" font-size="11pt" font-style="normal" font-weight="normal" text-decoration="normal" x="8.795878700000003" y="134.401026536" text-anchor="start" dominant-baseline="alphabetic" xml:space="preserve">Student&amp;Teaccher</text></g><g><path fill="white" stroke="black" paint-order="fill stroke markers" d=" M 290.26385913515884 89.19021001799997 A 26.123759739 26.123759739 0 1 1 290.2638460732801 89.16408626261492 M 221.91988163615883 61.57115089999997 L 221.91988163615883 116.80926913599997 M 220.42458225715885 89.19021001799997 L 238.01633965715885 89.19021001799997" stroke-miterlimit="10" stroke-width="2.990598758" stroke-dasharray=""/></g><g><g/><text fill="black" stroke="none" font-family="sans-serif" font-size="11pt" font-style="normal" font-weight="normal" text-decoration="normal" x="213.07505565709636" y="134.401026536" text-anchor="start" dominant-baseline="alphabetic" xml:space="preserve">ViewMineUI</text></g><g><path fill="white" stroke="black" paint-order="fill stroke markers" d=" M 454.64685689303644 89.19021001799997 A 26.123759739 26.123759739 0 1 1 454.6468438311577 89.16408626261492 M 425.0047456740365 63.06645027899997 L 435.5598001140365 54.27057157899998 M 425.0047456740365 63.06645027899997 L 435.5598001140365 71.86232897899997" stroke-miterlimit="10" stroke-width="2.990598758" stroke-dasharray=""/></g><g><g/><text fill="black" stroke="none" font-family="sans-serif" font-size="11pt" font-style="normal" font-weight="normal" text-decoration="normal" x="374.195956345931" y="134.401026536" text-anchor="start" dominant-baseline="alphabetic" xml:space="preserve">BookingSystem</text></g><path fill="none" stroke="none"/><g><path fill="white" stroke="black" paint-order="fill stroke markers" d=" M 631.2584028558633 92.18080877599999 L 746.762518244918 92.18080877599999 L 746.762518244918 139.67855375599999 L 631.2584028558633 139.67855375599999 L 631.2584028558633 92.18080877599999 Z" stroke-miterlimit="10" stroke-width="2.814681184" stroke-dasharray=""/></g><g><g/><text fill="black" stroke="none" font-family="sans-serif" font-size="11pt" font-style="normal" font-weight="normal" text-decoration="normal" x="650.3454596348633" y="122.08679635600001" text-anchor="start" dominant-baseline="alphabetic" xml:space="preserve">ClassRoom</text></g><g><path fill="white" stroke="black" paint-order="fill stroke markers" d=" M 864.9916550968776 86.79773101159998 A 26.123759739 26.123759739 0 1 1 864.9916420349988 86.77160725621492 M 811.2488362398776 115.31396975699997 L 866.4869544758776 115.31396975699997" stroke-miterlimit="10" stroke-width="2.990598758" stroke-dasharray=""/></g><g><g/><text fill="black" stroke="none" font-family="sans-serif" font-size="11pt" font-style="normal" font-weight="normal" text-decoration="normal" x="809.8020307948893" y="134.401026536" text-anchor="start" dominant-baseline="alphabetic" xml:space="preserve">Booking</text></g><g><path fill="white" stroke="black" paint-order="fill stroke markers" d=" M 935.8256062471719 105.19870925199999 L 935.8256062471719 68.25601871199999 L 987.1935378551718 68.25601871199999 L 987.1935378551718 105.19870925199999" stroke-miterlimit="10" stroke-width="2.990598758" stroke-dasharray=""/><path fill="white" stroke="black" paint-order="fill stroke markers" d=" M 987.1935378551718 66.97182042179999 L 987.1922536675833 67.08792408555635 L 987.1884012332353 67.20401613904309 L 987.1819809373679 67.3200849731516 L 987.1729934220056 67.43611898109519 L 987.1614395858923 67.55210655956978 L 987.147320584402 67.66803610991414 L 987.1306378294231 67.78389603926989 L 987.1113929892172 67.8996747617406 L 987.0895879882522 68.01536069955054 L 987.0652250070102 68.1309422842023 L 987.0383064817689 68.24640795763378 L 987.0088351043585 68.3617461733738 L 986.9768138218919 68.47694539769695 L 986.942245836471 68.59199411077678 L 986.9051346048653 68.70688080783783 L 986.8654838381673 68.82159400030618 L 986.8232975014204 68.93612221695814 L 986.778579813223 69.0504540050675 L 986.731335245307 69.16457793155072 L 986.6815685220896 69.27848258411025 L 986.6292846202017 69.39215657237577 L 986.5744887679899 69.50558852904317 L 986.5171864449939 69.61876711101131 L 986.457383381398 69.73168100051632 L 986.3950855574589 69.84431890626333 L 986.330299202907 69.95666956455563 L 986.2630307963238 70.06872174042103 L 986.1932870644939 70.18046422873529 L 986.1210749817324 70.29188585534273 L 986.0464017691874 70.40297547817353 L 985.9692748941178 70.51372198835797 L 985.8897020691469 70.62411431133734 L 985.807691251491 70.73414140797132 L 985.7232506421634 70.84379227564195 L 985.6363886851547 70.95305594935381 L 985.5471140665882 71.06192150283061 L 985.4554357138513 71.1703780496077 L 985.361362794703 71.27841474412082 L 985.2649047163569 71.38602078279051 L 985.1660711245402 71.4931854051026 L 985.0648719025298 71.59989789468413 L 984.9613171701637 71.7061475803751 L 984.8554172828289 71.81192383729548 L 984.7471828304256 71.9172160879077 L 984.6366246363089 72.02201380307447 L 984.5237537562062 72.12630650311159 L 984.4085814771115 72.23008375883597 L 984.2911193161566 72.33333519260853 L 984.1713790194598 72.43605047937191 L 984.0493725609509 72.53821934768304 L 983.9251121411742 72.63983158074024 L 983.7986101860679 72.74087701740487 L 983.6698793457224 72.84134555321748 L 983.5389324931142 72.94122714140819 L 983.4057827228196 73.04051179390143 L 983.2704433497047 73.13918958231469 L 983.1329279075939 73.23725063895135 L 982.9932501479167 73.33468515778748 L 982.851424038333 73.43148339545236 L 982.7074637613354 73.52763567220293 L 982.5613837128316 73.6231323728916 L 982.4131985007047 73.71796394792793 L 982.2629229433525 73.8121209142334 L 982.1105720682054 73.90559385618985 L 981.9561611102242 73.998373426581 L 981.7997055103758 74.09045034752711 L 981.6412209140899 74.18181541141281 L 981.480723169694 74.27245948180787 L 981.3182283268288 74.36237349438078 L 981.1537526348432 74.45154845780519 L 980.9873125411693 74.53997545465909 L 980.8189246896778 74.62764564231648 L 980.6486059190137 74.71455025383165 L 980.4763732609117 74.80068059881587 L 980.3022439384945 74.88602806430642 L 980.1262353645491 74.97058411562787 L 979.948365139786 75.05434029724555 L 979.7686510510798 75.13728823361109 L 979.5871110696895 75.21941962999999 L 979.4037633494618 75.30072627334106 L 979.2186262250161 75.38120003303769 L 979.0317182099105 75.46083286178099 L 978.8430579947908 75.53961679635444 L 978.6526644455212 75.61754395843025 L 978.4605566012981 75.69460655535714 L 978.2667536727457 75.77079688093964 L 978.0712750399954 75.84610731620869 L 977.8741402507477 75.9205303301835 L 977.675369018317 75.99405848062472 L 977.4749812196611 76.06668441477855 L 977.2729968933928 76.13840087011211 L 977.0694362377765 76.20920067503964 L 976.864319608708 76.27907674963963 L 976.6576675176792 76.34802210636286 L 976.4495006297273 76.4160298507311 L 976.2398397613674 76.48309318202661 L 976.0287058785116 76.54920539397213 L 975.8161200943723 76.61435987540155 L 975.6021036673509 76.67855011092104 L 975.3866779989115 76.74176968156053 L 975.1698646314416 76.80401226541565 L 974.9516852460971 76.86527163827986 L 974.7321616606349 76.92554167426694 L 974.5113158272306 76.98481634642351 L 974.2891698302834 77.04308972733178 L 974.0657458842079 77.10035598970217 L 973.8410663312126 77.15660940695618 L 973.6151536390654 77.21184435379898 L 973.3880303988475 77.26605530678191 L 973.1597193226934 77.31923684485484 L 972.9302432415207 77.37138364990828 L 972.6996251027459 77.42249050730518 L 972.4678879679913 77.4725523064024 L 972.2350550107767 77.52156404106174 L 972.001149514204 77.56952081015058 L 971.766194868628 77.61641781803196 L 971.5302145693174 77.6622503750442 L 971.2932322141055 77.70701389796976 L 971.0552715010303 77.75070391049368 L 970.8163562259649 77.7933160436511 L 970.5765102802377 77.83484603626422 L 970.3357576482432 77.87528973536838 L 970.0941224050442 77.91464309662739 L 969.8516287139636 77.9529021847379 L 969.6083008241684 77.99006317382297 L 969.3641630682448 78.02612234781469 L 969.119239859765 78.0610761008257 L 968.8735556908457 78.09492093750981 L 968.627135129699 78.12765347341158 L 968.3800028181757 78.15927043530469 L 968.1321834693013 78.18976866151928 L 967.8837018648036 78.21914510225817 L 967.6345828526364 78.24739681990175 L 967.3848513444933 78.27452098930179 L 967.1345323133169 78.30051489806398 L 966.8836507908017 78.32537594681908 L 966.6322318648909 78.34910164948295 L 966.3803006772675 78.37168963350508 L 966.1278824208406 78.39313764010592 L 965.8750023372252 78.41344352450264 L 965.6216857142191 78.43260525612375 L 965.3679578832734 78.45062091881205 L 965.1138442169598 78.46748871101629 L 964.8593701264332 78.48320694597129 L 964.6045610588906 78.49777405186667 L 964.3494424950263 78.51118857200397 L 964.0940399464843 78.52344916494236 L 963.8383789533062 78.53455460463276 L 963.5824850813789 78.54450378054045 L 963.3263839198758 78.55329569775614 L 963.0701010786998 78.56092947709544 L 962.8136621859215 78.56740435518677 L 962.5570928852167 78.57271968454769 L 962.3004188333011 78.57687493364975 L 962.0436656973666 78.57986968697145 L 961.7868591525123 78.58170364504 L 961.5300248791791 78.58237662446106 L 961.2731885605801 78.58188855793732 L 961.0163758801332 78.58023949427498 L 960.7596125188924 78.57742959837903 L 960.5029241529799 78.57345915123673 L 960.2463364510182 78.56832854988951 L 959.989875071564 78.56203830739318 L 959.7335656605412 78.5545890527668 L 959.4774338486776 78.54598153092958 L 959.2215052489407 78.53621660262655 L 958.9658054539774 78.5252952443424 L 958.7103600335539 78.51321854820387 L 958.4551945319996 78.4999877218705 L 958.2003344656518 78.48560408841388 L 957.945805320305 78.4700690861854 L 957.6916325486615 78.45338426867232 L 957.4378415677866 78.4355513043425 L 957.1844577565669 78.41657197647748 L 956.9315064531723 78.39644818299428 L 956.6790129525227 78.37518193625543 L 956.4270025037574 78.35277536286792 L 956.1755003077113 78.32923070347039 L 955.9245315143946 78.30455031250918 L 955.6741212204774 78.2787366580028 L 955.4242944667803 78.2517923212952 L 955.1750762357708 78.2237199967976 L 954.926491449064 78.19452249171906 L 954.6785649649314 78.16420272578573 L 954.4313215758151 78.13276373094897 L 954.1847860058477 78.10020865108203 L 953.938982908381 78.0665407416658 L 953.6939368635198 78.03176336946316 L 953.4496723756641 77.99588001218234 L 953.2062138710596 77.95889425812916 L 952.9635856953537 77.92080980584822 L 952.7218121111616 77.881630463753 L 952.4809172956404 77.84136014974506 L 952.2409253380711 77.80000289082224 L 952.0018602374491 77.75756282267598 L 951.7637459000854 77.71404418927773 L 951.5266061372154 77.66945134245454 L 951.2904646626176 77.62378874145395 L 951.0553450902428 77.57706095249802 L 950.8212709318523 77.52927264832667 L 950.5882655946667 77.48042860773052 L 950.3563523790259 77.43053371507293 L 950.1255544760578 77.37959295980157 L 949.8958949653608 77.32761143594954 L 949.6673968126942 77.27459434162587 L 949.4400828676829 77.22054697849586 L 949.2139758615322 77.16547475125074 L 948.9890984047541 77.10938316706736 L 948.7654729849071 77.0522778350574 L 948.5431219643465 76.99416446570646 L 948.3220675779894 76.93504887030305 L 948.1023319310899 76.87493696035746 L 947.8839369970299 76.81383474701059 L 947.6669046151205 76.75174834043284 L 947.4512564884194 76.68868394921314 L 947.2370141815592 76.62464787973806 L 947.0241991185923 76.5596465355612 L 946.8128325808474 76.49368641676277 L 946.6029357048023 76.42677411929971 L 946.3945294799698 76.358916334346 L 946.1876347467986 76.2901198476236 L 945.9822721945895 76.22039153872383 L 945.7784623594267 76.14973838041949 L 945.576225622124 76.07816743796754 L 945.3755822061863 76.00568586840255 L 945.1765521757882 75.9323009198211 L 944.9791554337669 75.8580199306569 L 944.7834117196319 75.78285032894695 L 944.5893406075918 75.70679963158878 L 944.3969615045958 75.62987544358876 L 944.206293648394 75.55208545730159 L 944.0173561056131 75.47343745166106 L 943.83016776985 75.3939392914022 L 943.6447473597823 75.31359892627479 L 943.4611134172964 75.2324243902484 L 943.2792843056335 75.15042380070896 L 943.0992782075534 75.06760535764712 L 942.9211131235157 74.98397734283817 L 942.7448068698804 74.89954811901389 L 942.5703770771262 74.8143261290263 L 942.3978411880865 74.72831989500338 L 942.227216456207 74.64153801749687 L 942.0585199438183 74.5539891746222 L 941.8917685204311 74.46568212119071 L 941.7269788610489 74.37662568783415 L 941.5641674445003 74.28682878012162 L 941.4033505517913 74.19630037766909 L 941.244544264477 74.10504953324134 L 941.087764463054 74.0130853718468 L 940.9330268253716 73.92041708982494 L 940.7803468250648 73.82705395392676 L 940.6297397300063 73.73300530038806 L 940.48122060078 73.63828053399578 L 940.3348042891754 73.54288912714766 L 940.1905054367013 73.44684061890487 L 940.0483384731227 73.3501446140382 L 939.9083176150177 73.25281078206757 L 939.7704568643554 73.15484885629505 L 939.6347700070959 73.05626863283157 L 939.5012706118118 72.95707996961737 L 939.3699720283314 72.85729278543607 L 939.2408873864038 72.75691705892295 L 939.1140295943854 72.65596282756702 L 938.9894113379498 72.5544401867073 L 938.8670450788189 72.45235928852324 L 938.7469430535165 72.34973034101961 L 938.629117272145 72.24656360700563 L 938.5135795171843 72.14286940306874 L 938.4003413423139 72.03865809854291 L 938.2894140712568 71.93394011447177 L 938.1808087966475 71.82872592256643 L 938.0745363789232 71.72302604415843 L 937.9706074452369 71.61685104914753 L 937.8690323883955 71.51021155494473 L 937.76982136582 71.4031182254106 L 937.6729842985299 71.29558176978884 L 937.5785308701513 71.1876129416354 L 937.4864705259484 71.07922253774314 L 937.3968124718789 70.9704213970621 L 937.3095656736733 70.86122039961568 L 937.224738855939 70.75163046541265 L 937.1423405012868 70.64166255335508 L 937.0623788494836 70.53132766014255 L 936.9848618966281 70.42063681917243 L 936.9097973943508 70.30960109943658 L 936.8371928490394 70.19823160441445 L 936.7670555210881 70.0865394709627 L 936.6993924241709 69.97453586820164 L 936.6342103245415 69.86223199639821 L 936.5715157403553 69.74963908584596 L 936.5113149410186 69.63676839574217 L 936.453613946561 69.52363121306175 L 936.398418527034 69.41023885142872 L 936.3457342019335 69.29660264998472 L 936.2955662396482 69.18273397225522 L 936.2479196569324 69.0686442050131 L 936.2027992184047 68.95434475714 L 936.1602094360715 68.83984705848547 L 936.1201545688753 68.72516255872397 L 936.0826386222695 68.61030272620987 L 936.0476653478177 68.49527904683073 L 936.0152382428179 68.38010302285863 L 935.9853605499537 68.2647861718 L 935.9580352569697 68.14934002524383 L 935.9332650963721 68.03377612770858 L 935.9110525451565 67.9181060354877 L 935.8913998245596 67.80234131549402 L 935.8743088998368 67.68649354410306 L 935.8597814800665 67.57057430599544 L 935.8478190179786 67.45459519299835 L 935.8384227098093 67.33856780292646 L 935.8315934951816 67.22250373842208 L 935.8273320570112 67.10641460579494 L 935.8256388214384 66.99031201386155 L 935.8265139577853 66.87420757278437 L 935.8299573785392 66.75811289291076 L 935.8359687393607 66.64203958361193 L 935.8445474391189 66.52599925212212 L 935.8556926199507 66.41000350237775 L 935.8694031673475 66.29406393385715 L 935.885677710266 66.17819214042055 L 935.9045146212654 66.06239970915072 L 935.9259120166703 65.94669821919432 L 935.949867756759 65.8310992406039 L 935.9763794459775 65.71561433318102 L 936.0054444331788 65.60025504532017 L 936.0370598118886 65.48503291285398 L 936.0712224205954 65.36995945789971 L 936.1079288430666 65.25504618770695 L 936.1471754086907 65.14030459350695 L 936.1889581928438 65.02574614936354 L 936.2332730172822 64.91138231102563 L 936.2801154505605 64.79722451478179 L 936.3294808084744 64.68328417631649 L 936.3813641545293 64.56957268956862 L 936.4357603004337 64.45610142559212 L 936.4926638066183 64.3428817314188 L 936.5520689827802 64.22992492892377 L 936.613969888451 64.1172423136931 L 936.6783603335917 64.00484515389444 L 936.7452338792117 63.89274468915009 L 936.814583838012 63.78095212941312 L 936.8864032750545 63.66947865384635 L 936.9606850084554 63.558335409704426 L 937.0374216101031 63.447533511219156 L 937.1166054064017 63.337084038488044 L 937.1982284790373 63.226998036366325 L 937.2822826657707 63.11728651336247 L 937.3687595612533 63.00796044053737 L 937.4576505178677 62.899030750407185 L 937.5489466465921 62.790508335850156 L 937.6426388178899 62.682404049017315 L 937.738717662622 62.57472870024724 L 937.8371735729839 62.4674930569851 L 937.9379967034668 62.36070784270584 L 938.0411769718415 62.25438373584191 L 938.1467040601672 62.148531368715396 L 938.254567415823 62.04316132647479 L 938.3647562525632 61.938284146036516 L 938.477259551596 61.83391031503122 L 938.5920660626853 61.73005027075502 L 938.7091643052755 61.6267143991258 L 938.8285425696401 61.52391303364461 L 938.950188918052 61.42165645436233 L 939.0740911859777 61.31995488685167 L 939.200236983294 61.21881850118463 L 939.3286136955259 61.1182574109155 L 939.4592084851092 61.018281672069506 L 939.5920082926739 60.91890128213721 L 939.7269998383499 60.82012617907481 L 939.8641696230951 60.72196624031029 L 940.0035039300454 60.62443128175571 L 940.1449888258861 60.52753105682567 L 940.2886101622455 60.431275255461905 L 940.4343535771098 60.33567350316434 L 940.5822044962589 60.24073536002853 L 940.7321481347241 60.14647031978968 L 940.8841694982664 60.05288780887326 L 941.0382533848762 59.959997185452366 L 941.1943843862932 59.86780773851195 L 941.3525468895476 59.77632868691987 L 941.5127250785206 59.68556917850505 L 941.6749029355269 59.59553828914271 L 941.8390642429159 59.50624502184675 L 942.0051925846936 59.41769830586949 L 942.1732713481646 59.32990699580875 L 942.3432837255922 59.24287987072236 L 942.5152127158805 59.15662563325033 L 942.6890411262738 59.0711529087445 L 942.8647515740759 58.986470244406114 L 943.0423264883883 58.90258610843103 L 943.2217481118677 58.81950888916295 L 943.4029985025013 58.737246894254554 L 943.5860595354009 58.65580834983679 L 943.7709129046159 58.57520139969624 L 943.9575401249634 58.49543410446074 L 944.145922533877 58.41651444079334 L 944.3360412932725 58.33845030059465 L 944.5278773914326 58.26124949021362 L 944.7214116449073 58.18491972966697 L 944.9166247004326 58.10946865186714 L 945.1134970368655 58.03490380185903 L 945.3120089671365 57.96123263606552 L 945.512140640218 57.88846252154177 L 945.7138720431094 57.816600735238616 L 945.9171830028387 57.74565446327479 L 946.1220531884791 57.67563080021837 L 946.3284621131828 57.60653674837731 L 946.5363891362296 57.53837921709922 L 946.7458134650901 57.47116502208042 L 946.9567141575062 57.40490088468441 L 947.1690701235844 57.3395934312697 L 947.3828601279049 57.27524919252721 L 947.5980627916456 57.21187460282721 L 947.8146565947193 57.14947599957584 L 948.0326198779262 57.088059622581426 L 948.2519308451197 57.02763161343051 L 948.4725675653858 56.96819801487362 L 948.6945079752364 56.9097647702211 L 948.9177298808154 56.85233772274873 L 949.1422109601182 56.79592261511338 L 949.3679287652241 56.74052508877882 L 949.5948607245405 56.6861506834515 L 949.8229841450607 56.63280483652666 L 950.0522762146328 56.58049288254453 L 950.2827140042407 56.52922005265691 L 950.5142744702977 56.47899147410408 L 950.74693445695 56.42981216970201 L 950.9806706983929 56.38168705734017 L 951.2154598211971 56.334620949489704 L 951.451278346646 56.28861855272216 L 951.6881026930832 56.24368446723889 L 951.9259091782718 56.199823186410995 L 952.1646740217614 56.157039096329996 L 952.4043733472665 56.11533647536926 L 952.6449831850543 56.07471949375613 L 952.8864794743416 56.035192213154914 L 953.1288380657007 55.99675858626073 L 953.3720347234745 55.959422456404255 L 953.6160451281997 55.923187557167346 L 953.8608448790394 55.88805751200974 L 954.1064094962223 55.85403583390668 L 954.3527144234914 55.82112592499761 L 954.5997350305594 55.78933107624601 L 954.8474466155711 55.758654467110254 L 955.0958244075747 55.72909916522569 L 955.3448435689978 55.70066812609789 L 955.5944791981319 55.67336419280706 L 955.8447063316221 55.64719009572377 L 956.0954999469636 55.62214845223594 L 956.3468349650037 55.598241766487035 L 956.5986862524502 55.57547242912571 L 956.8510286243842 55.55384271706673 L 957.1038368467788 55.533354793263264 L 957.3570856390223 55.51401070649064 L 957.6107496764467 55.4958123911414 L 957.8648035928596 55.47876166703191 L 958.1192219830809 55.46286023922039 L 958.3739794054839 55.44810969783636 L 958.6290503845383 55.434511517921656 L 958.8844094133591 55.42206705928295 L 959.1400309562559 55.41077756635575 L 959.3958894512878 55.40064416807991 L 959.6519593128181 55.39166787778682 L 959.9082149340743 55.38384959309805 L 960.1646306897077 55.37719009583553 L 960.4211809383565 55.37169005194345 L 960.6778400252097 55.36735001142162 L 960.9345822845722 55.36417040827046 L 961.1913820424322 55.36215156044765 L 961.448213619028 55.36129366983628 L 961.7050513314159 55.3615968222247 L 961.9618694960387 55.363060987297914 L 962.2186424312939 55.36568601864066 L 962.475344460102 55.369471653751965 L 962.731949912474 55.37441751407148 L 962.9884331280784 55.3805231050173 L 963.2447684588076 55.38778781603543 L 963.500930271342 55.39621092066079 L 963.7568929497139 55.40579157658996 L 964.0126308978687 55.41652882576533 L 964.2681185422246 55.428421594470926 L 964.5233303342302 55.44146869343979 L 964.778240752919 55.45566881797289 L 965.0328243074615 55.47102054806961 L 965.2870555397144 55.48752234856974 L 965.5409090267664 55.50517256930697 L 965.7943593834802 55.52396944527395 L 966.0473812650314 55.54391109679874 L 966.2999493694427 55.56499552973279 L 966.5520384401143 55.587220635650404 L 966.8036232683489 55.61058419205949 L 967.0546786958735 55.63508386262389 L 967.3051796173545 55.660717197396956 L 967.5551009829086 55.687481633066575 L 967.8044178006074 55.715374493211485 L 968.053105138977 55.744392988568904 L 968.3011381294907 55.7745342173135 L 968.5484919690563 55.8057951653475 L 968.7951419224958 55.83817270660215 L 969.0410633250193 55.871663603350314 L 969.2862315846918 55.90626450653023 L 969.5306221848914 55.941971956080394 L 969.7742106867619 55.97878238128563 L 970.016972731656 56.01669210113408 L 970.2588840435715 56.055697324685354 L 970.4999204315787 56.095794151449596 L 970.74005779224 56.136978571777554 L 970.9792721120192 56.17924646726151 L 971.2175394696836 56.22259361114713 L 971.4548360386962 56.267015668756166 L 971.6911380895976 56.31250819791986 L 971.9264219923799 56.35906664942321 L 972.1606642188488 56.40668636745987 L 972.3938413449767 56.455362590097714 L 972.6259300532455 56.505090449755045 L 972.8569071349776 56.55586497368733 L 973.0867494926574 56.60768108448449 L 973.3154341422407 56.66053360057863 L 973.5429382154531 56.71441723676219 L 973.7692389620769 56.76932660471643 L 973.9943137522258 56.82525621355034 L 974.2181400786087 56.88220047034963 L 974.4406955587792 56.940153680736074 L 974.6619579373748 56.999110049436936 L 974.8819050883421 57.05906368086447 L 975.1005150171493 57.120008579705484 L 975.3177658629857 57.1819386515209 L 975.5336359009475 57.244847703355134 L 975.7481035442112 57.308729444355436 L 975.9611473461908 57.373577486400926 L 976.172746002684 57.439385344741446 L 976.3828783540014 57.506146438646006 L 976.5915233870827 57.57385409206084 L 976.7986602375987 57.642501534277045 L 977.004268192037 57.712081900607586 L 977.2083266897733 57.78258823307383 L 977.4108153251282 57.854013481101276 L 977.6117138494066 57.92635050222464 L 977.8110021729235 57.99959206280211 L 978.0086603670128 58.07373083873863 L 978.2046686660196 58.14875941621842 L 978.3990074692775 58.224670292446234 L 978.5916573430682 58.30145587639771 L 978.7825990225646 58.379108489578456 L 978.971813413758 58.45762036679186 L 979.1592815953669 58.53698365691561 L 979.3449848207296 58.61719042368684 L 979.528904519678 58.698232646495725 L 979.7110223003956 58.7801022211875 L 979.8913199512563 58.86279096087293 L 980.0697794426449 58.94629059674695 L 980.2463829287611 59.03059277891555 L 980.4211127494036 59.115689077230776 L 980.5939514317357 59.2015709821337 L 980.7648816920336 59.2882299055054 L 980.9338864374132 59.375657181525774 L 981.1009487675411 59.46384406754005 L 981.2660519763235 59.55278174493313 L 981.4291795535771 59.642461320011385 L 981.5903151866801 59.73287382489204 L 981.7494427622033 59.82401021839995 L 981.9065463675221 59.91586138697171 L 982.0616102924065 60.008418145567006 L 982.2146190305936 60.10167123858711 L 982.3655572813367 60.195611340800426 L 982.5144099509369 60.29022905827503 L 982.661162154251 60.385514929318006 L 982.805799216181 60.48145942542166 L 982.9483066731414 60.57805295221634 L 983.088670274505 60.67528585042985 L 983.226875984029 60.77314839685341 L 983.3629099812573 60.87163080531391 L 983.4967586629036 60.97072322765259 L 983.6284086442114 61.07041575470979 L 983.7578467602922 61.170698417315876 L 983.8850600674423 61.271561187288164 L 984.0100358444369 61.3729939784337 L 984.1327615938025 61.47498664755789 L 984.2532250430663 61.577528995478836 L 984.3714141459841 61.68061076804718 L 984.4873170837437 61.78422165717158 L 984.6009222661482 61.88835130184945 L 984.712218332774 61.99298928920311 L 984.821194154107 62.09812515552101 L 984.9278388326561 62.203748387304145 L 985.0321417040421 62.30984842231735 L 985.134092338065 62.416414650645535 L 985.2336805397462 62.52343641575468 L 985.3308963503484 62.63090301555746 L 985.425730048372 62.73880370348344 L 985.5181721505257 62.847127689553744 L 985.6082134126767 62.95586414146005 L 985.6958448307737 63.065002185647764 L 985.7810576417478 63.174530908403426 L 985.8638433243891 63.28443935694603 L 985.9441936001982 63.39471654052231 L 986.0221004342145 63.50535143150581 L 986.0975560358196 63.61633296649962 L 986.1705528595161 63.72765004744274 L 986.2410836056825 63.83929154271982 L 986.3091412213031 63.951246288274376 L 986.3747189006727 64.06350308872516 L 986.4378100860785 64.17605071848564 L 986.498408468454 64.28887792288667 L 986.556507988012 64.40197341930181 L 986.6121028348485 64.51532589827566 L 986.6651874495254 64.6289240246548 L 986.7157565236255 64.74275643872124 L 986.7638050002832 64.85681175732844 L 986.8093280746913 64.97107857503958 L 986.8523211945801 65.08554546526814 L 986.8927800606734 65.20020098142045 L 986.9307006271184 65.31503365804045 L 986.9660791018899 65.43003201195617 L 986.9989119471702 65.54518454342806 L 987.0291958797018 65.66047973729893 L 987.0569278711168 65.77590606414547 L 987.0821051482393 65.89145198143119 L 987.1047251933625 66.00710593466063 L 987.1247857445005 66.12285635853486 L 987.1422847956153 66.23869167810795 L 987.1572205968162 66.35460030994449 L 987.1695916545353 66.47057066327784 L 987.1793967316776 66.58659114116935 L 987.1866348477431 66.70265014166789 L 987.1913052789265 66.81873605897015 L 987.1934075581885 66.9348372845811 M 987.1935378551718 103.91451096179999 L 987.1922536675833 104.03061462555635 L 987.1884012332353 104.14670667904309 L 987.1819809373679 104.2627755131516 L 987.1729934220056 104.37880952109519 L 987.1614395858923 104.49479709956978 L 987.147320584402 104.61072664991414 L 987.1306378294231 104.72658657926989 L 987.1113929892172 104.8423653017406 L 987.0895879882522 104.95805123955054 L 987.0652250070102 105.0736328242023 L 987.0383064817689 105.18909849763378 L 987.0088351043585 105.3044367133738 L 986.9768138218919 105.41963593769695 L 986.942245836471 105.53468465077678 L 986.9051346048653 105.64957134783783 L 986.8654838381673 105.76428454030618 L 986.8232975014204 105.87881275695814 L 986.778579813223 105.9931445450675 L 986.731335245307 106.10726847155073 L 986.6815685220896 106.22117312411025 L 986.6292846202017 106.33484711237577 L 986.5744887679899 106.44827906904317 L 986.5171864449939 106.56145765101131 L 986.457383381398 106.67437154051632 L 986.3950855574589 106.78700944626333 L 986.330299202907 106.89936010455563 L 986.2630307963238 107.01141228042103 L 986.1932870644939 107.12315476873529 L 986.1210749817324 107.23457639534273 L 986.0464017691874 107.34566601817353 L 985.9692748941178 107.45641252835797 L 985.8897020691469 107.56680485133734 L 985.807691251491 107.67683194797132 L 985.7232506421634 107.78648281564195 L 985.6363886851547 107.89574648935381 L 985.5471140665882 108.00461204283062 L 985.4554357138513 108.1130685896077 L 985.361362794703 108.22110528412082 L 985.2649047163569 108.32871132279051 L 985.1660711245402 108.4358759451026 L 985.0648719025298 108.54258843468413 L 984.9613171701637 108.6488381203751 L 984.8554172828289 108.75461437729548 L 984.7471828304256 108.8599066279077 L 984.6366246363089 108.96470434307447 L 984.5237537562062 109.0689970431116 L 984.4085814771115 109.17277429883598 L 984.2911193161566 109.27602573260853 L 984.1713790194598 109.37874101937192 L 984.0493725609509 109.48090988768304 L 983.9251121411742 109.58252212074024 L 983.7986101860679 109.68356755740487 L 983.6698793457224 109.78403609321748 L 983.5389324931142 109.88391768140819 L 983.4057827228196 109.98320233390143 L 983.2704433497047 110.08188012231469 L 983.1329279075939 110.17994117895135 L 982.9932501479167 110.27737569778748 L 982.851424038333 110.37417393545236 L 982.7074637613354 110.47032621220293 L 982.5613837128316 110.5658229128916 L 982.4131985007047 110.66065448792793 L 982.2629229433525 110.7548114542334 L 982.1105720682054 110.84828439618985 L 981.9561611102242 110.941063966581 L 981.7997055103758 111.03314088752711 L 981.6412209140899 111.12450595141281 L 981.480723169694 111.21515002180787 L 981.3182283268288 111.30506403438078 L 981.1537526348432 111.39423899780519 L 980.9873125411693 111.48266599465909 L 980.8189246896778 111.57033618231648 L 980.6486059190137 111.65724079383165 L 980.4763732609117 111.74337113881587 L 980.3022439384945 111.82871860430642 L 980.1262353645491 111.91327465562787 L 979.948365139786 111.99703083724555 L 979.7686510510798 112.07997877361109 L 979.5871110696895 112.16211016999999 L 979.4037633494618 112.24341681334106 L 979.2186262250161 112.32389057303769 L 979.0317182099105 112.40352340178099 L 978.8430579947908 112.48230733635444 L 978.6526644455212 112.56023449843025 L 978.4605566012981 112.63729709535714 L 978.2667536727457 112.71348742093964 L 978.0712750399954 112.78879785620869 L 977.8741402507477 112.8632208701835 L 977.675369018317 112.93674902062472 L 977.4749812196611 113.00937495477855 L 977.2729968933928 113.08109141011211 L 977.0694362377765 113.15189121503964 L 976.864319608708 113.22176728963963 L 976.6576675176792 113.29071264636286 L 976.4495006297273 113.35872039073111 L 976.2398397613674 113.42578372202661 L 976.0287058785116 113.49189593397213 L 975.8161200943723 113.55705041540155 L 975.6021036673509 113.62124065092104 L 975.3866779989115 113.68446022156053 L 975.1698646314416 113.74670280541565 L 974.9516852460971 113.80796217827987 L 974.7321616606349 113.86823221426694 L 974.5113158272306 113.92750688642352 L 974.2891698302834 113.98578026733178 L 974.0657458842079 114.04304652970217 L 973.8410663312126 114.09929994695618 L 973.6151536390654 114.15453489379898 L 973.3880303988475 114.20874584678191 L 973.1597193226934 114.26192738485484 L 972.9302432415207 114.31407418990828 L 972.6996251027459 114.36518104730519 L 972.4678879679913 114.4152428464024 L 972.2350550107767 114.46425458106174 L 972.001149514204 114.51221135015058 L 971.766194868628 114.55910835803196 L 971.5302145693174 114.6049409150442 L 971.2932322141055 114.64970443796976 L 971.0552715010303 114.69339445049368 L 970.8163562259649 114.7360065836511 L 970.5765102802377 114.77753657626423 L 970.3357576482432 114.81798027536838 L 970.0941224050442 114.85733363662739 L 969.8516287139636 114.8955927247379 L 969.6083008241684 114.93275371382298 L 969.3641630682448 114.96881288781469 L 969.119239859765 115.0037666408257 L 968.8735556908457 115.03761147750981 L 968.627135129699 115.07034401341159 L 968.3800028181757 115.10196097530469 L 968.1321834693013 115.13245920151928 L 967.8837018648036 115.16183564225817 L 967.6345828526364 115.19008735990175 L 967.3848513444933 115.21721152930179 L 967.1345323133169 115.24320543806398 L 966.8836507908017 115.26806648681908 L 966.6322318648909 115.29179218948295 L 966.3803006772675 115.31438017350509 L 966.1278824208406 115.33582818010592 L 965.8750023372252 115.35613406450264 L 965.6216857142191 115.37529579612375 L 965.3679578832734 115.39331145881205 L 965.1138442169598 115.41017925101629 L 964.8593701264332 115.42589748597129 L 964.6045610588906 115.44046459186667 L 964.3494424950263 115.45387911200397 L 964.0940399464843 115.46613970494236 L 963.8383789533062 115.47724514463276 L 963.5824850813789 115.48719432054045 L 963.3263839198758 115.49598623775614 L 963.0701010786998 115.50362001709544 L 962.8136621859215 115.51009489518677 L 962.5570928852167 115.5154102245477 L 962.3004188333011 115.51956547364975 L 962.0436656973666 115.52256022697145 L 961.7868591525123 115.52439418504 L 961.5300248791791 115.52506716446106 L 961.2731885605801 115.52457909793732 L 961.0163758801332 115.52293003427498 L 960.7596125188924 115.52012013837903 L 960.5029241529799 115.51614969123673 L 960.2463364510182 115.51101908988952 L 959.989875071564 115.50472884739318 L 959.7335656605412 115.4972795927668 L 959.4774338486776 115.48867207092958 L 959.2215052489407 115.47890714262655 L 958.9658054539774 115.4679857843424 L 958.7103600335539 115.45590908820387 L 958.4551945319996 115.4426782618705 L 958.2003344656518 115.42829462841388 L 957.945805320305 115.4127596261854 L 957.6916325486615 115.39607480867232 L 957.4378415677866 115.3782418443425 L 957.1844577565669 115.35926251647749 L 956.9315064531723 115.33913872299428 L 956.6790129525227 115.31787247625543 L 956.4270025037574 115.29546590286792 L 956.1755003077113 115.27192124347039 L 955.9245315143946 115.24724085250918 L 955.6741212204774 115.2214271980028 L 955.4242944667803 115.1944828612952 L 955.1750762357708 115.1664105367976 L 954.926491449064 115.13721303171906 L 954.6785649649314 115.10689326578573 L 954.4313215758151 115.07545427094897 L 954.1847860058477 115.04289919108203 L 953.938982908381 115.0092312816658 L 953.6939368635198 114.97445390946316 L 953.4496723756641 114.93857055218234 L 953.2062138710596 114.90158479812916 L 952.9635856953537 114.86350034584822 L 952.7218121111616 114.824321003753 L 952.4809172956404 114.78405068974506 L 952.2409253380711 114.74269343082224 L 952.0018602374491 114.70025336267598 L 951.7637459000854 114.65673472927773 L 951.5266061372154 114.61214188245454 L 951.2904646626176 114.56647928145395 L 951.0553450902428 114.51975149249802 L 950.8212709318523 114.47196318832667 L 950.5882655946667 114.42311914773052 L 950.3563523790259 114.37322425507293 L 950.1255544760578 114.32228349980157 L 949.8958949653608 114.27030197594954 L 949.6673968126942 114.21728488162587 L 949.4400828676829 114.16323751849586 L 949.2139758615322 114.10816529125074 L 948.9890984047541 114.05207370706736 L 948.7654729849071 113.9949683750574 L 948.5431219643465 113.93685500570646 L 948.3220675779894 113.87773941030305 L 948.1023319310899 113.81762750035746 L 947.8839369970299 113.75652528701059 L 947.6669046151205 113.69443888043284 L 947.4512564884194 113.63137448921314 L 947.2370141815592 113.56733841973806 L 947.0241991185923 113.5023370755612 L 946.8128325808474 113.43637695676277 L 946.6029357048023 113.36946465929971 L 946.3945294799698 113.301606874346 L 946.1876347467986 113.2328103876236 L 945.9822721945895 113.16308207872383 L 945.7784623594267 113.0924289204195 L 945.576225622124 113.02085797796754 L 945.3755822061863 112.94837640840255 L 945.1765521757882 112.8749914598211 L 944.9791554337669 112.8007104706569 L 944.7834117196319 112.72554086894695 L 944.5893406075918 112.64949017158878 L 944.3969615045958 112.57256598358876 L 944.206293648394 112.49477599730159 L 944.0173561056131 112.41612799166106 L 943.83016776985 112.3366298314022 L 943.6447473597823 112.2562894662748 L 943.4611134172964 112.1751149302484 L 943.2792843056335 112.09311434070896 L 943.0992782075534 112.01029589764713 L 942.9211131235157 111.92666788283817 L 942.7448068698804 111.84223865901389 L 942.5703770771262 111.7570166690263 L 942.3978411880865 111.67101043500338 L 942.227216456207 111.58422855749687 L 942.0585199438183 111.4966797146222 L 941.8917685204311 111.40837266119071 L 941.7269788610489 111.31931622783415 L 941.5641674445003 111.22951932012163 L 941.4033505517913 111.13899091766909 L 941.244544264477 111.04774007324134 L 941.087764463054 110.9557759118468 L 940.9330268253716 110.86310762982494 L 940.7803468250648 110.76974449392677 L 940.6297397300063 110.67569584038806 L 940.48122060078 110.58097107399578 L 940.3348042891754 110.48557966714766 L 940.1905054367013 110.38953115890487 L 940.0483384731227 110.2928351540382 L 939.9083176150177 110.19550132206757 L 939.7704568643554 110.09753939629505 L 939.6347700070959 109.99895917283158 L 939.5012706118118 109.89977050961737 L 939.3699720283314 109.79998332543607 L 939.2408873864038 109.69960759892295 L 939.1140295943854 109.59865336756702 L 938.9894113379498 109.4971307267073 L 938.8670450788189 109.39504982852324 L 938.7469430535165 109.29242088101961 L 938.629117272145 109.18925414700563 L 938.5135795171843 109.08555994306874 L 938.4003413423139 108.98134863854291 L 938.2894140712568 108.87663065447177 L 938.1808087966475 108.77141646256644 L 938.0745363789232 108.66571658415843 L 937.9706074452369 108.55954158914753 L 937.8690323883955 108.45290209494473 L 937.76982136582 108.3458087654106 L 937.6729842985299 108.23827230978884 L 937.5785308701513 108.1303034816354 L 937.4864705259484 108.02191307774314 L 937.3968124718789 107.9131119370621 L 937.3095656736733 107.80391093961568 L 937.224738855939 107.69432100541265 L 937.1423405012868 107.58435309335508 L 937.0623788494836 107.47401820014255 L 936.9848618966281 107.36332735917243 L 936.9097973943508 107.25229163943658 L 936.8371928490394 107.14092214441445 L 936.7670555210881 107.0292300109627 L 936.6993924241709 106.91722640820164 L 936.6342103245415 106.80492253639821 L 936.5715157403553 106.69232962584596 L 936.5113149410186 106.57945893574217 L 936.453613946561 106.46632175306175 L 936.398418527034 106.35292939142872 L 936.3457342019335 106.23929318998472 L 936.2955662396482 106.12542451225522 L 936.2479196569324 106.0113347450131 L 936.2027992184047 105.89703529714001 L 936.1602094360715 105.78253759848548 L 936.1201545688753 105.66785309872397 L 936.0826386222695 105.55299326620987 L 936.0476653478177 105.43796958683073 L 936.0152382428179 105.32279356285864 L 935.9853605499537 105.2074767118 L 935.9580352569697 105.09203056524383 L 935.9332650963721 104.97646666770858 L 935.9110525451565 104.8607965754877 L 935.8913998245596 104.74503185549402 L 935.8743088998368 104.62918408410306 L 935.8597814800665 104.51326484599544 L 935.8478190179786 104.39728573299836 L 935.8384227098093 104.28125834292646 L 935.8315934951816 104.16519427842208 L 935.8273320570112 104.04910514579494 L 935.8256388214384 103.93300255386156" stroke-miterlimit="10" stroke-width="2.990598758" stroke-dasharray=""/></g><g><g/><text fill="black" stroke="none" font-family="sans-serif" font-size="11pt" font-style="normal" font-weight="normal" text-decoration="normal" x="951.3270311576172" y="134.401026536" text-anchor="start" dominant-baseline="alphabetic" xml:space="preserve">DB</text></g></g><g><path fill="white" stroke="black" paint-order="fill stroke markers" d=" M 246.54834199615885 197.73135317599997 L 264.14009939615886 197.73135317599997 L 264.14009939615886 246.98827389599995 L 246.54834199615885 246.98827389599995 L 246.54834199615885 197.73135317599997" stroke-miterlimit="10" stroke-width="1.4659797833333332" stroke-dasharray=""/><path fill="white" stroke="black" paint-order="fill stroke markers" d=" M 246.54834199615885 296.24519461599994 L 264.14009939615886 296.24519461599994 L 264.14009939615886 862.6997828960001 L 246.54834199615885 862.6997828960001 L 246.54834199615885 296.24519461599994" stroke-miterlimit="10" stroke-width="1.4659797833333332" stroke-dasharray=""/><path fill="white" stroke="black" paint-order="fill stroke markers" d=" M 419.72721845403646 345.5021153359999 L 437.31897585403647 345.5021153359999 L 437.31897585403647 813.4428621760001 L 419.72721845403646 813.4428621760001 L 419.72721845403646 345.5021153359999" stroke-miterlimit="10" stroke-width="1.4659797833333332" stroke-dasharray=""/><path fill="white" stroke="black" paint-order="fill stroke markers" d=" M 680.2145818503907 394.7590360559999 L 697.8063392503907 394.7590360559999 L 697.8063392503907 764.185941456 L 680.2145818503907 764.185941456 L 680.2145818503907 394.7590360559999" stroke-miterlimit="10" stroke-width="1.4659797833333332" stroke-dasharray=""/><path fill="white" stroke="black" paint-order="fill stroke markers" d=" M 830.0720166578776 540.7706224759999 L 847.6637740578776 540.7706224759999 L 847.6637740578776 688.541384636 L 830.0720166578776 688.541384636 L 830.0720166578776 540.7706224759999" stroke-miterlimit="10" stroke-width="1.4659797833333332" stroke-dasharray=""/><g><g><rect fill="white" stroke="none" x="95.85114916727865" y="174.86206855599997" width="128.82803381179687" height="22.86928462"/></g><text fill="black" stroke="none" font-family="sans-serif" font-size="11pt" font-style="normal" font-weight="normal" text-decoration="normal" x="98.48991277727865" y="190.69465021599999" text-anchor="start" dominant-baseline="alphabetic" xml:space="preserve">mouseDown(pos)</text></g><g><path fill="none" stroke="black" paint-order="fill stroke markers" d=" M 73.98199015019532 197.73135317599997 L 232.06446173682554 197.73135317599997" stroke-miterlimit="10" stroke-width="1.4659797833333332" stroke-dasharray=""/><g transform="translate(246.54834199615885,197.73135317599997) translate(-246.54834199615885,-197.73135317599997)"><path fill="black" stroke="none" paint-order="stroke fill markers" d=" M 231.88854416282553 190.4014542593333 L 246.54834199615885 197.73135317599997 L 231.88854416282553 205.06125209266665 Z"/></g></g><g><g><rect fill="white" stroke="none" x="157.62640246317707" y="224.11898927599995" width="5.27752722" height="22.86928462"/></g><text fill="black" stroke="none" font-family="sans-serif" font-size="11pt" font-style="normal" font-weight="normal" text-decoration="normal" x="160.26516607317708" y="239.95157093599997" text-anchor="start" dominant-baseline="alphabetic" xml:space="preserve"></text></g><g><path fill="none" stroke="black" paint-order="fill stroke markers" d=" M 246.54834199615885 246.98827389599995 L 88.46587040952865 246.98827389599995" stroke-miterlimit="10" stroke-width="1.4659797833333332" stroke-dasharray="7.0367029599999995"/><g transform="translate(73.98199015019532,246.98827389599995) translate(-73.98199015019532,-246.98827389599995)"><path fill="black" stroke="none" paint-order="stroke fill markers" d=" M 88.64178798352864 239.65837497933327 L 73.98199015019532 246.98827389599995 L 88.64178798352864 254.31817281266663 Z"/></g></g><g><g><rect fill="white" stroke="none" x="94.79890307352865" y="273.37590999599996" width="130.93252599929687" height="22.86928462"/></g><text fill="black" stroke="none" font-family="sans-serif" font-size="11pt" font-style="normal" font-weight="normal" text-decoration="normal" x="97.43766668352865" y="289.208491656" text-anchor="start" dominant-baseline="alphabetic" xml:space="preserve">selectWeek(week)</text></g><g><path fill="none" stroke="black" paint-order="fill stroke markers" d=" M 73.98199015019532 296.24519461599994 L 232.06446173682554 296.24519461599994" stroke-miterlimit="10" stroke-width="1.4659797833333332" stroke-dasharray=""/><g transform="translate(246.54834199615885,296.24519461599994) translate(-246.54834199615885,-296.24519461599994)"><path fill="black" stroke="none" paint-order="stroke fill markers" d=" M 231.88854416282553 288.9152956993333 L 246.54834199615885 296.24519461599994 L 231.88854416282553 303.5750935326666 Z"/></g></g><g><g><rect fill="white" stroke="none" x="284.9570123194922" y="322.63283071599994" width="113.95329321121093" height="22.86928462"/></g><text fill="black" stroke="none" font-family="sans-serif" font-size="11pt" font-style="normal" font-weight="normal" text-decoration="normal" x="287.5957759294922" y="338.46541237599996" text-anchor="start" dominant-baseline="alphabetic" xml:space="preserve">getWeek(week)</text></g><g><path fill="none" stroke="black" paint-order="fill stroke markers" d=" M 264.14009939615886 345.5021153359999 L 405.24333819470314 345.5021153359999" stroke-miterlimit="10" stroke-width="1.4659797833333332" stroke-dasharray=""/><g transform="translate(419.72721845403646,345.5021153359999) translate(-419.72721845403646,-345.5021153359999)"><path fill="black" stroke="none" paint-order="stroke fill markers" d=" M 405.0674206207031 338.17221641933327 L 419.72721845403646 345.5021153359999 L 405.0674206207031 352.83201425266657 Z"/></g></g><g><g><rect fill="white" stroke="none" x="489.0986497026627" y="371.8897514359999" width="139.33625829910156" height="22.86928462"/></g><text fill="black" stroke="none" font-family="sans-serif" font-size="11pt" font-style="normal" font-weight="normal" text-decoration="normal" x="491.73741331266274" y="387.72233309599994" text-anchor="start" dominant-baseline="alphabetic" xml:space="preserve">getBookings(week)</text></g><g><path fill="none" stroke="black" paint-order="fill stroke markers" d=" M 437.31897585403647 394.7590360559999 L 665.7307015910574 394.7590360559999" stroke-miterlimit="10" stroke-width="1.4659797833333332" stroke-dasharray=""/><g transform="translate(680.2145818503907,394.7590360559999) translate(-680.2145818503907,-394.7590360559999)"><path fill="black" stroke="none" paint-order="stroke fill markers" d=" M 665.5547840170574 387.42913713933325 L 680.2145818503907 394.7590360559999 L 665.5547840170574 402.08893497266655 Z"/></g></g><g><g><rect fill="white" stroke="none" x="736.6290705808204" y="421.1466721559999" width="186.05777013992187" height="22.86928462"/></g><text fill="black" stroke="none" font-family="sans-serif" font-size="11pt" font-style="normal" font-weight="normal" text-decoration="normal" x="739.2678341908204" y="436.9792538159999" text-anchor="start" dominant-baseline="alphabetic" xml:space="preserve">executeQuery(sql : String)</text></g><g><path fill="none" stroke="black" paint-order="fill stroke markers" d=" M 697.8063392503907 444.0159567759999 L 947.0256917918385 444.0159567759999" stroke-miterlimit="10" stroke-width="1.4659797833333332" stroke-dasharray=""/><g transform="translate(961.5095720511719,444.0159567759999) translate(-961.5095720511719,-444.0159567759999)"><path fill="black" stroke="none" paint-order="stroke fill markers" d=" M 946.8497742178386 436.68605785933323 L 961.5095720511719 444.0159567759999 L 946.8497742178386 451.34585569266653 Z"/></g></g><g><g><rect fill="white" stroke="none" x="727.6461479867123" y="517.9013378559998" width="72.58605993484375" height="22.86928462"/></g><text fill="black" stroke="none" font-family="sans-serif" font-size="11pt" font-style="normal" font-weight="normal" text-decoration="normal" x="730.2849115967123" y="533.7339195159998" text-anchor="start" dominant-baseline="alphabetic" xml:space="preserve">getTime()</text></g><g><path fill="none" stroke="black" paint-order="fill stroke markers" d=" M 697.8063392503907 540.7706224759999 L 815.5881363985443 540.7706224759999" stroke-miterlimit="10" stroke-width="1.4659797833333332" stroke-dasharray=""/><g transform="translate(830.0720166578776,540.7706224759999) translate(-830.0720166578776,-540.7706224759999)"><path fill="black" stroke="none" paint-order="stroke fill markers" d=" M 815.4122188245443 533.4407235593332 L 830.0720166578776 540.7706224759999 L 815.4122188245443 548.1005213926666 Z"/></g></g><g><g><rect fill="white" stroke="none" x="721.9017098153256" y="567.1582585759999" width="84.07493627761718" height="22.86928462"/></g><text fill="black" stroke="none" font-family="sans-serif" font-size="11pt" font-style="normal" font-weight="normal" text-decoration="normal" x="724.5404734253256" y="582.9908402359998" text-anchor="start" dominant-baseline="alphabetic" xml:space="preserve">return time</text></g><g><path fill="none" stroke="black" paint-order="fill stroke markers" d=" M 830.0720166578776 590.0275431959999 L 712.290219509724 590.0275431959999" stroke-miterlimit="10" stroke-width="1.4659797833333332" stroke-dasharray="7.0367029599999995"/><g transform="translate(697.8063392503907,590.0275431959999) translate(-697.8063392503907,-590.0275431959999)"><path fill="black" stroke="none" paint-order="stroke fill markers" d=" M 712.466137083724 582.6976442793332 L 697.8063392503907 590.0275431959999 L 712.466137083724 597.3574421126666 Z"/></g></g><g><g><rect fill="white" stroke="none" x="723.8522942269467" y="616.4151792959999" width="80.173767454375" height="22.86928462"/></g><text fill="black" stroke="none" font-family="sans-serif" font-size="11pt" font-style="normal" font-weight="normal" text-decoration="normal" x="726.4910578369467" y="632.2477609559999" text-anchor="start" dominant-baseline="alphabetic" xml:space="preserve">getRoom()</text></g><g><path fill="none" stroke="black" paint-order="fill stroke markers" d=" M 697.8063392503907 639.2844639159999 L 815.5881363985443 639.2844639159999" stroke-miterlimit="10" stroke-width="1.4659797833333332" stroke-dasharray=""/><g transform="translate(830.0720166578776,639.2844639159999) translate(-830.0720166578776,-639.2844639159999)"><path fill="black" stroke="none" paint-order="stroke fill markers" d=" M 815.4122188245443 631.9545649993332 L 830.0720166578776 639.2844639159999 L 815.4122188245443 646.6143628326666 Z"/></g></g><g><g><rect fill="white" stroke="none" x="718.623252173724" y="665.672100016" width="90.63185156082031" height="22.86928462"/></g><text fill="black" stroke="none" font-family="sans-serif" font-size="11pt" font-style="normal" font-weight="normal" text-decoration="normal" x="721.262015783724" y="681.5046816759999" text-anchor="start" dominant-baseline="alphabetic" xml:space="preserve">return room</text></g><g><path fill="none" stroke="black" paint-order="fill stroke markers" d=" M 830.0720166578776 688.541384636 L 712.290219509724 688.541384636" stroke-miterlimit="10" stroke-width="1.4659797833333332" stroke-dasharray="7.0367029599999995"/><g transform="translate(697.8063392503907,688.541384636) translate(-697.8063392503907,-688.541384636)"><path fill="black" stroke="none" paint-order="stroke fill markers" d=" M 712.466137083724 681.2114857193333 L 697.8063392503907 688.541384636 L 712.466137083724 695.8712835526667 Z"/></g></g><g><g><rect fill="white" stroke="none" x="458.13588877736976" y="741.316656836" width="201.2617801496875" height="22.86928462"/></g><text fill="black" stroke="none" font-family="sans-serif" font-size="11pt" font-style="normal" font-weight="normal" text-decoration="normal" x="460.77465238736977" y="757.149238496" text-anchor="start" dominant-baseline="alphabetic" xml:space="preserve">return bookings(time room)</text></g><g><path fill="none" stroke="black" paint-order="fill stroke markers" d=" M 680.2145818503907 764.185941456 L 451.8028561133698 764.185941456" stroke-miterlimit="10" stroke-width="1.4659797833333332" stroke-dasharray="7.0367029599999995"/><g transform="translate(437.31897585403647,764.185941456) translate(-437.31897585403647,-764.185941456)"><path fill="black" stroke="none" paint-order="stroke fill markers" d=" M 451.9787736873698 756.8560425393333 L 437.31897585403647 764.185941456 L 451.9787736873698 771.5158403726667 Z"/></g></g><g><g><rect fill="white" stroke="none" x="309.5704843043555" y="790.573577556" width="64.72634924148437" height="22.86928462"/></g><text fill="black" stroke="none" font-family="sans-serif" font-size="11pt" font-style="normal" font-weight="normal" text-decoration="normal" x="312.2092479143555" y="806.406159216" text-anchor="start" dominant-baseline="alphabetic" xml:space="preserve">update()</text></g><g><path fill="none" stroke="black" paint-order="fill stroke markers" d=" M 419.72721845403646 813.4428621760001 L 278.6239796554922 813.4428621760001" stroke-miterlimit="10" stroke-width="1.4659797833333332" stroke-dasharray=""/><g transform="translate(264.14009939615886,813.4428621760001) translate(-264.14009939615886,-813.4428621760001)"><path fill="black" stroke="none" paint-order="stroke fill markers" d=" M 278.7998972294922 806.1129632593334 L 264.14009939615886 813.4428621760001 L 278.7998972294922 820.7727610926668 Z"/></g></g><g><g><rect fill="white" stroke="none" x="108.36727007792318" y="839.8304982760001" width="103.79579199050781" height="22.86928462"/></g><text fill="black" stroke="none" font-family="sans-serif" font-size="11pt" font-style="normal" font-weight="normal" text-decoration="normal" x="111.00603368792318" y="855.663079936" text-anchor="start" dominant-baseline="alphabetic" xml:space="preserve">displayWeek()</text></g><g><path fill="none" stroke="black" paint-order="fill stroke markers" d=" M 246.54834199615885 862.6997828960001 L 88.46587040952865 862.6997828960001" stroke-miterlimit="10" stroke-width="1.4659797833333332" stroke-dasharray=""/><g transform="translate(73.98199015019532,862.6997828960001) translate(-73.98199015019532,-862.6997828960001)"><path fill="black" stroke="none" paint-order="stroke fill markers" d=" M 88.64178798352864 855.3698839793334 L 73.98199015019532 862.6997828960001 L 88.64178798352864 870.0296818126668 Z"/></g></g><g><g/><path fill="none" stroke="black" paint-order="fill stroke markers" d=" M 618.6434309503907 470.4035928759999 L 900.4390462578776 470.4035928759999 L 900.4390462578776 714.929020736 L 618.6434309503907 714.929020736 L 618.6434309503907 470.4035928759999 Z" stroke-miterlimit="10" stroke-width="2.5131082" stroke-dasharray=""/><path fill="white" stroke="black" paint-order="fill stroke markers" d=" M 618.6434309503907 470.4035928759999 L 618.6434309503907 491.5137017559999 L 680.5287127181641 491.5137017559999 L 691.0837671581642 480.9586473159999 L 691.0837671581642 470.4035928759999 L 618.6434309503907 470.4035928759999" stroke-miterlimit="10" stroke-width="2.5131082" stroke-dasharray=""/><text fill="black" stroke="none" font-family="sans-serif" font-size="8.8pt" font-style="normal" font-weight="bold" text-decoration="normal" x="636.2351883503907" y="484.47699879599986" text-anchor="start" dominant-baseline="alphabetic" xml:space="preserve">loop</text></g></g><g/><g/><g/><g/><g/><g/></g></svg>